<?xml version="1.0" encoding="UTF-8" standalone="no"?>
<svg
   width="358.68301"
   height="59.066799"
   viewBox="0 0 358.68301 59.066799"
   version="1.1"
   xml:space="preserve"
   style="clip-rule:evenodd;fill-rule:evenodd;stroke-linecap:round;stroke-linejoin:round"
   id="svg347"
   xmlns="http://www.w3.org/2000/svg"
   xmlns:svg="http://www.w3.org/2000/svg"><defs
   id="defs351" />
    <g
   transform="translate(0.001,41.980399)"
   id="g4">
        <g
   id="g6">
            <rect
   id="rect4"
   x="300.45599"
   y="-0.498"
   width="9.7449999"
   height="0.99599999" />
        </g>
    </g>
    <g
   transform="translate(0.001,41.980399)"
   id="g8">
        <g
   id="g10">
            <rect
   id="rect8"
   x="261.78799"
   y="-0.498"
   width="9.7449999"
   height="0.99599999" />
        </g>
    </g>
    <g
   transform="translate(0.001,36.998999)"
   id="g12">
        <g
   id="g14">
            <path
   id="line12"
   d="M 0.249,0 H 358.432"
   style="fill:none;fill-rule:nonzero;stroke:#000000;stroke-width:0.5px" />
        </g>
    </g>
    <g
   transform="translate(0.001,32.017699)"
   id="g16">
        <g
   id="g18">
            <path
   id="line16"
   d="M 0.249,0 H 358.432"
   style="fill:none;fill-rule:nonzero;stroke:#000000;stroke-width:0.5px" />
        </g>
    </g>
    <g
   transform="translate(0.001,27.036399)"
   id="g20">
        <g
   id="g22">
            <path
   id="line20"
   d="M 0.249,0 H 358.432"
   style="fill:none;fill-rule:nonzero;stroke:#000000;stroke-width:0.5px" />
        </g>
    </g>
    <g
   transform="translate(0.001,22.055099)"
   id="g24">
        <g
   id="g26">
            <path
   id="line24"
   d="M 0.249,0 H 358.432"
   style="fill:none;fill-rule:nonzero;stroke:#000000;stroke-width:0.5px" />
        </g>
    </g>
    <g
   transform="translate(0.001,17.073799)"
   id="g28">
        <g
   id="g30">
            <path
   id="line28"
   d="M 0.249,0 H 358.432"
   style="fill:none;fill-rule:nonzero;stroke:#000000;stroke-width:0.5px" />
        </g>
    </g>
    <g
   id="a36"
   transform="translate(0.001,-0.78800085)">
    </g>
    <g
   transform="matrix(0.00523346,0,0,-0.00523346,28.9212,24.483899)"
   id="g34">
        <g
   id="a42">
            <g
   id="g40">
                <path
   id="path38"
   d="m 1085.93,677.459 c 328.76,0 537.98,-179.327 537.98,-443.337 0,-443.337 -562.89,-911.581 -1085.927,-911.581 C 209.215,-677.459 0,-498.132 0,-234.122 0,209.215 562.889,677.459 1085.93,677.459 Z"
   style="fill-rule:nonzero" />
            </g>
        </g>
    </g>
    <g
   transform="matrix(0.004,0,0,-0.004,3.98606,32.017699)"
   id="g38">
        <g
   id="g46">
            <path
   id="path44"
   d="m 1325.03,-3163.14 h -29.89 c -537.979,0 -971.354,438.36 -971.354,981.32 0,288.92 264.01,513.08 557.908,513.08 268.986,0 473.226,-234.12 473.226,-513.08 0,-259.03 -214.2,-473.22 -473.226,-473.22 -54.795,0 -104.608,9.96 -154.421,29.88 129.514,-194.27 338.727,-323.78 582.817,-323.78 h 19.92 z m 971.36,2151.93 c 338.73,119.554 562.89,448.321 562.89,816.939 0,448.318 -328.77,891.656 -861.77,946.45 94.64,-443.337 239.1,-1205.479 298.88,-1763.389 z M 368.618,139.477 c 0,-722.291 702.362,-1230.387 1315.072,-1230.387 4.98,0 234.12,0 408.46,29.89 -34.87,318.803 -144.45,1011.207 -313.82,1813.199 -393.52,-39.85 -617.68,-303.86 -617.68,-592.777 0,-219.178 124.53,-453.3 403.48,-612.702 24.91,-24.907 34.87,-49.813 34.87,-74.72 0,-54.794 -49.81,-109.589 -109.59,-109.589 -74.72,0 -627.642,308.842 -627.642,931.507 0,438.356 288.912,866.752 797.012,981.322 -69.74,288.91 -144.46,582.81 -229.14,871.73 C 896.638,1544.21 368.618,936.488 368.618,139.477 Z M 1245.33,2754.67 c -144.46,478.21 -259.029,846.82 -259.029,1723.54 0,572.85 273.969,1115.81 742.219,1454.54 29.89,24.91 69.74,24.91 99.62,0 338.73,-398.5 662.52,-1220.42 662.52,-1783.31 0,-712.33 -428.39,-1270.24 -896.64,-1813.2 104.61,-338.73 194.27,-687.42 278.96,-1031.13 9.96,0 34.87,4.98 64.75,4.98 772.11,0 1275.22,-637.612 1275.22,-1300.127 0,-562.889 -368.62,-1056.043 -896.64,-1225.403 14.95,-174.35 24.91,-348.69 24.91,-523.04 0,-94.65 -4.98,-194.27 -9.96,-288.92 -34.87,-592.77 -438.36,-1120.79 -1006.23,-1135.74 l 4.98,214.2 c 463.27,9.96 762.14,458.28 792.03,951.43 4.98,89.66 9.97,184.31 9.97,273.97 0,154.42 -4.99,303.86 -19.93,458.28 -24.91,-4.98 -219.18,-39.85 -443.34,-39.85 -961.393,0 -1658.777,896.642 -1658.777,1863.018 0,881.692 652.553,1524.282 1235.367,2196.762 z m 886.68,1808.22 c 0,169.36 4.98,328.77 -99.63,642.59 -493.15,-239.1 -806.98,-742.22 -806.98,-1290.16 0,-259.03 59.78,-572.85 179.33,-966.38 398.51,483.19 727.28,986.3 727.28,1613.95 z"
   style="fill-rule:nonzero" />
        </g>
    </g>
    <g
   transform="translate(29.2164,27.036399)"
   id="g42">
        <g
   id="g50">
            <rect
   id="rect48"
   x="-0.324"
   y="-1.564"
   width="0.648"
   height="27.417" />
        </g>
    </g>
    <g
   transform="translate(228.481,49.800999)"
   id="g47">
        <g
   id="g54">
            <path
   id="polygon52"
   d="M 0.199,0.996 V -0.996 H 86.523 V 0.996 Z"
   style="fill-rule:nonzero;stroke:#000000;stroke-width:0.4px" />
        </g>
    </g>
    <g
   transform="translate(228.481,53.835899)"
   id="g51">
        <g
   id="g58">
            <path
   id="polygon56"
   d="M 0.199,0.996 V -0.996 H 86.523 V 0.996 Z"
   style="fill-rule:nonzero;stroke:#000000;stroke-width:0.4px" />
        </g>
    </g>
    <g
   transform="translate(228.481,57.870799)"
   id="g55">
        <g
   id="g62">
            <path
   id="polygon60"
   d="M 0.199,0.996 V -0.996 H 86.523 V 0.996 Z"
   style="fill-rule:nonzero;stroke:#000000;stroke-width:0.4px" />
        </g>
    </g>
    <g
   transform="translate(128.687,47.908099)"
   id="g59">
        <g
   id="g66">
            <path
   id="polygon64"
   d="M 0.199,0.996 V -0.996 H 86.523 V 0.996 Z"
   style="fill-rule:nonzero;stroke:#000000;stroke-width:0.4px" />
        </g>
    </g>
    <g
   transform="translate(128.687,51.942999)"
   id="g63">
        <g
   id="g70">
            <path
   id="polygon68"
   d="M 0.199,0.996 V -0.996 H 86.523 V 0.996 Z"
   style="fill-rule:nonzero;stroke:#000000;stroke-width:0.4px" />
        </g>
    </g>
    <g
   transform="translate(128.687,55.977899)"
   id="g67">
        <g
   id="g74">
            <path
   id="polygon72"
   d="M 0.199,0.996 V -0.996 H 86.523 V 0.996 Z"
   style="fill-rule:nonzero;stroke:#000000;stroke-width:0.4px" />
        </g>
    </g>
    <g
   transform="matrix(1.30837,0,0,1.30837,36.9975,27.742599)"
   id="g71">
        <g
   id="g78">
            <rect
   id="rect76"
   x="-0.324"
   y="-18.264999"
   width="0.648"
   height="14.847" />
        </g>
    </g>
    <g
   transform="translate(28.8927,44.819699)"
   id="g75">
        <g
   id="g82">
            <path
   id="polygon80"
   d="M 0.199,0.996 V -0.996 H 86.523 V 0.996 Z"
   style="fill-rule:nonzero;stroke:#000000;stroke-width:0.4px" />
        </g>
    </g>
    <g
   transform="translate(28.8927,48.854599)"
   id="g79">
        <g
   id="g86">
            <path
   id="polygon84"
   d="M 0.199,0.996 V -0.996 H 86.523 V 0.996 Z"
   style="fill-rule:nonzero;stroke:#000000;stroke-width:0.4px" />
        </g>
    </g>
    <g
   transform="translate(28.8927,52.889499)"
   id="g83">
        <g
   id="g90">
            <path
   id="polygon88"
   d="M 0.199,0.996 V -0.996 H 86.523 V 0.996 Z"
   style="fill-rule:nonzero;stroke:#000000;stroke-width:0.4px" />
        </g>
    </g>
    <g
   transform="matrix(0.004,0,0,-0.004,40.1215,29.527099)"
   id="g88">
        <g
   id="a96">
            <g
   id="g94">
                <path
   id="path92"
   d="m 1085.93,677.459 c 328.76,0 537.98,-179.327 537.98,-443.337 0,-443.337 -562.89,-911.581 -1085.927,-911.581 C 209.215,-677.459 0,-498.132 0,-234.122 0,209.215 562.889,677.459 1085.93,677.459 Z"
   style="fill-rule:nonzero" />
            </g>
        </g>
    </g>
    <g
   transform="translate(40.4453,27.036399)"
   id="g92">
        <g
   id="g100">
            <rect
   id="rect98"
   x="-0.324"
   y="3.418"
   width="0.648"
   height="22.434999" />
        </g>
    </g>
    <g
   transform="matrix(0.004,0,0,-0.004,51.3504,34.508399)"
   id="g97">
        <g
   id="a106">
            <g
   id="g104">
                <path
   id="path102"
   d="m 1085.93,677.459 c 328.76,0 537.98,-179.327 537.98,-443.337 0,-443.337 -562.89,-911.581 -1085.927,-911.581 C 209.215,-677.459 0,-498.132 0,-234.122 0,209.215 562.889,677.459 1085.93,677.459 Z"
   style="fill-rule:nonzero" />
            </g>
        </g>
    </g>
    <g
   transform="translate(51.6742,27.036399)"
   id="g101">
        <g
   id="g110">
            <rect
   id="rect108"
   x="-0.324"
   y="8.3990002"
   width="0.648"
   height="17.454" />
        </g>
    </g>
    <g
   transform="matrix(0.004,0,0,-0.004,63.8247,36.998999)"
   id="g106">
        <g
   id="a116">
            <g
   id="g114">
                <path
   id="path112"
   d="m 1085.93,677.459 c 328.76,0 537.98,-179.327 537.98,-443.337 0,-443.337 -562.89,-911.581 -1085.927,-911.581 C 209.215,-677.459 0,-498.132 0,-234.122 0,209.215 562.889,677.459 1085.93,677.459 Z"
   style="fill-rule:nonzero" />
            </g>
        </g>
    </g>
    <g
   transform="translate(64.1484,27.036399)"
   id="g111">
        <g
   id="g120">
            <rect
   id="rect118"
   x="-0.324"
   y="10.89"
   width="0.648"
   height="14.963" />
        </g>
    </g>
    <g
   transform="matrix(0.004,0,0,-0.004,77.5447,32.017699)"
   id="g116">
        <g
   id="a126">
            <g
   id="g124">
                <path
   id="path122"
   d="m 1085.93,677.459 c 328.76,0 537.98,-179.327 537.98,-443.337 0,-443.337 -562.89,-911.581 -1085.927,-911.581 C 209.215,-677.459 0,-498.132 0,-234.122 0,209.215 562.889,677.459 1085.93,677.459 Z"
   style="fill-rule:nonzero" />
            </g>
        </g>
    </g>
    <g
   transform="translate(77.8685,27.036399)"
   id="g121">
        <g
   id="g130">
            <rect
   id="rect128"
   x="-0.324"
   y="5.908"
   width="0.648"
   height="19.945" />
        </g>
    </g>
    <g
   transform="matrix(0.004,0,0,-0.004,90.0189,34.508399)"
   id="g126">
        <g
   id="a136">
            <g
   id="g134">
                <path
   id="path132"
   d="m 1085.93,677.459 c 328.76,0 537.98,-179.327 537.98,-443.337 0,-443.337 -562.89,-911.581 -1085.927,-911.581 C 209.215,-677.459 0,-498.132 0,-234.122 0,209.215 562.889,677.459 1085.93,677.459 Z"
   style="fill-rule:nonzero" />
            </g>
        </g>
    </g>
    <g
   transform="translate(90.3427,27.036399)"
   id="g131">
        <g
   id="g140">
            <rect
   id="rect138"
   x="-0.324"
   y="8.3990002"
   width="0.648"
   height="17.454" />
        </g>
    </g>
    <g
   transform="matrix(0.004,0,0,-0.004,102.493,36.998999)"
   id="g136">
        <g
   id="a146">
            <g
   id="g144">
                <path
   id="path142"
   d="m 1085.93,677.459 c 328.76,0 537.98,-179.327 537.98,-443.337 0,-443.337 -562.89,-911.581 -1085.927,-911.581 C 209.215,-677.459 0,-498.132 0,-234.122 0,209.215 562.889,677.459 1085.93,677.459 Z"
   style="fill-rule:nonzero" />
            </g>
        </g>
    </g>
    <g
   transform="translate(102.817,27.036399)"
   id="g141">
        <g
   id="g150">
            <rect
   id="rect148"
   x="-0.324"
   y="10.89"
   width="0.648"
   height="14.963" />
        </g>
    </g>
    <g
   transform="matrix(0.004,0,0,-0.004,114.967,34.508399)"
   id="g146">
        <g
   id="a156">
            <g
   id="g154">
                <path
   id="path152"
   d="m 1085.93,677.459 c 328.76,0 537.98,-179.327 537.98,-443.337 0,-443.337 -562.89,-911.581 -1085.927,-911.581 C 209.215,-677.459 0,-498.132 0,-234.122 0,209.215 562.889,677.459 1085.93,677.459 Z"
   style="fill-rule:nonzero" />
            </g>
        </g>
    </g>
    <g
   transform="translate(115.291,27.036399)"
   id="g151">
        <g
   id="g160">
            <rect
   id="rect158"
   x="-0.324"
   y="8.3990002"
   width="0.648"
   height="17.454" />
        </g>
    </g>
    <g
   id="a166"
   transform="translate(0.001,-0.78800085)">
    </g>
    <g
   transform="translate(-113.383,-78.974201)"
   id="g165">
        <g
   id="a172">
            <g
   id="g162">
                <g
   transform="matrix(0.00523346,0,0,-0.00523346,242.072,105.619)"
   id="g156">
                    <g
   id="g170">
                        <path
   id="path168"
   d="m 1085.93,677.459 c 328.76,0 537.98,-179.327 537.98,-443.337 0,-443.337 -562.89,-911.581 -1085.927,-911.581 C 209.215,-677.459 0,-498.132 0,-234.122 0,209.215 562.889,677.459 1085.93,677.459 Z"
   style="fill-rule:nonzero" />
                    </g>
                </g>
                <g
   id="rect178"
   transform="matrix(1.30837,0,0,1.28246,250.148,105.595)">
                    <rect
   x="-0.324"
   y="-16.604"
   width="0.648"
   height="15.677"
   id="rect159" />
                </g>
            </g>
        </g>
    </g>
    <g
   transform="translate(129.011,27.036399)"
   id="g169">
        <g
   id="g176">
            <rect
   id="rect174"
   x="-0.324"
   y="0.92699999"
   width="0.648"
   height="28.014" />
        </g>
    </g>
    <g
   id="g180"
   transform="translate(0.001,-0.78800085)">
    </g>
    <g
   transform="matrix(0.004,0,0,-0.004,139.916,32.017699)"
   id="g175">
        <g
   id="a186">
            <g
   id="g184">
                <path
   id="path182"
   d="m 1085.93,677.459 c 328.76,0 537.98,-179.327 537.98,-443.337 0,-443.337 -562.89,-911.581 -1085.927,-911.581 C 209.215,-677.459 0,-498.132 0,-234.122 0,209.215 562.889,677.459 1085.93,677.459 Z"
   style="fill-rule:nonzero" />
            </g>
        </g>
    </g>
    <g
   transform="translate(140.24,27.036399)"
   id="g179">
        <g
   id="g190">
            <rect
   id="rect188"
   x="-0.324"
   y="5.908"
   width="0.648"
   height="23.033001" />
        </g>
    </g>
    <g
   transform="matrix(0.004,0,0,-0.004,151.145,36.998999)"
   id="g185">
        <g
   id="a196">
            <g
   id="g194">
                <path
   id="path192"
   d="m 1085.93,677.459 c 328.76,0 537.98,-179.327 537.98,-443.337 0,-443.337 -562.89,-911.581 -1085.927,-911.581 C 209.215,-677.459 0,-498.132 0,-234.122 0,209.215 562.889,677.459 1085.93,677.459 Z"
   style="fill-rule:nonzero" />
            </g>
        </g>
    </g>
    <g
   transform="translate(151.468,27.036399)"
   id="g189">
        <g
   id="g200">
            <rect
   id="rect198"
   x="-0.324"
   y="10.89"
   width="0.648"
   height="18.052" />
        </g>
    </g>
    <g
   transform="matrix(0.004,0,0,-0.004,163.619,39.489699)"
   id="g195">
        <g
   id="a206">
            <g
   id="g204">
                <path
   id="path202"
   d="m 1085.93,677.459 c 328.76,0 537.98,-179.327 537.98,-443.337 0,-443.337 -562.89,-911.581 -1085.927,-911.581 C 209.215,-677.459 0,-498.132 0,-234.122 0,209.215 562.889,677.459 1085.93,677.459 Z"
   style="fill-rule:nonzero" />
            </g>
        </g>
    </g>
    <g
   transform="translate(163.943,27.036399)"
   id="g199">
        <g
   id="g210">
            <rect
   id="rect208"
   x="-0.324"
   y="13.38"
   width="0.648"
   height="15.561" />
        </g>
    </g>
    <g
   transform="matrix(0.004,0,0,-0.004,177.338,34.508399)"
   id="g205">
        <g
   id="a216">
            <g
   id="g214">
                <path
   id="path212"
   d="m 1085.93,677.459 c 328.76,0 537.98,-179.327 537.98,-443.337 0,-443.337 -562.89,-911.581 -1085.927,-911.581 C 209.215,-677.459 0,-498.132 0,-234.122 0,209.215 562.889,677.459 1085.93,677.459 Z"
   style="fill-rule:nonzero" />
            </g>
        </g>
    </g>
    <g
   transform="translate(177.662,27.036399)"
   id="g209">
        <g
   id="g220">
            <rect
   id="rect218"
   x="-0.324"
   y="8.3990002"
   width="0.648"
   height="20.542" />
        </g>
    </g>
    <g
   transform="matrix(0.004,0,0,-0.004,189.813,36.998999)"
   id="g215">
        <g
   id="a226">
            <g
   id="g224">
                <path
   id="path222"
   d="m 1085.93,677.459 c 328.76,0 537.98,-179.327 537.98,-443.337 0,-443.337 -562.89,-911.581 -1085.927,-911.581 C 209.215,-677.459 0,-498.132 0,-234.122 0,209.215 562.889,677.459 1085.93,677.459 Z"
   style="fill-rule:nonzero" />
            </g>
        </g>
    </g>
    <g
   transform="translate(190.137,27.036399)"
   id="g219">
        <g
   id="g230">
            <rect
   id="rect228"
   x="-0.324"
   y="10.89"
   width="0.648"
   height="18.052" />
        </g>
    </g>
    <g
   transform="matrix(0.004,0,0,-0.004,202.287,39.489699)"
   id="g225">
        <g
   id="a236">
            <g
   id="g234">
                <path
   id="path232"
   d="m 1085.93,677.459 c 328.76,0 537.98,-179.327 537.98,-443.337 0,-443.337 -562.89,-911.581 -1085.927,-911.581 C 209.215,-677.459 0,-498.132 0,-234.122 0,209.215 562.889,677.459 1085.93,677.459 Z"
   style="fill-rule:nonzero" />
            </g>
        </g>
    </g>
    <g
   transform="translate(202.611,27.036399)"
   id="g229">
        <g
   id="g240">
            <rect
   id="rect238"
   x="-0.324"
   y="13.38"
   width="0.648"
   height="15.561" />
        </g>
    </g>
    <g
   transform="matrix(0.004,0,0,-0.004,214.762,36.998999)"
   id="g235">
        <g
   id="a246">
            <g
   id="g244">
                <path
   id="path242"
   d="m 1085.93,677.459 c 328.76,0 537.98,-179.327 537.98,-443.337 0,-443.337 -562.89,-911.581 -1085.927,-911.581 C 209.215,-677.459 0,-498.132 0,-234.122 0,209.215 562.889,677.459 1085.93,677.459 Z"
   style="fill-rule:nonzero" />
            </g>
        </g>
    </g>
    <g
   transform="translate(215.085,27.036399)"
   id="g239">
        <g
   id="g250">
            <rect
   id="rect248"
   x="-0.324"
   y="10.89"
   width="0.648"
   height="18.052" />
        </g>
    </g>
    <g
   id="a256"
   transform="translate(0.001,-0.78800085)">
    </g>
    <g
   transform="translate(-113.385,-78.984001)"
   id="g254">
        <g
   id="a262">
            <g
   id="g251">
                <g
   transform="matrix(0.00523346,0,0,-0.00523346,341.866,108.366)"
   id="g245">
                    <g
   id="g260">
                        <path
   id="path258"
   d="m 1085.93,677.459 c 328.76,0 537.98,-179.327 537.98,-443.337 0,-443.337 -562.89,-911.581 -1085.927,-911.581 C 209.215,-677.459 0,-498.132 0,-234.122 0,209.215 562.889,677.459 1085.93,677.459 Z"
   style="fill-rule:nonzero" />
                    </g>
                </g>
                <g
   id="rect268"
   transform="matrix(1.30837,0,0,1.28507,349.942,105.143)">
                    <rect
   x="-0.324"
   y="-14.944"
   width="0.648"
   height="16.507999"
   id="rect247" />
                </g>
            </g>
        </g>
    </g>
    <g
   transform="translate(228.805,27.036399)"
   id="g258">
        <g
   id="g266">
            <rect
   id="rect264"
   x="-0.324"
   y="3.418"
   width="0.648"
   height="27.417" />
        </g>
    </g>
    <g
   id="g270"
   transform="translate(0.001,-0.78800085)">
    </g>
    <g
   transform="translate(334.448,1.4371492)"
   id="g272">
        <g
   id="g274">
            <g
   id="g269">
                <g
   id="rect272"
   transform="matrix(1.30837,0,0,1.30837,1.9035,23.8402)">
                    <rect
   x="-0.324"
   y="-12.453"
   width="0.648"
   height="16.507999"
   id="rect261" />
                </g>
                <g
   transform="matrix(0.00523346,0,0,-0.00523346,-6.17285,30.3576)"
   id="g267">
                    <g
   id="g348">
                        <path
   id="path346"
   d="m 1085.93,677.459 c 328.76,0 537.98,-179.327 537.98,-443.337 0,-443.337 -562.89,-911.581 -1085.927,-911.581 C 209.215,-677.459 0,-498.132 0,-234.122 0,209.215 562.889,677.459 1085.93,677.459 Z"
   style="fill-rule:nonzero" />
                    </g>
                </g>
            </g>
        </g>
    </g>
    <g
   transform="matrix(0.004,0,0,-0.004,239.71,34.508399)"
   id="g277">
        <g
   id="a280">
            <g
   id="g278">
                <path
   id="path276"
   d="m 1085.93,677.459 c 328.76,0 537.98,-179.327 537.98,-443.337 0,-443.337 -562.89,-911.581 -1085.927,-911.581 C 209.215,-677.459 0,-498.132 0,-234.122 0,209.215 562.889,677.459 1085.93,677.459 Z"
   style="fill-rule:nonzero" />
            </g>
        </g>
    </g>
    <g
   transform="translate(240.034,27.036399)"
   id="g281">
        <g
   id="g284">
            <rect
   id="rect282"
   x="-0.324"
   y="8.3990002"
   width="0.648"
   height="22.434999" />
        </g>
    </g>
    <g
   transform="matrix(0.004,0,0,-0.004,250.939,39.489699)"
   id="g286">
        <g
   id="a290">
            <g
   id="g288">
                <path
   id="path286"
   d="m 1085.93,677.459 c 328.76,0 537.98,-179.327 537.98,-443.337 0,-443.337 -562.89,-911.581 -1085.927,-911.581 C 209.215,-677.459 0,-498.132 0,-234.122 0,209.215 562.889,677.459 1085.93,677.459 Z"
   style="fill-rule:nonzero" />
            </g>
        </g>
    </g>
    <g
   transform="translate(251.263,27.036399)"
   id="g290">
        <g
   id="g294">
            <rect
   id="rect292"
   x="-0.324"
   y="13.38"
   width="0.648"
   height="17.454" />
        </g>
    </g>
    <g
   transform="matrix(0.004,0,0,-0.004,263.413,41.980399)"
   id="g295">
        <g
   id="a300">
            <g
   id="g298">
                <path
   id="path296"
   d="m 1085.93,677.459 c 328.76,0 537.98,-179.327 537.98,-443.337 0,-443.337 -562.89,-911.581 -1085.927,-911.581 C 209.215,-677.459 0,-498.132 0,-234.122 0,209.215 562.889,677.459 1085.93,677.459 Z"
   style="fill-rule:nonzero" />
            </g>
        </g>
    </g>
    <g
   transform="translate(263.737,27.036399)"
   id="g299">
        <g
   id="g304">
            <rect
   id="rect302"
   x="-0.324"
   y="15.871"
   width="0.648"
   height="14.963" />
        </g>
    </g>
    <g
   transform="matrix(0.004,0,0,-0.004,277.133,36.998999)"
   id="g305">
        <g
   id="a310">
            <g
   id="g308">
                <path
   id="path306"
   d="m 1085.93,677.459 c 328.76,0 537.98,-179.327 537.98,-443.337 0,-443.337 -562.89,-911.581 -1085.927,-911.581 C 209.215,-677.459 0,-498.132 0,-234.122 0,209.215 562.889,677.459 1085.93,677.459 Z"
   style="fill-rule:nonzero" />
            </g>
        </g>
    </g>
    <g
   transform="translate(277.457,27.036399)"
   id="g309">
        <g
   id="g314">
            <rect
   id="rect312"
   x="-0.324"
   y="10.89"
   width="0.648"
   height="19.945" />
        </g>
    </g>
    <g
   transform="translate(0.001,-11.788001)"
   id="g315">
        <g
   id="g318">
            <path
   d="m 32.799,16.172 0.22,-3.884 306.62,5.464 -0.035,3.189"
   style="fill:none;stroke:#000000;stroke-width:1px;stroke-miterlimit:1.5"
   id="path311" />
        </g>
    </g>
    <g
   transform="matrix(0.004,0,0,-0.004,289.607,39.489699)"
   id="g320">
        <g
   id="a324">
            <g
   id="g322">
                <path
   id="path320"
   d="m 1085.93,677.459 c 328.76,0 537.98,-179.327 537.98,-443.337 0,-443.337 -562.89,-911.581 -1085.927,-911.581 C 209.215,-677.459 0,-498.132 0,-234.122 0,209.215 562.889,677.459 1085.93,677.459 Z"
   style="fill-rule:nonzero" />
            </g>
        </g>
    </g>
    <g
   transform="translate(289.931,27.036399)"
   id="g324">
        <g
   id="g328">
            <rect
   id="rect326"
   x="-0.324"
   y="13.38"
   width="0.648"
   height="17.454" />
        </g>
    </g>
    <g
   id="a334"
   transform="translate(0.001,-0.78800085)">
    </g>
    <g
   transform="matrix(0.004,0,0,-0.004,302.082,41.980399)"
   id="g330">
        <g
   id="a340">
            <g
   id="g338">
                <path
   id="path336"
   d="m 1085.93,677.459 c 328.76,0 537.98,-179.327 537.98,-443.337 0,-443.337 -562.89,-911.581 -1085.927,-911.581 C 209.215,-677.459 0,-498.132 0,-234.122 0,209.215 562.889,677.459 1085.93,677.459 Z"
   style="fill-rule:nonzero" />
            </g>
        </g>
    </g>
    <g
   transform="translate(302.405,27.036399)"
   id="g334">
        <g
   id="g344">
            <rect
   id="rect342"
   x="-0.324"
   y="15.871"
   width="0.648"
   height="14.963" />
        </g>
    </g>
    <g
   id="a350"
   transform="translate(0.001,-0.78800085)">
    </g>
    <g
   transform="matrix(0.004,0,0,-0.004,314.556,39.489699)"
   id="g340">
        <g
   id="a356">
            <g
   id="g354">
                <path
   id="path352"
   d="m 1085.93,677.459 c 328.76,0 537.98,-179.327 537.98,-443.337 0,-443.337 -562.89,-911.581 -1085.927,-911.581 C 209.215,-677.459 0,-498.132 0,-234.122 0,209.215 562.889,677.459 1085.93,677.459 Z"
   style="fill-rule:nonzero" />
            </g>
        </g>
    </g>
    <g
   transform="translate(314.88,27.036399)"
   id="g345">
        <g
   id="g360">
            <rect
   id="rect358"
   x="-0.324"
   y="13.38"
   width="0.648"
   height="17.454" />
        </g>
    </g>
</svg>
