<?xml version="1.0" encoding="UTF-8" standalone="no"?>
<!DOCTYPE svg PUBLIC "-//W3C//DTD SVG 1.1//EN" "http://www.w3.org/Graphics/SVG/1.1/DTD/svg11.dtd">
<svg width="100%" height="100%" viewBox="0 0 359 60" version="1.1" xmlns="http://www.w3.org/2000/svg" xmlns:xlink="http://www.w3.org/1999/xlink" xml:space="preserve" xmlns:serif="http://www.serif.com/" style="fill-rule:evenodd;clip-rule:evenodd;stroke-linecap:round;stroke-linejoin:round;">
    <g transform="matrix(1,0,0,1,0,42.7684)">
        <g id="g6">
            <rect id="rect4" x="300.456" y="-0.498" width="9.745" height="0.996"/>
        </g>
    </g>
    <g transform="matrix(1,0,0,1,0,42.7684)">
        <g id="g10">
            <rect id="rect8" x="261.788" y="-0.498" width="9.745" height="0.996"/>
        </g>
    </g>
    <g transform="matrix(1,0,0,1,0,37.787)">
        <g id="g14">
            <path id="line12" d="M0.249,0L358.432,0" style="fill:none;fill-rule:nonzero;stroke:black;stroke-width:0.5px;"/>
        </g>
    </g>
    <g transform="matrix(1,0,0,1,0,32.8057)">
        <g id="g18">
            <path id="line16" d="M0.249,0L358.432,0" style="fill:none;fill-rule:nonzero;stroke:black;stroke-width:0.5px;"/>
        </g>
    </g>
    <g transform="matrix(1,0,0,1,0,27.8244)">
        <g id="g22">
            <path id="line20" d="M0.249,0L358.432,0" style="fill:none;fill-rule:nonzero;stroke:black;stroke-width:0.5px;"/>
        </g>
    </g>
    <g transform="matrix(1,0,0,1,0,22.8431)">
        <g id="g26">
            <path id="line24" d="M0.249,0L358.432,0" style="fill:none;fill-rule:nonzero;stroke:black;stroke-width:0.5px;"/>
        </g>
    </g>
    <g transform="matrix(1,0,0,1,0,17.8618)">
        <g id="g30">
            <path id="line28" d="M0.249,0L358.432,0" style="fill:none;fill-rule:nonzero;stroke:black;stroke-width:0.5px;"/>
        </g>
    </g>
    <g id="a36">
    </g>
    <g transform="matrix(0.00523346,0,0,-0.00523346,28.9202,25.2719)">
        <g id="a42">
            <g id="g40">
                <path id="path38" d="M1085.93,677.459C1414.69,677.459 1623.91,498.132 1623.91,234.122C1623.91,-209.215 1061.02,-677.459 537.983,-677.459C209.215,-677.459 0,-498.132 0,-234.122C0,209.215 562.889,677.459 1085.93,677.459Z" style="fill-rule:nonzero;"/>
            </g>
        </g>
    </g>
    <g transform="matrix(0.004,0,0,-0.004,3.98506,32.8057)">
        <g id="g46">
            <path id="path44" d="M1325.03,-3163.14L1295.14,-3163.14C757.161,-3163.14 323.786,-2724.78 323.786,-2181.82C323.786,-1892.9 587.796,-1668.74 881.694,-1668.74C1150.68,-1668.74 1354.92,-1902.86 1354.92,-2181.82C1354.92,-2440.85 1140.72,-2655.04 881.694,-2655.04C826.899,-2655.04 777.086,-2645.08 727.273,-2625.16C856.787,-2819.43 1066,-2948.94 1310.09,-2948.94L1330.01,-2948.94L1325.03,-3163.14ZM2296.39,-1011.21C2635.12,-891.656 2859.28,-562.889 2859.28,-194.271C2859.28,254.047 2530.51,697.385 1997.51,752.179C2092.15,308.842 2236.61,-453.3 2296.39,-1011.21ZM368.618,139.477C368.618,-582.814 1070.98,-1090.91 1683.69,-1090.91C1688.67,-1090.91 1917.81,-1090.91 2092.15,-1061.02C2057.28,-742.217 1947.7,-49.813 1778.33,752.179C1384.81,712.329 1160.65,448.319 1160.65,159.402C1160.65,-59.776 1285.18,-293.898 1564.13,-453.3C1589.04,-478.207 1599,-503.113 1599,-528.02C1599,-582.814 1549.19,-637.609 1489.41,-637.609C1414.69,-637.609 861.768,-328.767 861.768,293.898C861.768,732.254 1150.68,1160.65 1658.78,1275.22C1589.04,1564.13 1514.32,1858.03 1429.64,2146.95C896.638,1544.21 368.618,936.488 368.618,139.477ZM1245.33,2754.67C1100.87,3232.88 986.301,3601.49 986.301,4478.21C986.301,5051.06 1260.27,5594.02 1728.52,5932.75C1758.41,5957.66 1798.26,5957.66 1828.14,5932.75C2166.87,5534.25 2490.66,4712.33 2490.66,4149.44C2490.66,3437.11 2062.27,2879.2 1594.02,2336.24C1698.63,1997.51 1788.29,1648.82 1872.98,1305.11C1882.94,1305.11 1907.85,1310.09 1937.73,1310.09C2709.84,1310.09 3212.95,672.478 3212.95,9.963C3212.95,-552.926 2844.33,-1046.08 2316.31,-1215.44C2331.26,-1389.79 2341.22,-1564.13 2341.22,-1738.48C2341.22,-1833.13 2336.24,-1932.75 2331.26,-2027.4C2296.39,-2620.17 1892.9,-3148.19 1325.03,-3163.14L1330.01,-2948.94C1793.28,-2938.98 2092.15,-2490.66 2122.04,-1997.51C2127.02,-1907.85 2132.01,-1813.2 2132.01,-1723.54C2132.01,-1569.12 2127.02,-1419.68 2112.08,-1265.26C2087.17,-1270.24 1892.9,-1305.11 1668.74,-1305.11C707.347,-1305.11 9.963,-408.468 9.963,557.908C9.963,1439.6 662.516,2082.19 1245.33,2754.67ZM2132.01,4562.89C2132.01,4732.25 2136.99,4891.66 2032.38,5205.48C1539.23,4966.38 1225.4,4463.26 1225.4,3915.32C1225.4,3656.29 1285.18,3342.47 1404.73,2948.94C1803.24,3432.13 2132.01,3935.24 2132.01,4562.89Z" style="fill-rule:nonzero;"/>
        </g>
    </g>
    <g transform="matrix(1,0,0,1,29.2154,27.8244)">
        <g id="g50">
            <rect id="rect48" x="-0.324" y="-1.564" width="0.648" height="27.417"/>
        </g>
    </g>
    <g transform="matrix(1,0,0,1,228.48,50.589)">
        <g id="g54">
            <path id="polygon52" d="M0.199,0.996L0.199,-0.996L86.523,-0.996L86.523,0.996L0.199,0.996Z" style="fill-rule:nonzero;stroke:black;stroke-width:0.4px;"/>
        </g>
    </g>
    <g transform="matrix(1,0,0,1,228.48,54.6239)">
        <g id="g58">
            <path id="polygon56" d="M0.199,0.996L0.199,-0.996L86.523,-0.996L86.523,0.996L0.199,0.996Z" style="fill-rule:nonzero;stroke:black;stroke-width:0.4px;"/>
        </g>
    </g>
    <g transform="matrix(1,0,0,1,228.48,58.6588)">
        <g id="g62">
            <path id="polygon60" d="M0.199,0.996L0.199,-0.996L86.523,-0.996L86.523,0.996L0.199,0.996Z" style="fill-rule:nonzero;stroke:black;stroke-width:0.4px;"/>
        </g>
    </g>
    <g transform="matrix(1,0,0,1,128.686,48.6961)">
        <g id="g66">
            <path id="polygon64" d="M0.199,0.996L0.199,-0.996L86.523,-0.996L86.523,0.996L0.199,0.996Z" style="fill-rule:nonzero;stroke:black;stroke-width:0.4px;"/>
        </g>
    </g>
    <g transform="matrix(1,0,0,1,128.686,52.731)">
        <g id="g70">
            <path id="polygon68" d="M0.199,0.996L0.199,-0.996L86.523,-0.996L86.523,0.996L0.199,0.996Z" style="fill-rule:nonzero;stroke:black;stroke-width:0.4px;"/>
        </g>
    </g>
    <g transform="matrix(1,0,0,1,128.686,56.7659)">
        <g id="g74">
            <path id="polygon72" d="M0.199,0.996L0.199,-0.996L86.523,-0.996L86.523,0.996L0.199,0.996Z" style="fill-rule:nonzero;stroke:black;stroke-width:0.4px;"/>
        </g>
    </g>
    <g transform="matrix(1.30837,0,0,1.30837,36.9965,28.5306)">
        <g id="g78">
            <rect id="rect76" x="-0.324" y="-18.265" width="0.648" height="14.847"/>
        </g>
    </g>
    <g transform="matrix(1,0,0,1,28.8917,45.6077)">
        <g id="g82">
            <path id="polygon80" d="M0.199,0.996L0.199,-0.996L86.523,-0.996L86.523,0.996L0.199,0.996Z" style="fill-rule:nonzero;stroke:black;stroke-width:0.4px;"/>
        </g>
    </g>
    <g transform="matrix(1,0,0,1,28.8917,49.6426)">
        <g id="g86">
            <path id="polygon84" d="M0.199,0.996L0.199,-0.996L86.523,-0.996L86.523,0.996L0.199,0.996Z" style="fill-rule:nonzero;stroke:black;stroke-width:0.4px;"/>
        </g>
    </g>
    <g transform="matrix(1,0,0,1,28.8917,53.6775)">
        <g id="g90">
            <path id="polygon88" d="M0.199,0.996L0.199,-0.996L86.523,-0.996L86.523,0.996L0.199,0.996Z" style="fill-rule:nonzero;stroke:black;stroke-width:0.4px;"/>
        </g>
    </g>
    <g transform="matrix(0.004,0,0,-0.004,40.1205,30.3151)">
        <g id="a96">
            <g id="g94">
                <path id="path92" d="M1085.93,677.459C1414.69,677.459 1623.91,498.132 1623.91,234.122C1623.91,-209.215 1061.02,-677.459 537.983,-677.459C209.215,-677.459 0,-498.132 0,-234.122C0,209.215 562.889,677.459 1085.93,677.459Z" style="fill-rule:nonzero;"/>
            </g>
        </g>
    </g>
    <g transform="matrix(1,0,0,1,40.4443,27.8244)">
        <g id="g100">
            <rect id="rect98" x="-0.324" y="3.418" width="0.648" height="22.435"/>
        </g>
    </g>
    <g transform="matrix(0.004,0,0,-0.004,51.3494,35.2964)">
        <g id="a106">
            <g id="g104">
                <path id="path102" d="M1085.93,677.459C1414.69,677.459 1623.91,498.132 1623.91,234.122C1623.91,-209.215 1061.02,-677.459 537.983,-677.459C209.215,-677.459 0,-498.132 0,-234.122C0,209.215 562.889,677.459 1085.93,677.459Z" style="fill-rule:nonzero;"/>
            </g>
        </g>
    </g>
    <g transform="matrix(1,0,0,1,51.6732,27.8244)">
        <g id="g110">
            <rect id="rect108" x="-0.324" y="8.399" width="0.648" height="17.454"/>
        </g>
    </g>
    <g transform="matrix(0.004,0,0,-0.004,63.8237,37.787)">
        <g id="a116">
            <g id="g114">
                <path id="path112" d="M1085.93,677.459C1414.69,677.459 1623.91,498.132 1623.91,234.122C1623.91,-209.215 1061.02,-677.459 537.983,-677.459C209.215,-677.459 0,-498.132 0,-234.122C0,209.215 562.889,677.459 1085.93,677.459Z" style="fill-rule:nonzero;"/>
            </g>
        </g>
    </g>
    <g transform="matrix(1,0,0,1,64.1474,27.8244)">
        <g id="g120">
            <rect id="rect118" x="-0.324" y="10.89" width="0.648" height="14.963"/>
        </g>
    </g>
    <g transform="matrix(0.004,0,0,-0.004,77.5437,32.8057)">
        <g id="a126">
            <g id="g124">
                <path id="path122" d="M1085.93,677.459C1414.69,677.459 1623.91,498.132 1623.91,234.122C1623.91,-209.215 1061.02,-677.459 537.983,-677.459C209.215,-677.459 0,-498.132 0,-234.122C0,209.215 562.889,677.459 1085.93,677.459Z" style="fill-rule:nonzero;"/>
            </g>
        </g>
    </g>
    <g transform="matrix(1,0,0,1,77.8675,27.8244)">
        <g id="g130">
            <rect id="rect128" x="-0.324" y="5.908" width="0.648" height="19.945"/>
        </g>
    </g>
    <g transform="matrix(0.004,0,0,-0.004,90.0179,35.2964)">
        <g id="a136">
            <g id="g134">
                <path id="path132" d="M1085.93,677.459C1414.69,677.459 1623.91,498.132 1623.91,234.122C1623.91,-209.215 1061.02,-677.459 537.983,-677.459C209.215,-677.459 0,-498.132 0,-234.122C0,209.215 562.889,677.459 1085.93,677.459Z" style="fill-rule:nonzero;"/>
            </g>
        </g>
    </g>
    <g transform="matrix(1,0,0,1,90.3417,27.8244)">
        <g id="g140">
            <rect id="rect138" x="-0.324" y="8.399" width="0.648" height="17.454"/>
        </g>
    </g>
    <g transform="matrix(0.004,0,0,-0.004,102.492,37.787)">
        <g id="a146">
            <g id="g144">
                <path id="path142" d="M1085.93,677.459C1414.69,677.459 1623.91,498.132 1623.91,234.122C1623.91,-209.215 1061.02,-677.459 537.983,-677.459C209.215,-677.459 0,-498.132 0,-234.122C0,209.215 562.889,677.459 1085.93,677.459Z" style="fill-rule:nonzero;"/>
            </g>
        </g>
    </g>
    <g transform="matrix(1,0,0,1,102.816,27.8244)">
        <g id="g150">
            <rect id="rect148" x="-0.324" y="10.89" width="0.648" height="14.963"/>
        </g>
    </g>
    <g transform="matrix(0.004,0,0,-0.004,114.966,35.2964)">
        <g id="a156">
            <g id="g154">
                <path id="path152" d="M1085.93,677.459C1414.69,677.459 1623.91,498.132 1623.91,234.122C1623.91,-209.215 1061.02,-677.459 537.983,-677.459C209.215,-677.459 0,-498.132 0,-234.122C0,209.215 562.889,677.459 1085.93,677.459Z" style="fill-rule:nonzero;"/>
            </g>
        </g>
    </g>
    <g transform="matrix(1,0,0,1,115.29,27.8244)">
        <g id="g160">
            <rect id="rect158" x="-0.324" y="8.399" width="0.648" height="17.454"/>
        </g>
    </g>
    <g id="a166">
    </g>
    <g transform="matrix(1,0,0,1,-113.384,-78.1862)">
        <g id="a172">
            <g>
                <g transform="matrix(0.00523346,0,0,-0.00523346,242.072,105.619)">
                    <g id="g170">
                        <path id="path168" d="M1085.93,677.459C1414.69,677.459 1623.91,498.132 1623.91,234.122C1623.91,-209.215 1061.02,-677.459 537.983,-677.459C209.215,-677.459 0,-498.132 0,-234.122C0,209.215 562.889,677.459 1085.93,677.459Z" style="fill-rule:nonzero;"/>
                    </g>
                </g>
                <g id="rect178" transform="matrix(1.30837,0,0,1.28246,250.148,105.595)">
                    <rect x="-0.324" y="-16.604" width="0.648" height="15.677"/>
                </g>
            </g>
        </g>
    </g>
    <g transform="matrix(1,0,0,1,129.01,27.8244)">
        <g id="g176">
            <rect id="rect174" x="-0.324" y="0.927" width="0.648" height="28.014"/>
        </g>
    </g>
    <g id="g180">
    </g>
    <g transform="matrix(0.004,0,0,-0.004,139.915,32.8057)">
        <g id="a186">
            <g id="g184">
                <path id="path182" d="M1085.93,677.459C1414.69,677.459 1623.91,498.132 1623.91,234.122C1623.91,-209.215 1061.02,-677.459 537.983,-677.459C209.215,-677.459 0,-498.132 0,-234.122C0,209.215 562.889,677.459 1085.93,677.459Z" style="fill-rule:nonzero;"/>
            </g>
        </g>
    </g>
    <g transform="matrix(1,0,0,1,140.239,27.8244)">
        <g id="g190">
            <rect id="rect188" x="-0.324" y="5.908" width="0.648" height="23.033"/>
        </g>
    </g>
    <g transform="matrix(0.004,0,0,-0.004,151.144,37.787)">
        <g id="a196">
            <g id="g194">
                <path id="path192" d="M1085.93,677.459C1414.69,677.459 1623.91,498.132 1623.91,234.122C1623.91,-209.215 1061.02,-677.459 537.983,-677.459C209.215,-677.459 0,-498.132 0,-234.122C0,209.215 562.889,677.459 1085.93,677.459Z" style="fill-rule:nonzero;"/>
            </g>
        </g>
    </g>
    <g transform="matrix(1,0,0,1,151.467,27.8244)">
        <g id="g200">
            <rect id="rect198" x="-0.324" y="10.89" width="0.648" height="18.052"/>
        </g>
    </g>
    <g transform="matrix(0.004,0,0,-0.004,163.618,40.2777)">
        <g id="a206">
            <g id="g204">
                <path id="path202" d="M1085.93,677.459C1414.69,677.459 1623.91,498.132 1623.91,234.122C1623.91,-209.215 1061.02,-677.459 537.983,-677.459C209.215,-677.459 0,-498.132 0,-234.122C0,209.215 562.889,677.459 1085.93,677.459Z" style="fill-rule:nonzero;"/>
            </g>
        </g>
    </g>
    <g transform="matrix(1,0,0,1,163.942,27.8244)">
        <g id="g210">
            <rect id="rect208" x="-0.324" y="13.38" width="0.648" height="15.561"/>
        </g>
    </g>
    <g transform="matrix(0.004,0,0,-0.004,177.337,35.2964)">
        <g id="a216">
            <g id="g214">
                <path id="path212" d="M1085.93,677.459C1414.69,677.459 1623.91,498.132 1623.91,234.122C1623.91,-209.215 1061.02,-677.459 537.983,-677.459C209.215,-677.459 0,-498.132 0,-234.122C0,209.215 562.889,677.459 1085.93,677.459Z" style="fill-rule:nonzero;"/>
            </g>
        </g>
    </g>
    <g transform="matrix(1,0,0,1,177.661,27.8244)">
        <g id="g220">
            <rect id="rect218" x="-0.324" y="8.399" width="0.648" height="20.542"/>
        </g>
    </g>
    <g transform="matrix(0.004,0,0,-0.004,189.812,37.787)">
        <g id="a226">
            <g id="g224">
                <path id="path222" d="M1085.93,677.459C1414.69,677.459 1623.91,498.132 1623.91,234.122C1623.91,-209.215 1061.02,-677.459 537.983,-677.459C209.215,-677.459 0,-498.132 0,-234.122C0,209.215 562.889,677.459 1085.93,677.459Z" style="fill-rule:nonzero;"/>
            </g>
        </g>
    </g>
    <g transform="matrix(1,0,0,1,190.136,27.8244)">
        <g id="g230">
            <rect id="rect228" x="-0.324" y="10.89" width="0.648" height="18.052"/>
        </g>
    </g>
    <g transform="matrix(0.004,0,0,-0.004,202.286,40.2777)">
        <g id="a236">
            <g id="g234">
                <path id="path232" d="M1085.93,677.459C1414.69,677.459 1623.91,498.132 1623.91,234.122C1623.91,-209.215 1061.02,-677.459 537.983,-677.459C209.215,-677.459 0,-498.132 0,-234.122C0,209.215 562.889,677.459 1085.93,677.459Z" style="fill-rule:nonzero;"/>
            </g>
        </g>
    </g>
    <g transform="matrix(1,0,0,1,202.61,27.8244)">
        <g id="g240">
            <rect id="rect238" x="-0.324" y="13.38" width="0.648" height="15.561"/>
        </g>
    </g>
    <g transform="matrix(0.004,0,0,-0.004,214.761,37.787)">
        <g id="a246">
            <g id="g244">
                <path id="path242" d="M1085.93,677.459C1414.69,677.459 1623.91,498.132 1623.91,234.122C1623.91,-209.215 1061.02,-677.459 537.983,-677.459C209.215,-677.459 0,-498.132 0,-234.122C0,209.215 562.889,677.459 1085.93,677.459Z" style="fill-rule:nonzero;"/>
            </g>
        </g>
    </g>
    <g transform="matrix(1,0,0,1,215.084,27.8244)">
        <g id="g250">
            <rect id="rect248" x="-0.324" y="10.89" width="0.648" height="18.052"/>
        </g>
    </g>
    <g id="a256">
    </g>
    <g transform="matrix(1,0,0,1,-113.386,-78.196)">
        <g id="a262">
            <g>
                <g transform="matrix(0.00523346,0,0,-0.00523346,341.866,108.366)">
                    <g id="g260">
                        <path id="path258" d="M1085.93,677.459C1414.69,677.459 1623.91,498.132 1623.91,234.122C1623.91,-209.215 1061.02,-677.459 537.983,-677.459C209.215,-677.459 0,-498.132 0,-234.122C0,209.215 562.889,677.459 1085.93,677.459Z" style="fill-rule:nonzero;"/>
                    </g>
                </g>
                <g id="rect268" transform="matrix(1.30837,0,0,1.28507,349.942,105.143)">
                    <rect x="-0.324" y="-14.944" width="0.648" height="16.508"/>
                </g>
            </g>
        </g>
    </g>
    <g transform="matrix(1,0,0,1,228.804,27.8244)">
        <g id="g266">
            <rect id="rect264" x="-0.324" y="3.418" width="0.648" height="27.417"/>
        </g>
    </g>
    <g id="g270">
    </g>
    <g transform="matrix(1,0,0,1,334.447,2.22515)">
        <g id="g274">
            <g>
                <g id="rect272" transform="matrix(1.30837,0,0,1.30837,1.9035,23.8402)">
                    <rect x="-0.324" y="-12.453" width="0.648" height="16.508"/>
                </g>
                <g transform="matrix(0.00523346,0,0,-0.00523346,-6.17285,30.3576)">
                    <g id="g348">
                        <path id="path346" d="M1085.93,677.459C1414.69,677.459 1623.91,498.132 1623.91,234.122C1623.91,-209.215 1061.02,-677.459 537.983,-677.459C209.215,-677.459 0,-498.132 0,-234.122C0,209.215 562.889,677.459 1085.93,677.459Z" style="fill-rule:nonzero;"/>
                    </g>
                </g>
            </g>
        </g>
    </g>
    <g transform="matrix(0.004,0,0,-0.004,239.709,35.2964)">
        <g id="a280">
            <g id="g278">
                <path id="path276" d="M1085.93,677.459C1414.69,677.459 1623.91,498.132 1623.91,234.122C1623.91,-209.215 1061.02,-677.459 537.983,-677.459C209.215,-677.459 0,-498.132 0,-234.122C0,209.215 562.889,677.459 1085.93,677.459Z" style="fill-rule:nonzero;"/>
            </g>
        </g>
    </g>
    <g transform="matrix(1,0,0,1,240.033,27.8244)">
        <g id="g284">
            <rect id="rect282" x="-0.324" y="8.399" width="0.648" height="22.435"/>
        </g>
    </g>
    <g transform="matrix(0.004,0,0,-0.004,250.938,40.2777)">
        <g id="a290">
            <g id="g288">
                <path id="path286" d="M1085.93,677.459C1414.69,677.459 1623.91,498.132 1623.91,234.122C1623.91,-209.215 1061.02,-677.459 537.983,-677.459C209.215,-677.459 0,-498.132 0,-234.122C0,209.215 562.889,677.459 1085.93,677.459Z" style="fill-rule:nonzero;"/>
            </g>
        </g>
    </g>
    <g transform="matrix(1,0,0,1,251.262,27.8244)">
        <g id="g294">
            <rect id="rect292" x="-0.324" y="13.38" width="0.648" height="17.454"/>
        </g>
    </g>
    <g transform="matrix(0.004,0,0,-0.004,263.412,42.7684)">
        <g id="a300">
            <g id="g298">
                <path id="path296" d="M1085.93,677.459C1414.69,677.459 1623.91,498.132 1623.91,234.122C1623.91,-209.215 1061.02,-677.459 537.983,-677.459C209.215,-677.459 0,-498.132 0,-234.122C0,209.215 562.889,677.459 1085.93,677.459Z" style="fill-rule:nonzero;"/>
            </g>
        </g>
    </g>
    <g transform="matrix(1,0,0,1,263.736,27.8244)">
        <g id="g304">
            <rect id="rect302" x="-0.324" y="15.871" width="0.648" height="14.963"/>
        </g>
    </g>
    <g transform="matrix(0.004,0,0,-0.004,277.132,37.787)">
        <g id="a310">
            <g id="g308">
                <path id="path306" d="M1085.93,677.459C1414.69,677.459 1623.91,498.132 1623.91,234.122C1623.91,-209.215 1061.02,-677.459 537.983,-677.459C209.215,-677.459 0,-498.132 0,-234.122C0,209.215 562.889,677.459 1085.93,677.459Z" style="fill-rule:nonzero;"/>
            </g>
        </g>
    </g>
    <g transform="matrix(1,0,0,1,277.456,27.8244)">
        <g id="g314">
            <rect id="rect312" x="-0.324" y="10.89" width="0.648" height="19.945"/>
        </g>
    </g>
    <g transform="matrix(1,0,0,1,0,-11)">
        <g id="g318">
            <path d="M32.799,16.172L33.019,12.288L339.639,17.752L339.604,20.941" style="fill:none;stroke:black;stroke-width:1px;stroke-miterlimit:1.5;"/>
        </g>
    </g>
    <g transform="matrix(0.004,0,0,-0.004,289.606,40.2777)">
        <g id="a324">
            <g id="g322">
                <path id="path320" d="M1085.93,677.459C1414.69,677.459 1623.91,498.132 1623.91,234.122C1623.91,-209.215 1061.02,-677.459 537.983,-677.459C209.215,-677.459 0,-498.132 0,-234.122C0,209.215 562.889,677.459 1085.93,677.459Z" style="fill-rule:nonzero;"/>
            </g>
        </g>
    </g>
    <g transform="matrix(1,0,0,1,289.93,27.8244)">
        <g id="g328">
            <rect id="rect326" x="-0.324" y="13.38" width="0.648" height="17.454"/>
        </g>
    </g>
    <g id="a334">
    </g>
    <g transform="matrix(0.004,0,0,-0.004,302.081,42.7684)">
        <g id="a340">
            <g id="g338">
                <path id="path336" d="M1085.93,677.459C1414.69,677.459 1623.91,498.132 1623.91,234.122C1623.91,-209.215 1061.02,-677.459 537.983,-677.459C209.215,-677.459 0,-498.132 0,-234.122C0,209.215 562.889,677.459 1085.93,677.459Z" style="fill-rule:nonzero;"/>
            </g>
        </g>
    </g>
    <g transform="matrix(1,0,0,1,302.404,27.8244)">
        <g id="g344">
            <rect id="rect342" x="-0.324" y="15.871" width="0.648" height="14.963"/>
        </g>
    </g>
    <g id="a350">
    </g>
    <g transform="matrix(0.004,0,0,-0.004,314.555,40.2777)">
        <g id="a356">
            <g id="g354">
                <path id="path352" d="M1085.93,677.459C1414.69,677.459 1623.91,498.132 1623.91,234.122C1623.91,-209.215 1061.02,-677.459 537.983,-677.459C209.215,-677.459 0,-498.132 0,-234.122C0,209.215 562.889,677.459 1085.93,677.459Z" style="fill-rule:nonzero;"/>
            </g>
        </g>
    </g>
    <g transform="matrix(1,0,0,1,314.879,27.8244)">
        <g id="g360">
            <rect id="rect358" x="-0.324" y="13.38" width="0.648" height="17.454"/>
        </g>
    </g>
</svg>
