<?xml version="1.0" encoding="UTF-8" standalone="no"?>
<svg
   width="2439.6663"
   height="3702.9014"
   viewBox="0 0 2439.6663 3702.9014"
   version="1.1"
   xml:space="preserve"
   style="clip-rule:evenodd;fill-rule:evenodd;stroke-linecap:round;stroke-linejoin:round;stroke-miterlimit:1.5"
   id="svg1030"
   xmlns="http://www.w3.org/2000/svg"
   xmlns:svg="http://www.w3.org/2000/svg"><defs
   id="defs1034" />
    <g
   transform="matrix(2.74384,0,0,1.14795,-292.50087,1449.0302)"
   id="g22">
        <g
   id="g10">
            <g
   transform="matrix(0.461424,0,0,0.481925,-73.5674,-193.813)"
   id="g4">
                <rect
   x="446.681"
   y="624.70502"
   width="894.32898"
   height="1170.12"
   style="fill:#e7e8e9;stroke:#231f20;stroke-width:2.35px"
   id="rect2" />
            </g>
            <g
   transform="matrix(0.430696,0,0,0.489017,-65.0769,-204.804)"
   id="g8">
                <rect
   x="549.633"
   y="732.56799"
   width="680.883"
   height="969.59998"
   style="fill:#ffffff"
   id="rect6" />
            </g>
        </g>
        <g
   transform="translate(-69.6469)"
   id="g20">
            <g
   transform="matrix(0.461424,0,0,0.481925,420.055,-193.813)"
   id="g14">
                <rect
   x="446.681"
   y="624.70502"
   width="894.32898"
   height="1170.12"
   style="fill:#e7e8e9;stroke:#231f20;stroke-width:2.35px"
   id="rect12" />
            </g>
            <g
   transform="matrix(0.430696,0,0,0.489017,468.546,-204.804)"
   id="g18">
                <rect
   x="549.633"
   y="732.56799"
   width="680.883"
   height="969.59998"
   style="fill:#ffffff"
   id="rect16" />
            </g>
        </g>
    </g>
    <g
   transform="matrix(2.74384,0,0,1.14795,-292.50087,2931.7102)"
   id="g44">
        <g
   id="g32">
            <g
   transform="matrix(0.461424,0,0,0.481925,-73.5674,-193.813)"
   id="g26">
                <rect
   x="446.681"
   y="624.70502"
   width="894.32898"
   height="1170.12"
   style="fill:#e7e8e9;stroke:#231f20;stroke-width:2.35px"
   id="rect24" />
            </g>
            <g
   transform="matrix(0.430696,0,0,0.489017,-65.0769,-204.804)"
   id="g30">
                <rect
   x="549.633"
   y="732.56799"
   width="680.883"
   height="969.59998"
   style="fill:#ffffff"
   id="rect28" />
            </g>
        </g>
        <g
   transform="translate(-69.6469)"
   id="g42">
            <g
   transform="matrix(0.461424,0,0,0.481925,420.055,-193.813)"
   id="g36">
                <rect
   x="446.681"
   y="624.70502"
   width="894.32898"
   height="1170.12"
   style="fill:#e7e8e9;stroke:#231f20;stroke-width:2.35px"
   id="rect34" />
            </g>
            <g
   transform="matrix(0.430696,0,0,0.489017,468.546,-204.804)"
   id="g40">
                <rect
   x="549.633"
   y="732.56799"
   width="680.883"
   height="969.59998"
   style="fill:#ffffff"
   id="rect38" />
            </g>
        </g>
    </g>
    <g
   transform="matrix(2.74384,0,0,1.14795,-292.50087,2165.1702)"
   id="g66">
        <g
   id="g54">
            <g
   transform="matrix(0.461424,0,0,0.481925,-73.5674,-193.813)"
   id="g48">
                <rect
   x="446.681"
   y="624.70502"
   width="894.32898"
   height="1170.12"
   style="fill:#e7e8e9;stroke:#231f20;stroke-width:2.35px"
   id="rect46" />
            </g>
            <g
   transform="matrix(0.430696,0,0,0.489017,-65.0769,-204.804)"
   id="g52">
                <rect
   x="549.633"
   y="732.56799"
   width="680.883"
   height="969.59998"
   style="fill:#ffffff"
   id="rect50" />
            </g>
        </g>
        <g
   transform="translate(-69.6469)"
   id="g64">
            <g
   transform="matrix(0.461424,0,0,0.481925,420.055,-193.813)"
   id="g58">
                <rect
   x="446.681"
   y="624.70502"
   width="894.32898"
   height="1170.12"
   style="fill:#e7e8e9;stroke:#231f20;stroke-width:2.35px"
   id="rect56" />
            </g>
            <g
   transform="matrix(0.430696,0,0,0.489017,468.546,-204.804)"
   id="g62">
                <rect
   x="549.633"
   y="732.56799"
   width="680.883"
   height="969.59998"
   style="fill:#ffffff"
   id="rect60" />
            </g>
        </g>
    </g>
    <g
   transform="translate(-15.447867,-4273.7198)"
   id="g186">
        <g
   transform="matrix(0.71,0,0,1,56.2369,0)"
   id="g84">
            <g
   transform="matrix(57.0833,0,0,57.0833,193.92,5939.78)"
   id="g68">
            </g>
            <text
   x="193.92"
   y="5939.7798"
   style="font-size:57.083px;font-family:ArialMT, Arial, sans-serif;fill:#231f20"
   id="text82">Donec <tspan
   x="373.284"
   y="5939.7798"
   id="tspan70">n</tspan>ulla <tspan
   x="508.24701"
   y="5939.7798"
   id="tspan72">j</tspan>usto, <tspan
   x="659.04102"
   y="5939.7798"
   id="tspan74">a</tspan>dipiscing <tspan
   x="927.263"
   y="5939.7798"
   id="tspan76">s</tspan>it <tspan
   x="998.70398"
   y="5939.7798"
   id="tspan78">a</tspan>met, <tspan
   x="1155.83"
   y="5939.7798"
   id="tspan80">f</tspan>eugiat</text>
        </g>
        <g
   transform="matrix(0.71,0,0,1,56.2369,0)"
   id="g88">
            <text
   x="193.92"
   y="5998.73"
   style="font-size:57.083px;font-family:ArialMT, Arial, sans-serif;fill:#231f20"
   id="text86">ac, facilisis euismod, risus.</text>
        </g>
        <g
   transform="matrix(0.71,0,0,1,56.2369,0)"
   id="g100">
            <text
   x="193.92"
   y="6057.6802"
   style="font-size:57.083px;font-family:ArialMT, Arial, sans-serif;fill:#231f20"
   id="text98">Pellentesque <tspan
   x="560.59003"
   y="6057.6802"
   id="tspan90">t</tspan>incidunt, <tspan
   x="825.664"
   y="6057.6802"
   id="tspan92">d</tspan>olor <tspan
   x="989.198"
   y="6057.6802"
   id="tspan94">e</tspan>u <tspan
   x="1089.29"
   y="6057.6802"
   id="tspan96">d</tspan>ignissim</text>
        </g>
        <g
   transform="matrix(0.71,0,0,1,56.2369,0)"
   id="g110">
            <text
   x="193.92"
   y="6116.6299"
   style="font-size:57.083px;font-family:ArialMT, Arial, sans-serif;fill:#231f20"
   id="text108">mollis, justo <tspan
   x="508.14499"
   y="6116.6299"
   id="tspan102">s</tspan>apien iaculis <tspan
   x="866.88202"
   y="6116.6299"
   id="tspan104">p</tspan>ede, vel <tspan
   x="1114.6"
   y="6116.6299"
   id="tspan106">t</tspan>incidunt</text>
        </g>
        <g
   transform="matrix(0.71,0,0,1,56.2369,0)"
   id="g130">
            <text
   x="193.92"
   y="6175.5801"
   style="font-size:57.083px;font-family:ArialMT, Arial, sans-serif;fill:#231f20"
   id="text128">lacus <tspan
   x="345.508"
   y="6175.5801"
   id="tspan112">n</tspan>isl <tspan
   x="449.48999"
   y="6175.5801"
   id="tspan114">s</tspan>it <tspan
   x="524.90198"
   y="6175.5801"
   id="tspan116">a</tspan>met <tspan
   x="670.13501"
   y="6175.5801"
   id="tspan118">m</tspan>etus. <tspan
   x="859.76898"
   y="6175.5801"
   id="tspan120">F</tspan>usce <tspan
   x="1033.54"
   y="6175.5801"
   id="tspan122">a</tspan>c <tspan
   x="1112.16"
   y="6175.5801"
   id="tspan124">e</tspan>st <tspan
   x="1206.64"
   y="6175.5801"
   id="tspan126">v</tspan>itae</text>
        </g>
        <g
   transform="matrix(0.71,0,0,1,56.2369,0)"
   id="g142">
            <text
   x="193.92"
   y="6234.5298"
   style="font-size:57.083px;font-family:ArialMT, Arial, sans-serif;fill:#231f20"
   id="text140">purus <tspan
   x="392.39899"
   y="6234.5298"
   id="tspan132">v</tspan>arius <tspan
   x="600.35498"
   y="6234.5298"
   id="tspan134">t</tspan>ristique. <tspan
   x="871.77698"
   y="6234.5298"
   id="tspan136">P</tspan>hasellus <tspan
   x="1174.97"
   y="6234.5298"
   id="tspan138">m</tspan>attis</text>
        </g>
        <g
   transform="matrix(0.71,0,0,1,56.2369,0)"
   id="g156">
            <text
   x="193.92"
   y="6293.48"
   style="font-size:57.083px;font-family:ArialMT, Arial, sans-serif;fill:#231f20"
   id="text154">ornare <tspan
   x="400.52301"
   y="6293.48"
   id="tspan144">l</tspan>igula. <tspan
   x="591.26599"
   y="6293.48"
   id="tspan146">D</tspan>onec <tspan
   x="797.86798"
   y="6293.48"
   id="tspan148">i</tspan>d <tspan
   x="883.89398"
   y="6293.48"
   id="tspan150">n</tspan>ibh. <tspan
   x="1049.27 1082.91 1114.66"
   y="6293.48 6293.48 6293.48"
   id="tspan152">Ves</tspan>tibulum</text>
        </g>
        <g
   transform="matrix(0.71,0,0,1,56.2369,0)"
   id="g170">
            <text
   x="193.92"
   y="6352.4302"
   style="font-size:57.083px;font-family:ArialMT, Arial, sans-serif;fill:#231f20"
   id="text168">metus <tspan
   x="383.759"
   y="6352.4302"
   id="tspan158">q</tspan>uam, <tspan
   x="576.80402"
   y="6352.4302"
   id="tspan160">u</tspan>ltrices <tspan
   x="792.00702"
   y="6352.4302"
   id="tspan162">i</tspan>n, <tspan
   x="886.68903"
   y="6352.4302"
   id="tspan164">s</tspan>agittis <tspan
   x="1098.74"
   y="6352.4302"
   id="tspan166">t</tspan>incidunt,</text>
        </g>
        <g
   transform="matrix(0.71,0,0,1,56.2369,0)"
   id="g184">
            <text
   x="193.92"
   y="6411.3799"
   style="font-size:57.083px;font-family:ArialMT, Arial, sans-serif;fill:#231f20"
   id="text182">gravida <tspan
   x="417.396"
   y="6411.3799"
   id="tspan172">e</tspan>t, <tspan
   x="517.117"
   y="6411.3799"
   id="tspan174">s</tspan>apien. <tspan
   x="737.44299"
   y="6411.3799"
   id="tspan176">S</tspan>ed <tspan
   x="875.26599"
   y="6411.3799"
   id="tspan178">b</tspan>ibendum, <tspan
   x="1178.1"
   y="6411.3799"
   id="tspan180">l</tspan>ectus</text>
        </g>
    </g>
    <g
   transform="translate(-15.447867,-3557.5798)"
   id="g258">
        <g
   transform="matrix(0.71,0,0,1,56.2369,0)"
   id="g204">
            <g
   transform="matrix(57.0833,0,0,57.0833,193.92,5939.78)"
   id="g188">
            </g>
            <text
   x="193.92"
   y="5939.7798"
   style="font-size:57.083px;font-family:ArialMT, Arial, sans-serif;fill:#231f20"
   id="text202">Donec <tspan
   x="373.284"
   y="5939.7798"
   id="tspan190">n</tspan>ulla <tspan
   x="508.24701"
   y="5939.7798"
   id="tspan192">j</tspan>usto, <tspan
   x="659.04102"
   y="5939.7798"
   id="tspan194">a</tspan>dipiscing <tspan
   x="927.263"
   y="5939.7798"
   id="tspan196">s</tspan>it <tspan
   x="998.70398"
   y="5939.7798"
   id="tspan198">a</tspan>met, <tspan
   x="1155.83"
   y="5939.7798"
   id="tspan200">f</tspan>eugiat</text>
        </g>
        <g
   transform="matrix(0.71,0,0,1,56.2369,0)"
   id="g208">
            <text
   x="193.92"
   y="5998.73"
   style="font-size:57.083px;font-family:ArialMT, Arial, sans-serif;fill:#231f20"
   id="text206">ac, facilisis euismod, risus.</text>
        </g>
        <g
   transform="matrix(0.71,0,0,1,56.2369,0)"
   id="g220">
            <text
   x="193.92"
   y="6057.6802"
   style="font-size:57.083px;font-family:ArialMT, Arial, sans-serif;fill:#231f20"
   id="text218">Pellentesque <tspan
   x="560.59003"
   y="6057.6802"
   id="tspan210">t</tspan>incidunt, <tspan
   x="825.664"
   y="6057.6802"
   id="tspan212">d</tspan>olor <tspan
   x="989.198"
   y="6057.6802"
   id="tspan214">e</tspan>u <tspan
   x="1089.29"
   y="6057.6802"
   id="tspan216">d</tspan>ignissim</text>
        </g>
        <g
   transform="matrix(0.71,0,0,1,56.2369,0)"
   id="g230">
            <text
   x="193.92"
   y="6116.6299"
   style="font-size:57.083px;font-family:ArialMT, Arial, sans-serif;fill:#231f20"
   id="text228">mollis, justo <tspan
   x="508.14499"
   y="6116.6299"
   id="tspan222">s</tspan>apien iaculis <tspan
   x="866.88202"
   y="6116.6299"
   id="tspan224">p</tspan>ede, vel <tspan
   x="1114.6"
   y="6116.6299"
   id="tspan226">t</tspan>incidunt</text>
        </g>
        <g
   transform="matrix(0.71,0,0,1,56.2369,0)"
   id="g250">
            <text
   x="193.92"
   y="6175.5801"
   style="font-size:57.083px;font-family:ArialMT, Arial, sans-serif;fill:#231f20"
   id="text248">lacus <tspan
   x="345.508"
   y="6175.5801"
   id="tspan232">n</tspan>isl <tspan
   x="449.48999"
   y="6175.5801"
   id="tspan234">s</tspan>it <tspan
   x="524.90198"
   y="6175.5801"
   id="tspan236">a</tspan>met <tspan
   x="670.13501"
   y="6175.5801"
   id="tspan238">m</tspan>etus. <tspan
   x="859.76898"
   y="6175.5801"
   id="tspan240">F</tspan>usce <tspan
   x="1033.54"
   y="6175.5801"
   id="tspan242">a</tspan>c <tspan
   x="1112.16"
   y="6175.5801"
   id="tspan244">e</tspan>st <tspan
   x="1206.64"
   y="6175.5801"
   id="tspan246">v</tspan>itae</text>
        </g>
        <g
   transform="matrix(0.71,0,0,1,56.2369,0)"
   id="g256">
            <g
   transform="matrix(57.0833,0,0,57.0833,1183.76,6234.53)"
   id="g252">
            </g>
            <text
   x="193.92"
   y="6234.5298"
   style="font-size:57.083px;font-family:ArialMT, Arial, sans-serif;fill:#231f20"
   id="text254">purus varius tristique. Phasellus mattis</text>
        </g>
    </g>
    <g
   transform="translate(-15.447867,-4273.7198)"
   id="g374">
        <g
   transform="matrix(0.71,0,0,1,425.429,0)"
   id="g272">
            <text
   x="1467"
   y="5939.7798"
   style="font-size:57.083px;font-family:ArialMT, Arial, sans-serif;fill:#231f20"
   id="text270">vitae <tspan
   x="1620.92"
   y="5939.7798"
   id="tspan260">t</tspan>incidunt <tspan
   x="1866.88"
   y="5939.7798"
   id="tspan262">d</tspan>apibus, <tspan
   x="2116.04"
   y="5939.7798"
   id="tspan264">s</tspan>em <tspan
   x="2257.23"
   y="5939.7798"
   id="tspan266">f</tspan>elis <tspan
   x="2392.0801"
   y="5939.7798"
   id="tspan268">p</tspan>osuere</text>
        </g>
        <g
   transform="matrix(0.71,0,0,1,425.429,0)"
   id="g288">
            <text
   x="1467"
   y="5998.73"
   style="font-size:57.083px;font-family:ArialMT, Arial, sans-serif;fill:#231f20"
   id="text286">est, <tspan
   x="1613.23"
   y="5998.73"
   id="tspan274">i</tspan>d <tspan
   x="1711.89"
   y="5998.73"
   id="tspan276">o</tspan>rnare <tspan
   x="1931.13"
   y="5998.73"
   id="tspan278">a</tspan>ugue <tspan
   x="2144.0901"
   y="5998.73"
   id="tspan280">l</tspan>orem <tspan
   x="2341.0601"
   y="5998.73"
   id="tspan282">i</tspan>n <tspan
   x="2439.72"
   y="5998.73"
   id="tspan284">p</tspan>urus.</text>
        </g>
        <g
   transform="matrix(0.71,0,0,1,425.429,0)"
   id="g300">
            <text
   x="1467"
   y="6057.6802"
   style="font-size:57.083px;font-family:ArialMT, Arial, sans-serif;fill:#231f20"
   id="text298">Suspendisse <tspan
   x="1845.87"
   y="6057.6802"
   id="tspan290">l</tspan>igula. <tspan
   x="2047.02"
   y="6057.6802"
   id="tspan292">S</tspan>ed <tspan
   x="2200.6001"
   y="6057.6802"
   id="tspan294">m</tspan>ollis <tspan
   x="2398.49"
   y="6057.6802"
   id="tspan296">t</tspan>ristique</text>
        </g>
        <g
   transform="matrix(0.71,0,0,1,425.429,0)"
   id="g314">
            <text
   x="1467"
   y="6116.6299"
   style="font-size:57.083px;font-family:ArialMT, Arial, sans-serif;fill:#231f20"
   id="text312">mauris. <tspan
   x="1708.4301"
   y="6116.6299"
   id="tspan302">N</tspan>ullam <tspan
   x="1940.37"
   y="6116.6299"
   id="tspan304">n</tspan>unc <tspan
   x="2118.45"
   y="6116.6299"
   id="tspan306">n</tspan>unc, <tspan
   x="2312.3899"
   y="6116.6299"
   id="tspan308">a</tspan>liquet <tspan
   x="2534.8999"
   y="6116.6299"
   id="tspan310">e</tspan>t,</text>
        </g>
        <g
   transform="matrix(0.71,0,0,1,425.429,0)"
   id="g330">
            <text
   x="1467"
   y="6175.5801"
   style="font-size:57.083px;font-family:ArialMT, Arial, sans-serif;fill:#231f20"
   id="text328">tristique <tspan
   x="1695.2"
   y="6175.5801"
   id="tspan316">n</tspan>ec, <tspan
   x="1831.4301"
   y="6175.5801"
   id="tspan318">p</tspan>orttitor <tspan
   x="2053.28"
   y="6175.5801"
   id="tspan320">q</tspan>uis, <tspan
   x="2202.1899"
   y="6175.5801"
   id="tspan322">u</tspan>rna. <tspan
   x="2360.6299"
   y="6175.5801"
   id="tspan324">E</tspan>tiam <tspan
   x="2534.8799"
   y="6175.5801"
   id="tspan326">e</tspan>u</text>
        </g>
        <g
   transform="matrix(0.71,0,0,1,425.429,0)"
   id="g346">
            <text
   x="1467"
   y="6234.5298"
   style="font-size:57.083px;font-family:ArialMT, Arial, sans-serif;fill:#231f20"
   id="text344">erat. <tspan
   x="1610.63"
   y="6234.5298"
   id="tspan332">M</tspan>orbi <tspan
   x="1782.78"
   y="6234.5298"
   id="tspan334">u</tspan>t <tspan
   x="1859.8"
   y="6234.5298"
   id="tspan336">n</tspan>isl. <tspan
   x="1990.73"
   y="6234.5298"
   id="tspan338">C</tspan>urabitur <tspan
   x="2254.9099"
   y="6234.5298"
   id="tspan340">s</tspan>emper <tspan
   x="2474.6699"
   y="6234.5298"
   id="tspan342">s</tspan>em.</text>
        </g>
        <g
   transform="matrix(0.71,0,0,1,425.429,0)"
   id="g362">
            <text
   x="1467"
   y="6293.48"
   style="font-size:57.083px;font-family:ArialMT, Arial, sans-serif;fill:#231f20"
   id="text360">Nulla <tspan
   x="1621.7"
   y="6293.48"
   id="tspan348">t</tspan>urpis <tspan
   x="1785.9"
   y="6293.48"
   id="tspan350">n</tspan>ibh, <tspan
   x="1934.3101"
   y="6293.48"
   id="tspan352">t</tspan>empor <tspan
   x="2136.5901"
   y="6293.48"
   id="tspan354">n</tspan>ec, <tspan
   x="2269.1001"
   y="6293.48"
   id="tspan356">a</tspan>liquet <tspan
   x="2461.9299"
   y="6293.48"
   id="tspan358">v</tspan>itae,</text>
        </g>
        <g
   transform="matrix(0.71,0,0,1,425.429,0)"
   id="g366">
            <text
   x="1467"
   y="6352.4302"
   style="font-size:57.083px;font-family:ArialMT, Arial, sans-serif;fill:#231f20"
   id="text364">elementum ac, mauris.</text>
        </g>
        <g
   transform="matrix(0.71,0,0,1,425.429,0)"
   id="g372">
            <g
   transform="matrix(57.0833,0,0,57.0833,2457.03,6411.38)"
   id="g368">
            </g>
            <text
   x="1467"
   y="6411.3799"
   style="font-size:57.083px;font-family:ArialMT, Arial, sans-serif;fill:#231f20"
   id="text370">Quisque pellentesque metus ac quam.</text>
        </g>
    </g>
    <g
   transform="matrix(2.74384,0,0,1.14795,-293.86387,663.49524)"
   id="g396">
        <g
   id="g384">
            <g
   transform="matrix(0.461424,0,0,0.481925,-73.5674,-193.813)"
   id="g378">
                <rect
   x="446.681"
   y="624.70502"
   width="894.32898"
   height="1170.12"
   style="fill:#e7e8e9;stroke:#231f20;stroke-width:2.35px"
   id="rect376" />
            </g>
            <g
   transform="matrix(0.430696,0,0,0.489017,-65.0769,-204.804)"
   id="g382">
                <rect
   x="549.633"
   y="732.56799"
   width="680.883"
   height="969.59998"
   style="fill:#ffffff"
   id="rect380" />
            </g>
        </g>
        <g
   transform="translate(-69.6469)"
   id="g394">
            <g
   transform="matrix(0.461424,0,0,0.481925,420.055,-193.813)"
   id="g388">
                <rect
   x="446.681"
   y="624.70502"
   width="894.32898"
   height="1170.12"
   style="fill:#e7e8e9;stroke:#231f20;stroke-width:2.35px"
   id="rect386" />
            </g>
            <g
   transform="matrix(0.430696,0,0,0.489017,468.546,-204.804)"
   id="g392">
                <rect
   x="549.633"
   y="732.56799"
   width="680.883"
   height="969.59998"
   style="fill:#ffffff"
   id="rect390" />
            </g>
        </g>
    </g>
    <g
   transform="matrix(2.74384,0,0,2.74384,-2005.9079,-4115.2698)"
   id="g476">
        <g
   transform="matrix(0.71,0,0,1,372.093,0)"
   id="g410">
            <text
   x="1374.6801"
   y="1886.16"
   style="font-size:20.804px;font-family:ArialMT, Arial, sans-serif;fill:#231f20"
   id="text408"><tspan
   x="1374.6801"
   y="1886.16"
   id="tspan398">S</tspan>ouvent <tspan
   x="1473.8101"
   y="1886.16"
   id="tspan400">l</tspan>e <tspan
   x="1512.79"
   y="1886.16"
   id="tspan402">s</tspan>oir <tspan
   x="1569.1"
   y="1886.16"
   id="tspan404">j</tspan>e <tspan
   x="1608.08"
   y="1886.16"
   id="tspan406">m</tspan>e</text>
        </g>
        <g
   transform="matrix(0.71,0,0,1,372.093,0)"
   id="g426">
            <text
   x="1283.08"
   y="1907.64"
   style="font-size:20.804px;font-family:ArialMT, Arial, sans-serif;fill:#231f20"
   id="text424">couchais <tspan
   x="1371.75"
   y="1907.64"
   id="tspan412">t</tspan>ôt <tspan
   x="1401.4399"
   y="1907.64"
   id="tspan414">a</tspan>près <tspan
   x="1460.05"
   y="1907.64"
   id="tspan416">a</tspan>voir <tspan
   x="1511.7"
   y="1907.64"
   id="tspan418">p</tspan>ris <tspan
   x="1551.79"
   y="1907.64"
   id="tspan420">m</tspan>a <tspan
   x="1587.26"
   y="1907.64"
   id="tspan422">t</tspan>asse</text>
        </g>
        <g
   transform="matrix(0.71,0,0,1,372.093,0)"
   id="g442">
            <text
   x="1283.08"
   y="1929.13"
   style="font-size:20.804px;font-family:ArialMT, Arial, sans-serif;fill:#231f20"
   id="text440">de <tspan
   x="1311.04"
   y="1929.13"
   id="tspan428">s</tspan>oupe <tspan
   x="1372.54"
   y="1929.13"
   id="tspan430">e</tspan>t <tspan
   x="1394.7"
   y="1929.13"
   id="tspan432">m</tspan>on <tspan
   x="1439.99"
   y="1929.13"
   id="tspan434">a</tspan>ssiette <tspan
   x="1516.5"
   y="1929.13"
   id="tspan436">d</tspan>e <tspan
   x="1544.46"
   y="1929.13"
   id="tspan438">c</tspan>roquette.</text>
        </g>
        <g
   transform="matrix(0.71,0,0,1,372.093,0)"
   id="g456">
            <text
   x="1283.08"
   y="1950.61"
   style="font-size:20.804px;font-family:ArialMT, Arial, sans-serif;fill:#231f20"
   id="text454">La <tspan
   x="1330.27"
   y="1950.61"
   id="tspan444">q</tspan>ueue <tspan
   x="1412.17"
   y="1950.61"
   id="tspan446">e</tspan>ntre <tspan
   x="1483.64"
   y="1950.61"
   id="tspan448">l</tspan>es <tspan
   x="1534.28"
   y="1950.61"
   id="tspan450">p</tspan>attes, <tspan
   x="1620.79"
   y="1950.61"
   id="tspan452">j</tspan>e</text>
        </g>
        <g
   transform="matrix(0.71,0,0,1,372.093,0)"
   id="g474">
            <text
   x="1283.08"
   y="1972.1"
   style="font-size:20.804px;font-family:ArialMT, Arial, sans-serif;fill:#231f20"
   id="text472">m’allongeais <tspan
   x="1403.85"
   y="1972.1"
   id="tspan458">a</tspan>u <tspan
   x="1432.11"
   y="1972.1"
   id="tspan460">p</tspan>ied <tspan
   x="1476.5699"
   y="1972.1"
   id="tspan462">d</tspan>u <tspan
   x="1504.84"
   y="1972.1"
   id="tspan464">l</tspan>it <tspan
   x="1524.98"
   y="1972.1"
   id="tspan466">e</tspan>t <tspan
   x="1547.46"
   y="1972.1"
   id="tspan468">j</tspan>e <tspan
   x="1568.78"
   y="1972.1"
   id="tspan470">f</tspan>ermais</text>
        </g>
    </g>
    <g
   transform="matrix(2.74384,0,0,1.14795,-293.86387,-122.46526)"
   id="g498">
        <g
   id="g486">
            <g
   transform="matrix(0.461424,0,0,0.481925,-73.5674,-193.813)"
   id="g480">
                <rect
   x="446.681"
   y="624.70502"
   width="894.32898"
   height="1170.12"
   style="fill:#e7e8e9;stroke:#231f20;stroke-width:2.35px"
   id="rect478" />
            </g>
            <g
   transform="matrix(0.430696,0,0,0.489017,-65.0769,-204.804)"
   id="g484">
                <rect
   x="549.633"
   y="732.56799"
   width="680.883"
   height="969.59998"
   style="fill:#ffffff"
   id="rect482" />
            </g>
        </g>
        <g
   transform="translate(-69.6469)"
   id="g496">
            <g
   transform="matrix(0.461424,0,0,0.481925,420.055,-193.813)"
   id="g490">
                <rect
   x="446.681"
   y="624.70502"
   width="894.32898"
   height="1170.12"
   style="fill:#e7e8e9;stroke:#231f20;stroke-width:2.35px"
   id="rect488" />
            </g>
            <g
   transform="matrix(0.430696,0,0,0.489017,468.546,-204.804)"
   id="g494">
                <rect
   x="549.633"
   y="732.56799"
   width="680.883"
   height="969.59998"
   style="fill:#ffffff"
   id="rect492" />
            </g>
        </g>
    </g>
    <g
   transform="matrix(0.732496,0,0,0.732496,1015.8721,-813.96176)"
   id="g506">
        <g
   transform="matrix(0.71,0,0,1,225.693,0)"
   id="g504">
            <g
   transform="matrix(72.98,0,0,72.98,1844.87,1358.34)"
   id="g500">
            </g>
            <text
   x="778.25299"
   y="1358.34"
   style="font-weight:700;font-size:72.98px;font-family:Arial-BoldMT, Arial, sans-serif;fill:#231f20"
   id="text502">Chapitre 1...............................12</text>
        </g>
    </g>
    <g
   transform="matrix(0.732496,0,0,0.732496,1192.7921,-51.606262)"
   id="g516">
        <g
   transform="matrix(0.71,0,0,1,225.693,0)"
   id="g514">
            <g
   transform="matrix(72.98,0,0,72.98,1121.3,1358.34)"
   id="g508">
            </g>
            <text
   x="778.25299"
   y="1358.34"
   style="font-weight:700;font-size:72.98px;font-family:Arial-BoldMT, Arial, sans-serif;fill:#231f20"
   id="text512">PRÉF<tspan
   x="967.21802 1019.92"
   y="1358.34 1358.34"
   id="tspan510">AC</tspan>E</text>
        </g>
    </g>
    <g
   transform="matrix(1.28391,0,0,1.28391,850.11213,740.59724)"
   id="g524">
        <g
   transform="matrix(0.71,0,0,1,225.693,0)"
   id="g522">
            <g
   transform="matrix(72.98,0,0,72.98,798.529,1358.34)"
   id="g518">
            </g>
            <text
   x="778.25299"
   y="1358.34"
   style="font-weight:700;font-size:72.98px;font-family:Arial-BoldMT, Arial, sans-serif;fill:#231f20"
   id="text520">I</text>
        </g>
    </g>
    <g
   transform="matrix(0.732496,0,0,0.732496,-349.58687,-40.145372)"
   id="g532">
        <g
   transform="matrix(0.71,0,0,1,225.693,0)"
   id="g530">
            <g
   transform="matrix(72.98,0,0,72.98,1382.69,1358.34)"
   id="g526">
            </g>
            <text
   x="778.25299"
   y="1358.34"
   style="font-weight:700;font-size:72.98px;font-family:Arial-BoldMT, Arial, sans-serif;fill:#231f20"
   id="text528">Remerciements à</text>
        </g>
    </g>
    <g
   transform="matrix(0.732496,0,0,0.732496,1013.2921,-582.19776)"
   id="g540">
        <g
   transform="matrix(0.71,0,0,1,225.693,0)"
   id="g538">
            <g
   transform="matrix(72.98,0,0,72.98,1865.15,1358.34)"
   id="g534">
            </g>
            <text
   x="778.25299"
   y="1358.34"
   style="font-weight:700;font-size:72.98px;font-family:Arial-BoldMT, Arial, sans-serif;fill:#231f20"
   id="text536">Chapitre 2................................31</text>
        </g>
    </g>
    <g
   transform="matrix(0.645518,0,0,0.645518,1173.3921,-637.64176)"
   id="g548">
        <g
   transform="matrix(0.71,0,0,1,225.693,0)"
   id="g546">
            <g
   transform="matrix(72.98,0,0,72.98,1792.2,1358.34)"
   id="g542">
            </g>
            <text
   x="778.25299"
   y="1358.34"
   style="font-weight:700;font-size:72.98px;font-family:Arial-BoldMT, Arial, sans-serif;fill:#231f20"
   id="text544">Section 1.1...........................12</text>
        </g>
    </g>
    <g
   transform="matrix(0.645518,0,0,0.645518,1173.3921,-410.75276)"
   id="g556">
        <g
   transform="matrix(0.71,0,0,1,225.693,0)"
   id="g554">
            <g
   transform="matrix(72.98,0,0,72.98,1792.2,1358.34)"
   id="g550">
            </g>
            <text
   x="778.25299"
   y="1358.34"
   style="font-weight:700;font-size:72.98px;font-family:Arial-BoldMT, Arial, sans-serif;fill:#231f20"
   id="text552">Section 2.1...........................31</text>
        </g>
    </g>
    <g
   transform="matrix(0.645518,0,0,0.645518,1173.3921,-359.19576)"
   id="g564">
        <g
   transform="matrix(0.71,0,0,1,225.693,0)"
   id="g562">
            <g
   transform="matrix(72.98,0,0,72.98,1792.2,1358.34)"
   id="g558">
            </g>
            <text
   x="778.25299"
   y="1358.34"
   style="font-weight:700;font-size:72.98px;font-family:Arial-BoldMT, Arial, sans-serif;fill:#231f20"
   id="text560">Section 2.2...........................43</text>
        </g>
    </g>
    <g
   transform="matrix(0.645518,0,0,0.645518,1173.3921,-584.06276)"
   id="g572">
        <g
   transform="matrix(0.71,0,0,1,225.693,0)"
   id="g570">
            <g
   transform="matrix(72.98,0,0,72.98,1792.2,1358.34)"
   id="g566">
            </g>
            <text
   x="778.25299"
   y="1358.34"
   style="font-weight:700;font-size:72.98px;font-family:Arial-BoldMT, Arial, sans-serif;fill:#231f20"
   id="text568">Section 1.2...........................16</text>
        </g>
    </g>
    <g
   transform="matrix(0.645518,0,0,0.645518,1173.3921,-533.27576)"
   id="g580">
        <g
   transform="matrix(0.71,0,0,1,225.693,0)"
   id="g578">
            <g
   transform="matrix(72.98,0,0,72.98,1792.2,1358.34)"
   id="g574">
            </g>
            <text
   x="778.25299"
   y="1358.34"
   style="font-weight:700;font-size:72.98px;font-family:Arial-BoldMT, Arial, sans-serif;fill:#231f20"
   id="text576">Section 1.3...........................23</text>
        </g>
    </g>
    <g
   transform="matrix(1.3668,0,0,1.3668,1318.3321,360.68724)"
   id="g588">
        <g
   transform="matrix(0.71,0,0,1,225.693,0)"
   id="g586">
            <g
   transform="matrix(54.8728,0,0,54.8728,839.288,1358.34)"
   id="g582">
            </g>
            <text
   x="778.25299"
   y="1358.34"
   style="font-weight:700;font-size:54.873px;font-family:Arial-BoldMT, Arial, sans-serif;fill:#231f20"
   id="text584">15</text>
        </g>
    </g>
    <g
   transform="matrix(1.3668,0,0,1.3668,1318.3321,1843.3702)"
   id="g596">
        <g
   transform="matrix(0.71,0,0,1,225.693,0)"
   id="g594">
            <g
   transform="matrix(54.8728,0,0,54.8728,839.288,1358.34)"
   id="g590">
            </g>
            <text
   x="778.25299"
   y="1358.34"
   style="font-weight:700;font-size:54.873px;font-family:Arial-BoldMT, Arial, sans-serif;fill:#231f20"
   id="text592">19</text>
        </g>
    </g>
    <g
   transform="matrix(1.3668,0,0,1.3668,1318.3321,1076.8302)"
   id="g604">
        <g
   transform="matrix(0.71,0,0,1,225.693,0)"
   id="g602">
            <g
   transform="matrix(54.8728,0,0,54.8728,839.288,1358.34)"
   id="g598">
            </g>
            <text
   x="778.25299"
   y="1358.34"
   style="font-weight:700;font-size:54.873px;font-family:Arial-BoldMT, Arial, sans-serif;fill:#231f20"
   id="text600">17</text>
        </g>
    </g>
    <g
   transform="matrix(1.3668,0,0,1.3668,1316.9721,-424.84576)"
   id="g612">
        <g
   transform="matrix(0.71,0,0,1,225.693,0)"
   id="g610">
            <g
   transform="matrix(54.8728,0,0,54.8728,839.288,1358.34)"
   id="g606">
            </g>
            <text
   x="778.25299"
   y="1358.34"
   style="font-weight:700;font-size:54.873px;font-family:Arial-BoldMT, Arial, sans-serif;fill:#231f20"
   id="text608">13</text>
        </g>
    </g>
    <g
   transform="matrix(1.3668,0,0,1.3668,1316.9721,-1210.8098)"
   id="g622">
        <g
   transform="matrix(0.71,0,0,1,225.693,0)"
   id="g620">
            <g
   transform="matrix(54.8728,0,0,54.8728,835.024,1358.34)"
   id="g614">
            </g>
            <text
   x="778.25299"
   y="1358.34"
   style="font-weight:700;font-size:54.873px;font-family:Arial-BoldMT, Arial, sans-serif;fill:#231f20"
   id="text618">1<tspan
   x="804.50598"
   y="1358.34"
   id="tspan616">1</tspan></text>
        </g>
    </g>
    <g
   transform="matrix(1.3668,0,0,1.3668,-1066.5579,362.68724)"
   id="g630">
        <g
   transform="matrix(0.71,0,0,1,225.693,0)"
   id="g628">
            <g
   transform="matrix(54.8728,0,0,54.8728,839.288,1358.34)"
   id="g624">
            </g>
            <text
   x="778.25299"
   y="1358.34"
   style="font-weight:700;font-size:54.873px;font-family:Arial-BoldMT, Arial, sans-serif;fill:#231f20"
   id="text626">14</text>
        </g>
    </g>
    <g
   transform="matrix(1.3668,0,0,1.3668,-1066.5579,1845.3702)"
   id="g638">
        <g
   transform="matrix(0.71,0,0,1,225.693,0)"
   id="g636">
            <g
   transform="matrix(54.8728,0,0,54.8728,839.288,1358.34)"
   id="g632">
            </g>
            <text
   x="778.25299"
   y="1358.34"
   style="font-weight:700;font-size:54.873px;font-family:Arial-BoldMT, Arial, sans-serif;fill:#231f20"
   id="text634">18</text>
        </g>
    </g>
    <g
   transform="matrix(1.3668,0,0,1.3668,-1066.5579,1078.8302)"
   id="g646">
        <g
   transform="matrix(0.71,0,0,1,225.693,0)"
   id="g644">
            <g
   transform="matrix(54.8728,0,0,54.8728,839.288,1358.34)"
   id="g640">
            </g>
            <text
   x="778.25299"
   y="1358.34"
   style="font-weight:700;font-size:54.873px;font-family:Arial-BoldMT, Arial, sans-serif;fill:#231f20"
   id="text642">16</text>
        </g>
    </g>
    <g
   transform="matrix(1.3668,0,0,1.3668,-1067.9279,-422.84576)"
   id="g654">
        <g
   transform="matrix(0.71,0,0,1,225.693,0)"
   id="g652">
            <g
   transform="matrix(54.8728,0,0,54.8728,839.288,1358.34)"
   id="g648">
            </g>
            <text
   x="778.25299"
   y="1358.34"
   style="font-weight:700;font-size:54.873px;font-family:Arial-BoldMT, Arial, sans-serif;fill:#231f20"
   id="text650">12</text>
        </g>
    </g>
    <g
   transform="matrix(1.3668,0,0,1.3668,-1067.9279,-1208.8098)"
   id="g662">
        <g
   transform="matrix(0.71,0,0,1,225.693,0)"
   id="g660">
            <g
   transform="matrix(54.8728,0,0,54.8728,839.288,1358.34)"
   id="g656">
            </g>
            <text
   x="778.25299"
   y="1358.34"
   style="font-weight:700;font-size:54.873px;font-family:Arial-BoldMT, Arial, sans-serif;fill:#231f20"
   id="text658">10</text>
        </g>
    </g>
    <g
   transform="translate(1257.6221,-683.83076)"
   id="g732">
        <g
   transform="matrix(0.71,0,0,1,56.2369,0)"
   id="g678">
            <g
   transform="matrix(57.0833,0,0,57.0833,468.705,3307.03)"
   id="g664">
            </g>
            <text
   x="468.70499"
   y="3307.03"
   style="font-size:57.083px;font-family:ArialMT, Arial, sans-serif;fill:#231f20"
   id="text676"><tspan
   x="468.70499"
   y="3307.03"
   id="tspan666">C</tspan>um <tspan
   x="612.66101"
   y="3307.03"
   id="tspan668">s</tspan>ociis <tspan
   x="778.83197"
   y="3307.03"
   id="tspan670">n</tspan>atoque <tspan
   x="1008.61"
   y="3307.03"
   id="tspan672">p</tspan>enatibus <tspan
   x="1279.61"
   y="3307.03"
   id="tspan674">e</tspan>t</text>
        </g>
        <g
   transform="matrix(0.71,0,0,1,56.2369,0)"
   id="g690">
            <text
   x="193.92"
   y="3365.99"
   style="font-size:57.083px;font-family:ArialMT, Arial, sans-serif;fill:#231f20"
   id="text688">magnis <tspan
   x="431.22601"
   y="3365.99"
   id="tspan680">d</tspan>is <tspan
   x="557.487"
   y="3365.99"
   id="tspan682">p</tspan>arturient <tspan
   x="851.93201"
   y="3365.99"
   id="tspan684">m</tspan>ontes, <tspan
   x="1108.28"
   y="3365.99"
   id="tspan686">n</tspan>ascetur</text>
        </g>
        <g
   transform="matrix(0.71,0,0,1,56.2369,0)"
   id="g706">
            <text
   x="193.92"
   y="3424.9299"
   style="font-size:57.083px;font-family:ArialMT, Arial, sans-serif;fill:#231f20"
   id="text704">ridiculus <tspan
   x="437.80099"
   y="3424.9299"
   id="tspan692">m</tspan>us. <tspan
   x="586.35101 624.42499"
   y="3424.9299 3424.9299"
   id="tspan694">Al</tspan>iquam <tspan
   x="827.08301"
   y="3424.9299"
   id="tspan696">v</tspan>el <tspan
   x="934.55499"
   y="3424.9299"
   id="tspan698">q</tspan>uam <tspan
   x="1111.85"
   y="3424.9299"
   id="tspan700">u</tspan>t <tspan
   x="1193.95"
   y="3424.9299"
   id="tspan702">t</tspan>ellus</text>
        </g>
        <g
   transform="matrix(0.71,0,0,1,56.2369,0)"
   id="g718">
            <text
   x="193.92"
   y="3483.8899"
   style="font-size:57.083px;font-family:ArialMT, Arial, sans-serif;fill:#231f20"
   id="text716">gravida <tspan
   x="453.03699"
   y="3483.8899"
   id="tspan708">f</tspan>aucibus. <tspan
   x="753.40601 790.02698 802.71002"
   y="3483.8899 3483.8899 3483.8899"
   id="tspan710">Viv</tspan>amus <tspan
   x="1042.73"
   y="3483.8899"
   id="tspan712">j</tspan>usto <tspan
   x="1235.21"
   y="3483.8899"
   id="tspan714">e</tspan>st,</text>
        </g>
        <g
   transform="matrix(0.71,0,0,1,56.2369,0)"
   id="g730">
            <text
   x="193.92"
   y="3542.8401"
   style="font-size:57.083px;font-family:ArialMT, Arial, sans-serif;fill:#231f20"
   id="text728">elementum <tspan
   x="497.061"
   y="3542.8401"
   id="tspan720">v</tspan>itae, <tspan
   x="654.26099"
   y="3542.8401"
   id="tspan722">m</tspan>alesuada <tspan
   x="954.28003"
   y="3542.8401"
   id="tspan724">e</tspan>u, <tspan
   x="1054.4"
   y="3542.8401"
   id="tspan726">f</tspan>ermentum</text>
        </g>
    </g>
    <g
   transform="translate(-1288.5179,-99.349762)"
   id="g856">
        <g
   transform="matrix(0.71,0,0,1,425.429,0)"
   id="g750">
            <text
   x="1467"
   y="3248.0801"
   style="font-size:57.083px;font-family:ArialMT, Arial, sans-serif;fill:#231f20"
   id="text748">in, <tspan
   x="1561.36"
   y="3248.0801"
   id="tspan734">s</tspan>apien. <tspan
   x="1779.51"
   y="3248.0801"
   id="tspan736">D</tspan>onec <tspan
   x="1978.59"
   y="3248.0801"
   id="tspan738">s</tspan>it <tspan
   x="2069.74"
   y="3248.0801"
   id="tspan740">a</tspan>met <tspan
   x="2230.72"
   y="3248.0801"
   id="tspan742">j</tspan>usto. <tspan
   x="2401.24"
   y="3248.0801"
   id="tspan744">I</tspan>n <tspan
   x="2482.9199"
   y="3248.0801"
   id="tspan746">v</tspan>elit.</text>
        </g>
        <g
   transform="matrix(0.71,0,0,1,425.429,0)"
   id="g764">
            <text
   x="1467"
   y="3307.03"
   style="font-size:57.083px;font-family:ArialMT, Arial, sans-serif;fill:#231f20"
   id="text762">V<tspan
   x="1503.62 1516.3"
   y="3307.03 3307.03"
   id="tspan752">iv</tspan>amus <tspan
   x="1756.33"
   y="3307.03"
   id="tspan754">t</tspan>urpis <tspan
   x="1967.8199"
   y="3307.03"
   id="tspan756">p</tspan>ede, <tspan
   x="2182.5701"
   y="3307.03"
   id="tspan758">d</tspan>ignissim <tspan
   x="2492.3899"
   y="3307.03"
   id="tspan760">s</tspan>ed,</text>
        </g>
        <g
   transform="matrix(0.71,0,0,1,425.429,0)"
   id="g780">
            <text
   x="1467"
   y="3365.99"
   style="font-size:57.083px;font-family:ArialMT, Arial, sans-serif;fill:#231f20"
   id="text778">scelerisque <tspan
   x="1778.05"
   y="3365.99"
   id="tspan766">n</tspan>ec, <tspan
   x="1908.26"
   y="3365.99"
   id="tspan768">p</tspan>retium <tspan
   x="2120.9299"
   y="3365.99"
   id="tspan770">s</tspan>it <tspan
   x="2200.3301"
   y="3365.99"
   id="tspan772">a</tspan>met, <tspan
   x="2365.4099"
   y="3365.99"
   id="tspan774">d</tspan>ui. <tspan
   x="2479.77"
   y="3365.99"
   id="tspan776">N</tspan>am</text>
        </g>
        <g
   transform="matrix(0.71,0,0,1,425.429,0)"
   id="g796">
            <text
   x="1467"
   y="3424.9299"
   style="font-size:57.083px;font-family:ArialMT, Arial, sans-serif;fill:#231f20"
   id="text794">nec <tspan
   x="1603.01"
   y="3424.9299"
   id="tspan782">f</tspan>elis <tspan
   x="1748.51"
   y="3424.9299"
   id="tspan784">n</tspan>on <tspan
   x="1887.73"
   y="3424.9299"
   id="tspan786">t</tspan>urpis <tspan
   x="2071.3"
   y="3424.9299"
   id="tspan788">h</tspan>endrerit <tspan
   x="2340.5701"
   y="3424.9299"
   id="tspan790">v</tspan>arius. <tspan
   x="2552.6799"
   y="3424.9299"
   id="tspan792">I</tspan>n</text>
        </g>
        <g
   transform="matrix(0.71,0,0,1,425.429,0)"
   id="g808">
            <text
   x="1467"
   y="3483.8899"
   style="font-size:57.083px;font-family:ArialMT, Arial, sans-serif;fill:#231f20"
   id="text806">ultrices <tspan
   x="1685.23"
   y="3483.8899"
   id="tspan798">o</tspan>rnare <tspan
   x="1887.66"
   y="3483.8899"
   id="tspan800">l</tspan>orem. <tspan
   x="2083.6799"
   y="3483.8899"
   id="tspan802">Q</tspan>uisque <tspan
   x="2333.72"
   y="3483.8899"
   id="tspan804">b</tspan>ibendum,</text>
        </g>
        <g
   transform="matrix(0.71,0,0,1,425.429,0)"
   id="g820">
            <text
   x="1467"
   y="3542.8401"
   style="font-size:57.083px;font-family:ArialMT, Arial, sans-serif;fill:#231f20"
   id="text818">massa <tspan
   x="1687.61"
   y="3542.8401"
   id="tspan810">s</tspan>ed <tspan
   x="1832.12"
   y="3542.8401"
   id="tspan812">v</tspan>enenatis <tspan
   x="2128.97"
   y="3542.8401"
   id="tspan814">m</tspan>alesuada, <tspan
   x="2476.5601"
   y="3542.8401"
   id="tspan816">d</tspan>iam</text>
        </g>
        <g
   transform="matrix(0.71,0,0,1,425.429,0)"
   id="g836">
            <text
   x="1467"
   y="3601.79"
   style="font-size:57.083px;font-family:ArialMT, Arial, sans-serif;fill:#231f20"
   id="text834">ipsum <tspan
   x="1647.37"
   y="3601.79"
   id="tspan822">b</tspan>landit <tspan
   x="1843.6899"
   y="3601.79"
   id="tspan824">u</tspan>rna, <tspan
   x="2001.91"
   y="3601.79"
   id="tspan826">v</tspan>el <tspan
   x="2102.99"
   y="3601.79"
   id="tspan828">u</tspan>ltricies <tspan
   x="2324.5901"
   y="3601.79"
   id="tspan830">p</tspan>ede <tspan
   x="2479.6799"
   y="3601.79"
   id="tspan832">n</tspan>ulla</text>
        </g>
        <g
   transform="matrix(0.71,0,0,1,425.429,0)"
   id="g840">
            <text
   x="1467"
   y="3660.74"
   style="font-size:57.083px;font-family:ArialMT, Arial, sans-serif;fill:#231f20"
   id="text838">vitae lacus.</text>
        </g>
        <g
   transform="matrix(0.71,0,0,1,425.429,0)"
   id="g854">
            <text
   x="1467"
   y="3719.6899"
   style="font-size:57.083px;font-family:ArialMT, Arial, sans-serif;fill:#231f20"
   id="text852">Lorem <tspan
   x="1661.92"
   y="3719.6899"
   id="tspan842">i</tspan>psum <tspan
   x="1847.3101"
   y="3719.6899"
   id="tspan844">d</tspan>olor <tspan
   x="2007.36"
   y="3719.6899"
   id="tspan846">s</tspan>it <tspan
   x="2097.5701"
   y="3719.6899"
   id="tspan848">a</tspan>met, <tspan
   x="2273.45"
   y="3719.6899"
   id="tspan850">c</tspan>onsectetuer</text>
        </g>
    </g>
    <g
   transform="translate(-15.447867,-99.349762)"
   id="g992">
        <g
   transform="matrix(0.71,0,0,1,425.429,0)"
   id="g870">
            <text
   x="1467"
   y="3248.0801"
   style="font-size:57.083px;font-family:ArialMT, Arial, sans-serif;fill:#231f20"
   id="text868">adipiscing <tspan
   x="1759.65"
   y="3248.0801"
   id="tspan858">e</tspan>lit. <tspan
   x="1887.27"
   y="3248.0801"
   id="tspan860">Q</tspan>uisque <tspan
   x="2138.6799"
   y="3248.0801"
   id="tspan862">i</tspan>n <tspan
   x="2221.8999"
   y="3248.0801"
   id="tspan864">a</tspan>ugue. <tspan
   x="2435.28"
   y="3248.0801"
   id="tspan866">D</tspan>onec</text>
        </g>
        <g
   transform="matrix(0.71,0,0,1,425.429,0)"
   id="g884">
            <text
   x="1467"
   y="3307.03"
   style="font-size:57.083px;font-family:ArialMT, Arial, sans-serif;fill:#231f20"
   id="text882">aliquam <tspan
   x="1680.33"
   y="3307.03"
   id="tspan872">m</tspan>agna <tspan
   x="1868.3"
   y="3307.03"
   id="tspan874">n</tspan>onummy <tspan
   x="2132.3701"
   y="3307.03"
   id="tspan876">e</tspan>nim. <tspan
   x="2285.3899"
   y="3307.03"
   id="tspan878">P</tspan>roin <tspan
   x="2432.0801"
   y="3307.03"
   id="tspan880">b</tspan>landit</text>
        </g>
        <g
   transform="matrix(0.71,0,0,1,425.429,0)"
   id="g898">
            <text
   x="1467"
   y="3365.99"
   style="font-size:57.083px;font-family:ArialMT, Arial, sans-serif;fill:#231f20"
   id="text896">imperdiet <tspan
   x="1730.4399"
   y="3365.99"
   id="tspan886">s</tspan>em. <tspan
   x="1882.8101"
   y="3365.99"
   id="tspan888">D</tspan>onec <tspan
   x="2076.49"
   y="3365.99"
   id="tspan890">m</tspan>alesuada, <tspan
   x="2400.28"
   y="3365.99"
   id="tspan892">u</tspan>rna <tspan
   x="2543.21"
   y="3365.99"
   id="tspan894">s</tspan>it</text>
        </g>
        <g
   transform="matrix(0.71,0,0,1,425.429,0)"
   id="g912">
            <text
   x="1467"
   y="3424.9299"
   style="font-size:57.083px;font-family:ArialMT, Arial, sans-serif;fill:#231f20"
   id="text910">amet <tspan
   x="1638.4301"
   y="3424.9299"
   id="tspan900">v</tspan>arius <tspan
   x="1835.23"
   y="3424.9299"
   id="tspan902">a</tspan>liquam, <tspan
   x="2095.53"
   y="3424.9299"
   id="tspan904">n</tspan>ibh <tspan
   x="2247.99"
   y="3424.9299"
   id="tspan906">t</tspan>ortor <tspan
   x="2425.75"
   y="3424.9299"
   id="tspan908">l</tspan>aoreet</text>
        </g>
        <g
   transform="matrix(0.71,0,0,1,425.429,0)"
   id="g928">
            <text
   x="1467"
   y="3483.8899"
   style="font-size:57.083px;font-family:ArialMT, Arial, sans-serif;fill:#231f20"
   id="text926">turpis, <tspan
   x="1653.33"
   y="3483.8899"
   id="tspan914">e</tspan>get <tspan
   x="1795.3101"
   y="3483.8899"
   id="tspan916">s</tspan>odales <tspan
   x="2022.95"
   y="3483.8899"
   id="tspan918">f</tspan>elis <tspan
   x="2155.3501 2186.24"
   y="3483.8899 3483.8899"
   id="tspan920"> n</tspan>ibh <tspan
   x="2325.04"
   y="3483.8899"
   id="tspan922">a</tspan>c <tspan
   x="2416.22"
   y="3483.8899"
   id="tspan924">s</tspan>apien.</text>
        </g>
        <g
   transform="matrix(0.71,0,0,1,425.429,0)"
   id="g944">
            <text
   x="1467"
   y="3542.8401"
   style="font-size:57.083px;font-family:ArialMT, Arial, sans-serif;fill:#231f20"
   id="text942">Fusce <tspan
   x="1638.05"
   y="3542.8401"
   id="tspan930">e</tspan>get <tspan
   x="1764.76"
   y="3542.8401"
   id="tspan932">a</tspan>ugue. <tspan
   x="1954.96"
   y="3542.8401"
   id="tspan934">I</tspan>nteger <tspan
   x="2148.28"
   y="3542.8401"
   id="tspan936">s</tspan>ed <tspan
   x="2255.9299"
   y="3542.8401"
   id="tspan938">r</tspan>isus. <tspan
   x="2403.48 2441.55"
   y="3542.8401 3542.8401"
   id="tspan940">Ae</tspan>nean</text>
        </g>
        <g
   transform="matrix(0.71,0,0,1,425.429,0)"
   id="g958">
            <text
   x="1467"
   y="3601.79"
   style="font-size:57.083px;font-family:ArialMT, Arial, sans-serif;fill:#231f20"
   id="text956">mollis. <tspan
   x="1658.7"
   y="3601.79"
   id="tspan946">D</tspan>onec <tspan
   x="1853.67"
   y="3601.79"
   id="tspan948">f</tspan>acilisis <tspan
   x="2067.5901"
   y="3601.79"
   id="tspan950">e</tspan>gestas <tspan
   x="2297.48"
   y="3601.79"
   id="tspan952">q</tspan>uam. <tspan
   x="2486.1001"
   y="3601.79"
   id="tspan954">D</tspan>uis</text>
        </g>
        <g
   transform="matrix(0.71,0,0,1,425.429,0)"
   id="g972">
            <text
   x="1467"
   y="3660.74"
   style="font-size:57.083px;font-family:ArialMT, Arial, sans-serif;fill:#231f20"
   id="text970">bibendum <tspan
   x="1751.1"
   y="3660.74"
   id="tspan960">a</tspan>ugue <tspan
   x="1943.22 1976.6"
   y="3660.74 3660.74"
   id="tspan962"> i</tspan>d <tspan
   x="2054.4099"
   y="3660.74"
   id="tspan964">m</tspan>auris. <tspan
   x="2274.9399"
   y="3660.74"
   id="tspan966">S</tspan>ed <tspan
   x="2409.8899"
   y="3660.74"
   id="tspan968">l</tspan>aoreet,</text>
        </g>
        <g
   transform="matrix(0.71,0,0,1,425.429,0)"
   id="g990">
            <g
   transform="matrix(57.0833,0,0,57.0833,2627.09,3719.69)"
   id="g974">
            </g>
            <text
   x="1467"
   y="3719.6899"
   style="font-size:57.083px;font-family:ArialMT, Arial, sans-serif;fill:#231f20"
   id="text988">tortor <tspan
   x="1613.04"
   y="3719.6899"
   id="tspan976">v</tspan>el <tspan
   x="1698.8199"
   y="3719.6899"
   id="tspan978">c</tspan>ursus <tspan
   x="1879.76"
   y="3719.6899"
   id="tspan980">f</tspan>ringilla, <tspan
   x="2089.26"
   y="3719.6899"
   id="tspan982">t</tspan>urpis <tspan
   x="2241.6599"
   y="3719.6899"
   id="tspan984">e</tspan>lit <tspan
   x="2327.4399"
   y="3719.6899"
   id="tspan986">v</tspan>estibulum</text>
        </g>
    </g>
    <g
   transform="translate(-7.0274174,-3176.4798)"
   id="g1002">
        <g
   transform="matrix(0.71,0,0,1,451.98,0)"
   id="g1000">
            <g
   transform="matrix(83.3333,0,0,83.3333,2256.44,3900.78)"
   id="g994">
            </g>
            <text
   x="1558.55"
   y="3900.78"
   style="font-style:italic;font-size:83.333px;font-family:Arial-ItalicMT, Arial, sans-serif;fill:#231f20"
   id="text998">T<tspan
   x="1598.6801 1645.03"
   y="3900.78 3900.78"
   id="tspan996">ab</tspan>le des Matières</text>
        </g>
    </g>
    <g
   transform="translate(-7.0274174,-2390.5198)"
   id="g1010">
        <g
   transform="matrix(0.71,0,0,1,494.261,0)"
   id="g1008">
            <g
   transform="matrix(83.3333,0,0,83.3333,1991.54,3900.78)"
   id="g1004">
            </g>
            <text
   x="1704.35"
   y="3900.78"
   style="font-style:italic;font-size:83.333px;font-family:Arial-ItalicMT, Arial, sans-serif;fill:#231f20"
   id="text1006">Préface</text>
        </g>
    </g>
    <g
   transform="translate(-7.0274174,-888.83676)"
   id="g1020">
        <g
   transform="matrix(0.71,0,0,1,464.844,0)"
   id="g1018">
            <g
   transform="matrix(83.3333,0,0,83.3333,2175.84,3900.78)"
   id="g1012">
            </g>
            <text
   x="1602.91"
   y="3900.78"
   style="font-style:italic;font-size:83.333px;font-family:Arial-ItalicMT, Arial, sans-serif;fill:#231f20"
   id="text1016">Pages de T<tspan
   x="2018.33 2064.6699"
   y="3900.78 3900.78"
   id="tspan1014">ex</tspan>te</text>
        </g>
    </g>
    <g
   transform="translate(-1170.3479,-2390.5198)"
   id="g1028">
        <g
   transform="matrix(0.71,0,0,1,425.121,0)"
   id="g1026">
            <g
   transform="matrix(83.3333,0,0,83.3333,2424.71,3900.78)"
   id="g1022">
            </g>
            <text
   x="1465.9301"
   y="3900.78"
   style="font-style:italic;font-size:83.333px;font-family:Arial-ItalicMT, Arial, sans-serif;fill:#231f20"
   id="text1024">Page des Remerciements</text>
        </g>
    </g>
</svg>
