<?xml version="1.0" encoding="UTF-8" standalone="no"?>
<svg
   width="2451.4651"
   height="4591.7798"
   viewBox="0 0 2451.4651 4591.7798"
   version="1.1"
   xml:space="preserve"
   style="clip-rule:evenodd;fill-rule:evenodd;stroke-linecap:round;stroke-linejoin:round;stroke-miterlimit:1.5"
   id="svg408"
   xmlns="http://www.w3.org/2000/svg"
   xmlns:svg="http://www.w3.org/2000/svg"><defs
   id="defs412" />
    <g
   transform="translate(-3.8378038,-23.351039)"
   id="g406">
        <g
   transform="matrix(2.74384,0,0,1.14784,-278.416,595.17)"
   id="g22">
            <g
   id="g10">
                <g
   transform="matrix(0.461424,0,0,0.481925,-73.5674,-193.813)"
   id="g4">
                    <rect
   x="446.681"
   y="624.70502"
   width="894.32898"
   height="1170.12"
   style="fill:#e7e8e9;stroke:#231f20;stroke-width:2.35px"
   id="rect2" />
                </g>
                <g
   transform="matrix(0.430696,0,0,0.489017,-65.0769,-204.804)"
   id="g8">
                    <rect
   x="549.633"
   y="732.56799"
   width="680.883"
   height="969.59998"
   style="fill:#ffffff"
   id="rect6" />
                </g>
            </g>
            <g
   transform="translate(-69.6469)"
   id="g20">
                <g
   transform="matrix(0.461424,0,0,0.481925,420.055,-193.813)"
   id="g14">
                    <rect
   x="446.681"
   y="624.70502"
   width="894.32898"
   height="1170.12"
   style="fill:#e7e8e9;stroke:#231f20;stroke-width:2.35px"
   id="rect12" />
                </g>
                <g
   transform="matrix(0.430696,0,0,0.489017,468.546,-204.804)"
   id="g18">
                    <rect
   x="549.633"
   y="732.56799"
   width="680.883"
   height="969.59998"
   style="fill:#ffffff"
   id="rect16" />
                </g>
            </g>
        </g>
        <g
   transform="matrix(2.74384,0,0,1.14795,-278.416,2158.93)"
   id="g44">
            <g
   id="g32">
                <g
   transform="matrix(0.461424,0,0,0.481925,-73.5674,-193.813)"
   id="g26">
                    <rect
   x="446.681"
   y="624.70502"
   width="894.32898"
   height="1170.12"
   style="fill:#e7e8e9;stroke:#231f20;stroke-width:2.35px"
   id="rect24" />
                </g>
                <g
   transform="matrix(0.430696,0,0,0.489017,-65.0769,-204.804)"
   id="g30">
                    <rect
   x="549.633"
   y="732.56799"
   width="680.883"
   height="969.59998"
   style="fill:#ffffff"
   id="rect28" />
                </g>
            </g>
            <g
   transform="translate(-69.6469)"
   id="g42">
                <g
   transform="matrix(0.461424,0,0,0.481925,420.055,-193.813)"
   id="g36">
                    <rect
   x="446.681"
   y="624.70502"
   width="894.32898"
   height="1170.12"
   style="fill:#e7e8e9;stroke:#231f20;stroke-width:2.35px"
   id="rect34" />
                </g>
                <g
   transform="matrix(0.430696,0,0,0.489017,468.546,-204.804)"
   id="g40">
                    <rect
   x="549.633"
   y="732.56799"
   width="680.883"
   height="969.59998"
   style="fill:#ffffff"
   id="rect38" />
                </g>
            </g>
        </g>
        <g
   transform="matrix(2.74384,0,0,1.1522,-278.416,2953.54)"
   id="g66">
            <g
   id="g54">
                <g
   transform="matrix(0.461424,0,0,0.481925,-73.5674,-193.813)"
   id="g48">
                    <rect
   x="446.681"
   y="624.70502"
   width="894.32898"
   height="1170.12"
   style="fill:#e7e8e9;stroke:#231f20;stroke-width:2.34px"
   id="rect46" />
                </g>
                <g
   transform="matrix(0.430696,0,0,0.489017,-65.0769,-204.804)"
   id="g52">
                    <rect
   x="549.633"
   y="732.56799"
   width="680.883"
   height="969.59998"
   style="fill:#ffffff"
   id="rect50" />
                </g>
            </g>
            <g
   transform="translate(-69.6469)"
   id="g64">
                <g
   transform="matrix(0.461424,0,0,0.481925,420.055,-193.813)"
   id="g58">
                    <rect
   x="446.681"
   y="624.70502"
   width="894.32898"
   height="1170.12"
   style="fill:#e7e8e9;stroke:#231f20;stroke-width:2.34px"
   id="rect56" />
                </g>
                <g
   transform="matrix(0.430696,0,0,0.489017,468.546,-204.804)"
   id="g62">
                    <rect
   x="549.633"
   y="732.56799"
   width="680.883"
   height="969.59998"
   style="fill:#ffffff"
   id="rect60" />
                </g>
            </g>
        </g>
        <g
   transform="matrix(2.74384,0,0,1.14795,-278.416,1379.85)"
   id="g88">
            <g
   id="g76">
                <g
   transform="matrix(0.461424,0,0,0.481925,-73.5674,-193.813)"
   id="g70">
                    <rect
   x="446.681"
   y="624.70502"
   width="894.32898"
   height="1170.12"
   style="fill:#e7e8e9;stroke:#231f20;stroke-width:2.35px"
   id="rect68" />
                </g>
                <g
   transform="matrix(0.430696,0,0,0.489017,-65.0769,-204.804)"
   id="g74">
                    <rect
   x="549.633"
   y="732.56799"
   width="680.883"
   height="969.59998"
   style="fill:#ffffff"
   id="rect72" />
                </g>
            </g>
            <g
   transform="translate(-69.6469)"
   id="g86">
                <g
   transform="matrix(0.461424,0,0,0.481925,420.055,-193.813)"
   id="g80">
                    <rect
   x="446.681"
   y="624.70502"
   width="894.32898"
   height="1170.12"
   style="fill:#e7e8e9;stroke:#231f20;stroke-width:2.35px"
   id="rect78" />
                </g>
                <g
   transform="matrix(0.430696,0,0,0.489017,468.546,-204.804)"
   id="g84">
                    <rect
   x="549.633"
   y="732.56799"
   width="680.883"
   height="969.59998"
   style="fill:#ffffff"
   id="rect82" />
                </g>
            </g>
        </g>
        <g
   transform="matrix(2.74384,0,0,1.14795,-278.416,3767.38)"
   id="g110">
            <g
   id="g98">
                <g
   transform="matrix(0.461424,0,0,0.481925,-73.5674,-193.813)"
   id="g92">
                    <rect
   x="446.681"
   y="624.70502"
   width="894.32898"
   height="1170.12"
   style="fill:#e7e8e9;stroke:#231f20;stroke-width:2.35px"
   id="rect90" />
                </g>
                <g
   transform="matrix(0.430696,0,0,0.489017,-65.0769,-204.804)"
   id="g96">
                    <rect
   x="549.633"
   y="732.56799"
   width="680.883"
   height="969.59998"
   style="fill:#ffffff"
   id="rect94" />
                </g>
            </g>
            <g
   transform="translate(-69.6469)"
   id="g108">
                <g
   transform="matrix(0.461424,0,0,0.481925,420.055,-193.813)"
   id="g102">
                    <rect
   x="446.681"
   y="624.70502"
   width="894.32898"
   height="1170.12"
   style="fill:#e7e8e9;stroke:#231f20;stroke-width:2.35px"
   id="rect100" />
                </g>
                <g
   transform="matrix(0.430696,0,0,0.489017,468.546,-204.804)"
   id="g106">
                    <rect
   x="549.633"
   y="732.56799"
   width="680.883"
   height="969.59998"
   style="fill:#ffffff"
   id="rect104" />
                </g>
            </g>
        </g>
        <g
   transform="matrix(2.74384,0,0,1.15051,-469.516,-99.3901)"
   id="g120">
            <g
   transform="matrix(0.461424,0,0,0.481925,420.055,-193.813)"
   id="g114">
                <rect
   x="446.681"
   y="624.70502"
   width="894.32898"
   height="1170.12"
   style="fill:#e7e8e9;stroke:#231f20;stroke-width:2.34px"
   id="rect112" />
            </g>
            <g
   transform="matrix(0.430696,0,0,0.489017,468.546,-204.804)"
   id="g118">
                <rect
   x="549.633"
   y="732.56799"
   width="680.883"
   height="969.59998"
   style="fill:#ffffff"
   id="rect116" />
            </g>
        </g>
        <g
   transform="matrix(2.74384,0,0,2.74384,-1942.29,-1659.64)"
   id="g148">
            <g
   transform="matrix(0.498134,0,0,0.498134,959.231,365.887)"
   id="g128">
                <g
   transform="matrix(0.71,0,0,1,225.693,0)"
   id="g126">
                    <g
   transform="matrix(72.98,0,0,72.98,1013.41,1358.34)"
   id="g122">
                    </g>
                    <text
   x="778.25299"
   y="1358.34"
   style="font-weight:700;font-size:72.98px;font-family:Arial-BoldMT, Arial, sans-serif;fill:#231f20"
   id="text124">Auteur</text>
                </g>
            </g>
            <g
   transform="matrix(0.498134,0,0,0.498134,942.392,319.57)"
   id="g136">
                <g
   transform="matrix(0.71,0,0,1,225.693,0)"
   id="g134">
                    <g
   transform="matrix(72.98,0,0,72.98,1110.76,1358.34)"
   id="g130">
                    </g>
                    <text
   x="778.25299"
   y="1358.34"
   style="font-weight:700;font-size:72.98px;font-family:Arial-BoldMT, Arial, sans-serif;fill:#231f20"
   id="text132">sous-titre</text>
                </g>
            </g>
            <g
   transform="matrix(0.498134,0,0,0.498134,973.579,275.618)"
   id="g146">
                <g
   transform="matrix(0.71,0,0,1,225.693,0)"
   id="g144">
                    <g
   transform="matrix(72.98,0,0,72.98,934.543,1358.34)"
   id="g138">
                    </g>
                    <text
   x="778.25299"
   y="1358.34"
   style="font-weight:700;font-size:72.98px;font-family:Arial-BoldMT, Arial, sans-serif;fill:#231f20"
   id="text142">T<tspan
   x="820.97498 841.25098"
   y="1358.34 1358.34"
   id="tspan140">it</tspan>re</text>
                </g>
            </g>
        </g>
        <g
   transform="matrix(1.13207,0,0,1.13207,892.036,1187.55)"
   id="g156">
            <g
   transform="matrix(0.71,0,0,1,225.693,0)"
   id="g154">
                <g
   transform="matrix(72.98,0,0,72.98,1013.41,1358.34)"
   id="g150">
                </g>
                <text
   x="778.25299"
   y="1358.34"
   style="font-weight:700;font-size:72.98px;font-family:Arial-BoldMT, Arial, sans-serif;fill:#231f20"
   id="text152">Auteur</text>
            </g>
        </g>
        <g
   transform="matrix(0.732496,0,0,0.732496,1031.32,3075.89)"
   id="g164">
            <g
   transform="matrix(0.71,0,0,1,225.693,0)"
   id="g162">
                <g
   transform="matrix(72.98,0,0,72.98,1844.87,1358.34)"
   id="g158">
                </g>
                <text
   x="778.25299"
   y="1358.34"
   style="font-weight:700;font-size:72.98px;font-family:Arial-BoldMT, Arial, sans-serif;fill:#231f20"
   id="text160">Chapitre 1...............................12</text>
            </g>
        </g>
        <g
   transform="matrix(0.732496,0,0,0.732496,1028.74,3307.65)"
   id="g172">
            <g
   transform="matrix(0.71,0,0,1,225.693,0)"
   id="g170">
                <g
   transform="matrix(72.98,0,0,72.98,1865.15,1358.34)"
   id="g166">
                </g>
                <text
   x="778.25299"
   y="1358.34"
   style="font-weight:700;font-size:72.98px;font-family:Arial-BoldMT, Arial, sans-serif;fill:#231f20"
   id="text168">Chapitre 2................................31</text>
            </g>
        </g>
        <g
   transform="translate(8.42045,-97.6194)"
   id="g180">
            <g
   transform="matrix(0.71,0,0,1,453.715,0)"
   id="g178">
                <g
   transform="matrix(83.3333,0,0,83.3333,2245.56,3900.78)"
   id="g174">
                </g>
                <text
   x="1564.53"
   y="3900.78"
   style="font-style:italic;font-size:83.333px;font-family:Arial-ItalicMT, Arial, sans-serif;fill:#231f20"
   id="text176">Page de Dédicace</text>
            </g>
        </g>
        <g
   transform="translate(-1154.9,-97.6194)"
   id="g188">
            <g
   transform="matrix(0.71,0,0,1,433.679,0)"
   id="g186">
                <g
   transform="matrix(83.3333,0,0,83.3333,2371.1,3900.78)"
   id="g182">
                </g>
                <text
   x="1495.4399"
   y="3900.78"
   style="font-style:italic;font-size:83.333px;font-family:Arial-ItalicMT, Arial, sans-serif;fill:#231f20"
   id="text184">Page de Mention légale</text>
            </g>
        </g>
        <g
   transform="translate(8.42045,713.374)"
   id="g198">
            <g
   transform="matrix(0.71,0,0,1,451.98,0)"
   id="g196">
                <g
   transform="matrix(83.3333,0,0,83.3333,2256.44,3900.78)"
   id="g190">
                </g>
                <text
   x="1558.55"
   y="3900.78"
   style="font-style:italic;font-size:83.333px;font-family:Arial-ItalicMT, Arial, sans-serif;fill:#231f20"
   id="text194">T<tspan
   x="1598.6801 1645.03"
   y="3900.78 3900.78"
   id="tspan192">ab</tspan>le des matières</text>
            </g>
        </g>
        <g
   transform="translate(8.42045,-895.077)"
   id="g208">
            <g
   transform="matrix(0.71,0,0,1,472.429,0)"
   id="g206">
                <g
   transform="matrix(83.3333,0,0,83.3333,2128.32,3900.78)"
   id="g200">
                </g>
                <text
   x="1629.0699"
   y="3900.78"
   style="font-style:italic;font-size:83.333px;font-family:Arial-ItalicMT, Arial, sans-serif;fill:#231f20"
   id="text204">Page de T<tspan
   x="2012.5601 2031.0699"
   y="3900.78 3900.78"
   id="tspan202">it</tspan>re</text>
            </g>
        </g>
        <g
   transform="translate(8.42045,-1674.16)"
   id="g216">
            <g
   transform="matrix(0.71,0,0,1,465.637,0)"
   id="g214">
                <g
   transform="matrix(83.3333,0,0,83.3333,2170.87,3900.78)"
   id="g210">
                </g>
                <text
   x="1605.64"
   y="3900.78"
   style="font-style:italic;font-size:83.333px;font-family:Arial-ItalicMT, Arial, sans-serif;fill:#231f20"
   id="text212">Page de Garde</text>
            </g>
        </g>
        <g
   transform="translate(8.42045,-2458.91)"
   id="g224">
            <g
   transform="matrix(0.71,0,0,1,453.25,0)"
   id="g222">
                <g
   transform="matrix(83.3333,0,0,83.3333,2248.48,3900.78)"
   id="g218">
                </g>
                <text
   x="1562.9301"
   y="3900.78"
   style="font-style:italic;font-size:83.333px;font-family:Arial-ItalicMT, Arial, sans-serif;fill:#231f20"
   id="text220">Page de Faux-titre</text>
            </g>
        </g>
        <g
   transform="matrix(0.815105,0,0,0.815105,1132.96,1522.51)"
   id="g232">
            <g
   transform="matrix(0.71,0,0,1,225.693,0)"
   id="g230">
                <g
   transform="matrix(72.98,0,0,72.98,1110.76,1358.34)"
   id="g226">
                </g>
                <text
   x="778.25299"
   y="1358.34"
   style="font-weight:700;font-size:72.98px;font-family:Arial-BoldMT, Arial, sans-serif;fill:#231f20"
   id="text228">sous-titre</text>
            </g>
        </g>
        <g
   transform="matrix(0.645518,0,0,0.645518,1188.84,3252.21)"
   id="g240">
            <g
   transform="matrix(0.71,0,0,1,225.693,0)"
   id="g238">
                <g
   transform="matrix(72.98,0,0,72.98,1792.2,1358.34)"
   id="g234">
                </g>
                <text
   x="778.25299"
   y="1358.34"
   style="font-weight:700;font-size:72.98px;font-family:Arial-BoldMT, Arial, sans-serif;fill:#231f20"
   id="text236">Section 1.1...........................12</text>
            </g>
        </g>
        <g
   transform="matrix(0.645518,0,0,0.645518,1188.84,3479.1)"
   id="g248">
            <g
   transform="matrix(0.71,0,0,1,225.693,0)"
   id="g246">
                <g
   transform="matrix(72.98,0,0,72.98,1792.2,1358.34)"
   id="g242">
                </g>
                <text
   x="778.25299"
   y="1358.34"
   style="font-weight:700;font-size:72.98px;font-family:Arial-BoldMT, Arial, sans-serif;fill:#231f20"
   id="text244">Section 2.1...........................31</text>
            </g>
        </g>
        <g
   transform="matrix(0.645518,0,0,0.645518,1188.84,3530.65)"
   id="g256">
            <g
   transform="matrix(0.71,0,0,1,225.693,0)"
   id="g254">
                <g
   transform="matrix(72.98,0,0,72.98,1792.2,1358.34)"
   id="g250">
                </g>
                <text
   x="778.25299"
   y="1358.34"
   style="font-weight:700;font-size:72.98px;font-family:Arial-BoldMT, Arial, sans-serif;fill:#231f20"
   id="text252">Section 2.2...........................43</text>
            </g>
        </g>
        <g
   transform="matrix(0.645518,0,0,0.645518,1188.84,3305.79)"
   id="g264">
            <g
   transform="matrix(0.71,0,0,1,225.693,0)"
   id="g262">
                <g
   transform="matrix(72.98,0,0,72.98,1792.2,1358.34)"
   id="g258">
                </g>
                <text
   x="778.25299"
   y="1358.34"
   style="font-weight:700;font-size:72.98px;font-family:Arial-BoldMT, Arial, sans-serif;fill:#231f20"
   id="text260">Section 1.2...........................16</text>
            </g>
        </g>
        <g
   transform="matrix(0.645518,0,0,0.645518,1188.84,3356.57)"
   id="g272">
            <g
   transform="matrix(0.71,0,0,1,225.693,0)"
   id="g270">
                <g
   transform="matrix(72.98,0,0,72.98,1792.2,1358.34)"
   id="g266">
                </g>
                <text
   x="778.25299"
   y="1358.34"
   style="font-weight:700;font-size:72.98px;font-family:Arial-BoldMT, Arial, sans-serif;fill:#231f20"
   id="text268">Section 1.3...........................23</text>
            </g>
        </g>
        <g
   transform="matrix(1.22709,0,0,1.03526,-706.523,2142.3)"
   id="g280">
            <g
   transform="matrix(0.71,0,0,1,225.693,0)"
   id="g278">
                <g
   transform="matrix(72.98,0,0,72.98,1347.3,1358.34)"
   id="g274">
                </g>
                <text
   x="778.25299"
   y="1358.34"
   style="font-size:72.98px;font-family:ArialMT, Arial, sans-serif;fill:#231f20"
   id="text276">@ mention légale</text>
            </g>
        </g>
        <g
   transform="matrix(0.815105,0,0,0.815105,1131.95,1271.18)"
   id="g288">
            <g
   transform="matrix(0.71,0,0,1,225.693,0)"
   id="g286">
                <g
   transform="matrix(72.98,0,0,72.98,1131,1358.34)"
   id="g282">
                </g>
                <text
   x="778.25299"
   y="1358.34"
   style="font-weight:700;font-size:72.98px;font-family:Arial-BoldMT, Arial, sans-serif;fill:#231f20"
   id="text284">Collection</text>
            </g>
        </g>
        <g
   transform="matrix(0.815105,0,0,0.815105,1075.58,2295.59)"
   id="g296">
            <g
   transform="matrix(0.71,0,0,1,225.693,0)"
   id="g294">
                <g
   transform="matrix(72.98,0,0,72.98,1419.14,1358.34)"
   id="g290">
                </g>
                <text
   x="778.25299"
   y="1358.34"
   style="font-style:italic;font-size:72.98px;font-family:Arial-ItalicMT, Arial, sans-serif;fill:#231f20"
   id="text292">À mon cher chien…</text>
            </g>
        </g>
        <g
   transform="matrix(0.815105,0,0,0.815105,1159.04,1771.48)"
   id="g304">
            <g
   transform="matrix(0.71,0,0,1,225.693,0)"
   id="g302">
                <g
   transform="matrix(72.98,0,0,72.98,1029.66,1358.34)"
   id="g298">
                </g>
                <text
   x="778.25299"
   y="1358.34"
   style="font-weight:700;font-size:72.98px;font-family:Arial-BoldMT, Arial, sans-serif;fill:#231f20"
   id="text300">Éditeur</text>
            </g>
        </g>
        <g
   transform="matrix(1.3668,0,0,1.3668,729.057,699.995)"
   id="g314">
            <g
   transform="matrix(0.71,0,0,1,225.693,0)"
   id="g312">
                <g
   transform="matrix(72.98,0,0,72.98,934.543,1358.34)"
   id="g306">
                </g>
                <text
   x="778.25299"
   y="1358.34"
   style="font-weight:700;font-size:72.98px;font-family:Arial-BoldMT, Arial, sans-serif;fill:#231f20"
   id="text310">T<tspan
   x="820.97498 841.25098"
   y="1358.34 1358.34"
   id="tspan308">it</tspan>re</text>
            </g>
        </g>
        <g
   transform="matrix(1.3668,0,0,1.3668,1355.89,-1186.51)"
   id="g322">
            <g
   transform="matrix(0.71,0,0,1,225.693,0)"
   id="g320">
                <g
   transform="matrix(54.8728,0,0,54.8728,808.77,1358.34)"
   id="g316">
                </g>
                <text
   x="778.25299"
   y="1358.34"
   style="font-weight:700;font-size:54.873px;font-family:Arial-BoldMT, Arial, sans-serif;fill:#231f20"
   id="text318">1</text>
            </g>
        </g>
        <g
   transform="matrix(1.3668,0,0,1.3668,1364.26,-495.241)"
   id="g330">
            <g
   transform="matrix(0.71,0,0,1,225.693,0)"
   id="g328">
                <g
   transform="matrix(54.8728,0,0,54.8728,808.77,1358.34)"
   id="g324">
                </g>
                <text
   x="778.25299"
   y="1358.34"
   style="font-weight:700;font-size:54.873px;font-family:Arial-BoldMT, Arial, sans-serif;fill:#231f20"
   id="text326">3</text>
            </g>
        </g>
        <g
   transform="matrix(1.3668,0,0,1.3668,1348.21,1069.81)"
   id="g338">
            <g
   transform="matrix(0.71,0,0,1,225.693,0)"
   id="g336">
                <g
   transform="matrix(54.8728,0,0,54.8728,808.77,1358.34)"
   id="g332">
                </g>
                <text
   x="778.25299"
   y="1358.34"
   style="font-weight:700;font-size:54.873px;font-family:Arial-BoldMT, Arial, sans-serif;fill:#231f20"
   id="text334">7</text>
            </g>
        </g>
        <g
   transform="matrix(1.3668,0,0,1.3668,1348.21,1867.27)"
   id="g346">
            <g
   transform="matrix(0.71,0,0,1,225.693,0)"
   id="g344">
                <g
   transform="matrix(54.8728,0,0,54.8728,808.77,1358.34)"
   id="g340">
                </g>
                <text
   x="778.25299"
   y="1358.34"
   style="font-weight:700;font-size:54.873px;font-family:Arial-BoldMT, Arial, sans-serif;fill:#231f20"
   id="text342">9</text>
            </g>
        </g>
        <g
   transform="matrix(1.3668,0,0,1.3668,1347.42,289.51)"
   id="g354">
            <g
   transform="matrix(0.71,0,0,1,225.693,0)"
   id="g352">
                <g
   transform="matrix(54.8728,0,0,54.8728,808.77,1358.34)"
   id="g348">
                </g>
                <text
   x="778.25299"
   y="1358.34"
   style="font-weight:700;font-size:54.873px;font-family:Arial-BoldMT, Arial, sans-serif;fill:#231f20"
   id="text350">5</text>
            </g>
        </g>
        <g
   transform="matrix(1.3668,0,0,1.3668,1325.42,2677.04)"
   id="g364">
            <g
   transform="matrix(0.71,0,0,1,225.693,0)"
   id="g362">
                <g
   transform="matrix(54.8728,0,0,54.8728,835.024,1358.34)"
   id="g356">
                </g>
                <text
   x="778.25299"
   y="1358.34"
   style="font-weight:700;font-size:54.873px;font-family:Arial-BoldMT, Arial, sans-serif;fill:#231f20"
   id="text360">1<tspan
   x="804.50598"
   y="1358.34"
   id="tspan358">1</tspan></text>
            </g>
        </g>
        <g
   transform="matrix(1.3668,0,0,1.3668,-1032.64,-495.241)"
   id="g372">
            <g
   transform="matrix(0.71,0,0,1,225.693,0)"
   id="g370">
                <g
   transform="matrix(72.98,0,0,72.98,818.841,1358.34)"
   id="g366">
                </g>
                <text
   x="778.25299"
   y="1358.34"
   style="font-weight:700;font-size:72.98px;font-family:Arial-BoldMT, Arial, sans-serif;fill:#231f20"
   id="text368">2</text>
            </g>
        </g>
        <g
   transform="matrix(1.3668,0,0,1.3668,-1048.68,1069.81)"
   id="g380">
            <g
   transform="matrix(0.71,0,0,1,225.693,0)"
   id="g378">
                <g
   transform="matrix(72.98,0,0,72.98,818.841,1358.34)"
   id="g374">
                </g>
                <text
   x="778.25299"
   y="1358.34"
   style="font-weight:700;font-size:72.98px;font-family:Arial-BoldMT, Arial, sans-serif;fill:#231f20"
   id="text376">6</text>
            </g>
        </g>
        <g
   transform="matrix(1.3668,0,0,1.3668,-1048.68,1867.27)"
   id="g388">
            <g
   transform="matrix(0.71,0,0,1,225.693,0)"
   id="g386">
                <g
   transform="matrix(72.98,0,0,72.98,818.841,1358.34)"
   id="g382">
                </g>
                <text
   x="778.25299"
   y="1358.34"
   style="font-weight:700;font-size:72.98px;font-family:Arial-BoldMT, Arial, sans-serif;fill:#231f20"
   id="text384">8</text>
            </g>
        </g>
        <g
   transform="matrix(1.3668,0,0,1.3668,-1049.48,289.51)"
   id="g396">
            <g
   transform="matrix(0.71,0,0,1,225.693,0)"
   id="g394">
                <g
   transform="matrix(72.98,0,0,72.98,818.841,1358.34)"
   id="g390">
                </g>
                <text
   x="778.25299"
   y="1358.34"
   style="font-weight:700;font-size:72.98px;font-family:Arial-BoldMT, Arial, sans-serif;fill:#231f20"
   id="text392">4</text>
            </g>
        </g>
        <g
   transform="matrix(1.3668,0,0,1.3668,-1065.48,2680.04)"
   id="g404">
            <g
   transform="matrix(0.71,0,0,1,225.693,0)"
   id="g402">
                <g
   transform="matrix(72.98,0,0,72.98,859.429,1358.34)"
   id="g398">
                </g>
                <text
   x="778.25299"
   y="1358.34"
   style="font-weight:700;font-size:72.98px;font-family:Arial-BoldMT, Arial, sans-serif;fill:#231f20"
   id="text400">10</text>
            </g>
        </g>
    </g>
</svg>
