<?xml version="1.0" encoding="UTF-8" standalone="no"?>
<svg
   width="2445.6663"
   height="3075.7698"
   viewBox="0 0 2445.6663 3075.7698"
   version="1.1"
   xml:space="preserve"
   style="clip-rule:evenodd;fill-rule:evenodd;stroke-linecap:round;stroke-linejoin:round;stroke-miterlimit:1.5"
   id="svg504"
   xmlns="http://www.w3.org/2000/svg"
   xmlns:svg="http://www.w3.org/2000/svg"><defs
   id="defs508" />
    <g
   transform="translate(-10.447867,-41.349762)"
   id="g502">
        <g
   transform="matrix(2.74384,0,0,1.14795,-277.053,1490.38)"
   id="g22">
            <g
   id="g10">
                <g
   transform="matrix(0.461424,0,0,0.481925,-73.5674,-193.813)"
   id="g4">
                    <rect
   x="446.681"
   y="624.70502"
   width="894.32898"
   height="1170.12"
   style="fill:#e7e8e9;stroke:#231f20;stroke-width:2.35px"
   id="rect2" />
                </g>
                <g
   transform="matrix(0.430696,0,0,0.489017,-65.0769,-204.804)"
   id="g8">
                    <rect
   x="549.633"
   y="732.56799"
   width="680.883"
   height="969.59998"
   style="fill:#ffffff"
   id="rect6" />
                </g>
            </g>
            <g
   transform="translate(-69.6469)"
   id="g20">
                <g
   transform="matrix(0.461424,0,0,0.481925,420.055,-193.813)"
   id="g14">
                    <rect
   x="446.681"
   y="624.70502"
   width="894.32898"
   height="1170.12"
   style="fill:#e7e8e9;stroke:#231f20;stroke-width:2.35px"
   id="rect12" />
                </g>
                <g
   transform="matrix(0.430696,0,0,0.489017,468.546,-204.804)"
   id="g18">
                    <rect
   x="549.633"
   y="732.56799"
   width="680.883"
   height="969.59998"
   style="fill:#ffffff"
   id="rect16" />
                </g>
            </g>
        </g>
        <g
   transform="matrix(2.74384,0,0,1.14795,-277.053,2269.37)"
   id="g44">
            <g
   id="g32">
                <g
   transform="matrix(0.461424,0,0,0.481925,-73.5674,-193.813)"
   id="g26">
                    <rect
   x="446.681"
   y="624.70502"
   width="894.32898"
   height="1170.12"
   style="fill:#e7e8e9;stroke:#231f20;stroke-width:2.35px"
   id="rect24" />
                </g>
                <g
   transform="matrix(0.430696,0,0,0.489017,-65.0769,-204.804)"
   id="g30">
                    <rect
   x="549.633"
   y="732.56799"
   width="680.883"
   height="969.59998"
   style="fill:#ffffff"
   id="rect28" />
                </g>
            </g>
            <g
   transform="translate(-69.6469)"
   id="g42">
                <g
   transform="matrix(0.461424,0,0,0.481925,420.055,-193.813)"
   id="g36">
                    <rect
   x="446.681"
   y="624.70502"
   width="894.32898"
   height="1170.12"
   style="fill:#e7e8e9;stroke:#231f20;stroke-width:2.35px"
   id="rect34" />
                </g>
                <g
   transform="matrix(0.430696,0,0,0.489017,468.546,-204.804)"
   id="g40">
                    <rect
   x="549.633"
   y="732.56799"
   width="680.883"
   height="969.59998"
   style="fill:#ffffff"
   id="rect38" />
                </g>
            </g>
        </g>
        <g
   transform="matrix(2.74384,0,0,1.14795,-278.416,704.845)"
   id="g66">
            <g
   id="g54">
                <g
   transform="matrix(0.461424,0,0,0.481925,-73.5674,-193.813)"
   id="g48">
                    <rect
   x="446.681"
   y="624.70502"
   width="894.32898"
   height="1170.12"
   style="fill:#e7e8e9;stroke:#231f20;stroke-width:2.35px"
   id="rect46" />
                </g>
                <g
   transform="matrix(0.430696,0,0,0.489017,-65.0769,-204.804)"
   id="g52">
                    <rect
   x="549.633"
   y="732.56799"
   width="680.883"
   height="969.59998"
   style="fill:#ffffff"
   id="rect50" />
                </g>
            </g>
            <g
   transform="translate(-69.6469)"
   id="g64">
                <g
   transform="matrix(0.461424,0,0,0.481925,420.055,-193.813)"
   id="g58">
                    <rect
   x="446.681"
   y="624.70502"
   width="894.32898"
   height="1170.12"
   style="fill:#e7e8e9;stroke:#231f20;stroke-width:2.35px"
   id="rect56" />
                </g>
                <g
   transform="matrix(0.430696,0,0,0.489017,468.546,-204.804)"
   id="g62">
                    <rect
   x="549.633"
   y="732.56799"
   width="680.883"
   height="969.59998"
   style="fill:#ffffff"
   id="rect60" />
                </g>
            </g>
        </g>
        <g
   transform="matrix(2.74384,0,0,1.14795,-278.416,-81.1155)"
   id="g88">
            <g
   id="g76">
                <g
   transform="matrix(0.461424,0,0,0.481925,-73.5674,-193.813)"
   id="g70">
                    <rect
   x="446.681"
   y="624.70502"
   width="894.32898"
   height="1170.12"
   style="fill:#e7e8e9;stroke:#231f20;stroke-width:2.35px"
   id="rect68" />
                </g>
                <g
   transform="matrix(0.430696,0,0,0.489017,-65.0769,-204.804)"
   id="g74">
                    <rect
   x="549.633"
   y="732.56799"
   width="680.883"
   height="969.59998"
   style="fill:#ffffff"
   id="rect72" />
                </g>
            </g>
            <g
   transform="translate(-69.6469)"
   id="g86">
                <g
   transform="matrix(0.461424,0,0,0.481925,420.055,-193.813)"
   id="g80">
                    <rect
   x="446.681"
   y="624.70502"
   width="894.32898"
   height="1170.12"
   style="fill:#e7e8e9;stroke:#231f20;stroke-width:2.35px"
   id="rect78" />
                </g>
                <g
   transform="matrix(0.430696,0,0,0.489017,468.546,-204.804)"
   id="g84">
                    <rect
   x="549.633"
   y="732.56799"
   width="680.883"
   height="969.59998"
   style="fill:#ffffff"
   id="rect82" />
                </g>
            </g>
        </g>
        <g
   transform="matrix(0.732496,0,0,0.732496,1031.32,-772.612)"
   id="g96">
            <g
   transform="matrix(0.71,0,0,1,225.693,0)"
   id="g94">
                <g
   transform="matrix(72.98,0,0,72.98,1844.87,1358.34)"
   id="g90">
                </g>
                <text
   x="778.25299"
   y="1358.34"
   style="font-weight:700;font-size:72.98px;font-family:Arial-BoldMT, Arial, sans-serif;fill:#231f20"
   id="text92">Chapitre 1...............................12</text>
            </g>
        </g>
        <g
   transform="matrix(1.28391,0,0,1.28391,865.56,883.573)"
   id="g104">
            <g
   transform="matrix(0.71,0,0,1,225.693,0)"
   id="g102">
                <g
   transform="matrix(72.98,0,0,72.98,798.529,1358.34)"
   id="g98">
                </g>
                <text
   x="778.25299"
   y="1358.34"
   style="font-weight:700;font-size:72.98px;font-family:Arial-BoldMT, Arial, sans-serif;fill:#231f20"
   id="text100">I</text>
            </g>
        </g>
        <g
   transform="matrix(0.732496,0,0,0.732496,1028.74,-540.848)"
   id="g112">
            <g
   transform="matrix(0.71,0,0,1,225.693,0)"
   id="g110">
                <g
   transform="matrix(72.98,0,0,72.98,1865.15,1358.34)"
   id="g106">
                </g>
                <text
   x="778.25299"
   y="1358.34"
   style="font-weight:700;font-size:72.98px;font-family:Arial-BoldMT, Arial, sans-serif;fill:#231f20"
   id="text108">Chapitre 2................................31</text>
            </g>
        </g>
        <g
   transform="matrix(0.645518,0,0,0.645518,1188.84,-596.292)"
   id="g120">
            <g
   transform="matrix(0.71,0,0,1,225.693,0)"
   id="g118">
                <g
   transform="matrix(72.98,0,0,72.98,1792.2,1358.34)"
   id="g114">
                </g>
                <text
   x="778.25299"
   y="1358.34"
   style="font-weight:700;font-size:72.98px;font-family:Arial-BoldMT, Arial, sans-serif;fill:#231f20"
   id="text116">Section 1.1...........................12</text>
            </g>
        </g>
        <g
   transform="matrix(0.645518,0,0,0.645518,-117.468,65.9219)"
   id="g128">
            <g
   transform="matrix(0.71,0,0,1,225.693,0)"
   id="g126">
                <g
   transform="matrix(72.98,0,0,72.98,1739.54,1358.34)"
   id="g122">
                </g>
                <text
   x="778.25299"
   y="1358.34"
   style="font-weight:700;font-size:72.98px;font-family:Arial-BoldMT, Arial, sans-serif;fill:#231f20"
   id="text124">Image 1.1...........................12</text>
            </g>
        </g>
        <g
   transform="matrix(0.645518,0,0,0.645518,1021.7,125.922)"
   id="g136">
            <g
   transform="matrix(0.71,0,0,1,225.693,0)"
   id="g134">
                <g
   transform="matrix(72.98,0,0,72.98,1110.83,1358.34)"
   id="g130">
                </g>
                <text
   x="778.25299"
   y="1358.34"
   style="font-weight:700;font-size:72.98px;font-family:Arial-BoldMT, Arial, sans-serif;fill:#231f20"
   id="text132">a.    avion</text>
            </g>
        </g>
        <g
   transform="matrix(0.645518,0,0,0.645518,-240.164,878.497)"
   id="g176">
            <g
   transform="matrix(0.71,0,0,1,225.693,0)"
   id="g140">
                <text
   x="778.25299"
   y="1358.34"
   style="font-weight:700;font-size:72.98px;font-family:Arial-BoldMT, Arial, sans-serif;fill:#231f20"
   id="text138">avion</text>
            </g>
            <g
   transform="matrix(0.71,0,0,1,225.693,0)"
   id="g150">
                <g
   transform="matrix(72.98,0,0,72.98,2071.85,1433.71)"
   id="g142">
                </g>
                <g
   transform="matrix(72.98,0,0,72.98,2096.15,1433.71)"
   id="g144">
                </g>
                <text
   x="1086.62"
   y="1433.71"
   style="font-weight:700;font-size:72.98px;font-family:Arial-BoldMT, Arial, sans-serif;fill:#231f20"
   id="text148"><tspan
   x="1086.62"
   y="1433.71"
   id="tspan146">O</tspan>bjet volant tout à fait identiﬁé</text>
            </g>
            <g
   transform="matrix(0.71,0,0,1,225.693,0)"
   id="g154">
                <text
   x="778.25299"
   y="1509.08"
   style="font-weight:700;font-size:72.98px;font-family:Arial-BoldMT, Arial, sans-serif;fill:#231f20"
   id="text152">bible</text>
            </g>
            <g
   transform="matrix(0.71,0,0,1,225.693,0)"
   id="g160">
                <text
   x="1086.62"
   y="1584.4399"
   style="font-weight:700;font-size:72.98px;font-family:Arial-BoldMT, Arial, sans-serif;fill:#231f20"
   id="text158"><tspan
   x="1086.62"
   y="1584.4399"
   id="tspan156">M</tspan>anuel d’utilisation de la religion</text>
            </g>
            <g
   transform="matrix(0.71,0,0,1,225.693,0)"
   id="g164">
                <text
   x="778.25299"
   y="1659.8101"
   style="font-weight:700;font-size:72.98px;font-family:Arial-BoldMT, Arial, sans-serif;fill:#231f20"
   id="text162">…</text>
            </g>
            <g
   transform="matrix(0.71,0,0,1,225.693,0)"
   id="g168">
                <text
   x="778.25299"
   y="1810.55"
   style="font-weight:700;font-size:72.98px;font-family:Arial-BoldMT, Arial, sans-serif;fill:#231f20"
   id="text166">…</text>
            </g>
            <g
   transform="matrix(0.71,0,0,1,225.693,0)"
   id="g174">
                <g
   transform="matrix(72.98,0,0,72.98,851.233,1961.28)"
   id="g170">
                </g>
                <text
   x="778.25299"
   y="1961.28"
   style="font-weight:700;font-size:72.98px;font-family:Arial-BoldMT, Arial, sans-serif;fill:#231f20"
   id="text172">…</text>
            </g>
        </g>
        <g
   transform="matrix(0.645518,0,0,0.645518,1041.22,927.148)"
   id="g212">
            <g
   transform="matrix(0.71,0,0,1,225.693,0)"
   id="g180">
                <text
   x="778.25299"
   y="1358.34"
   style="font-weight:700;font-size:72.98px;font-family:Arial-BoldMT, Arial, sans-serif;fill:#231f20"
   id="text178">…</text>
            </g>
            <g
   transform="matrix(0.71,0,0,1,225.693,0)"
   id="g184">
                <text
   x="778.25299"
   y="1509.08"
   style="font-weight:700;font-size:72.98px;font-family:Arial-BoldMT, Arial, sans-serif;fill:#231f20"
   id="text182">…</text>
            </g>
            <g
   transform="matrix(0.71,0,0,1,225.693,0)"
   id="g188">
                <text
   x="778.25299"
   y="1659.8101"
   style="font-weight:700;font-size:72.98px;font-family:Arial-BoldMT, Arial, sans-serif;fill:#231f20"
   id="text186">whodunit</text>
            </g>
            <g
   transform="matrix(0.71,0,0,1,225.693,0)"
   id="g194">
                <text
   x="1086.62"
   y="1735.1801"
   style="font-weight:700;font-size:72.98px;font-family:Arial-BoldMT, Arial, sans-serif;fill:#231f20"
   id="text192"><tspan
   x="1086.62"
   y="1735.1801"
   id="tspan190">L</tspan>ittéralement : qui l’a fait ?</text>
            </g>
            <g
   transform="matrix(0.71,0,0,1,225.693,0)"
   id="g198">
                <text
   x="778.25299"
   y="1810.55"
   style="font-weight:700;font-size:72.98px;font-family:Arial-BoldMT, Arial, sans-serif;fill:#231f20"
   id="text196">zazie</text>
            </g>
            <g
   transform="matrix(0.71,0,0,1,225.693,0)"
   id="g210">
                <g
   transform="matrix(72.98,0,0,72.98,1317.82,1885.91)"
   id="g200">
                </g>
                <g
   transform="matrix(72.98,0,0,72.98,1342.12,1885.91)"
   id="g202">
                </g>
                <g
   transform="matrix(72.98,0,0,72.98,2201.92,1885.91)"
   id="g204">
                </g>
                <text
   x="1086.62"
   y="1885.91"
   style="font-weight:700;font-size:72.98px;font-family:Arial-BoldMT, Arial, sans-serif;fill:#231f20"
   id="text208"><tspan
   x="1086.62"
   y="1885.91"
   id="tspan206">J</tspan>eune ﬁlle perdue dans le métro</text>
            </g>
        </g>
        <g
   transform="matrix(0.645518,0,0,0.645518,1188.84,-369.403)"
   id="g220">
            <g
   transform="matrix(0.71,0,0,1,225.693,0)"
   id="g218">
                <g
   transform="matrix(72.98,0,0,72.98,1792.2,1358.34)"
   id="g214">
                </g>
                <text
   x="778.25299"
   y="1358.34"
   style="font-weight:700;font-size:72.98px;font-family:Arial-BoldMT, Arial, sans-serif;fill:#231f20"
   id="text216">Section 2.1...........................31</text>
            </g>
        </g>
        <g
   transform="matrix(0.645518,0,0,0.645518,-117.468,214.062)"
   id="g228">
            <g
   transform="matrix(0.71,0,0,1,225.693,0)"
   id="g226">
                <g
   transform="matrix(72.98,0,0,72.98,1739.54,1358.34)"
   id="g222">
                </g>
                <text
   x="778.25299"
   y="1358.34"
   style="font-weight:700;font-size:72.98px;font-family:Arial-BoldMT, Arial, sans-serif;fill:#231f20"
   id="text224">Image 2.1...........................31</text>
            </g>
        </g>
        <g
   transform="matrix(0.645518,0,0,0.645518,1021.7,274.062)"
   id="g236">
            <g
   transform="matrix(0.71,0,0,1,225.693,0)"
   id="g234">
                <g
   transform="matrix(72.98,0,0,72.98,1500.11,1358.34)"
   id="g230">
                </g>
                <text
   x="778.25299"
   y="1358.34"
   style="font-weight:700;font-size:72.98px;font-family:Arial-BoldMT, Arial, sans-serif;fill:#231f20"
   id="text232">do   dos de chameau</text>
            </g>
        </g>
        <g
   transform="matrix(0.645518,0,0,0.645518,-117.468,309.394)"
   id="g244">
            <g
   transform="matrix(0.71,0,0,1,225.693,0)"
   id="g242">
                <g
   transform="matrix(72.98,0,0,72.98,1739.54,1358.34)"
   id="g238">
                </g>
                <text
   x="778.25299"
   y="1358.34"
   style="font-weight:700;font-size:72.98px;font-family:Arial-BoldMT, Arial, sans-serif;fill:#231f20"
   id="text240">Image 2.3...........................56</text>
            </g>
        </g>
        <g
   transform="matrix(0.645518,0,0,0.645518,1188.84,-317.846)"
   id="g252">
            <g
   transform="matrix(0.71,0,0,1,225.693,0)"
   id="g250">
                <g
   transform="matrix(72.98,0,0,72.98,1792.2,1358.34)"
   id="g246">
                </g>
                <text
   x="778.25299"
   y="1358.34"
   style="font-weight:700;font-size:72.98px;font-family:Arial-BoldMT, Arial, sans-serif;fill:#231f20"
   id="text248">Section 2.2...........................43</text>
            </g>
        </g>
        <g
   transform="matrix(0.645518,0,0,0.645518,-117.468,265.619)"
   id="g260">
            <g
   transform="matrix(0.71,0,0,1,225.693,0)"
   id="g258">
                <g
   transform="matrix(72.98,0,0,72.98,1739.54,1358.34)"
   id="g254">
                </g>
                <text
   x="778.25299"
   y="1358.34"
   style="font-weight:700;font-size:72.98px;font-family:Arial-BoldMT, Arial, sans-serif;fill:#231f20"
   id="text256">Image 2.2...........................43</text>
            </g>
        </g>
        <g
   transform="matrix(0.645518,0,0,0.645518,-117.468,360.951)"
   id="g268">
            <g
   transform="matrix(0.71,0,0,1,225.693,0)"
   id="g266">
                <g
   transform="matrix(72.98,0,0,72.98,1739.54,1358.34)"
   id="g262">
                </g>
                <text
   x="778.25299"
   y="1358.34"
   style="font-weight:700;font-size:72.98px;font-family:Arial-BoldMT, Arial, sans-serif;fill:#231f20"
   id="text264">Image 2.4...........................68</text>
            </g>
        </g>
        <g
   transform="matrix(0.645518,0,0,0.645518,1188.84,-542.713)"
   id="g276">
            <g
   transform="matrix(0.71,0,0,1,225.693,0)"
   id="g274">
                <g
   transform="matrix(72.98,0,0,72.98,1792.2,1358.34)"
   id="g270">
                </g>
                <text
   x="778.25299"
   y="1358.34"
   style="font-weight:700;font-size:72.98px;font-family:Arial-BoldMT, Arial, sans-serif;fill:#231f20"
   id="text272">Section 1.2...........................16</text>
            </g>
        </g>
        <g
   transform="matrix(0.645518,0,0,0.645518,-117.468,119.501)"
   id="g284">
            <g
   transform="matrix(0.71,0,0,1,225.693,0)"
   id="g282">
                <g
   transform="matrix(72.98,0,0,72.98,1739.54,1358.34)"
   id="g278">
                </g>
                <text
   x="778.25299"
   y="1358.34"
   style="font-weight:700;font-size:72.98px;font-family:Arial-BoldMT, Arial, sans-serif;fill:#231f20"
   id="text280">Image 1.2...........................16</text>
            </g>
        </g>
        <g
   transform="matrix(0.645518,0,0,0.645518,1021.7,179.501)"
   id="g292">
            <g
   transform="matrix(0.71,0,0,1,225.693,0)"
   id="g290">
                <g
   transform="matrix(72.98,0,0,72.98,1094.51,1358.34)"
   id="g286">
                </g>
                <text
   x="778.25299"
   y="1358.34"
   style="font-weight:700;font-size:72.98px;font-family:Arial-BoldMT, Arial, sans-serif;fill:#231f20"
   id="text288">b.    bible</text>
            </g>
        </g>
        <g
   transform="matrix(0.645518,0,0,0.645518,1188.84,-491.926)"
   id="g300">
            <g
   transform="matrix(0.71,0,0,1,225.693,0)"
   id="g298">
                <g
   transform="matrix(72.98,0,0,72.98,1792.2,1358.34)"
   id="g294">
                </g>
                <text
   x="778.25299"
   y="1358.34"
   style="font-weight:700;font-size:72.98px;font-family:Arial-BoldMT, Arial, sans-serif;fill:#231f20"
   id="text296">Section 1.3...........................23</text>
            </g>
        </g>
        <g
   transform="matrix(0.645518,0,0,0.645518,-117.468,170.288)"
   id="g308">
            <g
   transform="matrix(0.71,0,0,1,225.693,0)"
   id="g306">
                <g
   transform="matrix(72.98,0,0,72.98,1739.54,1358.34)"
   id="g302">
                </g>
                <text
   x="778.25299"
   y="1358.34"
   style="font-weight:700;font-size:72.98px;font-family:Arial-BoldMT, Arial, sans-serif;fill:#231f20"
   id="text304">Image 1.3...........................23</text>
            </g>
        </g>
        <g
   transform="matrix(0.645518,0,0,0.645518,1021.7,230.288)"
   id="g316">
            <g
   transform="matrix(0.71,0,0,1,225.693,0)"
   id="g314">
                <g
   transform="matrix(72.98,0,0,72.98,1350.01,1358.34)"
   id="g310">
                </g>
                <text
   x="778.25299"
   y="1358.34"
   style="font-weight:700;font-size:72.98px;font-family:Arial-BoldMT, Arial, sans-serif;fill:#231f20"
   id="text312">cro. cromagnon</text>
            </g>
        </g>
        <g
   transform="matrix(1.3668,0,0,1.3668,1334.78,403.037)"
   id="g324">
            <g
   transform="matrix(0.71,0,0,1,225.693,0)"
   id="g322">
                <g
   transform="matrix(54.8728,0,0,54.8728,839.288,1358.34)"
   id="g318">
                </g>
                <text
   x="778.25299"
   y="1358.34"
   style="font-weight:700;font-size:54.873px;font-family:Arial-BoldMT, Arial, sans-serif;fill:#231f20"
   id="text320">15</text>
            </g>
        </g>
        <g
   transform="matrix(1.3668,0,0,1.3668,1334.78,1182.03)"
   id="g332">
            <g
   transform="matrix(0.71,0,0,1,225.693,0)"
   id="g330">
                <g
   transform="matrix(54.8728,0,0,54.8728,839.288,1358.34)"
   id="g326">
                </g>
                <text
   x="778.25299"
   y="1358.34"
   style="font-weight:700;font-size:54.873px;font-family:Arial-BoldMT, Arial, sans-serif;fill:#231f20"
   id="text328">17</text>
            </g>
        </g>
        <g
   transform="matrix(1.3668,0,0,1.3668,1333.42,-382.496)"
   id="g340">
            <g
   transform="matrix(0.71,0,0,1,225.693,0)"
   id="g338">
                <g
   transform="matrix(54.8728,0,0,54.8728,839.288,1358.34)"
   id="g334">
                </g>
                <text
   x="778.25299"
   y="1358.34"
   style="font-weight:700;font-size:54.873px;font-family:Arial-BoldMT, Arial, sans-serif;fill:#231f20"
   id="text336">13</text>
            </g>
        </g>
        <g
   transform="matrix(1.3668,0,0,1.3668,1333.42,-1168.46)"
   id="g350">
            <g
   transform="matrix(0.71,0,0,1,225.693,0)"
   id="g348">
                <g
   transform="matrix(54.8728,0,0,54.8728,835.024,1358.34)"
   id="g342">
                </g>
                <text
   x="778.25299"
   y="1358.34"
   style="font-weight:700;font-size:54.873px;font-family:Arial-BoldMT, Arial, sans-serif;fill:#231f20"
   id="text346">1<tspan
   x="804.50598"
   y="1358.34"
   id="tspan344">1</tspan></text>
            </g>
        </g>
        <g
   transform="matrix(1.3668,0,0,1.3668,-1056.11,403.037)"
   id="g358">
            <g
   transform="matrix(0.71,0,0,1,225.693,0)"
   id="g356">
                <g
   transform="matrix(54.8728,0,0,54.8728,839.288,1358.34)"
   id="g352">
                </g>
                <text
   x="778.25299"
   y="1358.34"
   style="font-weight:700;font-size:54.873px;font-family:Arial-BoldMT, Arial, sans-serif;fill:#231f20"
   id="text354">14</text>
            </g>
        </g>
        <g
   transform="matrix(1.3668,0,0,1.3668,-1056.11,1182.03)"
   id="g366">
            <g
   transform="matrix(0.71,0,0,1,225.693,0)"
   id="g364">
                <g
   transform="matrix(54.8728,0,0,54.8728,839.288,1358.34)"
   id="g360">
                </g>
                <text
   x="778.25299"
   y="1358.34"
   style="font-weight:700;font-size:54.873px;font-family:Arial-BoldMT, Arial, sans-serif;fill:#231f20"
   id="text362">16</text>
            </g>
        </g>
        <g
   transform="matrix(1.3668,0,0,1.3668,-1057.48,-382.496)"
   id="g374">
            <g
   transform="matrix(0.71,0,0,1,225.693,0)"
   id="g372">
                <g
   transform="matrix(54.8728,0,0,54.8728,839.288,1358.34)"
   id="g368">
                </g>
                <text
   x="778.25299"
   y="1358.34"
   style="font-weight:700;font-size:54.873px;font-family:Arial-BoldMT, Arial, sans-serif;fill:#231f20"
   id="text370">12</text>
            </g>
        </g>
        <g
   transform="matrix(1.3668,0,0,1.3668,-1057.48,-1168.46)"
   id="g382">
            <g
   transform="matrix(0.71,0,0,1,225.693,0)"
   id="g380">
                <g
   transform="matrix(54.8728,0,0,54.8728,839.288,1358.34)"
   id="g376">
                </g>
                <text
   x="778.25299"
   y="1358.34"
   style="font-weight:700;font-size:54.873px;font-family:Arial-BoldMT, Arial, sans-serif;fill:#231f20"
   id="text378">10</text>
            </g>
        </g>
        <g
   transform="translate(1273.07,-579.631)"
   id="g446">
            <g
   transform="matrix(0.71,0,0,1,56.2369,0)"
   id="g398">
                <g
   transform="matrix(57.0833,0,0,57.0833,468.705,3307.03)"
   id="g384">
                </g>
                <text
   x="468.70499"
   y="3307.03"
   style="font-size:57.083px;font-family:ArialMT, Arial, sans-serif;fill:#231f20"
   id="text396"><tspan
   x="468.70499"
   y="3307.03"
   id="tspan386">C</tspan>um <tspan
   x="612.66101"
   y="3307.03"
   id="tspan388">s</tspan>ociis <tspan
   x="778.83197"
   y="3307.03"
   id="tspan390">n</tspan>atoque <tspan
   x="1008.61"
   y="3307.03"
   id="tspan392">p</tspan>enatibus <tspan
   x="1279.61"
   y="3307.03"
   id="tspan394">e</tspan>t</text>
            </g>
            <g
   transform="matrix(0.71,0,0,1,56.2369,0)"
   id="g410">
                <text
   x="193.92"
   y="3365.99"
   style="font-size:57.083px;font-family:ArialMT, Arial, sans-serif;fill:#231f20"
   id="text408">magnis <tspan
   x="431.22601"
   y="3365.99"
   id="tspan400">d</tspan>is <tspan
   x="557.487"
   y="3365.99"
   id="tspan402">p</tspan>arturient <tspan
   x="851.93201"
   y="3365.99"
   id="tspan404">m</tspan>ontes, <tspan
   x="1108.28"
   y="3365.99"
   id="tspan406">n</tspan>ascetur</text>
            </g>
            <g
   transform="matrix(0.71,0,0,1,56.2369,0)"
   id="g426">
                <text
   x="193.92"
   y="3424.9299"
   style="font-size:57.083px;font-family:ArialMT, Arial, sans-serif;fill:#231f20"
   id="text424">ridiculus <tspan
   x="437.80099"
   y="3424.9299"
   id="tspan412">m</tspan>us. <tspan
   x="586.35101 624.42499"
   y="3424.9299 3424.9299"
   id="tspan414">Al</tspan>iquam <tspan
   x="827.08301"
   y="3424.9299"
   id="tspan416">v</tspan>el <tspan
   x="934.55499"
   y="3424.9299"
   id="tspan418">q</tspan>uam <tspan
   x="1111.85"
   y="3424.9299"
   id="tspan420">u</tspan>t <tspan
   x="1193.95"
   y="3424.9299"
   id="tspan422">t</tspan>ellus</text>
            </g>
            <g
   transform="matrix(0.71,0,0,1,56.2369,0)"
   id="g438">
                <text
   x="193.92"
   y="3483.8899"
   style="font-size:57.083px;font-family:ArialMT, Arial, sans-serif;fill:#231f20"
   id="text436">gravida <tspan
   x="453.03699"
   y="3483.8899"
   id="tspan428">f</tspan>aucibus. <tspan
   x="753.40601 790.02698 802.71002"
   y="3483.8899 3483.8899 3483.8899"
   id="tspan430">Viv</tspan>amus <tspan
   x="1042.73"
   y="3483.8899"
   id="tspan432">j</tspan>usto <tspan
   x="1235.21"
   y="3483.8899"
   id="tspan434">e</tspan>st,</text>
            </g>
            <g
   transform="matrix(0.71,0,0,1,56.2369,0)"
   id="g444">
                <g
   transform="matrix(57.0833,0,0,57.0833,1323.46,3542.84)"
   id="g440">
                </g>
                <text
   x="193.92"
   y="3542.8401"
   style="font-size:57.083px;font-family:ArialMT, Arial, sans-serif;fill:#231f20"
   id="text442">elementum vitae, malesuada eu, fermentum</text>
            </g>
        </g>
        <g
   transform="translate(8.42045,-3135.13)"
   id="g456">
            <g
   transform="matrix(0.71,0,0,1,451.98,0)"
   id="g454">
                <g
   transform="matrix(83.3333,0,0,83.3333,2256.44,3900.78)"
   id="g448">
                </g>
                <text
   x="1558.55"
   y="3900.78"
   style="font-style:italic;font-size:83.333px;font-family:Arial-ItalicMT, Arial, sans-serif;fill:#231f20"
   id="text452">T<tspan
   x="1598.6801 1645.03"
   y="3900.78 3900.78"
   id="tspan450">ab</tspan>le des Matières</text>
            </g>
        </g>
        <g
   transform="translate(8.42045,-2349.17)"
   id="g464">
            <g
   transform="matrix(0.71,0,0,1,440.846,0)"
   id="g462">
                <g
   transform="matrix(83.3333,0,0,83.3333,2326.19,3900.78)"
   id="g458">
                </g>
                <text
   x="1520.16"
   y="3900.78"
   style="font-style:italic;font-size:83.333px;font-family:Arial-ItalicMT, Arial, sans-serif;fill:#231f20"
   id="text460">Liste des abréviations</text>
            </g>
        </g>
        <g
   transform="translate(8.42045,-1563.63)"
   id="g472">
            <g
   transform="matrix(0.71,0,0,1,499.991,0)"
   id="g470">
                <g
   transform="matrix(83.3333,0,0,83.3333,1955.63,3900.78)"
   id="g466">
                </g>
                <text
   x="1724.11"
   y="3900.78"
   style="font-style:italic;font-size:83.333px;font-family:Arial-ItalicMT, Arial, sans-serif;fill:#231f20"
   id="text468">(suite)</text>
            </g>
        </g>
        <g
   transform="translate(8.42045,-784.637)"
   id="g482">
            <g
   transform="matrix(0.71,0,0,1,503.48,0)"
   id="g480">
                <g
   transform="matrix(83.3333,0,0,83.3333,1933.78,3900.78)"
   id="g474">
                </g>
                <text
   x="1736.14"
   y="3900.78"
   style="font-style:italic;font-size:83.333px;font-family:Arial-ItalicMT, Arial, sans-serif;fill:#231f20"
   id="text478">T<tspan
   x="1776.27 1822.61"
   y="3900.78 3900.78"
   id="tspan476">ex</tspan>te</text>
            </g>
        </g>
        <g
   transform="translate(-1154.9,-2349.17)"
   id="g492">
            <g
   transform="matrix(0.71,0,0,1,441.964,0)"
   id="g490">
                <g
   transform="matrix(83.3333,0,0,83.3333,2319.19,3900.78)"
   id="g484">
                </g>
                <text
   x="1524.01"
   y="3900.78"
   style="font-style:italic;font-size:83.333px;font-family:Arial-ItalicMT, Arial, sans-serif;fill:#231f20"
   id="text488">T<tspan
   x="1564.14 1610.49"
   y="3900.78 3900.78"
   id="tspan486">ab</tspan>le des illustrations</text>
            </g>
        </g>
        <g
   transform="translate(-1154.9,-1563.63)"
   id="g500">
            <g
   transform="matrix(0.71,0,0,1,487.592,0)"
   id="g498">
                <g
   transform="matrix(83.3333,0,0,83.3333,2033.32,3900.78)"
   id="g494">
                </g>
                <text
   x="1681.35"
   y="3900.78"
   style="font-style:italic;font-size:83.333px;font-family:Arial-ItalicMT, Arial, sans-serif;fill:#231f20"
   id="text496">Glossaire</text>
            </g>
        </g>
    </g>
</svg>
