<?xml version="1.0" encoding="UTF-8" standalone="no"?>
<svg
   width="2298.5825"
   height="648.64062"
   viewBox="0 0 2298.5825 648.64062"
   version="1.1"
   xml:space="preserve"
   style="clip-rule:evenodd;fill-rule:evenodd;stroke-linecap:round;stroke-linejoin:round;stroke-miterlimit:1.5"
   id="svg64"
   xmlns="http://www.w3.org/2000/svg"
   xmlns:svg="http://www.w3.org/2000/svg"><defs
   id="defs68" />
    <g
   transform="matrix(2.74384,0,0,1.14795,-362.18622,-122.46526)"
   id="g22">
        <g
   id="g10">
            <g
   transform="matrix(0.461424,0,0,0.481925,-73.5674,-193.813)"
   id="g4">
                <rect
   x="446.681"
   y="624.70502"
   width="894.32898"
   height="1170.12"
   style="fill:#e7e8e9;stroke:#231f20;stroke-width:2.35px"
   id="rect2" />
            </g>
            <g
   transform="matrix(0.430696,0,0,0.489017,-65.0769,-204.804)"
   id="g8">
                <rect
   x="549.633"
   y="732.56799"
   width="680.883"
   height="969.59998"
   style="fill:#ffffff"
   id="rect6" />
            </g>
        </g>
        <g
   transform="translate(-69.6469)"
   id="g20">
            <g
   transform="matrix(0.461424,0,0,0.481925,420.055,-193.813)"
   id="g14">
                <rect
   x="446.681"
   y="624.70502"
   width="894.32898"
   height="1170.12"
   style="fill:#e7e8e9;stroke:#231f20;stroke-width:2.35px"
   id="rect12" />
            </g>
            <g
   transform="matrix(0.430696,0,0,0.489017,468.546,-204.804)"
   id="g18">
                <rect
   x="549.633"
   y="732.56799"
   width="680.883"
   height="969.59998"
   style="fill:#ffffff"
   id="rect16" />
            </g>
        </g>
    </g>
    <g
   transform="translate(141.70478,-3666.0193)"
   id="g34">
        <g
   transform="matrix(0.71,0,0,1,433.406,0)"
   id="g26">
            <text
   x="1494.5"
   y="3900.78"
   style="font-style:italic;font-weight:700;font-size:83.333px;font-family:Arial-BoldItalicMT, Arial, sans-serif;fill:#231f20"
   id="text24">Belle page</text>
        </g>
        <g
   transform="matrix(0.71,0,0,1,448.189,0)"
   id="g32">
            <g
   transform="matrix(83.3333,0,0,83.3333,1818.71,4072.9)"
   id="g28">
            </g>
            <text
   x="1545.48"
   y="4072.8999"
   style="font-style:italic;font-size:83.333px;font-family:Arial-ItalicMT, Arial, sans-serif;fill:#231f20"
   id="text30">impaire</text>
        </g>
    </g>
    <g
   transform="translate(-1131.3732,-3666.0193)"
   id="g46">
        <g
   transform="matrix(0.71,0,0,1,424.345,0)"
   id="g38">
            <text
   x="1463.26"
   y="3900.78"
   style="font-style:italic;font-weight:700;font-size:83.333px;font-family:Arial-BoldItalicMT, Arial, sans-serif;fill:#231f20"
   id="text36">Fausse page</text>
        </g>
        <g
   transform="matrix(0.71,0,0,1,457.241,0)"
   id="g44">
            <g
   transform="matrix(83.3333,0,0,83.3333,1762,4072.9)"
   id="g40">
            </g>
            <text
   x="1576.6899"
   y="4072.8999"
   style="font-style:italic;font-size:83.333px;font-family:Arial-ItalicMT, Arial, sans-serif;fill:#231f20"
   id="text42">paire</text>
        </g>
    </g>
    <g
   transform="matrix(1.3668,0,0,1.3668,1174.4468,-1230.6693)"
   id="g54">
        <g
   transform="matrix(0.71,0,0,1,225.693,0)"
   id="g52">
            <g
   transform="matrix(54.8728,0,0,54.8728,808.77,1358.34)"
   id="g48">
            </g>
            <text
   x="778.25299"
   y="1358.34"
   style="font-weight:700;font-size:54.873px;font-family:Arial-BoldMT, Arial, sans-serif;fill:#231f20"
   id="text50">7</text>
        </g>
    </g>
    <g
   transform="matrix(1.3668,0,0,1.3668,-1042.4532,-1231.5793)"
   id="g62">
        <g
   transform="matrix(0.71,0,0,1,225.693,0)"
   id="g60">
            <g
   transform="matrix(54.8728,0,0,54.8728,808.77,1358.34)"
   id="g56">
            </g>
            <text
   x="778.25299"
   y="1358.34"
   style="font-weight:700;font-size:54.873px;font-family:Arial-BoldMT, Arial, sans-serif;fill:#231f20"
   id="text58">6</text>
        </g>
    </g>
</svg>
