<?xml version="1.0" encoding="UTF-8" standalone="no"?>
<svg
   width="2298.5825"
   height="4548.9717"
   viewBox="0 0 2298.5825 4548.9717"
   version="1.1"
   xml:space="preserve"
   style="clip-rule:evenodd;fill-rule:evenodd;stroke-linecap:round;stroke-linejoin:round;stroke-miterlimit:1.5"
   id="svg330"
   xmlns="http://www.w3.org/2000/svg"
   xmlns:svg="http://www.w3.org/2000/svg"><defs
   id="defs334" />
    <g
   transform="translate(-83.770223,-19.349435)"
   id="g328">
        <g
   transform="matrix(2.74384,0,0,1.14784,-278.416,615.17)"
   id="g22">
            <g
   id="g10">
                <g
   transform="matrix(0.461424,0,0,0.481925,-73.5674,-193.813)"
   id="g4">
                    <rect
   x="446.681"
   y="624.70502"
   width="894.32898"
   height="1170.12"
   style="fill:#e7e8e9;stroke:#231f20;stroke-width:2.35px"
   id="rect2" />
                </g>
                <g
   transform="matrix(0.430696,0,0,0.489017,-65.0769,-204.804)"
   id="g8">
                    <rect
   x="549.633"
   y="732.56799"
   width="680.883"
   height="969.59998"
   style="fill:#ffffff"
   id="rect6" />
                </g>
            </g>
            <g
   transform="translate(-69.6469)"
   id="g20">
                <g
   transform="matrix(0.461424,0,0,0.481925,420.055,-193.813)"
   id="g14">
                    <rect
   x="446.681"
   y="624.70502"
   width="894.32898"
   height="1170.12"
   style="fill:#e7e8e9;stroke:#231f20;stroke-width:2.35px"
   id="rect12" />
                </g>
                <g
   transform="matrix(0.430696,0,0,0.489017,468.546,-204.804)"
   id="g18">
                    <rect
   x="549.633"
   y="732.56799"
   width="680.883"
   height="969.59998"
   style="fill:#ffffff"
   id="rect16" />
                </g>
            </g>
        </g>
        <g
   transform="matrix(2.74384,0,0,1.14795,-278.416,1397.76)"
   id="g44">
            <g
   id="g32">
                <g
   transform="matrix(0.461424,0,0,0.481925,-73.5674,-193.813)"
   id="g26">
                    <rect
   x="446.681"
   y="624.70502"
   width="894.32898"
   height="1170.12"
   style="fill:#e7e8e9;stroke:#231f20;stroke-width:2.35px"
   id="rect24" />
                </g>
                <g
   transform="matrix(0.430696,0,0,0.489017,-65.0769,-204.804)"
   id="g30">
                    <rect
   x="549.633"
   y="732.56799"
   width="680.883"
   height="969.59998"
   style="fill:#ffffff"
   id="rect28" />
                </g>
            </g>
            <g
   transform="translate(-69.6469)"
   id="g42">
                <g
   transform="matrix(0.461424,0,0,0.481925,420.055,-193.813)"
   id="g36">
                    <rect
   x="446.681"
   y="624.70502"
   width="894.32898"
   height="1170.12"
   style="fill:#e7e8e9;stroke:#231f20;stroke-width:2.35px"
   id="rect34" />
                </g>
                <g
   transform="matrix(0.430696,0,0,0.489017,468.546,-204.804)"
   id="g40">
                    <rect
   x="549.633"
   y="732.56799"
   width="680.883"
   height="969.59998"
   style="fill:#ffffff"
   id="rect38" />
                </g>
            </g>
        </g>
        <g
   transform="matrix(2.74384,0,0,1.1522,-278.416,2172.37)"
   id="g66">
            <g
   id="g54">
                <g
   transform="matrix(0.461424,0,0,0.481925,-73.5674,-193.813)"
   id="g48">
                    <rect
   x="446.681"
   y="624.70502"
   width="894.32898"
   height="1170.12"
   style="fill:#e7e8e9;stroke:#231f20;stroke-width:2.34px"
   id="rect46" />
                </g>
                <g
   transform="matrix(0.430696,0,0,0.489017,-65.0769,-204.804)"
   id="g52">
                    <rect
   x="549.633"
   y="732.56799"
   width="680.883"
   height="969.59998"
   style="fill:#ffffff"
   id="rect50" />
                </g>
            </g>
            <g
   transform="translate(-69.6469)"
   id="g64">
                <g
   transform="matrix(0.461424,0,0,0.481925,420.055,-193.813)"
   id="g58">
                    <rect
   x="446.681"
   y="624.70502"
   width="894.32898"
   height="1170.12"
   style="fill:#e7e8e9;stroke:#231f20;stroke-width:2.34px"
   id="rect56" />
                </g>
                <g
   transform="matrix(0.430696,0,0,0.489017,468.546,-204.804)"
   id="g62">
                    <rect
   x="549.633"
   y="732.56799"
   width="680.883"
   height="969.59998"
   style="fill:#ffffff"
   id="rect60" />
                </g>
            </g>
        </g>
        <g
   transform="matrix(2.74384,0,0,1.1522,-278.416,-103.572)"
   id="g88">
            <g
   id="g76">
                <g
   transform="matrix(0.461424,0,0,0.481925,-73.5674,-193.813)"
   id="g70">
                    <rect
   x="446.681"
   y="624.70502"
   width="894.32898"
   height="1170.12"
   style="fill:#e7e8e9;stroke:#231f20;stroke-width:2.34px"
   id="rect68" />
                </g>
                <g
   transform="matrix(0.430696,0,0,0.489017,-65.0769,-204.804)"
   id="g74">
                    <rect
   x="549.633"
   y="732.56799"
   width="680.883"
   height="969.59998"
   style="fill:#ffffff"
   id="rect72" />
                </g>
            </g>
            <g
   transform="translate(-69.6469)"
   id="g86">
                <g
   transform="matrix(0.461424,0,0,0.481925,420.055,-193.813)"
   id="g80">
                    <rect
   x="446.681"
   y="624.70502"
   width="894.32898"
   height="1170.12"
   style="fill:#e7e8e9;stroke:#231f20;stroke-width:2.34px"
   id="rect78" />
                </g>
                <g
   transform="matrix(0.430696,0,0,0.489017,468.546,-204.804)"
   id="g84">
                    <rect
   x="549.633"
   y="732.56799"
   width="680.883"
   height="969.59998"
   style="fill:#ffffff"
   id="rect82" />
                </g>
            </g>
        </g>
        <g
   transform="matrix(2.74384,0,0,1.14795,-278.416,3704.26)"
   id="g98">
            <g
   transform="matrix(0.461424,0,0,0.481925,-73.5674,-193.813)"
   id="g92">
                <rect
   x="446.681"
   y="624.70502"
   width="894.32898"
   height="1170.12"
   style="fill:#e7e8e9;stroke:#231f20;stroke-width:2.35px"
   id="rect90" />
            </g>
            <g
   transform="matrix(0.430696,0,0,0.489017,-65.0769,-204.804)"
   id="g96">
                <rect
   x="549.633"
   y="732.56799"
   width="680.883"
   height="969.59998"
   style="fill:#ffffff"
   id="rect94" />
            </g>
        </g>
        <g
   transform="matrix(2.74384,0,0,1.14795,-278.416,2956.22)"
   id="g120">
            <g
   id="g108">
                <g
   transform="matrix(0.461424,0,0,0.481925,-73.5674,-193.813)"
   id="g102">
                    <rect
   x="446.681"
   y="624.70502"
   width="894.32898"
   height="1170.12"
   style="fill:#e7e8e9;stroke:#231f20;stroke-width:2.35px"
   id="rect100" />
                </g>
                <g
   transform="matrix(0.430696,0,0,0.489017,-65.0769,-204.804)"
   id="g106">
                    <rect
   x="549.633"
   y="732.56799"
   width="680.883"
   height="969.59998"
   style="fill:#ffffff"
   id="rect104" />
                </g>
            </g>
            <g
   transform="translate(-69.6469)"
   id="g118">
                <g
   transform="matrix(0.461424,0,0,0.481925,420.055,-193.813)"
   id="g112">
                    <rect
   x="446.681"
   y="624.70502"
   width="894.32898"
   height="1170.12"
   style="fill:#e7e8e9;stroke:#231f20;stroke-width:2.35px"
   id="rect110" />
                </g>
                <g
   transform="matrix(0.430696,0,0,0.489017,468.546,-204.804)"
   id="g116">
                    <rect
   x="549.633"
   y="732.56799"
   width="680.883"
   height="969.59998"
   style="fill:#ffffff"
   id="rect114" />
                </g>
            </g>
        </g>
        <g
   transform="translate(0,18.496)"
   id="g192">
            <g
   transform="matrix(0.71,0,0,1,425.033,0)"
   id="g138">
                <g
   transform="matrix(57.0833,0,0,57.0833,1465.63,95.6081)"
   id="g122">
                </g>
                <text
   x="1465.63"
   y="95.608002"
   style="font-size:57.083px;font-family:ArialMT, Arial, sans-serif;fill:#231f20"
   id="text136">Donec <tspan
   x="1645"
   y="95.608002"
   id="tspan124">n</tspan>ulla <tspan
   x="1779.96"
   y="95.608002"
   id="tspan126">j</tspan>usto, <tspan
   x="1930.75"
   y="95.608002"
   id="tspan128">a</tspan>dipiscing <tspan
   x="2198.97"
   y="95.608002"
   id="tspan130">s</tspan>it <tspan
   x="2270.4199"
   y="95.608002"
   id="tspan132">a</tspan>met, <tspan
   x="2427.54"
   y="95.608002"
   id="tspan134">f</tspan>eugiat</text>
            </g>
            <g
   transform="matrix(0.71,0,0,1,425.033,0)"
   id="g142">
                <text
   x="1465.63"
   y="154.55901"
   style="font-size:57.083px;font-family:ArialMT, Arial, sans-serif;fill:#231f20"
   id="text140">ac, facilisis euismod, risus.</text>
            </g>
            <g
   transform="matrix(0.71,0,0,1,425.033,0)"
   id="g154">
                <text
   x="1465.63"
   y="213.50999"
   style="font-size:57.083px;font-family:ArialMT, Arial, sans-serif;fill:#231f20"
   id="text152">Pellentesque <tspan
   x="1832.3"
   y="213.50999"
   id="tspan144">t</tspan>incidunt, <tspan
   x="2097.3799"
   y="213.50999"
   id="tspan146">d</tspan>olor <tspan
   x="2260.9099"
   y="213.50999"
   id="tspan148">e</tspan>u <tspan
   x="2361.01"
   y="213.50999"
   id="tspan150">d</tspan>ignissim</text>
            </g>
            <g
   transform="matrix(0.71,0,0,1,425.033,0)"
   id="g164">
                <text
   x="1465.63"
   y="272.45999"
   style="font-size:57.083px;font-family:ArialMT, Arial, sans-serif;fill:#231f20"
   id="text162">mollis, justo <tspan
   x="1779.86"
   y="272.45999"
   id="tspan156">s</tspan>apien iaculis <tspan
   x="2138.5901"
   y="272.45999"
   id="tspan158">p</tspan>ede, vel <tspan
   x="2386.3101"
   y="272.45999"
   id="tspan160">t</tspan>incidunt</text>
            </g>
            <g
   transform="matrix(0.71,0,0,1,425.033,0)"
   id="g184">
                <text
   x="1465.63"
   y="331.41101"
   style="font-size:57.083px;font-family:ArialMT, Arial, sans-serif;fill:#231f20"
   id="text182">lacus <tspan
   x="1617.22"
   y="331.41101"
   id="tspan166">n</tspan>isl <tspan
   x="1721.2"
   y="331.41101"
   id="tspan168">s</tspan>it <tspan
   x="1796.61"
   y="331.41101"
   id="tspan170">a</tspan>met <tspan
   x="1941.85"
   y="331.41101"
   id="tspan172">m</tspan>etus. <tspan
   x="2131.48"
   y="331.41101"
   id="tspan174">F</tspan>usce <tspan
   x="2305.26"
   y="331.41101"
   id="tspan176">a</tspan>c <tspan
   x="2383.8701"
   y="331.41101"
   id="tspan178">e</tspan>st <tspan
   x="2478.3501"
   y="331.41101"
   id="tspan180">v</tspan>itae</text>
            </g>
            <g
   transform="matrix(0.71,0,0,1,425.033,0)"
   id="g190">
                <g
   transform="matrix(57.0833,0,0,57.0833,2455.48,390.362)"
   id="g186">
                </g>
                <text
   x="1465.63"
   y="390.362"
   style="font-size:57.083px;font-family:ArialMT, Arial, sans-serif;fill:#231f20"
   id="text188">purus varius tristique. Phasellus mattis</text>
            </g>
        </g>
        <g
   transform="matrix(1.13207,0,0,1.13207,810.372,307.34)"
   id="g200">
            <g
   transform="matrix(0.71,0,0,1,225.693,0)"
   id="g198">
                <g
   transform="matrix(72.98,0,0,72.98,1143.26,1358.34)"
   id="g194">
                </g>
                <text
   x="778.25299"
   y="1358.34"
   style="font-weight:700;font-size:72.98px;font-family:Arial-BoldMT, Arial, sans-serif;fill:#231f20"
   id="text196">Bla bla bla</text>
            </g>
        </g>
        <g
   transform="translate(-121.959,-870.012)"
   id="g218">
            <g
   transform="matrix(0.815105,0,0,0.815105,987.067,1449.9)"
   id="g208">
                <g
   transform="matrix(0.71,0,0,1,225.693,0)"
   id="g206">
                    <g
   transform="matrix(72.98,0,0,72.98,1049.97,1358.34)"
   id="g202">
                    </g>
                    <text
   x="778.25299"
   y="1358.34"
   style="font-weight:700;font-size:72.98px;font-family:Arial-BoldMT, Arial, sans-serif;fill:#231f20"
   id="text204">Prénom</text>
                </g>
            </g>
            <g
   transform="matrix(1.3668,0,0,1.3668,729.057,699.995)"
   id="g216">
                <g
   transform="matrix(0.71,0,0,1,225.693,0)"
   id="g214">
                    <g
   transform="matrix(72.98,0,0,72.98,948.516,1358.34)"
   id="g210">
                    </g>
                    <text
   x="778.25299"
   y="1358.34"
   style="font-weight:700;font-size:72.98px;font-family:Arial-BoldMT, Arial, sans-serif;fill:#231f20"
   id="text212">NOM</text>
                </g>
            </g>
        </g>
        <g
   transform="matrix(0.529645,0,0,0.529645,1304.69,2541.1)"
   id="g250">
            <g
   transform="matrix(0.71,0,0,1,282.487,0)"
   id="g222">
                <text
   x="974.09302"
   y="1433.71"
   style="font-weight:700;font-size:72.98px;font-family:Arial-BoldMT, Arial, sans-serif;fill:#231f20"
   id="text220">Éditeur</text>
            </g>
            <g
   transform="matrix(0.71,0,0,1,278.716,0)"
   id="g226">
                <text
   x="961.08801"
   y="1509.08"
   style="font-weight:700;font-size:72.98px;font-family:Arial-BoldMT, Arial, sans-serif;fill:#231f20"
   id="text224">Adresse</text>
            </g>
            <g
   transform="matrix(0.71,0,0,1,225.693,0)"
   id="g230">
                <text
   x="778.25299"
   y="1584.4399"
   style="font-weight:700;font-size:72.98px;font-family:Arial-BoldMT, Arial, sans-serif;fill:#231f20"
   id="text228">Directrice de collection</text>
            </g>
            <g
   transform="matrix(0.71,0,0,1,245.324,0)"
   id="g234">
                <text
   x="845.94501"
   y="1659.8101"
   style="font-weight:700;font-size:72.98px;font-family:Arial-BoldMT, Arial, sans-serif;fill:#231f20"
   id="text232">Metteuse en page</text>
            </g>
            <g
   transform="matrix(0.71,0,0,1,268.278,0)"
   id="g238">
                <text
   x="925.09802"
   y="1735.1801"
   style="font-weight:700;font-size:72.98px;font-family:Arial-BoldMT, Arial, sans-serif;fill:#231f20"
   id="text236">Correctrice</text>
            </g>
            <g
   transform="matrix(0.71,0,0,1,267.875,0)"
   id="g242">
                <text
   x="923.70599"
   y="1810.55"
   style="font-weight:700;font-size:72.98px;font-family:Arial-BoldMT, Arial, sans-serif;fill:#231f20"
   id="text240">Dépôt légal</text>
            </g>
            <g
   transform="matrix(0.71,0,0,1,290.418,0)"
   id="g248">
                <g
   transform="matrix(72.98,0,0,72.98,1175.8,1885.91)"
   id="g244">
                </g>
                <text
   x="1001.44"
   y="1885.91"
   style="font-weight:700;font-size:72.98px;font-family:Arial-BoldMT, Arial, sans-serif;fill:#231f20"
   id="text246">ISBN</text>
            </g>
        </g>
        <g
   transform="matrix(0.529645,0,0,0.529645,-143.213,3630.19)"
   id="g262">
            <g
   transform="matrix(0.71,0,0,1,231.559,0)"
   id="g254">
                <text
   x="798.48102"
   y="1358.34"
   style="font-weight:700;font-size:72.98px;font-family:Arial-BoldMT, Arial, sans-serif;fill:#231f20"
   id="text252">Imprimé chez Zouzou</text>
            </g>
            <g
   transform="matrix(0.71,0,0,1,235.272,0)"
   id="g260">
                <g
   transform="matrix(72.98,0,0,72.98,1521.31,1433.71)"
   id="g256">
                </g>
                <text
   x="811.28302"
   y="1433.71"
   style="font-weight:700;font-size:72.98px;font-family:Arial-BoldMT, Arial, sans-serif;fill:#231f20"
   id="text258">le 25 décembre 2023</text>
            </g>
        </g>
        <g
   transform="matrix(0.957949,0,0,0.957949,744.83,-433.683)"
   id="g270">
            <g
   transform="matrix(0.71,0,0,1,225.693,0)"
   id="g268">
                <g
   transform="matrix(72.98,0,0,72.98,1285.12,1358.34)"
   id="g264">
                </g>
                <text
   x="778.25299"
   y="1358.34"
   style="font-weight:700;font-size:72.98px;font-family:Arial-BoldMT, Arial, sans-serif;fill:#231f20"
   id="text266">Bibliographies</text>
            </g>
        </g>
        <g
   transform="matrix(0.880125,0,0,0.880125,816.737,1260.63)"
   id="g278">
            <g
   transform="matrix(0.71,0,0,1,225.693,0)"
   id="g276">
                <g
   transform="matrix(72.98,0,0,72.98,968.863,1358.34)"
   id="g272">
                </g>
                <text
   x="778.25299"
   y="1358.34"
   style="font-weight:700;font-size:72.98px;font-family:Arial-BoldMT, Arial, sans-serif;fill:#231f20"
   id="text274">Index</text>
            </g>
        </g>
        <g
   transform="matrix(0.880125,0,0,0.880125,1083.56,-660.8)"
   id="g286">
            <g
   transform="matrix(0.71,0,0,1,225.693,0)"
   id="g284">
                <g
   transform="matrix(72.98,0,0,72.98,1098.57,1358.34)"
   id="g280">
                </g>
                <text
   x="778.25299"
   y="1358.34"
   style="font-weight:700;font-size:72.98px;font-family:Arial-BoldMT, Arial, sans-serif;fill:#231f20"
   id="text282">THE END</text>
            </g>
        </g>
        <g
   transform="translate(8.42045,-2438.91)"
   id="g294">
            <g
   transform="matrix(0.71,0,0,1,435.107,0)"
   id="g292">
                <g
   transform="matrix(83.3333,0,0,83.3333,2362.15,3900.78)"
   id="g288">
                </g>
                <text
   x="1500.37"
   y="3900.78"
   style="font-style:italic;font-size:83.333px;font-family:Arial-ItalicMT, Arial, sans-serif;fill:#231f20"
   id="text290">Pages de bibliogaphies</text>
            </g>
        </g>
        <g
   transform="translate(8.42045,-1656.24)"
   id="g302">
            <g
   transform="matrix(0.71,0,0,1,440.36,0)"
   id="g300">
                <g
   transform="matrix(83.3333,0,0,83.3333,2329.23,3900.78)"
   id="g296">
                </g>
                <text
   x="1518.48"
   y="3900.78"
   style="font-style:italic;font-size:83.333px;font-family:Arial-ItalicMT, Arial, sans-serif;fill:#231f20"
   id="text298">Biographie de l’auteur</text>
            </g>
        </g>
        <g
   transform="translate(8.42045,-878.784)"
   id="g310">
            <g
   transform="matrix(0.71,0,0,1,460.392,0)"
   id="g308">
                <g
   transform="matrix(83.3333,0,0,83.3333,2203.73,3900.78)"
   id="g304">
                </g>
                <text
   x="1587.5601"
   y="3900.78"
   style="font-style:italic;font-size:83.333px;font-family:Arial-ItalicMT, Arial, sans-serif;fill:#231f20"
   id="text306">Pages des index</text>
            </g>
        </g>
        <g
   transform="translate(8.42045,-97.7905)"
   id="g318">
            <g
   transform="matrix(0.71,0,0,1,417.002,0)"
   id="g316">
                <g
   transform="matrix(83.3333,0,0,83.3333,2475.58,3900.78)"
   id="g312">
                </g>
                <text
   x="1437.9399"
   y="3900.78"
   style="font-style:italic;font-size:83.333px;font-family:Arial-ItalicMT, Arial, sans-serif;fill:#231f20"
   id="text314">Page des crédits (colophon)</text>
            </g>
        </g>
        <g
   transform="translate(-1154.9,650.248)"
   id="g326">
            <g
   transform="matrix(0.71,0,0,1,413.199,0)"
   id="g324">
                <g
   transform="matrix(83.3333,0,0,83.3333,2499.41,3900.78)"
   id="g320">
                </g>
                <text
   x="1424.8199"
   y="3900.78"
   style="font-style:italic;font-size:83.333px;font-family:Arial-ItalicMT, Arial, sans-serif;fill:#231f20"
   id="text322">Page de marque d’imprimeur</text>
            </g>
        </g>
    </g>
</svg>
