<?xml version="1.0" encoding="UTF-8" standalone="no"?>
<svg
   width="2471.2893"
   height="3702.8162"
   viewBox="0 0 2471.2893 3702.8162"
   version="1.1"
   xml:space="preserve"
   style="clip-rule:evenodd;fill-rule:evenodd;stroke-linecap:round;stroke-linejoin:round;stroke-miterlimit:1.5"
   id="svg1030"
   xmlns="http://www.w3.org/2000/svg"
   xmlns:svg="http://www.w3.org/2000/svg"><defs
   id="defs1034" />
    <g
   transform="matrix(2.74384,0,0,1.14795,-280.8908,1449.0302)"
   id="g22">
        <g
   id="g10">
            <g
   transform="matrix(0.461424,0,0,0.481925,-73.5674,-193.813)"
   id="g4">
                <rect
   x="446.681"
   y="624.70502"
   width="894.32898"
   height="1170.12"
   style="fill:#e7e8e9;stroke:#231f20;stroke-width:2.35px"
   id="rect2" />
            </g>
            <g
   transform="matrix(0.430696,0,0,0.489017,-65.0769,-204.804)"
   id="g8">
                <rect
   x="549.633"
   y="732.56799"
   width="680.883"
   height="969.59998"
   style="fill:#ffffff"
   id="rect6" />
            </g>
        </g>
        <g
   transform="translate(-69.6469)"
   id="g20">
            <g
   transform="matrix(0.461424,0,0,0.481925,420.055,-193.813)"
   id="g14">
                <rect
   x="446.681"
   y="624.70502"
   width="894.32898"
   height="1170.12"
   style="fill:#e7e8e9;stroke:#231f20;stroke-width:2.35px"
   id="rect12" />
            </g>
            <g
   transform="matrix(0.430696,0,0,0.489017,468.546,-204.804)"
   id="g18">
                <rect
   x="549.633"
   y="732.56799"
   width="680.883"
   height="969.59998"
   style="fill:#ffffff"
   id="rect16" />
            </g>
        </g>
    </g>
    <g
   transform="matrix(2.74384,0,0,1.14795,-280.8908,2931.7102)"
   id="g44">
        <g
   id="g32">
            <g
   transform="matrix(0.461424,0,0,0.481925,-73.5674,-193.813)"
   id="g26">
                <rect
   x="446.681"
   y="624.70502"
   width="894.32898"
   height="1170.12"
   style="fill:#e7e8e9;stroke:#231f20;stroke-width:2.35px"
   id="rect24" />
            </g>
            <g
   transform="matrix(0.430696,0,0,0.489017,-65.0769,-204.804)"
   id="g30">
                <rect
   x="549.633"
   y="732.56799"
   width="680.883"
   height="969.59998"
   style="fill:#ffffff"
   id="rect28" />
            </g>
        </g>
        <g
   transform="translate(-69.6469)"
   id="g42">
            <g
   transform="matrix(0.461424,0,0,0.481925,420.055,-193.813)"
   id="g36">
                <rect
   x="446.681"
   y="624.70502"
   width="894.32898"
   height="1170.12"
   style="fill:#e7e8e9;stroke:#231f20;stroke-width:2.35px"
   id="rect34" />
            </g>
            <g
   transform="matrix(0.430696,0,0,0.489017,468.546,-204.804)"
   id="g40">
                <rect
   x="549.633"
   y="732.56799"
   width="680.883"
   height="969.59998"
   style="fill:#ffffff"
   id="rect38" />
            </g>
        </g>
    </g>
    <g
   transform="matrix(2.74384,0,0,1.14795,-280.8908,2165.1702)"
   id="g66">
        <g
   id="g54">
            <g
   transform="matrix(0.461424,0,0,0.481925,-73.5674,-193.813)"
   id="g48">
                <rect
   x="446.681"
   y="624.70502"
   width="894.32898"
   height="1170.12"
   style="fill:#e7e8e9;stroke:#231f20;stroke-width:2.35px"
   id="rect46" />
            </g>
            <g
   transform="matrix(0.430696,0,0,0.489017,-65.0769,-204.804)"
   id="g52">
                <rect
   x="549.633"
   y="732.56799"
   width="680.883"
   height="969.59998"
   style="fill:#ffffff"
   id="rect50" />
            </g>
        </g>
        <g
   transform="translate(-69.6469)"
   id="g64">
            <g
   transform="matrix(0.461424,0,0,0.481925,420.055,-193.813)"
   id="g58">
                <rect
   x="446.681"
   y="624.70502"
   width="894.32898"
   height="1170.12"
   style="fill:#e7e8e9;stroke:#231f20;stroke-width:2.35px"
   id="rect56" />
            </g>
            <g
   transform="matrix(0.430696,0,0,0.489017,468.546,-204.804)"
   id="g62">
                <rect
   x="549.633"
   y="732.56799"
   width="680.883"
   height="969.59998"
   style="fill:#ffffff"
   id="rect60" />
            </g>
        </g>
    </g>
    <g
   transform="translate(-3.8378038,-4273.7198)"
   id="g186">
        <g
   transform="matrix(0.71,0,0,1,56.2369,0)"
   id="g84">
            <g
   transform="matrix(57.0833,0,0,57.0833,193.92,5939.78)"
   id="g68">
            </g>
            <text
   x="193.92"
   y="5939.7798"
   style="font-size:57.083px;font-family:ArialMT, Arial, sans-serif;fill:#231f20"
   id="text82">Donec <tspan
   x="373.284"
   y="5939.7798"
   id="tspan70">n</tspan>ulla <tspan
   x="508.24701"
   y="5939.7798"
   id="tspan72">j</tspan>usto, <tspan
   x="659.04102"
   y="5939.7798"
   id="tspan74">a</tspan>dipiscing <tspan
   x="927.263"
   y="5939.7798"
   id="tspan76">s</tspan>it <tspan
   x="998.70398"
   y="5939.7798"
   id="tspan78">a</tspan>met, <tspan
   x="1155.83"
   y="5939.7798"
   id="tspan80">f</tspan>eugiat</text>
        </g>
        <g
   transform="matrix(0.71,0,0,1,56.2369,0)"
   id="g88">
            <text
   x="193.92"
   y="5998.73"
   style="font-size:57.083px;font-family:ArialMT, Arial, sans-serif;fill:#231f20"
   id="text86">ac, facilisis euismod, risus.</text>
        </g>
        <g
   transform="matrix(0.71,0,0,1,56.2369,0)"
   id="g100">
            <text
   x="193.92"
   y="6057.6802"
   style="font-size:57.083px;font-family:ArialMT, Arial, sans-serif;fill:#231f20"
   id="text98">Pellentesque <tspan
   x="560.59003"
   y="6057.6802"
   id="tspan90">t</tspan>incidunt, <tspan
   x="825.664"
   y="6057.6802"
   id="tspan92">d</tspan>olor <tspan
   x="989.198"
   y="6057.6802"
   id="tspan94">e</tspan>u <tspan
   x="1089.29"
   y="6057.6802"
   id="tspan96">d</tspan>ignissim</text>
        </g>
        <g
   transform="matrix(0.71,0,0,1,56.2369,0)"
   id="g110">
            <text
   x="193.92"
   y="6116.6299"
   style="font-size:57.083px;font-family:ArialMT, Arial, sans-serif;fill:#231f20"
   id="text108">mollis, justo <tspan
   x="508.14499"
   y="6116.6299"
   id="tspan102">s</tspan>apien iaculis <tspan
   x="866.88202"
   y="6116.6299"
   id="tspan104">p</tspan>ede, vel <tspan
   x="1114.6"
   y="6116.6299"
   id="tspan106">t</tspan>incidunt</text>
        </g>
        <g
   transform="matrix(0.71,0,0,1,56.2369,0)"
   id="g130">
            <text
   x="193.92"
   y="6175.5801"
   style="font-size:57.083px;font-family:ArialMT, Arial, sans-serif;fill:#231f20"
   id="text128">lacus <tspan
   x="345.508"
   y="6175.5801"
   id="tspan112">n</tspan>isl <tspan
   x="449.48999"
   y="6175.5801"
   id="tspan114">s</tspan>it <tspan
   x="524.90198"
   y="6175.5801"
   id="tspan116">a</tspan>met <tspan
   x="670.13501"
   y="6175.5801"
   id="tspan118">m</tspan>etus. <tspan
   x="859.76898"
   y="6175.5801"
   id="tspan120">F</tspan>usce <tspan
   x="1033.54"
   y="6175.5801"
   id="tspan122">a</tspan>c <tspan
   x="1112.16"
   y="6175.5801"
   id="tspan124">e</tspan>st <tspan
   x="1206.64"
   y="6175.5801"
   id="tspan126">v</tspan>itae</text>
        </g>
        <g
   transform="matrix(0.71,0,0,1,56.2369,0)"
   id="g142">
            <text
   x="193.92"
   y="6234.5298"
   style="font-size:57.083px;font-family:ArialMT, Arial, sans-serif;fill:#231f20"
   id="text140">purus <tspan
   x="392.39899"
   y="6234.5298"
   id="tspan132">v</tspan>arius <tspan
   x="600.35498"
   y="6234.5298"
   id="tspan134">t</tspan>ristique. <tspan
   x="871.77698"
   y="6234.5298"
   id="tspan136">P</tspan>hasellus <tspan
   x="1174.97"
   y="6234.5298"
   id="tspan138">m</tspan>attis</text>
        </g>
        <g
   transform="matrix(0.71,0,0,1,56.2369,0)"
   id="g156">
            <text
   x="193.92"
   y="6293.48"
   style="font-size:57.083px;font-family:ArialMT, Arial, sans-serif;fill:#231f20"
   id="text154">ornare <tspan
   x="400.52301"
   y="6293.48"
   id="tspan144">l</tspan>igula. <tspan
   x="591.26599"
   y="6293.48"
   id="tspan146">D</tspan>onec <tspan
   x="797.86798"
   y="6293.48"
   id="tspan148">i</tspan>d <tspan
   x="883.89398"
   y="6293.48"
   id="tspan150">n</tspan>ibh. <tspan
   x="1049.27 1082.91 1114.66"
   y="6293.48 6293.48 6293.48"
   id="tspan152">Ves</tspan>tibulum</text>
        </g>
        <g
   transform="matrix(0.71,0,0,1,56.2369,0)"
   id="g170">
            <text
   x="193.92"
   y="6352.4302"
   style="font-size:57.083px;font-family:ArialMT, Arial, sans-serif;fill:#231f20"
   id="text168">metus <tspan
   x="383.759"
   y="6352.4302"
   id="tspan158">q</tspan>uam, <tspan
   x="576.80402"
   y="6352.4302"
   id="tspan160">u</tspan>ltrices <tspan
   x="792.00702"
   y="6352.4302"
   id="tspan162">i</tspan>n, <tspan
   x="886.68903"
   y="6352.4302"
   id="tspan164">s</tspan>agittis <tspan
   x="1098.74"
   y="6352.4302"
   id="tspan166">t</tspan>incidunt,</text>
        </g>
        <g
   transform="matrix(0.71,0,0,1,56.2369,0)"
   id="g184">
            <text
   x="193.92"
   y="6411.3799"
   style="font-size:57.083px;font-family:ArialMT, Arial, sans-serif;fill:#231f20"
   id="text182">gravida <tspan
   x="417.396"
   y="6411.3799"
   id="tspan172">e</tspan>t, <tspan
   x="517.117"
   y="6411.3799"
   id="tspan174">s</tspan>apien. <tspan
   x="737.44299"
   y="6411.3799"
   id="tspan176">S</tspan>ed <tspan
   x="875.26599"
   y="6411.3799"
   id="tspan178">b</tspan>ibendum, <tspan
   x="1178.1"
   y="6411.3799"
   id="tspan180">l</tspan>ectus</text>
        </g>
    </g>
    <g
   transform="translate(-3.8378038,-3557.5798)"
   id="g258">
        <g
   transform="matrix(0.71,0,0,1,56.2369,0)"
   id="g204">
            <g
   transform="matrix(57.0833,0,0,57.0833,193.92,5939.78)"
   id="g188">
            </g>
            <text
   x="193.92"
   y="5939.7798"
   style="font-size:57.083px;font-family:ArialMT, Arial, sans-serif;fill:#231f20"
   id="text202">Donec <tspan
   x="373.284"
   y="5939.7798"
   id="tspan190">n</tspan>ulla <tspan
   x="508.24701"
   y="5939.7798"
   id="tspan192">j</tspan>usto, <tspan
   x="659.04102"
   y="5939.7798"
   id="tspan194">a</tspan>dipiscing <tspan
   x="927.263"
   y="5939.7798"
   id="tspan196">s</tspan>it <tspan
   x="998.70398"
   y="5939.7798"
   id="tspan198">a</tspan>met, <tspan
   x="1155.83"
   y="5939.7798"
   id="tspan200">f</tspan>eugiat</text>
        </g>
        <g
   transform="matrix(0.71,0,0,1,56.2369,0)"
   id="g208">
            <text
   x="193.92"
   y="5998.73"
   style="font-size:57.083px;font-family:ArialMT, Arial, sans-serif;fill:#231f20"
   id="text206">ac, facilisis euismod, risus.</text>
        </g>
        <g
   transform="matrix(0.71,0,0,1,56.2369,0)"
   id="g220">
            <text
   x="193.92"
   y="6057.6802"
   style="font-size:57.083px;font-family:ArialMT, Arial, sans-serif;fill:#231f20"
   id="text218">Pellentesque <tspan
   x="560.59003"
   y="6057.6802"
   id="tspan210">t</tspan>incidunt, <tspan
   x="825.664"
   y="6057.6802"
   id="tspan212">d</tspan>olor <tspan
   x="989.198"
   y="6057.6802"
   id="tspan214">e</tspan>u <tspan
   x="1089.29"
   y="6057.6802"
   id="tspan216">d</tspan>ignissim</text>
        </g>
        <g
   transform="matrix(0.71,0,0,1,56.2369,0)"
   id="g230">
            <text
   x="193.92"
   y="6116.6299"
   style="font-size:57.083px;font-family:ArialMT, Arial, sans-serif;fill:#231f20"
   id="text228">mollis, justo <tspan
   x="508.14499"
   y="6116.6299"
   id="tspan222">s</tspan>apien iaculis <tspan
   x="866.88202"
   y="6116.6299"
   id="tspan224">p</tspan>ede, vel <tspan
   x="1114.6"
   y="6116.6299"
   id="tspan226">t</tspan>incidunt</text>
        </g>
        <g
   transform="matrix(0.71,0,0,1,56.2369,0)"
   id="g250">
            <text
   x="193.92"
   y="6175.5801"
   style="font-size:57.083px;font-family:ArialMT, Arial, sans-serif;fill:#231f20"
   id="text248">lacus <tspan
   x="345.508"
   y="6175.5801"
   id="tspan232">n</tspan>isl <tspan
   x="449.48999"
   y="6175.5801"
   id="tspan234">s</tspan>it <tspan
   x="524.90198"
   y="6175.5801"
   id="tspan236">a</tspan>met <tspan
   x="670.13501"
   y="6175.5801"
   id="tspan238">m</tspan>etus. <tspan
   x="859.76898"
   y="6175.5801"
   id="tspan240">F</tspan>usce <tspan
   x="1033.54"
   y="6175.5801"
   id="tspan242">a</tspan>c <tspan
   x="1112.16"
   y="6175.5801"
   id="tspan244">e</tspan>st <tspan
   x="1206.64"
   y="6175.5801"
   id="tspan246">v</tspan>itae</text>
        </g>
        <g
   transform="matrix(0.71,0,0,1,56.2369,0)"
   id="g256">
            <g
   transform="matrix(57.0833,0,0,57.0833,1183.76,6234.53)"
   id="g252">
            </g>
            <text
   x="193.92"
   y="6234.5298"
   style="font-size:57.083px;font-family:ArialMT, Arial, sans-serif;fill:#231f20"
   id="text254">purus varius tristique. Phasellus mattis</text>
        </g>
    </g>
    <g
   transform="translate(-3.8378038,-4273.7198)"
   id="g374">
        <g
   transform="matrix(0.71,0,0,1,425.429,0)"
   id="g272">
            <text
   x="1467"
   y="5939.7798"
   style="font-size:57.083px;font-family:ArialMT, Arial, sans-serif;fill:#231f20"
   id="text270">vitae <tspan
   x="1620.92"
   y="5939.7798"
   id="tspan260">t</tspan>incidunt <tspan
   x="1866.88"
   y="5939.7798"
   id="tspan262">d</tspan>apibus, <tspan
   x="2116.04"
   y="5939.7798"
   id="tspan264">s</tspan>em <tspan
   x="2257.23"
   y="5939.7798"
   id="tspan266">f</tspan>elis <tspan
   x="2392.0801"
   y="5939.7798"
   id="tspan268">p</tspan>osuere</text>
        </g>
        <g
   transform="matrix(0.71,0,0,1,425.429,0)"
   id="g288">
            <text
   x="1467"
   y="5998.73"
   style="font-size:57.083px;font-family:ArialMT, Arial, sans-serif;fill:#231f20"
   id="text286">est, <tspan
   x="1613.23"
   y="5998.73"
   id="tspan274">i</tspan>d <tspan
   x="1711.89"
   y="5998.73"
   id="tspan276">o</tspan>rnare <tspan
   x="1931.13"
   y="5998.73"
   id="tspan278">a</tspan>ugue <tspan
   x="2144.0901"
   y="5998.73"
   id="tspan280">l</tspan>orem <tspan
   x="2341.0601"
   y="5998.73"
   id="tspan282">i</tspan>n <tspan
   x="2439.72"
   y="5998.73"
   id="tspan284">p</tspan>urus.</text>
        </g>
        <g
   transform="matrix(0.71,0,0,1,425.429,0)"
   id="g300">
            <text
   x="1467"
   y="6057.6802"
   style="font-size:57.083px;font-family:ArialMT, Arial, sans-serif;fill:#231f20"
   id="text298">Suspendisse <tspan
   x="1845.87"
   y="6057.6802"
   id="tspan290">l</tspan>igula. <tspan
   x="2047.02"
   y="6057.6802"
   id="tspan292">S</tspan>ed <tspan
   x="2200.6001"
   y="6057.6802"
   id="tspan294">m</tspan>ollis <tspan
   x="2398.49"
   y="6057.6802"
   id="tspan296">t</tspan>ristique</text>
        </g>
        <g
   transform="matrix(0.71,0,0,1,425.429,0)"
   id="g314">
            <text
   x="1467"
   y="6116.6299"
   style="font-size:57.083px;font-family:ArialMT, Arial, sans-serif;fill:#231f20"
   id="text312">mauris. <tspan
   x="1708.4301"
   y="6116.6299"
   id="tspan302">N</tspan>ullam <tspan
   x="1940.37"
   y="6116.6299"
   id="tspan304">n</tspan>unc <tspan
   x="2118.45"
   y="6116.6299"
   id="tspan306">n</tspan>unc, <tspan
   x="2312.3899"
   y="6116.6299"
   id="tspan308">a</tspan>liquet <tspan
   x="2534.8999"
   y="6116.6299"
   id="tspan310">e</tspan>t,</text>
        </g>
        <g
   transform="matrix(0.71,0,0,1,425.429,0)"
   id="g330">
            <text
   x="1467"
   y="6175.5801"
   style="font-size:57.083px;font-family:ArialMT, Arial, sans-serif;fill:#231f20"
   id="text328">tristique <tspan
   x="1695.2"
   y="6175.5801"
   id="tspan316">n</tspan>ec, <tspan
   x="1831.4301"
   y="6175.5801"
   id="tspan318">p</tspan>orttitor <tspan
   x="2053.28"
   y="6175.5801"
   id="tspan320">q</tspan>uis, <tspan
   x="2202.1899"
   y="6175.5801"
   id="tspan322">u</tspan>rna. <tspan
   x="2360.6299"
   y="6175.5801"
   id="tspan324">E</tspan>tiam <tspan
   x="2534.8799"
   y="6175.5801"
   id="tspan326">e</tspan>u</text>
        </g>
        <g
   transform="matrix(0.71,0,0,1,425.429,0)"
   id="g346">
            <text
   x="1467"
   y="6234.5298"
   style="font-size:57.083px;font-family:ArialMT, Arial, sans-serif;fill:#231f20"
   id="text344">erat. <tspan
   x="1610.63"
   y="6234.5298"
   id="tspan332">M</tspan>orbi <tspan
   x="1782.78"
   y="6234.5298"
   id="tspan334">u</tspan>t <tspan
   x="1859.8"
   y="6234.5298"
   id="tspan336">n</tspan>isl. <tspan
   x="1990.73"
   y="6234.5298"
   id="tspan338">C</tspan>urabitur <tspan
   x="2254.9099"
   y="6234.5298"
   id="tspan340">s</tspan>emper <tspan
   x="2474.6699"
   y="6234.5298"
   id="tspan342">s</tspan>em.</text>
        </g>
        <g
   transform="matrix(0.71,0,0,1,425.429,0)"
   id="g362">
            <text
   x="1467"
   y="6293.48"
   style="font-size:57.083px;font-family:ArialMT, Arial, sans-serif;fill:#231f20"
   id="text360">Nulla <tspan
   x="1621.7"
   y="6293.48"
   id="tspan348">t</tspan>urpis <tspan
   x="1785.9"
   y="6293.48"
   id="tspan350">n</tspan>ibh, <tspan
   x="1934.3101"
   y="6293.48"
   id="tspan352">t</tspan>empor <tspan
   x="2136.5901"
   y="6293.48"
   id="tspan354">n</tspan>ec, <tspan
   x="2269.1001"
   y="6293.48"
   id="tspan356">a</tspan>liquet <tspan
   x="2461.9299"
   y="6293.48"
   id="tspan358">v</tspan>itae,</text>
        </g>
        <g
   transform="matrix(0.71,0,0,1,425.429,0)"
   id="g366">
            <text
   x="1467"
   y="6352.4302"
   style="font-size:57.083px;font-family:ArialMT, Arial, sans-serif;fill:#231f20"
   id="text364">elementum ac, mauris.</text>
        </g>
        <g
   transform="matrix(0.71,0,0,1,425.429,0)"
   id="g372">
            <g
   transform="matrix(57.0833,0,0,57.0833,2457.03,6411.38)"
   id="g368">
            </g>
            <text
   x="1467"
   y="6411.3799"
   style="font-size:57.083px;font-family:ArialMT, Arial, sans-serif;fill:#231f20"
   id="text370">Quisque pellentesque metus ac quam.</text>
        </g>
    </g>
    <g
   transform="matrix(2.74384,0,0,1.14795,-282.2538,663.49524)"
   id="g396">
        <g
   id="g384">
            <g
   transform="matrix(0.461424,0,0,0.481925,-73.5674,-193.813)"
   id="g378">
                <rect
   x="446.681"
   y="624.70502"
   width="894.32898"
   height="1170.12"
   style="fill:#e7e8e9;stroke:#231f20;stroke-width:2.35px"
   id="rect376" />
            </g>
            <g
   transform="matrix(0.430696,0,0,0.489017,-65.0769,-204.804)"
   id="g382">
                <rect
   x="549.633"
   y="732.56799"
   width="680.883"
   height="969.59998"
   style="fill:#ffffff"
   id="rect380" />
            </g>
        </g>
        <g
   transform="translate(-69.6469)"
   id="g394">
            <g
   transform="matrix(0.461424,0,0,0.481925,420.055,-193.813)"
   id="g388">
                <rect
   x="446.681"
   y="624.70502"
   width="894.32898"
   height="1170.12"
   style="fill:#e7e8e9;stroke:#231f20;stroke-width:2.35px"
   id="rect386" />
            </g>
            <g
   transform="matrix(0.430696,0,0,0.489017,468.546,-204.804)"
   id="g392">
                <rect
   x="549.633"
   y="732.56799"
   width="680.883"
   height="969.59998"
   style="fill:#ffffff"
   id="rect390" />
            </g>
        </g>
    </g>
    <g
   transform="matrix(2.74384,0,0,2.74384,-1994.2978,-4115.2698)"
   id="g476">
        <g
   transform="matrix(0.71,0,0,1,372.093,0)"
   id="g410">
            <text
   x="1374.6801"
   y="1886.16"
   style="font-size:20.804px;font-family:ArialMT, Arial, sans-serif;fill:#231f20"
   id="text408"><tspan
   x="1374.6801"
   y="1886.16"
   id="tspan398">S</tspan>ouvent <tspan
   x="1473.8101"
   y="1886.16"
   id="tspan400">l</tspan>e <tspan
   x="1512.79"
   y="1886.16"
   id="tspan402">s</tspan>oir <tspan
   x="1569.1"
   y="1886.16"
   id="tspan404">j</tspan>e <tspan
   x="1608.08"
   y="1886.16"
   id="tspan406">m</tspan>e</text>
        </g>
        <g
   transform="matrix(0.71,0,0,1,372.093,0)"
   id="g426">
            <text
   x="1283.08"
   y="1907.64"
   style="font-size:20.804px;font-family:ArialMT, Arial, sans-serif;fill:#231f20"
   id="text424">couchais <tspan
   x="1371.75"
   y="1907.64"
   id="tspan412">t</tspan>ôt <tspan
   x="1401.4399"
   y="1907.64"
   id="tspan414">a</tspan>près <tspan
   x="1460.05"
   y="1907.64"
   id="tspan416">a</tspan>voir <tspan
   x="1511.7"
   y="1907.64"
   id="tspan418">p</tspan>ris <tspan
   x="1551.79"
   y="1907.64"
   id="tspan420">m</tspan>a <tspan
   x="1587.26"
   y="1907.64"
   id="tspan422">t</tspan>asse</text>
        </g>
        <g
   transform="matrix(0.71,0,0,1,372.093,0)"
   id="g442">
            <text
   x="1283.08"
   y="1929.13"
   style="font-size:20.804px;font-family:ArialMT, Arial, sans-serif;fill:#231f20"
   id="text440">de <tspan
   x="1311.04"
   y="1929.13"
   id="tspan428">s</tspan>oupe <tspan
   x="1372.54"
   y="1929.13"
   id="tspan430">e</tspan>t <tspan
   x="1394.7"
   y="1929.13"
   id="tspan432">m</tspan>on <tspan
   x="1439.99"
   y="1929.13"
   id="tspan434">a</tspan>ssiette <tspan
   x="1516.5"
   y="1929.13"
   id="tspan436">d</tspan>e <tspan
   x="1544.46"
   y="1929.13"
   id="tspan438">c</tspan>roquette.</text>
        </g>
        <g
   transform="matrix(0.71,0,0,1,372.093,0)"
   id="g456">
            <text
   x="1283.08"
   y="1950.61"
   style="font-size:20.804px;font-family:ArialMT, Arial, sans-serif;fill:#231f20"
   id="text454">La <tspan
   x="1330.27"
   y="1950.61"
   id="tspan444">q</tspan>ueue <tspan
   x="1412.17"
   y="1950.61"
   id="tspan446">e</tspan>ntre <tspan
   x="1483.64"
   y="1950.61"
   id="tspan448">l</tspan>es <tspan
   x="1534.28"
   y="1950.61"
   id="tspan450">p</tspan>attes, <tspan
   x="1620.79"
   y="1950.61"
   id="tspan452">j</tspan>e</text>
        </g>
        <g
   transform="matrix(0.71,0,0,1,372.093,0)"
   id="g474">
            <text
   x="1283.08"
   y="1972.1"
   style="font-size:20.804px;font-family:ArialMT, Arial, sans-serif;fill:#231f20"
   id="text472">m’allongeais <tspan
   x="1403.85"
   y="1972.1"
   id="tspan458">a</tspan>u <tspan
   x="1432.11"
   y="1972.1"
   id="tspan460">p</tspan>ied <tspan
   x="1476.5699"
   y="1972.1"
   id="tspan462">d</tspan>u <tspan
   x="1504.84"
   y="1972.1"
   id="tspan464">l</tspan>it <tspan
   x="1524.98"
   y="1972.1"
   id="tspan466">e</tspan>t <tspan
   x="1547.46"
   y="1972.1"
   id="tspan468">j</tspan>e <tspan
   x="1568.78"
   y="1972.1"
   id="tspan470">f</tspan>ermais</text>
        </g>
    </g>
    <g
   transform="matrix(2.74384,0,0,1.14795,-282.2538,-122.46526)"
   id="g498">
        <g
   id="g486">
            <g
   transform="matrix(0.461424,0,0,0.481925,-73.5674,-193.813)"
   id="g480">
                <rect
   x="446.681"
   y="624.70502"
   width="894.32898"
   height="1170.12"
   style="fill:#e7e8e9;stroke:#231f20;stroke-width:2.35px"
   id="rect478" />
            </g>
            <g
   transform="matrix(0.430696,0,0,0.489017,-65.0769,-204.804)"
   id="g484">
                <rect
   x="549.633"
   y="732.56799"
   width="680.883"
   height="969.59998"
   style="fill:#ffffff"
   id="rect482" />
            </g>
        </g>
        <g
   transform="translate(-69.6469)"
   id="g496">
            <g
   transform="matrix(0.461424,0,0,0.481925,420.055,-193.813)"
   id="g490">
                <rect
   x="446.681"
   y="624.70502"
   width="894.32898"
   height="1170.12"
   style="fill:#e7e8e9;stroke:#231f20;stroke-width:2.35px"
   id="rect488" />
            </g>
            <g
   transform="matrix(0.430696,0,0,0.489017,468.546,-204.804)"
   id="g494">
                <rect
   x="549.633"
   y="732.56799"
   width="680.883"
   height="969.59998"
   style="fill:#ffffff"
   id="rect492" />
            </g>
        </g>
    </g>
    <g
   transform="matrix(0.732496,0,0,0.732496,1027.4822,-813.96176)"
   id="g506">
        <g
   transform="matrix(0.71,0,0,1,225.693,0)"
   id="g504">
            <g
   transform="matrix(72.98,0,0,72.98,1844.87,1358.34)"
   id="g500">
            </g>
            <text
   x="778.25299"
   y="1358.34"
   style="font-weight:700;font-size:72.98px;font-family:Arial-BoldMT, Arial, sans-serif;fill:#231f20"
   id="text502">Chapitre 1...............................12</text>
        </g>
    </g>
    <g
   transform="matrix(0.732496,0,0,0.732496,1204.4022,-51.606262)"
   id="g516">
        <g
   transform="matrix(0.71,0,0,1,225.693,0)"
   id="g514">
            <g
   transform="matrix(72.98,0,0,72.98,1121.3,1358.34)"
   id="g508">
            </g>
            <text
   x="778.25299"
   y="1358.34"
   style="font-weight:700;font-size:72.98px;font-family:Arial-BoldMT, Arial, sans-serif;fill:#231f20"
   id="text512">PRÉF<tspan
   x="967.21802 1019.92"
   y="1358.34 1358.34"
   id="tspan510">AC</tspan>E</text>
        </g>
    </g>
    <g
   transform="matrix(1.28391,0,0,1.28391,861.7222,740.59724)"
   id="g524">
        <g
   transform="matrix(0.71,0,0,1,225.693,0)"
   id="g522">
            <g
   transform="matrix(72.98,0,0,72.98,798.529,1358.34)"
   id="g518">
            </g>
            <text
   x="778.25299"
   y="1358.34"
   style="font-weight:700;font-size:72.98px;font-family:Arial-BoldMT, Arial, sans-serif;fill:#231f20"
   id="text520">I</text>
        </g>
    </g>
    <g
   transform="matrix(0.732496,0,0,0.732496,-337.9768,-40.145372)"
   id="g532">
        <g
   transform="matrix(0.71,0,0,1,225.693,0)"
   id="g530">
            <g
   transform="matrix(72.98,0,0,72.98,1382.69,1358.34)"
   id="g526">
            </g>
            <text
   x="778.25299"
   y="1358.34"
   style="font-weight:700;font-size:72.98px;font-family:Arial-BoldMT, Arial, sans-serif;fill:#231f20"
   id="text528">Remerciements à</text>
        </g>
    </g>
    <g
   transform="matrix(0.732496,0,0,0.732496,1024.9022,-582.19776)"
   id="g540">
        <g
   transform="matrix(0.71,0,0,1,225.693,0)"
   id="g538">
            <g
   transform="matrix(72.98,0,0,72.98,1865.15,1358.34)"
   id="g534">
            </g>
            <text
   x="778.25299"
   y="1358.34"
   style="font-weight:700;font-size:72.98px;font-family:Arial-BoldMT, Arial, sans-serif;fill:#231f20"
   id="text536">Chapitre 2................................31</text>
        </g>
    </g>
    <g
   transform="matrix(1.3668,0,0,1.3668,601.8162,-331.46476)"
   id="g548">
        <g
   transform="matrix(0.71,0,0,1,225.693,0)"
   id="g546">
            <g
   transform="matrix(72.98,0,0,72.98,1041.99,1358.34)"
   id="g542">
            </g>
            <text
   x="778.25299"
   y="1358.34"
   style="font-weight:700;font-size:72.98px;font-family:Arial-BoldMT, Arial, sans-serif;fill:#231f20"
   id="text544">Préface</text>
        </g>
    </g>
    <g
   transform="matrix(1.3668,0,0,1.3668,491.8722,1158.4502)"
   id="g558">
        <g
   transform="matrix(0.71,0,0,1,225.693,0)"
   id="g556">
            <g
   transform="matrix(72.98,0,0,72.98,1302.01,1358.34)"
   id="g550">
            </g>
            <text
   x="778.25299"
   y="1358.34"
   style="font-weight:700;font-size:72.98px;font-family:Arial-BoldMT, Arial, sans-serif;fill:#231f20"
   id="text554">Pages de T<tspan
   x="1155.9399 1196.53"
   y="1358.34 1358.34"
   id="tspan552">ex</tspan>te</text>
        </g>
    </g>
    <g
   transform="matrix(1.3668,0,0,1.3668,-826.4028,-331.46476)"
   id="g566">
        <g
   transform="matrix(0.71,0,0,1,225.693,0)"
   id="g564">
            <g
   transform="matrix(72.98,0,0,72.98,1662.56,1358.34)"
   id="g560">
            </g>
            <text
   x="778.25299"
   y="1358.34"
   style="font-weight:700;font-size:72.98px;font-family:Arial-BoldMT, Arial, sans-serif;fill:#231f20"
   id="text562">Page des Remerciements</text>
        </g>
    </g>
    <g
   transform="matrix(1.3668,0,0,1.3668,498.0262,-1117.4298)"
   id="g576">
        <g
   transform="matrix(0.71,0,0,1,225.693,0)"
   id="g574">
            <g
   transform="matrix(72.98,0,0,72.98,1427.76,1358.34)"
   id="g568">
            </g>
            <text
   x="778.25299"
   y="1358.34"
   style="font-weight:700;font-size:72.98px;font-family:Arial-BoldMT, Arial, sans-serif;fill:#231f20"
   id="text572">T<tspan
   x="815.203 855.79102"
   y="1358.34 1358.34"
   id="tspan570">ab</tspan>le des matières</text>
        </g>
    </g>
    <g
   transform="matrix(0.645518,0,0,0.645518,1185.0022,-637.64176)"
   id="g584">
        <g
   transform="matrix(0.71,0,0,1,225.693,0)"
   id="g582">
            <g
   transform="matrix(72.98,0,0,72.98,1792.2,1358.34)"
   id="g578">
            </g>
            <text
   x="778.25299"
   y="1358.34"
   style="font-weight:700;font-size:72.98px;font-family:Arial-BoldMT, Arial, sans-serif;fill:#231f20"
   id="text580">Section 1.1...........................12</text>
        </g>
    </g>
    <g
   transform="matrix(0.645518,0,0,0.645518,1185.0022,-410.75276)"
   id="g592">
        <g
   transform="matrix(0.71,0,0,1,225.693,0)"
   id="g590">
            <g
   transform="matrix(72.98,0,0,72.98,1792.2,1358.34)"
   id="g586">
            </g>
            <text
   x="778.25299"
   y="1358.34"
   style="font-weight:700;font-size:72.98px;font-family:Arial-BoldMT, Arial, sans-serif;fill:#231f20"
   id="text588">Section 2.1...........................31</text>
        </g>
    </g>
    <g
   transform="matrix(0.645518,0,0,0.645518,1185.0022,-359.19576)"
   id="g600">
        <g
   transform="matrix(0.71,0,0,1,225.693,0)"
   id="g598">
            <g
   transform="matrix(72.98,0,0,72.98,1792.2,1358.34)"
   id="g594">
            </g>
            <text
   x="778.25299"
   y="1358.34"
   style="font-weight:700;font-size:72.98px;font-family:Arial-BoldMT, Arial, sans-serif;fill:#231f20"
   id="text596">Section 2.2...........................43</text>
        </g>
    </g>
    <g
   transform="matrix(0.645518,0,0,0.645518,1185.0022,-584.06276)"
   id="g608">
        <g
   transform="matrix(0.71,0,0,1,225.693,0)"
   id="g606">
            <g
   transform="matrix(72.98,0,0,72.98,1792.2,1358.34)"
   id="g602">
            </g>
            <text
   x="778.25299"
   y="1358.34"
   style="font-weight:700;font-size:72.98px;font-family:Arial-BoldMT, Arial, sans-serif;fill:#231f20"
   id="text604">Section 1.2...........................16</text>
        </g>
    </g>
    <g
   transform="matrix(0.645518,0,0,0.645518,1185.0022,-533.27576)"
   id="g616">
        <g
   transform="matrix(0.71,0,0,1,225.693,0)"
   id="g614">
            <g
   transform="matrix(72.98,0,0,72.98,1792.2,1358.34)"
   id="g610">
            </g>
            <text
   x="778.25299"
   y="1358.34"
   style="font-weight:700;font-size:72.98px;font-family:Arial-BoldMT, Arial, sans-serif;fill:#231f20"
   id="text612">Section 1.3...........................23</text>
        </g>
    </g>
    <g
   transform="matrix(1.3668,0,0,1.3668,1330.9422,361.68724)"
   id="g624">
        <g
   transform="matrix(0.71,0,0,1,225.693,0)"
   id="g622">
            <g
   transform="matrix(72.98,0,0,72.98,859.429,1358.34)"
   id="g618">
            </g>
            <text
   x="778.25299"
   y="1358.34"
   style="font-weight:700;font-size:72.98px;font-family:Arial-BoldMT, Arial, sans-serif;fill:#231f20"
   id="text620">15</text>
        </g>
    </g>
    <g
   transform="matrix(1.3668,0,0,1.3668,1330.9422,1844.3702)"
   id="g632">
        <g
   transform="matrix(0.71,0,0,1,225.693,0)"
   id="g630">
            <g
   transform="matrix(72.98,0,0,72.98,859.429,1358.34)"
   id="g626">
            </g>
            <text
   x="778.25299"
   y="1358.34"
   style="font-weight:700;font-size:72.98px;font-family:Arial-BoldMT, Arial, sans-serif;fill:#231f20"
   id="text628">19</text>
        </g>
    </g>
    <g
   transform="matrix(1.3668,0,0,1.3668,1330.9422,1077.8302)"
   id="g640">
        <g
   transform="matrix(0.71,0,0,1,225.693,0)"
   id="g638">
            <g
   transform="matrix(72.98,0,0,72.98,859.429,1358.34)"
   id="g634">
            </g>
            <text
   x="778.25299"
   y="1358.34"
   style="font-weight:700;font-size:72.98px;font-family:Arial-BoldMT, Arial, sans-serif;fill:#231f20"
   id="text636">17</text>
        </g>
    </g>
    <g
   transform="matrix(1.3668,0,0,1.3668,1329.5822,-423.84576)"
   id="g648">
        <g
   transform="matrix(0.71,0,0,1,225.693,0)"
   id="g646">
            <g
   transform="matrix(72.98,0,0,72.98,859.429,1358.34)"
   id="g642">
            </g>
            <text
   x="778.25299"
   y="1358.34"
   style="font-weight:700;font-size:72.98px;font-family:Arial-BoldMT, Arial, sans-serif;fill:#231f20"
   id="text644">13</text>
        </g>
    </g>
    <g
   transform="matrix(1.3668,0,0,1.3668,1329.5822,-1209.8098)"
   id="g658">
        <g
   transform="matrix(0.71,0,0,1,225.693,0)"
   id="g656">
            <g
   transform="matrix(72.98,0,0,72.98,853.757,1358.34)"
   id="g650">
            </g>
            <text
   x="778.25299"
   y="1358.34"
   style="font-weight:700;font-size:72.98px;font-family:Arial-BoldMT, Arial, sans-serif;fill:#231f20"
   id="text654">1<tspan
   x="813.16901"
   y="1358.34"
   id="tspan652">1</tspan></text>
        </g>
    </g>
    <g
   transform="matrix(1.3668,0,0,1.3668,-1067.9478,361.68724)"
   id="g666">
        <g
   transform="matrix(0.71,0,0,1,225.693,0)"
   id="g664">
            <g
   transform="matrix(72.98,0,0,72.98,859.429,1358.34)"
   id="g660">
            </g>
            <text
   x="778.25299"
   y="1358.34"
   style="font-weight:700;font-size:72.98px;font-family:Arial-BoldMT, Arial, sans-serif;fill:#231f20"
   id="text662">14</text>
        </g>
    </g>
    <g
   transform="matrix(1.3668,0,0,1.3668,-1067.9478,1844.3702)"
   id="g674">
        <g
   transform="matrix(0.71,0,0,1,225.693,0)"
   id="g672">
            <g
   transform="matrix(72.98,0,0,72.98,859.429,1358.34)"
   id="g668">
            </g>
            <text
   x="778.25299"
   y="1358.34"
   style="font-weight:700;font-size:72.98px;font-family:Arial-BoldMT, Arial, sans-serif;fill:#231f20"
   id="text670">18</text>
        </g>
    </g>
    <g
   transform="matrix(1.3668,0,0,1.3668,-1067.9478,1077.8302)"
   id="g682">
        <g
   transform="matrix(0.71,0,0,1,225.693,0)"
   id="g680">
            <g
   transform="matrix(72.98,0,0,72.98,859.429,1358.34)"
   id="g676">
            </g>
            <text
   x="778.25299"
   y="1358.34"
   style="font-weight:700;font-size:72.98px;font-family:Arial-BoldMT, Arial, sans-serif;fill:#231f20"
   id="text678">16</text>
        </g>
    </g>
    <g
   transform="matrix(1.3668,0,0,1.3668,-1069.3178,-423.84576)"
   id="g690">
        <g
   transform="matrix(0.71,0,0,1,225.693,0)"
   id="g688">
            <g
   transform="matrix(72.98,0,0,72.98,859.429,1358.34)"
   id="g684">
            </g>
            <text
   x="778.25299"
   y="1358.34"
   style="font-weight:700;font-size:72.98px;font-family:Arial-BoldMT, Arial, sans-serif;fill:#231f20"
   id="text686">12</text>
        </g>
    </g>
    <g
   transform="matrix(1.3668,0,0,1.3668,-1069.3178,-1209.8098)"
   id="g698">
        <g
   transform="matrix(0.71,0,0,1,225.693,0)"
   id="g696">
            <g
   transform="matrix(72.98,0,0,72.98,859.429,1358.34)"
   id="g692">
            </g>
            <text
   x="778.25299"
   y="1358.34"
   style="font-weight:700;font-size:72.98px;font-family:Arial-BoldMT, Arial, sans-serif;fill:#231f20"
   id="text694">10</text>
        </g>
    </g>
    <g
   transform="translate(1269.2322,-683.83076)"
   id="g768">
        <g
   transform="matrix(0.71,0,0,1,56.2369,0)"
   id="g714">
            <g
   transform="matrix(57.0833,0,0,57.0833,468.705,3307.03)"
   id="g700">
            </g>
            <text
   x="468.70499"
   y="3307.03"
   style="font-size:57.083px;font-family:ArialMT, Arial, sans-serif;fill:#231f20"
   id="text712"><tspan
   x="468.70499"
   y="3307.03"
   id="tspan702">C</tspan>um <tspan
   x="612.66101"
   y="3307.03"
   id="tspan704">s</tspan>ociis <tspan
   x="778.83197"
   y="3307.03"
   id="tspan706">n</tspan>atoque <tspan
   x="1008.61"
   y="3307.03"
   id="tspan708">p</tspan>enatibus <tspan
   x="1279.61"
   y="3307.03"
   id="tspan710">e</tspan>t</text>
        </g>
        <g
   transform="matrix(0.71,0,0,1,56.2369,0)"
   id="g726">
            <text
   x="193.92"
   y="3365.99"
   style="font-size:57.083px;font-family:ArialMT, Arial, sans-serif;fill:#231f20"
   id="text724">magnis <tspan
   x="431.22601"
   y="3365.99"
   id="tspan716">d</tspan>is <tspan
   x="557.487"
   y="3365.99"
   id="tspan718">p</tspan>arturient <tspan
   x="851.93201"
   y="3365.99"
   id="tspan720">m</tspan>ontes, <tspan
   x="1108.28"
   y="3365.99"
   id="tspan722">n</tspan>ascetur</text>
        </g>
        <g
   transform="matrix(0.71,0,0,1,56.2369,0)"
   id="g742">
            <text
   x="193.92"
   y="3424.9299"
   style="font-size:57.083px;font-family:ArialMT, Arial, sans-serif;fill:#231f20"
   id="text740">ridiculus <tspan
   x="437.80099"
   y="3424.9299"
   id="tspan728">m</tspan>us. <tspan
   x="586.35101 624.42499"
   y="3424.9299 3424.9299"
   id="tspan730">Al</tspan>iquam <tspan
   x="827.08301"
   y="3424.9299"
   id="tspan732">v</tspan>el <tspan
   x="934.55499"
   y="3424.9299"
   id="tspan734">q</tspan>uam <tspan
   x="1111.85"
   y="3424.9299"
   id="tspan736">u</tspan>t <tspan
   x="1193.95"
   y="3424.9299"
   id="tspan738">t</tspan>ellus</text>
        </g>
        <g
   transform="matrix(0.71,0,0,1,56.2369,0)"
   id="g754">
            <text
   x="193.92"
   y="3483.8899"
   style="font-size:57.083px;font-family:ArialMT, Arial, sans-serif;fill:#231f20"
   id="text752">gravida <tspan
   x="453.03699"
   y="3483.8899"
   id="tspan744">f</tspan>aucibus. <tspan
   x="753.40601 790.02698 802.71002"
   y="3483.8899 3483.8899 3483.8899"
   id="tspan746">Viv</tspan>amus <tspan
   x="1042.73"
   y="3483.8899"
   id="tspan748">j</tspan>usto <tspan
   x="1235.21"
   y="3483.8899"
   id="tspan750">e</tspan>st,</text>
        </g>
        <g
   transform="matrix(0.71,0,0,1,56.2369,0)"
   id="g766">
            <text
   x="193.92"
   y="3542.8401"
   style="font-size:57.083px;font-family:ArialMT, Arial, sans-serif;fill:#231f20"
   id="text764">elementum <tspan
   x="497.061"
   y="3542.8401"
   id="tspan756">v</tspan>itae, <tspan
   x="654.26099"
   y="3542.8401"
   id="tspan758">m</tspan>alesuada <tspan
   x="954.28003"
   y="3542.8401"
   id="tspan760">e</tspan>u, <tspan
   x="1054.4"
   y="3542.8401"
   id="tspan762">f</tspan>ermentum</text>
        </g>
    </g>
    <g
   transform="translate(-1276.9078,-99.349762)"
   id="g892">
        <g
   transform="matrix(0.71,0,0,1,425.429,0)"
   id="g786">
            <text
   x="1467"
   y="3248.0801"
   style="font-size:57.083px;font-family:ArialMT, Arial, sans-serif;fill:#231f20"
   id="text784">in, <tspan
   x="1561.36"
   y="3248.0801"
   id="tspan770">s</tspan>apien. <tspan
   x="1779.51"
   y="3248.0801"
   id="tspan772">D</tspan>onec <tspan
   x="1978.59"
   y="3248.0801"
   id="tspan774">s</tspan>it <tspan
   x="2069.74"
   y="3248.0801"
   id="tspan776">a</tspan>met <tspan
   x="2230.72"
   y="3248.0801"
   id="tspan778">j</tspan>usto. <tspan
   x="2401.24"
   y="3248.0801"
   id="tspan780">I</tspan>n <tspan
   x="2482.9199"
   y="3248.0801"
   id="tspan782">v</tspan>elit.</text>
        </g>
        <g
   transform="matrix(0.71,0,0,1,425.429,0)"
   id="g800">
            <text
   x="1467"
   y="3307.03"
   style="font-size:57.083px;font-family:ArialMT, Arial, sans-serif;fill:#231f20"
   id="text798">V<tspan
   x="1503.62 1516.3"
   y="3307.03 3307.03"
   id="tspan788">iv</tspan>amus <tspan
   x="1756.33"
   y="3307.03"
   id="tspan790">t</tspan>urpis <tspan
   x="1967.8199"
   y="3307.03"
   id="tspan792">p</tspan>ede, <tspan
   x="2182.5701"
   y="3307.03"
   id="tspan794">d</tspan>ignissim <tspan
   x="2492.3899"
   y="3307.03"
   id="tspan796">s</tspan>ed,</text>
        </g>
        <g
   transform="matrix(0.71,0,0,1,425.429,0)"
   id="g816">
            <text
   x="1467"
   y="3365.99"
   style="font-size:57.083px;font-family:ArialMT, Arial, sans-serif;fill:#231f20"
   id="text814">scelerisque <tspan
   x="1778.05"
   y="3365.99"
   id="tspan802">n</tspan>ec, <tspan
   x="1908.26"
   y="3365.99"
   id="tspan804">p</tspan>retium <tspan
   x="2120.9299"
   y="3365.99"
   id="tspan806">s</tspan>it <tspan
   x="2200.3301"
   y="3365.99"
   id="tspan808">a</tspan>met, <tspan
   x="2365.4099"
   y="3365.99"
   id="tspan810">d</tspan>ui. <tspan
   x="2479.77"
   y="3365.99"
   id="tspan812">N</tspan>am</text>
        </g>
        <g
   transform="matrix(0.71,0,0,1,425.429,0)"
   id="g832">
            <text
   x="1467"
   y="3424.9299"
   style="font-size:57.083px;font-family:ArialMT, Arial, sans-serif;fill:#231f20"
   id="text830">nec <tspan
   x="1603.01"
   y="3424.9299"
   id="tspan818">f</tspan>elis <tspan
   x="1748.51"
   y="3424.9299"
   id="tspan820">n</tspan>on <tspan
   x="1887.73"
   y="3424.9299"
   id="tspan822">t</tspan>urpis <tspan
   x="2071.3"
   y="3424.9299"
   id="tspan824">h</tspan>endrerit <tspan
   x="2340.5701"
   y="3424.9299"
   id="tspan826">v</tspan>arius. <tspan
   x="2552.6799"
   y="3424.9299"
   id="tspan828">I</tspan>n</text>
        </g>
        <g
   transform="matrix(0.71,0,0,1,425.429,0)"
   id="g844">
            <text
   x="1467"
   y="3483.8899"
   style="font-size:57.083px;font-family:ArialMT, Arial, sans-serif;fill:#231f20"
   id="text842">ultrices <tspan
   x="1685.23"
   y="3483.8899"
   id="tspan834">o</tspan>rnare <tspan
   x="1887.66"
   y="3483.8899"
   id="tspan836">l</tspan>orem. <tspan
   x="2083.6799"
   y="3483.8899"
   id="tspan838">Q</tspan>uisque <tspan
   x="2333.72"
   y="3483.8899"
   id="tspan840">b</tspan>ibendum,</text>
        </g>
        <g
   transform="matrix(0.71,0,0,1,425.429,0)"
   id="g856">
            <text
   x="1467"
   y="3542.8401"
   style="font-size:57.083px;font-family:ArialMT, Arial, sans-serif;fill:#231f20"
   id="text854">massa <tspan
   x="1687.61"
   y="3542.8401"
   id="tspan846">s</tspan>ed <tspan
   x="1832.12"
   y="3542.8401"
   id="tspan848">v</tspan>enenatis <tspan
   x="2128.97"
   y="3542.8401"
   id="tspan850">m</tspan>alesuada, <tspan
   x="2476.5601"
   y="3542.8401"
   id="tspan852">d</tspan>iam</text>
        </g>
        <g
   transform="matrix(0.71,0,0,1,425.429,0)"
   id="g872">
            <text
   x="1467"
   y="3601.79"
   style="font-size:57.083px;font-family:ArialMT, Arial, sans-serif;fill:#231f20"
   id="text870">ipsum <tspan
   x="1647.37"
   y="3601.79"
   id="tspan858">b</tspan>landit <tspan
   x="1843.6899"
   y="3601.79"
   id="tspan860">u</tspan>rna, <tspan
   x="2001.91"
   y="3601.79"
   id="tspan862">v</tspan>el <tspan
   x="2102.99"
   y="3601.79"
   id="tspan864">u</tspan>ltricies <tspan
   x="2324.5901"
   y="3601.79"
   id="tspan866">p</tspan>ede <tspan
   x="2479.6799"
   y="3601.79"
   id="tspan868">n</tspan>ulla</text>
        </g>
        <g
   transform="matrix(0.71,0,0,1,425.429,0)"
   id="g876">
            <text
   x="1467"
   y="3660.74"
   style="font-size:57.083px;font-family:ArialMT, Arial, sans-serif;fill:#231f20"
   id="text874">vitae lacus.</text>
        </g>
        <g
   transform="matrix(0.71,0,0,1,425.429,0)"
   id="g890">
            <text
   x="1467"
   y="3719.6899"
   style="font-size:57.083px;font-family:ArialMT, Arial, sans-serif;fill:#231f20"
   id="text888">Lorem <tspan
   x="1661.92"
   y="3719.6899"
   id="tspan878">i</tspan>psum <tspan
   x="1847.3101"
   y="3719.6899"
   id="tspan880">d</tspan>olor <tspan
   x="2007.36"
   y="3719.6899"
   id="tspan882">s</tspan>it <tspan
   x="2097.5701"
   y="3719.6899"
   id="tspan884">a</tspan>met, <tspan
   x="2273.45"
   y="3719.6899"
   id="tspan886">c</tspan>onsectetuer</text>
        </g>
    </g>
    <g
   transform="translate(-3.8378038,-99.349762)"
   id="g1028">
        <g
   transform="matrix(0.71,0,0,1,425.429,0)"
   id="g906">
            <text
   x="1467"
   y="3248.0801"
   style="font-size:57.083px;font-family:ArialMT, Arial, sans-serif;fill:#231f20"
   id="text904">adipiscing <tspan
   x="1759.65"
   y="3248.0801"
   id="tspan894">e</tspan>lit. <tspan
   x="1887.27"
   y="3248.0801"
   id="tspan896">Q</tspan>uisque <tspan
   x="2138.6799"
   y="3248.0801"
   id="tspan898">i</tspan>n <tspan
   x="2221.8999"
   y="3248.0801"
   id="tspan900">a</tspan>ugue. <tspan
   x="2435.28"
   y="3248.0801"
   id="tspan902">D</tspan>onec</text>
        </g>
        <g
   transform="matrix(0.71,0,0,1,425.429,0)"
   id="g920">
            <text
   x="1467"
   y="3307.03"
   style="font-size:57.083px;font-family:ArialMT, Arial, sans-serif;fill:#231f20"
   id="text918">aliquam <tspan
   x="1680.33"
   y="3307.03"
   id="tspan908">m</tspan>agna <tspan
   x="1868.3"
   y="3307.03"
   id="tspan910">n</tspan>onummy <tspan
   x="2132.3701"
   y="3307.03"
   id="tspan912">e</tspan>nim. <tspan
   x="2285.3899"
   y="3307.03"
   id="tspan914">P</tspan>roin <tspan
   x="2432.0801"
   y="3307.03"
   id="tspan916">b</tspan>landit</text>
        </g>
        <g
   transform="matrix(0.71,0,0,1,425.429,0)"
   id="g934">
            <text
   x="1467"
   y="3365.99"
   style="font-size:57.083px;font-family:ArialMT, Arial, sans-serif;fill:#231f20"
   id="text932">imperdiet <tspan
   x="1730.4399"
   y="3365.99"
   id="tspan922">s</tspan>em. <tspan
   x="1882.8101"
   y="3365.99"
   id="tspan924">D</tspan>onec <tspan
   x="2076.49"
   y="3365.99"
   id="tspan926">m</tspan>alesuada, <tspan
   x="2400.28"
   y="3365.99"
   id="tspan928">u</tspan>rna <tspan
   x="2543.21"
   y="3365.99"
   id="tspan930">s</tspan>it</text>
        </g>
        <g
   transform="matrix(0.71,0,0,1,425.429,0)"
   id="g948">
            <text
   x="1467"
   y="3424.9299"
   style="font-size:57.083px;font-family:ArialMT, Arial, sans-serif;fill:#231f20"
   id="text946">amet <tspan
   x="1638.4301"
   y="3424.9299"
   id="tspan936">v</tspan>arius <tspan
   x="1835.23"
   y="3424.9299"
   id="tspan938">a</tspan>liquam, <tspan
   x="2095.53"
   y="3424.9299"
   id="tspan940">n</tspan>ibh <tspan
   x="2247.99"
   y="3424.9299"
   id="tspan942">t</tspan>ortor <tspan
   x="2425.75"
   y="3424.9299"
   id="tspan944">l</tspan>aoreet</text>
        </g>
        <g
   transform="matrix(0.71,0,0,1,425.429,0)"
   id="g964">
            <text
   x="1467"
   y="3483.8899"
   style="font-size:57.083px;font-family:ArialMT, Arial, sans-serif;fill:#231f20"
   id="text962">turpis, <tspan
   x="1653.33"
   y="3483.8899"
   id="tspan950">e</tspan>get <tspan
   x="1795.3101"
   y="3483.8899"
   id="tspan952">s</tspan>odales <tspan
   x="2022.95"
   y="3483.8899"
   id="tspan954">f</tspan>elis <tspan
   x="2155.3501 2186.24"
   y="3483.8899 3483.8899"
   id="tspan956"> n</tspan>ibh <tspan
   x="2325.04"
   y="3483.8899"
   id="tspan958">a</tspan>c <tspan
   x="2416.22"
   y="3483.8899"
   id="tspan960">s</tspan>apien.</text>
        </g>
        <g
   transform="matrix(0.71,0,0,1,425.429,0)"
   id="g980">
            <text
   x="1467"
   y="3542.8401"
   style="font-size:57.083px;font-family:ArialMT, Arial, sans-serif;fill:#231f20"
   id="text978">Fusce <tspan
   x="1638.05"
   y="3542.8401"
   id="tspan966">e</tspan>get <tspan
   x="1764.76"
   y="3542.8401"
   id="tspan968">a</tspan>ugue. <tspan
   x="1954.96"
   y="3542.8401"
   id="tspan970">I</tspan>nteger <tspan
   x="2148.28"
   y="3542.8401"
   id="tspan972">s</tspan>ed <tspan
   x="2255.9299"
   y="3542.8401"
   id="tspan974">r</tspan>isus. <tspan
   x="2403.48 2441.55"
   y="3542.8401 3542.8401"
   id="tspan976">Ae</tspan>nean</text>
        </g>
        <g
   transform="matrix(0.71,0,0,1,425.429,0)"
   id="g994">
            <text
   x="1467"
   y="3601.79"
   style="font-size:57.083px;font-family:ArialMT, Arial, sans-serif;fill:#231f20"
   id="text992">mollis. <tspan
   x="1658.7"
   y="3601.79"
   id="tspan982">D</tspan>onec <tspan
   x="1853.67"
   y="3601.79"
   id="tspan984">f</tspan>acilisis <tspan
   x="2067.5901"
   y="3601.79"
   id="tspan986">e</tspan>gestas <tspan
   x="2297.48"
   y="3601.79"
   id="tspan988">q</tspan>uam. <tspan
   x="2486.1001"
   y="3601.79"
   id="tspan990">D</tspan>uis</text>
        </g>
        <g
   transform="matrix(0.71,0,0,1,425.429,0)"
   id="g1008">
            <text
   x="1467"
   y="3660.74"
   style="font-size:57.083px;font-family:ArialMT, Arial, sans-serif;fill:#231f20"
   id="text1006">bibendum <tspan
   x="1751.1"
   y="3660.74"
   id="tspan996">a</tspan>ugue <tspan
   x="1943.22 1976.6"
   y="3660.74 3660.74"
   id="tspan998"> i</tspan>d <tspan
   x="2054.4099"
   y="3660.74"
   id="tspan1000">m</tspan>auris. <tspan
   x="2274.9399"
   y="3660.74"
   id="tspan1002">S</tspan>ed <tspan
   x="2409.8899"
   y="3660.74"
   id="tspan1004">l</tspan>aoreet,</text>
        </g>
        <g
   transform="matrix(0.71,0,0,1,425.429,0)"
   id="g1026">
            <g
   transform="matrix(57.0833,0,0,57.0833,2627.09,3719.69)"
   id="g1010">
            </g>
            <text
   x="1467"
   y="3719.6899"
   style="font-size:57.083px;font-family:ArialMT, Arial, sans-serif;fill:#231f20"
   id="text1024">tortor <tspan
   x="1613.04"
   y="3719.6899"
   id="tspan1012">v</tspan>el <tspan
   x="1698.8199"
   y="3719.6899"
   id="tspan1014">c</tspan>ursus <tspan
   x="1879.76"
   y="3719.6899"
   id="tspan1016">f</tspan>ringilla, <tspan
   x="2089.26"
   y="3719.6899"
   id="tspan1018">t</tspan>urpis <tspan
   x="2241.6599"
   y="3719.6899"
   id="tspan1020">e</tspan>lit <tspan
   x="2327.4399"
   y="3719.6899"
   id="tspan1022">v</tspan>estibulum</text>
        </g>
    </g>
</svg>
