<?xml version="1.0" encoding="UTF-8" standalone="no"?>
<!DOCTYPE svg PUBLIC "-//W3C//DTD SVG 1.1//EN" "http://www.w3.org/Graphics/SVG/1.1/DTD/svg11.dtd">
<svg width="100%" height="100%" viewBox="0 0 2298 4692" version="1.1" xmlns="http://www.w3.org/2000/svg" xmlns:xlink="http://www.w3.org/1999/xlink" xml:space="preserve" xmlns:serif="http://www.serif.com/" style="fill-rule:evenodd;clip-rule:evenodd;stroke-linecap:round;stroke-linejoin:round;stroke-miterlimit:1.5;">
    <g transform="matrix(1,0,0,1,-84.1108,-18.8542)">
        <g transform="matrix(2.74384,0,0,1.14784,-278.416,615.17)">
            <g>
                <g transform="matrix(0.461424,0,0,0.481925,-73.5674,-193.813)">
                    <rect x="446.681" y="624.705" width="894.329" height="1170.12" style="fill:rgb(231,232,233);stroke:rgb(35,31,32);stroke-width:2.35px;"/>
                </g>
                <g transform="matrix(0.430696,0,0,0.489017,-65.0769,-204.804)">
                    <rect x="549.633" y="732.568" width="680.883" height="969.6" style="fill:white;"/>
                </g>
            </g>
            <g transform="matrix(1,0,0,1,-69.6469,0)">
                <g transform="matrix(0.461424,0,0,0.481925,420.055,-193.813)">
                    <rect x="446.681" y="624.705" width="894.329" height="1170.12" style="fill:rgb(231,232,233);stroke:rgb(35,31,32);stroke-width:2.35px;"/>
                </g>
                <g transform="matrix(0.430696,0,0,0.489017,468.546,-204.804)">
                    <rect x="549.633" y="732.568" width="680.883" height="969.6" style="fill:white;"/>
                </g>
            </g>
        </g>
        <g transform="matrix(2.74384,0,0,1.14795,-278.416,1440.76)">
            <g>
                <g transform="matrix(0.461424,0,0,0.481925,-73.5674,-193.813)">
                    <rect x="446.681" y="624.705" width="894.329" height="1170.12" style="fill:rgb(231,232,233);stroke:rgb(35,31,32);stroke-width:2.35px;"/>
                </g>
                <g transform="matrix(0.430696,0,0,0.489017,-65.0769,-204.804)">
                    <rect x="549.633" y="732.568" width="680.883" height="969.6" style="fill:white;"/>
                </g>
            </g>
            <g transform="matrix(1,0,0,1,-69.6469,0)">
                <g transform="matrix(0.461424,0,0,0.481925,420.055,-193.813)">
                    <rect x="446.681" y="624.705" width="894.329" height="1170.12" style="fill:rgb(231,232,233);stroke:rgb(35,31,32);stroke-width:2.35px;"/>
                </g>
                <g transform="matrix(0.430696,0,0,0.489017,468.546,-204.804)">
                    <rect x="549.633" y="732.568" width="680.883" height="969.6" style="fill:white;"/>
                </g>
            </g>
        </g>
        <g transform="matrix(2.74384,0,0,1.1522,-278.416,2235.37)">
            <g>
                <g transform="matrix(0.461424,0,0,0.481925,-73.5674,-193.813)">
                    <rect x="446.681" y="624.705" width="894.329" height="1170.12" style="fill:rgb(231,232,233);stroke:rgb(35,31,32);stroke-width:2.34px;"/>
                </g>
                <g transform="matrix(0.430696,0,0,0.489017,-65.0769,-204.804)">
                    <rect x="549.633" y="732.568" width="680.883" height="969.6" style="fill:white;"/>
                </g>
            </g>
            <g transform="matrix(1,0,0,1,-69.6469,0)">
                <g transform="matrix(0.461424,0,0,0.481925,420.055,-193.813)">
                    <rect x="446.681" y="624.705" width="894.329" height="1170.12" style="fill:rgb(231,232,233);stroke:rgb(35,31,32);stroke-width:2.34px;"/>
                </g>
                <g transform="matrix(0.430696,0,0,0.489017,468.546,-204.804)">
                    <rect x="549.633" y="732.568" width="680.883" height="969.6" style="fill:white;"/>
                </g>
            </g>
        </g>
        <g transform="matrix(2.74384,0,0,1.1522,-278.416,-103.572)">
            <g>
                <g transform="matrix(0.461424,0,0,0.481925,-73.5674,-193.813)">
                    <rect x="446.681" y="624.705" width="894.329" height="1170.12" style="fill:rgb(231,232,233);stroke:rgb(35,31,32);stroke-width:2.34px;"/>
                </g>
                <g transform="matrix(0.430696,0,0,0.489017,-65.0769,-204.804)">
                    <rect x="549.633" y="732.568" width="680.883" height="969.6" style="fill:white;"/>
                </g>
            </g>
            <g transform="matrix(1,0,0,1,-69.6469,0)">
                <g transform="matrix(0.461424,0,0,0.481925,420.055,-193.813)">
                    <rect x="446.681" y="624.705" width="894.329" height="1170.12" style="fill:rgb(231,232,233);stroke:rgb(35,31,32);stroke-width:2.34px;"/>
                </g>
                <g transform="matrix(0.430696,0,0,0.489017,468.546,-204.804)">
                    <rect x="549.633" y="732.568" width="680.883" height="969.6" style="fill:white;"/>
                </g>
            </g>
        </g>
        <g transform="matrix(2.74384,0,0,1.14795,-278.416,3847.23)">
            <g transform="matrix(0.461424,0,0,0.481925,-73.5674,-193.813)">
                <rect x="446.681" y="624.705" width="894.329" height="1170.12" style="fill:rgb(231,232,233);stroke:rgb(35,31,32);stroke-width:2.35px;"/>
            </g>
            <g transform="matrix(0.430696,0,0,0.489017,-65.0769,-204.804)">
                <rect x="549.633" y="732.568" width="680.883" height="969.6" style="fill:white;"/>
            </g>
        </g>
        <g transform="matrix(2.74384,0,0,1.14795,-278.416,3049.22)">
            <g>
                <g transform="matrix(0.461424,0,0,0.481925,-73.5674,-193.813)">
                    <rect x="446.681" y="624.705" width="894.329" height="1170.12" style="fill:rgb(231,232,233);stroke:rgb(35,31,32);stroke-width:2.35px;"/>
                </g>
                <g transform="matrix(0.430696,0,0,0.489017,-65.0769,-204.804)">
                    <rect x="549.633" y="732.568" width="680.883" height="969.6" style="fill:white;"/>
                </g>
            </g>
            <g transform="matrix(1,0,0,1,-69.6469,0)">
                <g transform="matrix(0.461424,0,0,0.481925,420.055,-193.813)">
                    <rect x="446.681" y="624.705" width="894.329" height="1170.12" style="fill:rgb(231,232,233);stroke:rgb(35,31,32);stroke-width:2.35px;"/>
                </g>
                <g transform="matrix(0.430696,0,0,0.489017,468.546,-204.804)">
                    <rect x="549.633" y="732.568" width="680.883" height="969.6" style="fill:white;"/>
                </g>
            </g>
        </g>
        <g transform="matrix(1,0,0,1,0,18.496)">
            <g transform="matrix(0.71,0,0,1,425.033,0)">
                <g transform="matrix(57.0833,0,0,57.0833,1465.63,95.6081)">
                </g>
                <text x="1465.63px" y="95.608px" style="font-family:'ArialMT', 'Arial', sans-serif;font-size:57.083px;fill:rgb(35,31,32);">Donec <tspan x="1645px " y="95.608px ">n</tspan>ulla <tspan x="1779.96px " y="95.608px ">j</tspan>usto, <tspan x="1930.75px " y="95.608px ">a</tspan>dipiscing <tspan x="2198.97px " y="95.608px ">s</tspan>it <tspan x="2270.42px " y="95.608px ">a</tspan>met, <tspan x="2427.54px " y="95.608px ">f</tspan>eugiat</text>
            </g>
            <g transform="matrix(0.71,0,0,1,425.033,0)">
                <text x="1465.63px" y="154.559px" style="font-family:'ArialMT', 'Arial', sans-serif;font-size:57.083px;fill:rgb(35,31,32);">ac, facilisis euismod, risus.</text>
            </g>
            <g transform="matrix(0.71,0,0,1,425.033,0)">
                <text x="1465.63px" y="213.51px" style="font-family:'ArialMT', 'Arial', sans-serif;font-size:57.083px;fill:rgb(35,31,32);">Pellentesque <tspan x="1832.3px " y="213.51px ">t</tspan>incidunt, <tspan x="2097.38px " y="213.51px ">d</tspan>olor <tspan x="2260.91px " y="213.51px ">e</tspan>u <tspan x="2361.01px " y="213.51px ">d</tspan>ignissim</text>
            </g>
            <g transform="matrix(0.71,0,0,1,425.033,0)">
                <text x="1465.63px" y="272.46px" style="font-family:'ArialMT', 'Arial', sans-serif;font-size:57.083px;fill:rgb(35,31,32);">mollis, justo <tspan x="1779.86px " y="272.46px ">s</tspan>apien iaculis <tspan x="2138.59px " y="272.46px ">p</tspan>ede, vel <tspan x="2386.31px " y="272.46px ">t</tspan>incidunt</text>
            </g>
            <g transform="matrix(0.71,0,0,1,425.033,0)">
                <text x="1465.63px" y="331.411px" style="font-family:'ArialMT', 'Arial', sans-serif;font-size:57.083px;fill:rgb(35,31,32);">lacus <tspan x="1617.22px " y="331.411px ">n</tspan>isl <tspan x="1721.2px " y="331.411px ">s</tspan>it <tspan x="1796.61px " y="331.411px ">a</tspan>met <tspan x="1941.85px " y="331.411px ">m</tspan>etus. <tspan x="2131.48px " y="331.411px ">F</tspan>usce <tspan x="2305.26px " y="331.411px ">a</tspan>c <tspan x="2383.87px " y="331.411px ">e</tspan>st <tspan x="2478.35px " y="331.411px ">v</tspan>itae</text>
            </g>
            <g transform="matrix(0.71,0,0,1,425.033,0)">
                <g transform="matrix(57.0833,0,0,57.0833,2455.48,390.362)">
                </g>
                <text x="1465.63px" y="390.362px" style="font-family:'ArialMT', 'Arial', sans-serif;font-size:57.083px;fill:rgb(35,31,32);">purus varius tristique. Phasellus mattis</text>
            </g>
        </g>
        <g transform="matrix(1.13207,0,0,1.13207,810.372,350.34)">
            <g transform="matrix(0.71,0,0,1,225.693,0)">
                <g transform="matrix(72.98,0,0,72.98,1143.26,1358.34)">
                </g>
                <text x="778.253px" y="1358.34px" style="font-family:'Arial-BoldMT', 'Arial', sans-serif;font-weight:700;font-size:72.98px;fill:rgb(35,31,32);">Bla bla bla</text>
            </g>
        </g>
        <g transform="matrix(1.3668,0,0,1.3668,409.826,-376.724)">
            <g transform="matrix(0.71,0,0,1,225.693,0)">
                <g transform="matrix(72.98,0,0,72.98,1589.34,1358.34)">
                </g>
                <text x="778.253px" y="1358.34px" style="font-family:'Arial-BoldMT', 'Arial', sans-serif;font-weight:700;font-size:72.98px;fill:rgb(35,31,32);">Pages de bibliogaphies</text>
            </g>
        </g>
        <g transform="matrix(1.3668,0,0,1.3668,358.264,442.081)">
            <g transform="matrix(0.71,0,0,1,225.693,0)">
                <g transform="matrix(72.98,0,0,72.98,1548.71,1358.34)">
                </g>
                <text x="778.253px" y="1358.34px" style="font-family:'Arial-BoldMT', 'Arial', sans-serif;font-weight:700;font-size:72.98px;fill:rgb(35,31,32);">Biographie de l’auteur</text>
            </g>
        </g>
        <g transform="matrix(1.3668,0,0,1.3668,501.928,1236.92)">
            <g transform="matrix(0.71,0,0,1,225.693,0)">
                <g transform="matrix(72.98,0,0,72.98,1350.19,1358.34)">
                </g>
                <text x="778.253px" y="1358.34px" style="font-family:'Arial-BoldMT', 'Arial', sans-serif;font-weight:700;font-size:72.98px;fill:rgb(35,31,32);">Pages des index</text>
            </g>
        </g>
        <g transform="matrix(1.3668,0,0,1.3668,306.753,2052.7)">
            <g transform="matrix(0.71,0,0,1,225.693,0)">
                <g transform="matrix(72.98,0,0,72.98,1755.54,1358.34)">
                </g>
                <text x="778.253px" y="1358.34px" style="font-family:'Arial-BoldMT', 'Arial', sans-serif;font-weight:700;font-size:72.98px;fill:rgb(35,31,32);">Page des crédits (colophon)</text>
            </g>
        </g>
        <g transform="matrix(1.3668,0,0,1.3668,-895.185,2832.85)">
            <g transform="matrix(0.71,0,0,1,225.693,0)">
                <g transform="matrix(72.98,0,0,72.98,1784.04,1358.34)">
                </g>
                <text x="778.253px" y="1358.34px" style="font-family:'Arial-BoldMT', 'Arial', sans-serif;font-weight:700;font-size:72.98px;fill:rgb(35,31,32);">Page de marque d’imprimeur</text>
            </g>
        </g>
        <g transform="matrix(1,0,0,1,-121.959,-827.012)">
            <g transform="matrix(0.815105,0,0,0.815105,987.067,1449.9)">
                <g transform="matrix(0.71,0,0,1,225.693,0)">
                    <g transform="matrix(72.98,0,0,72.98,1049.97,1358.34)">
                    </g>
                    <text x="778.253px" y="1358.34px" style="font-family:'Arial-BoldMT', 'Arial', sans-serif;font-weight:700;font-size:72.98px;fill:rgb(35,31,32);">Prénom</text>
                </g>
            </g>
            <g transform="matrix(1.3668,0,0,1.3668,729.057,699.995)">
                <g transform="matrix(0.71,0,0,1,225.693,0)">
                    <g transform="matrix(72.98,0,0,72.98,948.516,1358.34)">
                    </g>
                    <text x="778.253px" y="1358.34px" style="font-family:'Arial-BoldMT', 'Arial', sans-serif;font-weight:700;font-size:72.98px;fill:rgb(35,31,32);">NOM</text>
                </g>
            </g>
        </g>
        <g transform="matrix(0.529645,0,0,0.529645,1304.69,2634.1)">
            <g transform="matrix(0.71,0,0,1,282.487,0)">
                <text x="974.093px" y="1433.71px" style="font-family:'Arial-BoldMT', 'Arial', sans-serif;font-weight:700;font-size:72.98px;fill:rgb(35,31,32);">Éditeur</text>
            </g>
            <g transform="matrix(0.71,0,0,1,278.716,0)">
                <text x="961.088px" y="1509.08px" style="font-family:'Arial-BoldMT', 'Arial', sans-serif;font-weight:700;font-size:72.98px;fill:rgb(35,31,32);">Adresse</text>
            </g>
            <g transform="matrix(0.71,0,0,1,225.693,0)">
                <text x="778.253px" y="1584.44px" style="font-family:'Arial-BoldMT', 'Arial', sans-serif;font-weight:700;font-size:72.98px;fill:rgb(35,31,32);">Directrice de collection</text>
            </g>
            <g transform="matrix(0.71,0,0,1,245.324,0)">
                <text x="845.945px" y="1659.81px" style="font-family:'Arial-BoldMT', 'Arial', sans-serif;font-weight:700;font-size:72.98px;fill:rgb(35,31,32);">Metteuse en page</text>
            </g>
            <g transform="matrix(0.71,0,0,1,268.278,0)">
                <text x="925.098px" y="1735.18px" style="font-family:'Arial-BoldMT', 'Arial', sans-serif;font-weight:700;font-size:72.98px;fill:rgb(35,31,32);">Correctrice</text>
            </g>
            <g transform="matrix(0.71,0,0,1,267.875,0)">
                <text x="923.706px" y="1810.55px" style="font-family:'Arial-BoldMT', 'Arial', sans-serif;font-weight:700;font-size:72.98px;fill:rgb(35,31,32);">Dépôt légal</text>
            </g>
            <g transform="matrix(0.71,0,0,1,290.418,0)">
                <g transform="matrix(72.98,0,0,72.98,1175.8,1885.91)">
                </g>
                <text x="1001.44px" y="1885.91px" style="font-family:'Arial-BoldMT', 'Arial', sans-serif;font-weight:700;font-size:72.98px;fill:rgb(35,31,32);">ISBN</text>
            </g>
        </g>
        <g transform="matrix(0.529645,0,0,0.529645,-143.213,3723.19)">
            <g transform="matrix(0.71,0,0,1,231.559,0)">
                <text x="798.481px" y="1358.34px" style="font-family:'Arial-BoldMT', 'Arial', sans-serif;font-weight:700;font-size:72.98px;fill:rgb(35,31,32);">Imprimé chez Zouzou</text>
            </g>
            <g transform="matrix(0.71,0,0,1,235.272,0)">
                <g transform="matrix(72.98,0,0,72.98,1521.31,1433.71)">
                </g>
                <text x="811.283px" y="1433.71px" style="font-family:'Arial-BoldMT', 'Arial', sans-serif;font-weight:700;font-size:72.98px;fill:rgb(35,31,32);">le 25 décembre 2023</text>
            </g>
        </g>
        <g transform="matrix(0.957949,0,0,0.957949,744.83,-433.683)">
            <g transform="matrix(0.71,0,0,1,225.693,0)">
                <g transform="matrix(72.98,0,0,72.98,1285.12,1358.34)">
                </g>
                <text x="778.253px" y="1358.34px" style="font-family:'Arial-BoldMT', 'Arial', sans-serif;font-weight:700;font-size:72.98px;fill:rgb(35,31,32);">Bibliographies</text>
            </g>
        </g>
        <g transform="matrix(0.880125,0,0,0.880125,816.737,1323.63)">
            <g transform="matrix(0.71,0,0,1,225.693,0)">
                <g transform="matrix(72.98,0,0,72.98,968.863,1358.34)">
                </g>
                <text x="778.253px" y="1358.34px" style="font-family:'Arial-BoldMT', 'Arial', sans-serif;font-weight:700;font-size:72.98px;fill:rgb(35,31,32);">Index</text>
            </g>
        </g>
        <g transform="matrix(0.880125,0,0,0.880125,1083.56,-660.8)">
            <g transform="matrix(0.71,0,0,1,225.693,0)">
                <g transform="matrix(72.98,0,0,72.98,1098.57,1358.34)">
                </g>
                <text x="778.253px" y="1358.34px" style="font-family:'Arial-BoldMT', 'Arial', sans-serif;font-weight:700;font-size:72.98px;fill:rgb(35,31,32);">THE END</text>
            </g>
        </g>
    </g>
</svg>
