<?xml version="1.0" encoding="UTF-8" standalone="no"?>
<!DOCTYPE svg PUBLIC "-//W3C//DTD SVG 1.1//EN" "http://www.w3.org/Graphics/SVG/1.1/DTD/svg11.dtd">
<svg width="100%" height="100%" viewBox="0 0 2456 3745" version="1.1" xmlns="http://www.w3.org/2000/svg" xmlns:xlink="http://www.w3.org/1999/xlink" xml:space="preserve" xmlns:serif="http://www.serif.com/" style="fill-rule:evenodd;clip-rule:evenodd;stroke-linecap:round;stroke-linejoin:round;stroke-miterlimit:1.5;">
    <g transform="matrix(2.74384,0,0,1.14795,-277.053,1490.38)">
        <g>
            <g transform="matrix(0.461424,0,0,0.481925,-73.5674,-193.813)">
                <rect x="446.681" y="624.705" width="894.329" height="1170.12" style="fill:rgb(231,232,233);stroke:rgb(35,31,32);stroke-width:2.35px;"/>
            </g>
            <g transform="matrix(0.430696,0,0,0.489017,-65.0769,-204.804)">
                <rect x="549.633" y="732.568" width="680.883" height="969.6" style="fill:white;"/>
            </g>
        </g>
        <g transform="matrix(1,0,0,1,-69.6469,0)">
            <g transform="matrix(0.461424,0,0,0.481925,420.055,-193.813)">
                <rect x="446.681" y="624.705" width="894.329" height="1170.12" style="fill:rgb(231,232,233);stroke:rgb(35,31,32);stroke-width:2.35px;"/>
            </g>
            <g transform="matrix(0.430696,0,0,0.489017,468.546,-204.804)">
                <rect x="549.633" y="732.568" width="680.883" height="969.6" style="fill:white;"/>
            </g>
        </g>
    </g>
    <g transform="matrix(2.74384,0,0,1.14795,-277.053,2973.06)">
        <g>
            <g transform="matrix(0.461424,0,0,0.481925,-73.5674,-193.813)">
                <rect x="446.681" y="624.705" width="894.329" height="1170.12" style="fill:rgb(231,232,233);stroke:rgb(35,31,32);stroke-width:2.35px;"/>
            </g>
            <g transform="matrix(0.430696,0,0,0.489017,-65.0769,-204.804)">
                <rect x="549.633" y="732.568" width="680.883" height="969.6" style="fill:white;"/>
            </g>
        </g>
        <g transform="matrix(1,0,0,1,-69.6469,0)">
            <g transform="matrix(0.461424,0,0,0.481925,420.055,-193.813)">
                <rect x="446.681" y="624.705" width="894.329" height="1170.12" style="fill:rgb(231,232,233);stroke:rgb(35,31,32);stroke-width:2.35px;"/>
            </g>
            <g transform="matrix(0.430696,0,0,0.489017,468.546,-204.804)">
                <rect x="549.633" y="732.568" width="680.883" height="969.6" style="fill:white;"/>
            </g>
        </g>
    </g>
    <g transform="matrix(2.74384,0,0,1.14795,-277.053,2206.52)">
        <g>
            <g transform="matrix(0.461424,0,0,0.481925,-73.5674,-193.813)">
                <rect x="446.681" y="624.705" width="894.329" height="1170.12" style="fill:rgb(231,232,233);stroke:rgb(35,31,32);stroke-width:2.35px;"/>
            </g>
            <g transform="matrix(0.430696,0,0,0.489017,-65.0769,-204.804)">
                <rect x="549.633" y="732.568" width="680.883" height="969.6" style="fill:white;"/>
            </g>
        </g>
        <g transform="matrix(1,0,0,1,-69.6469,0)">
            <g transform="matrix(0.461424,0,0,0.481925,420.055,-193.813)">
                <rect x="446.681" y="624.705" width="894.329" height="1170.12" style="fill:rgb(231,232,233);stroke:rgb(35,31,32);stroke-width:2.35px;"/>
            </g>
            <g transform="matrix(0.430696,0,0,0.489017,468.546,-204.804)">
                <rect x="549.633" y="732.568" width="680.883" height="969.6" style="fill:white;"/>
            </g>
        </g>
    </g>
    <g transform="matrix(1,0,0,1,0,-4232.37)">
        <g transform="matrix(0.71,0,0,1,56.2369,0)">
            <g transform="matrix(57.0833,0,0,57.0833,193.92,5939.78)">
            </g>
            <text x="193.92px" y="5939.78px" style="font-family:'ArialMT', 'Arial', sans-serif;font-size:57.083px;fill:rgb(35,31,32);">Donec <tspan x="373.284px " y="5939.78px ">n</tspan>ulla <tspan x="508.247px " y="5939.78px ">j</tspan>usto, <tspan x="659.041px " y="5939.78px ">a</tspan>dipiscing <tspan x="927.263px " y="5939.78px ">s</tspan>it <tspan x="998.704px " y="5939.78px ">a</tspan>met, <tspan x="1155.83px " y="5939.78px ">f</tspan>eugiat</text>
        </g>
        <g transform="matrix(0.71,0,0,1,56.2369,0)">
            <text x="193.92px" y="5998.73px" style="font-family:'ArialMT', 'Arial', sans-serif;font-size:57.083px;fill:rgb(35,31,32);">ac, facilisis euismod, risus.</text>
        </g>
        <g transform="matrix(0.71,0,0,1,56.2369,0)">
            <text x="193.92px" y="6057.68px" style="font-family:'ArialMT', 'Arial', sans-serif;font-size:57.083px;fill:rgb(35,31,32);">Pellentesque <tspan x="560.59px " y="6057.68px ">t</tspan>incidunt, <tspan x="825.664px " y="6057.68px ">d</tspan>olor <tspan x="989.198px " y="6057.68px ">e</tspan>u <tspan x="1089.29px " y="6057.68px ">d</tspan>ignissim</text>
        </g>
        <g transform="matrix(0.71,0,0,1,56.2369,0)">
            <text x="193.92px" y="6116.63px" style="font-family:'ArialMT', 'Arial', sans-serif;font-size:57.083px;fill:rgb(35,31,32);">mollis, justo <tspan x="508.145px " y="6116.63px ">s</tspan>apien iaculis <tspan x="866.882px " y="6116.63px ">p</tspan>ede, vel <tspan x="1114.6px " y="6116.63px ">t</tspan>incidunt</text>
        </g>
        <g transform="matrix(0.71,0,0,1,56.2369,0)">
            <text x="193.92px" y="6175.58px" style="font-family:'ArialMT', 'Arial', sans-serif;font-size:57.083px;fill:rgb(35,31,32);">lacus <tspan x="345.508px " y="6175.58px ">n</tspan>isl <tspan x="449.49px " y="6175.58px ">s</tspan>it <tspan x="524.902px " y="6175.58px ">a</tspan>met <tspan x="670.135px " y="6175.58px ">m</tspan>etus. <tspan x="859.769px " y="6175.58px ">F</tspan>usce <tspan x="1033.54px " y="6175.58px ">a</tspan>c <tspan x="1112.16px " y="6175.58px ">e</tspan>st <tspan x="1206.64px " y="6175.58px ">v</tspan>itae</text>
        </g>
        <g transform="matrix(0.71,0,0,1,56.2369,0)">
            <text x="193.92px" y="6234.53px" style="font-family:'ArialMT', 'Arial', sans-serif;font-size:57.083px;fill:rgb(35,31,32);">purus <tspan x="392.399px " y="6234.53px ">v</tspan>arius <tspan x="600.355px " y="6234.53px ">t</tspan>ristique. <tspan x="871.777px " y="6234.53px ">P</tspan>hasellus <tspan x="1174.97px " y="6234.53px ">m</tspan>attis</text>
        </g>
        <g transform="matrix(0.71,0,0,1,56.2369,0)">
            <text x="193.92px" y="6293.48px" style="font-family:'ArialMT', 'Arial', sans-serif;font-size:57.083px;fill:rgb(35,31,32);">ornare <tspan x="400.523px " y="6293.48px ">l</tspan>igula. <tspan x="591.266px " y="6293.48px ">D</tspan>onec <tspan x="797.868px " y="6293.48px ">i</tspan>d <tspan x="883.894px " y="6293.48px ">n</tspan>ibh. <tspan x="1049.27px 1082.91px 1114.66px " y="6293.48px 6293.48px 6293.48px ">Ves</tspan>tibulum</text>
        </g>
        <g transform="matrix(0.71,0,0,1,56.2369,0)">
            <text x="193.92px" y="6352.43px" style="font-family:'ArialMT', 'Arial', sans-serif;font-size:57.083px;fill:rgb(35,31,32);">metus <tspan x="383.759px " y="6352.43px ">q</tspan>uam, <tspan x="576.804px " y="6352.43px ">u</tspan>ltrices <tspan x="792.007px " y="6352.43px ">i</tspan>n, <tspan x="886.689px " y="6352.43px ">s</tspan>agittis <tspan x="1098.74px " y="6352.43px ">t</tspan>incidunt,</text>
        </g>
        <g transform="matrix(0.71,0,0,1,56.2369,0)">
            <text x="193.92px" y="6411.38px" style="font-family:'ArialMT', 'Arial', sans-serif;font-size:57.083px;fill:rgb(35,31,32);">gravida <tspan x="417.396px " y="6411.38px ">e</tspan>t, <tspan x="517.117px " y="6411.38px ">s</tspan>apien. <tspan x="737.443px " y="6411.38px ">S</tspan>ed <tspan x="875.266px " y="6411.38px ">b</tspan>ibendum, <tspan x="1178.1px " y="6411.38px ">l</tspan>ectus</text>
        </g>
    </g>
    <g transform="matrix(1,0,0,1,0,-3516.23)">
        <g transform="matrix(0.71,0,0,1,56.2369,0)">
            <g transform="matrix(57.0833,0,0,57.0833,193.92,5939.78)">
            </g>
            <text x="193.92px" y="5939.78px" style="font-family:'ArialMT', 'Arial', sans-serif;font-size:57.083px;fill:rgb(35,31,32);">Donec <tspan x="373.284px " y="5939.78px ">n</tspan>ulla <tspan x="508.247px " y="5939.78px ">j</tspan>usto, <tspan x="659.041px " y="5939.78px ">a</tspan>dipiscing <tspan x="927.263px " y="5939.78px ">s</tspan>it <tspan x="998.704px " y="5939.78px ">a</tspan>met, <tspan x="1155.83px " y="5939.78px ">f</tspan>eugiat</text>
        </g>
        <g transform="matrix(0.71,0,0,1,56.2369,0)">
            <text x="193.92px" y="5998.73px" style="font-family:'ArialMT', 'Arial', sans-serif;font-size:57.083px;fill:rgb(35,31,32);">ac, facilisis euismod, risus.</text>
        </g>
        <g transform="matrix(0.71,0,0,1,56.2369,0)">
            <text x="193.92px" y="6057.68px" style="font-family:'ArialMT', 'Arial', sans-serif;font-size:57.083px;fill:rgb(35,31,32);">Pellentesque <tspan x="560.59px " y="6057.68px ">t</tspan>incidunt, <tspan x="825.664px " y="6057.68px ">d</tspan>olor <tspan x="989.198px " y="6057.68px ">e</tspan>u <tspan x="1089.29px " y="6057.68px ">d</tspan>ignissim</text>
        </g>
        <g transform="matrix(0.71,0,0,1,56.2369,0)">
            <text x="193.92px" y="6116.63px" style="font-family:'ArialMT', 'Arial', sans-serif;font-size:57.083px;fill:rgb(35,31,32);">mollis, justo <tspan x="508.145px " y="6116.63px ">s</tspan>apien iaculis <tspan x="866.882px " y="6116.63px ">p</tspan>ede, vel <tspan x="1114.6px " y="6116.63px ">t</tspan>incidunt</text>
        </g>
        <g transform="matrix(0.71,0,0,1,56.2369,0)">
            <text x="193.92px" y="6175.58px" style="font-family:'ArialMT', 'Arial', sans-serif;font-size:57.083px;fill:rgb(35,31,32);">lacus <tspan x="345.508px " y="6175.58px ">n</tspan>isl <tspan x="449.49px " y="6175.58px ">s</tspan>it <tspan x="524.902px " y="6175.58px ">a</tspan>met <tspan x="670.135px " y="6175.58px ">m</tspan>etus. <tspan x="859.769px " y="6175.58px ">F</tspan>usce <tspan x="1033.54px " y="6175.58px ">a</tspan>c <tspan x="1112.16px " y="6175.58px ">e</tspan>st <tspan x="1206.64px " y="6175.58px ">v</tspan>itae</text>
        </g>
        <g transform="matrix(0.71,0,0,1,56.2369,0)">
            <g transform="matrix(57.0833,0,0,57.0833,1183.76,6234.53)">
            </g>
            <text x="193.92px" y="6234.53px" style="font-family:'ArialMT', 'Arial', sans-serif;font-size:57.083px;fill:rgb(35,31,32);">purus varius tristique. Phasellus mattis</text>
        </g>
    </g>
    <g transform="matrix(1,0,0,1,0,-4232.37)">
        <g transform="matrix(0.71,0,0,1,425.429,0)">
            <text x="1467px" y="5939.78px" style="font-family:'ArialMT', 'Arial', sans-serif;font-size:57.083px;fill:rgb(35,31,32);">vitae <tspan x="1620.92px " y="5939.78px ">t</tspan>incidunt <tspan x="1866.88px " y="5939.78px ">d</tspan>apibus, <tspan x="2116.04px " y="5939.78px ">s</tspan>em <tspan x="2257.23px " y="5939.78px ">f</tspan>elis <tspan x="2392.08px " y="5939.78px ">p</tspan>osuere</text>
        </g>
        <g transform="matrix(0.71,0,0,1,425.429,0)">
            <text x="1467px" y="5998.73px" style="font-family:'ArialMT', 'Arial', sans-serif;font-size:57.083px;fill:rgb(35,31,32);">est, <tspan x="1613.23px " y="5998.73px ">i</tspan>d <tspan x="1711.89px " y="5998.73px ">o</tspan>rnare <tspan x="1931.13px " y="5998.73px ">a</tspan>ugue <tspan x="2144.09px " y="5998.73px ">l</tspan>orem <tspan x="2341.06px " y="5998.73px ">i</tspan>n <tspan x="2439.72px " y="5998.73px ">p</tspan>urus.</text>
        </g>
        <g transform="matrix(0.71,0,0,1,425.429,0)">
            <text x="1467px" y="6057.68px" style="font-family:'ArialMT', 'Arial', sans-serif;font-size:57.083px;fill:rgb(35,31,32);">Suspendisse <tspan x="1845.87px " y="6057.68px ">l</tspan>igula. <tspan x="2047.02px " y="6057.68px ">S</tspan>ed <tspan x="2200.6px " y="6057.68px ">m</tspan>ollis <tspan x="2398.49px " y="6057.68px ">t</tspan>ristique</text>
        </g>
        <g transform="matrix(0.71,0,0,1,425.429,0)">
            <text x="1467px" y="6116.63px" style="font-family:'ArialMT', 'Arial', sans-serif;font-size:57.083px;fill:rgb(35,31,32);">mauris. <tspan x="1708.43px " y="6116.63px ">N</tspan>ullam <tspan x="1940.37px " y="6116.63px ">n</tspan>unc <tspan x="2118.45px " y="6116.63px ">n</tspan>unc, <tspan x="2312.39px " y="6116.63px ">a</tspan>liquet <tspan x="2534.9px " y="6116.63px ">e</tspan>t,</text>
        </g>
        <g transform="matrix(0.71,0,0,1,425.429,0)">
            <text x="1467px" y="6175.58px" style="font-family:'ArialMT', 'Arial', sans-serif;font-size:57.083px;fill:rgb(35,31,32);">tristique <tspan x="1695.2px " y="6175.58px ">n</tspan>ec, <tspan x="1831.43px " y="6175.58px ">p</tspan>orttitor <tspan x="2053.28px " y="6175.58px ">q</tspan>uis, <tspan x="2202.19px " y="6175.58px ">u</tspan>rna. <tspan x="2360.63px " y="6175.58px ">E</tspan>tiam <tspan x="2534.88px " y="6175.58px ">e</tspan>u</text>
        </g>
        <g transform="matrix(0.71,0,0,1,425.429,0)">
            <text x="1467px" y="6234.53px" style="font-family:'ArialMT', 'Arial', sans-serif;font-size:57.083px;fill:rgb(35,31,32);">erat. <tspan x="1610.63px " y="6234.53px ">M</tspan>orbi <tspan x="1782.78px " y="6234.53px ">u</tspan>t <tspan x="1859.8px " y="6234.53px ">n</tspan>isl. <tspan x="1990.73px " y="6234.53px ">C</tspan>urabitur <tspan x="2254.91px " y="6234.53px ">s</tspan>emper <tspan x="2474.67px " y="6234.53px ">s</tspan>em.</text>
        </g>
        <g transform="matrix(0.71,0,0,1,425.429,0)">
            <text x="1467px" y="6293.48px" style="font-family:'ArialMT', 'Arial', sans-serif;font-size:57.083px;fill:rgb(35,31,32);">Nulla <tspan x="1621.7px " y="6293.48px ">t</tspan>urpis <tspan x="1785.9px " y="6293.48px ">n</tspan>ibh, <tspan x="1934.31px " y="6293.48px ">t</tspan>empor <tspan x="2136.59px " y="6293.48px ">n</tspan>ec, <tspan x="2269.1px " y="6293.48px ">a</tspan>liquet <tspan x="2461.93px " y="6293.48px ">v</tspan>itae,</text>
        </g>
        <g transform="matrix(0.71,0,0,1,425.429,0)">
            <text x="1467px" y="6352.43px" style="font-family:'ArialMT', 'Arial', sans-serif;font-size:57.083px;fill:rgb(35,31,32);">elementum ac, mauris.</text>
        </g>
        <g transform="matrix(0.71,0,0,1,425.429,0)">
            <g transform="matrix(57.0833,0,0,57.0833,2457.03,6411.38)">
            </g>
            <text x="1467px" y="6411.38px" style="font-family:'ArialMT', 'Arial', sans-serif;font-size:57.083px;fill:rgb(35,31,32);">Quisque pellentesque metus ac quam.</text>
        </g>
    </g>
    <g transform="matrix(2.74384,0,0,1.14795,-278.416,704.845)">
        <g>
            <g transform="matrix(0.461424,0,0,0.481925,-73.5674,-193.813)">
                <rect x="446.681" y="624.705" width="894.329" height="1170.12" style="fill:rgb(231,232,233);stroke:rgb(35,31,32);stroke-width:2.35px;"/>
            </g>
            <g transform="matrix(0.430696,0,0,0.489017,-65.0769,-204.804)">
                <rect x="549.633" y="732.568" width="680.883" height="969.6" style="fill:white;"/>
            </g>
        </g>
        <g transform="matrix(1,0,0,1,-69.6469,0)">
            <g transform="matrix(0.461424,0,0,0.481925,420.055,-193.813)">
                <rect x="446.681" y="624.705" width="894.329" height="1170.12" style="fill:rgb(231,232,233);stroke:rgb(35,31,32);stroke-width:2.35px;"/>
            </g>
            <g transform="matrix(0.430696,0,0,0.489017,468.546,-204.804)">
                <rect x="549.633" y="732.568" width="680.883" height="969.6" style="fill:white;"/>
            </g>
        </g>
    </g>
    <g transform="matrix(2.74384,0,0,2.74384,-1990.46,-4073.92)">
        <g transform="matrix(0.71,0,0,1,372.093,0)">
            <text x="1374.68px" y="1886.16px" style="font-family:'ArialMT', 'Arial', sans-serif;font-size:20.804px;fill:rgb(35,31,32);"><tspan x="1374.68px " y="1886.16px ">S</tspan>ouvent <tspan x="1473.81px " y="1886.16px ">l</tspan>e <tspan x="1512.79px " y="1886.16px ">s</tspan>oir <tspan x="1569.1px " y="1886.16px ">j</tspan>e <tspan x="1608.08px " y="1886.16px ">m</tspan>e</text>
        </g>
        <g transform="matrix(0.71,0,0,1,372.093,0)">
            <text x="1283.08px" y="1907.64px" style="font-family:'ArialMT', 'Arial', sans-serif;font-size:20.804px;fill:rgb(35,31,32);">couchais <tspan x="1371.75px " y="1907.64px ">t</tspan>ôt <tspan x="1401.44px " y="1907.64px ">a</tspan>près <tspan x="1460.05px " y="1907.64px ">a</tspan>voir <tspan x="1511.7px " y="1907.64px ">p</tspan>ris <tspan x="1551.79px " y="1907.64px ">m</tspan>a <tspan x="1587.26px " y="1907.64px ">t</tspan>asse</text>
        </g>
        <g transform="matrix(0.71,0,0,1,372.093,0)">
            <text x="1283.08px" y="1929.13px" style="font-family:'ArialMT', 'Arial', sans-serif;font-size:20.804px;fill:rgb(35,31,32);">de <tspan x="1311.04px " y="1929.13px ">s</tspan>oupe <tspan x="1372.54px " y="1929.13px ">e</tspan>t <tspan x="1394.7px " y="1929.13px ">m</tspan>on <tspan x="1439.99px " y="1929.13px ">a</tspan>ssiette <tspan x="1516.5px " y="1929.13px ">d</tspan>e <tspan x="1544.46px " y="1929.13px ">c</tspan>roquette.</text>
        </g>
        <g transform="matrix(0.71,0,0,1,372.093,0)">
            <text x="1283.08px" y="1950.61px" style="font-family:'ArialMT', 'Arial', sans-serif;font-size:20.804px;fill:rgb(35,31,32);">La <tspan x="1330.27px " y="1950.61px ">q</tspan>ueue <tspan x="1412.17px " y="1950.61px ">e</tspan>ntre <tspan x="1483.64px " y="1950.61px ">l</tspan>es <tspan x="1534.28px " y="1950.61px ">p</tspan>attes, <tspan x="1620.79px " y="1950.61px ">j</tspan>e</text>
        </g>
        <g transform="matrix(0.71,0,0,1,372.093,0)">
            <text x="1283.08px" y="1972.1px" style="font-family:'ArialMT', 'Arial', sans-serif;font-size:20.804px;fill:rgb(35,31,32);">m’allongeais <tspan x="1403.85px " y="1972.1px ">a</tspan>u <tspan x="1432.11px " y="1972.1px ">p</tspan>ied <tspan x="1476.57px " y="1972.1px ">d</tspan>u <tspan x="1504.84px " y="1972.1px ">l</tspan>it <tspan x="1524.98px " y="1972.1px ">e</tspan>t <tspan x="1547.46px " y="1972.1px ">j</tspan>e <tspan x="1568.78px " y="1972.1px ">f</tspan>ermais</text>
        </g>
    </g>
    <g transform="matrix(2.74384,0,0,1.14795,-278.416,-81.1155)">
        <g>
            <g transform="matrix(0.461424,0,0,0.481925,-73.5674,-193.813)">
                <rect x="446.681" y="624.705" width="894.329" height="1170.12" style="fill:rgb(231,232,233);stroke:rgb(35,31,32);stroke-width:2.35px;"/>
            </g>
            <g transform="matrix(0.430696,0,0,0.489017,-65.0769,-204.804)">
                <rect x="549.633" y="732.568" width="680.883" height="969.6" style="fill:white;"/>
            </g>
        </g>
        <g transform="matrix(1,0,0,1,-69.6469,0)">
            <g transform="matrix(0.461424,0,0,0.481925,420.055,-193.813)">
                <rect x="446.681" y="624.705" width="894.329" height="1170.12" style="fill:rgb(231,232,233);stroke:rgb(35,31,32);stroke-width:2.35px;"/>
            </g>
            <g transform="matrix(0.430696,0,0,0.489017,468.546,-204.804)">
                <rect x="549.633" y="732.568" width="680.883" height="969.6" style="fill:white;"/>
            </g>
        </g>
    </g>
    <g transform="matrix(0.732496,0,0,0.732496,1031.32,-772.612)">
        <g transform="matrix(0.71,0,0,1,225.693,0)">
            <g transform="matrix(72.98,0,0,72.98,1844.87,1358.34)">
            </g>
            <text x="778.253px" y="1358.34px" style="font-family:'Arial-BoldMT', 'Arial', sans-serif;font-weight:700;font-size:72.98px;fill:rgb(35,31,32);">Chapitre 1...............................12</text>
        </g>
    </g>
    <g transform="matrix(0.732496,0,0,0.732496,1208.24,-10.2565)">
        <g transform="matrix(0.71,0,0,1,225.693,0)">
            <g transform="matrix(72.98,0,0,72.98,1121.3,1358.34)">
            </g>
            <text x="778.253px" y="1358.34px" style="font-family:'Arial-BoldMT', 'Arial', sans-serif;font-weight:700;font-size:72.98px;fill:rgb(35,31,32);">PRÉF<tspan x="967.218px 1019.92px " y="1358.34px 1358.34px ">AC</tspan>E</text>
        </g>
    </g>
    <g transform="matrix(1.28391,0,0,1.28391,865.56,781.947)">
        <g transform="matrix(0.71,0,0,1,225.693,0)">
            <g transform="matrix(72.98,0,0,72.98,798.529,1358.34)">
            </g>
            <text x="778.253px" y="1358.34px" style="font-family:'Arial-BoldMT', 'Arial', sans-serif;font-weight:700;font-size:72.98px;fill:rgb(35,31,32);">I</text>
        </g>
    </g>
    <g transform="matrix(0.732496,0,0,0.732496,-334.139,1.20439)">
        <g transform="matrix(0.71,0,0,1,225.693,0)">
            <g transform="matrix(72.98,0,0,72.98,1382.69,1358.34)">
            </g>
            <text x="778.253px" y="1358.34px" style="font-family:'Arial-BoldMT', 'Arial', sans-serif;font-weight:700;font-size:72.98px;fill:rgb(35,31,32);">Remerciements à</text>
        </g>
    </g>
    <g transform="matrix(0.732496,0,0,0.732496,1028.74,-540.848)">
        <g transform="matrix(0.71,0,0,1,225.693,0)">
            <g transform="matrix(72.98,0,0,72.98,1865.15,1358.34)">
            </g>
            <text x="778.253px" y="1358.34px" style="font-family:'Arial-BoldMT', 'Arial', sans-serif;font-weight:700;font-size:72.98px;fill:rgb(35,31,32);">Chapitre 2................................31</text>
        </g>
    </g>
    <g transform="matrix(0.645518,0,0,0.645518,1188.84,-596.292)">
        <g transform="matrix(0.71,0,0,1,225.693,0)">
            <g transform="matrix(72.98,0,0,72.98,1792.2,1358.34)">
            </g>
            <text x="778.253px" y="1358.34px" style="font-family:'Arial-BoldMT', 'Arial', sans-serif;font-weight:700;font-size:72.98px;fill:rgb(35,31,32);">Section 1.1...........................12</text>
        </g>
    </g>
    <g transform="matrix(0.645518,0,0,0.645518,1188.84,-369.403)">
        <g transform="matrix(0.71,0,0,1,225.693,0)">
            <g transform="matrix(72.98,0,0,72.98,1792.2,1358.34)">
            </g>
            <text x="778.253px" y="1358.34px" style="font-family:'Arial-BoldMT', 'Arial', sans-serif;font-weight:700;font-size:72.98px;fill:rgb(35,31,32);">Section 2.1...........................31</text>
        </g>
    </g>
    <g transform="matrix(0.645518,0,0,0.645518,1188.84,-317.846)">
        <g transform="matrix(0.71,0,0,1,225.693,0)">
            <g transform="matrix(72.98,0,0,72.98,1792.2,1358.34)">
            </g>
            <text x="778.253px" y="1358.34px" style="font-family:'Arial-BoldMT', 'Arial', sans-serif;font-weight:700;font-size:72.98px;fill:rgb(35,31,32);">Section 2.2...........................43</text>
        </g>
    </g>
    <g transform="matrix(0.645518,0,0,0.645518,1188.84,-542.713)">
        <g transform="matrix(0.71,0,0,1,225.693,0)">
            <g transform="matrix(72.98,0,0,72.98,1792.2,1358.34)">
            </g>
            <text x="778.253px" y="1358.34px" style="font-family:'Arial-BoldMT', 'Arial', sans-serif;font-weight:700;font-size:72.98px;fill:rgb(35,31,32);">Section 1.2...........................16</text>
        </g>
    </g>
    <g transform="matrix(0.645518,0,0,0.645518,1188.84,-491.926)">
        <g transform="matrix(0.71,0,0,1,225.693,0)">
            <g transform="matrix(72.98,0,0,72.98,1792.2,1358.34)">
            </g>
            <text x="778.253px" y="1358.34px" style="font-family:'Arial-BoldMT', 'Arial', sans-serif;font-weight:700;font-size:72.98px;fill:rgb(35,31,32);">Section 1.3...........................23</text>
        </g>
    </g>
    <g transform="matrix(1.3668,0,0,1.3668,1333.78,402.037)">
        <g transform="matrix(0.71,0,0,1,225.693,0)">
            <g transform="matrix(54.8728,0,0,54.8728,839.288,1358.34)">
            </g>
            <text x="778.253px" y="1358.34px" style="font-family:'Arial-BoldMT', 'Arial', sans-serif;font-weight:700;font-size:54.873px;fill:rgb(35,31,32);">15</text>
        </g>
    </g>
    <g transform="matrix(1.3668,0,0,1.3668,1333.78,1884.72)">
        <g transform="matrix(0.71,0,0,1,225.693,0)">
            <g transform="matrix(54.8728,0,0,54.8728,839.288,1358.34)">
            </g>
            <text x="778.253px" y="1358.34px" style="font-family:'Arial-BoldMT', 'Arial', sans-serif;font-weight:700;font-size:54.873px;fill:rgb(35,31,32);">19</text>
        </g>
    </g>
    <g transform="matrix(1.3668,0,0,1.3668,1333.78,1118.18)">
        <g transform="matrix(0.71,0,0,1,225.693,0)">
            <g transform="matrix(54.8728,0,0,54.8728,839.288,1358.34)">
            </g>
            <text x="778.253px" y="1358.34px" style="font-family:'Arial-BoldMT', 'Arial', sans-serif;font-weight:700;font-size:54.873px;fill:rgb(35,31,32);">17</text>
        </g>
    </g>
    <g transform="matrix(1.3668,0,0,1.3668,1332.42,-383.496)">
        <g transform="matrix(0.71,0,0,1,225.693,0)">
            <g transform="matrix(54.8728,0,0,54.8728,839.288,1358.34)">
            </g>
            <text x="778.253px" y="1358.34px" style="font-family:'Arial-BoldMT', 'Arial', sans-serif;font-weight:700;font-size:54.873px;fill:rgb(35,31,32);">13</text>
        </g>
    </g>
    <g transform="matrix(1.3668,0,0,1.3668,1332.42,-1169.46)">
        <g transform="matrix(0.71,0,0,1,225.693,0)">
            <g transform="matrix(54.8728,0,0,54.8728,835.024,1358.34)">
            </g>
            <text x="778.253px" y="1358.34px" style="font-family:'Arial-BoldMT', 'Arial', sans-serif;font-weight:700;font-size:54.873px;fill:rgb(35,31,32);">1<tspan x="804.506px " y="1358.34px ">1</tspan></text>
        </g>
    </g>
    <g transform="matrix(1.3668,0,0,1.3668,-1051.11,404.037)">
        <g transform="matrix(0.71,0,0,1,225.693,0)">
            <g transform="matrix(54.8728,0,0,54.8728,839.288,1358.34)">
            </g>
            <text x="778.253px" y="1358.34px" style="font-family:'Arial-BoldMT', 'Arial', sans-serif;font-weight:700;font-size:54.873px;fill:rgb(35,31,32);">14</text>
        </g>
    </g>
    <g transform="matrix(1.3668,0,0,1.3668,-1051.11,1886.72)">
        <g transform="matrix(0.71,0,0,1,225.693,0)">
            <g transform="matrix(54.8728,0,0,54.8728,839.288,1358.34)">
            </g>
            <text x="778.253px" y="1358.34px" style="font-family:'Arial-BoldMT', 'Arial', sans-serif;font-weight:700;font-size:54.873px;fill:rgb(35,31,32);">18</text>
        </g>
    </g>
    <g transform="matrix(1.3668,0,0,1.3668,-1051.11,1120.18)">
        <g transform="matrix(0.71,0,0,1,225.693,0)">
            <g transform="matrix(54.8728,0,0,54.8728,839.288,1358.34)">
            </g>
            <text x="778.253px" y="1358.34px" style="font-family:'Arial-BoldMT', 'Arial', sans-serif;font-weight:700;font-size:54.873px;fill:rgb(35,31,32);">16</text>
        </g>
    </g>
    <g transform="matrix(1.3668,0,0,1.3668,-1052.48,-381.496)">
        <g transform="matrix(0.71,0,0,1,225.693,0)">
            <g transform="matrix(54.8728,0,0,54.8728,839.288,1358.34)">
            </g>
            <text x="778.253px" y="1358.34px" style="font-family:'Arial-BoldMT', 'Arial', sans-serif;font-weight:700;font-size:54.873px;fill:rgb(35,31,32);">12</text>
        </g>
    </g>
    <g transform="matrix(1.3668,0,0,1.3668,-1052.48,-1167.46)">
        <g transform="matrix(0.71,0,0,1,225.693,0)">
            <g transform="matrix(54.8728,0,0,54.8728,839.288,1358.34)">
            </g>
            <text x="778.253px" y="1358.34px" style="font-family:'Arial-BoldMT', 'Arial', sans-serif;font-weight:700;font-size:54.873px;fill:rgb(35,31,32);">10</text>
        </g>
    </g>
    <g transform="matrix(1,0,0,1,1273.07,-642.481)">
        <g transform="matrix(0.71,0,0,1,56.2369,0)">
            <g transform="matrix(57.0833,0,0,57.0833,468.705,3307.03)">
            </g>
            <text x="468.705px" y="3307.03px" style="font-family:'ArialMT', 'Arial', sans-serif;font-size:57.083px;fill:rgb(35,31,32);"><tspan x="468.705px " y="3307.03px ">C</tspan>um <tspan x="612.661px " y="3307.03px ">s</tspan>ociis <tspan x="778.832px " y="3307.03px ">n</tspan>atoque <tspan x="1008.61px " y="3307.03px ">p</tspan>enatibus <tspan x="1279.61px " y="3307.03px ">e</tspan>t</text>
        </g>
        <g transform="matrix(0.71,0,0,1,56.2369,0)">
            <text x="193.92px" y="3365.99px" style="font-family:'ArialMT', 'Arial', sans-serif;font-size:57.083px;fill:rgb(35,31,32);">magnis <tspan x="431.226px " y="3365.99px ">d</tspan>is <tspan x="557.487px " y="3365.99px ">p</tspan>arturient <tspan x="851.932px " y="3365.99px ">m</tspan>ontes, <tspan x="1108.28px " y="3365.99px ">n</tspan>ascetur</text>
        </g>
        <g transform="matrix(0.71,0,0,1,56.2369,0)">
            <text x="193.92px" y="3424.93px" style="font-family:'ArialMT', 'Arial', sans-serif;font-size:57.083px;fill:rgb(35,31,32);">ridiculus <tspan x="437.801px " y="3424.93px ">m</tspan>us. <tspan x="586.351px 624.425px " y="3424.93px 3424.93px ">Al</tspan>iquam <tspan x="827.083px " y="3424.93px ">v</tspan>el <tspan x="934.555px " y="3424.93px ">q</tspan>uam <tspan x="1111.85px " y="3424.93px ">u</tspan>t <tspan x="1193.95px " y="3424.93px ">t</tspan>ellus</text>
        </g>
        <g transform="matrix(0.71,0,0,1,56.2369,0)">
            <text x="193.92px" y="3483.89px" style="font-family:'ArialMT', 'Arial', sans-serif;font-size:57.083px;fill:rgb(35,31,32);">gravida <tspan x="453.037px " y="3483.89px ">f</tspan>aucibus. <tspan x="753.406px 790.027px 802.71px " y="3483.89px 3483.89px 3483.89px ">Viv</tspan>amus <tspan x="1042.73px " y="3483.89px ">j</tspan>usto <tspan x="1235.21px " y="3483.89px ">e</tspan>st,</text>
        </g>
        <g transform="matrix(0.71,0,0,1,56.2369,0)">
            <text x="193.92px" y="3542.84px" style="font-family:'ArialMT', 'Arial', sans-serif;font-size:57.083px;fill:rgb(35,31,32);">elementum <tspan x="497.061px " y="3542.84px ">v</tspan>itae, <tspan x="654.261px " y="3542.84px ">m</tspan>alesuada <tspan x="954.28px " y="3542.84px ">e</tspan>u, <tspan x="1054.4px " y="3542.84px ">f</tspan>ermentum</text>
        </g>
    </g>
    <g transform="matrix(1,0,0,1,-1273.07,-58)">
        <g transform="matrix(0.71,0,0,1,425.429,0)">
            <text x="1467px" y="3248.08px" style="font-family:'ArialMT', 'Arial', sans-serif;font-size:57.083px;fill:rgb(35,31,32);">in, <tspan x="1561.36px " y="3248.08px ">s</tspan>apien. <tspan x="1779.51px " y="3248.08px ">D</tspan>onec <tspan x="1978.59px " y="3248.08px ">s</tspan>it <tspan x="2069.74px " y="3248.08px ">a</tspan>met <tspan x="2230.72px " y="3248.08px ">j</tspan>usto. <tspan x="2401.24px " y="3248.08px ">I</tspan>n <tspan x="2482.92px " y="3248.08px ">v</tspan>elit.</text>
        </g>
        <g transform="matrix(0.71,0,0,1,425.429,0)">
            <text x="1467px" y="3307.03px" style="font-family:'ArialMT', 'Arial', sans-serif;font-size:57.083px;fill:rgb(35,31,32);">V<tspan x="1503.62px 1516.3px " y="3307.03px 3307.03px ">iv</tspan>amus <tspan x="1756.33px " y="3307.03px ">t</tspan>urpis <tspan x="1967.82px " y="3307.03px ">p</tspan>ede, <tspan x="2182.57px " y="3307.03px ">d</tspan>ignissim <tspan x="2492.39px " y="3307.03px ">s</tspan>ed,</text>
        </g>
        <g transform="matrix(0.71,0,0,1,425.429,0)">
            <text x="1467px" y="3365.99px" style="font-family:'ArialMT', 'Arial', sans-serif;font-size:57.083px;fill:rgb(35,31,32);">scelerisque <tspan x="1778.05px " y="3365.99px ">n</tspan>ec, <tspan x="1908.26px " y="3365.99px ">p</tspan>retium <tspan x="2120.93px " y="3365.99px ">s</tspan>it <tspan x="2200.33px " y="3365.99px ">a</tspan>met, <tspan x="2365.41px " y="3365.99px ">d</tspan>ui. <tspan x="2479.77px " y="3365.99px ">N</tspan>am</text>
        </g>
        <g transform="matrix(0.71,0,0,1,425.429,0)">
            <text x="1467px" y="3424.93px" style="font-family:'ArialMT', 'Arial', sans-serif;font-size:57.083px;fill:rgb(35,31,32);">nec <tspan x="1603.01px " y="3424.93px ">f</tspan>elis <tspan x="1748.51px " y="3424.93px ">n</tspan>on <tspan x="1887.73px " y="3424.93px ">t</tspan>urpis <tspan x="2071.3px " y="3424.93px ">h</tspan>endrerit <tspan x="2340.57px " y="3424.93px ">v</tspan>arius. <tspan x="2552.68px " y="3424.93px ">I</tspan>n</text>
        </g>
        <g transform="matrix(0.71,0,0,1,425.429,0)">
            <text x="1467px" y="3483.89px" style="font-family:'ArialMT', 'Arial', sans-serif;font-size:57.083px;fill:rgb(35,31,32);">ultrices <tspan x="1685.23px " y="3483.89px ">o</tspan>rnare <tspan x="1887.66px " y="3483.89px ">l</tspan>orem. <tspan x="2083.68px " y="3483.89px ">Q</tspan>uisque <tspan x="2333.72px " y="3483.89px ">b</tspan>ibendum,</text>
        </g>
        <g transform="matrix(0.71,0,0,1,425.429,0)">
            <text x="1467px" y="3542.84px" style="font-family:'ArialMT', 'Arial', sans-serif;font-size:57.083px;fill:rgb(35,31,32);">massa <tspan x="1687.61px " y="3542.84px ">s</tspan>ed <tspan x="1832.12px " y="3542.84px ">v</tspan>enenatis <tspan x="2128.97px " y="3542.84px ">m</tspan>alesuada, <tspan x="2476.56px " y="3542.84px ">d</tspan>iam</text>
        </g>
        <g transform="matrix(0.71,0,0,1,425.429,0)">
            <text x="1467px" y="3601.79px" style="font-family:'ArialMT', 'Arial', sans-serif;font-size:57.083px;fill:rgb(35,31,32);">ipsum <tspan x="1647.37px " y="3601.79px ">b</tspan>landit <tspan x="1843.69px " y="3601.79px ">u</tspan>rna, <tspan x="2001.91px " y="3601.79px ">v</tspan>el <tspan x="2102.99px " y="3601.79px ">u</tspan>ltricies <tspan x="2324.59px " y="3601.79px ">p</tspan>ede <tspan x="2479.68px " y="3601.79px ">n</tspan>ulla</text>
        </g>
        <g transform="matrix(0.71,0,0,1,425.429,0)">
            <text x="1467px" y="3660.74px" style="font-family:'ArialMT', 'Arial', sans-serif;font-size:57.083px;fill:rgb(35,31,32);">vitae lacus.</text>
        </g>
        <g transform="matrix(0.71,0,0,1,425.429,0)">
            <text x="1467px" y="3719.69px" style="font-family:'ArialMT', 'Arial', sans-serif;font-size:57.083px;fill:rgb(35,31,32);">Lorem <tspan x="1661.92px " y="3719.69px ">i</tspan>psum <tspan x="1847.31px " y="3719.69px ">d</tspan>olor <tspan x="2007.36px " y="3719.69px ">s</tspan>it <tspan x="2097.57px " y="3719.69px ">a</tspan>met, <tspan x="2273.45px " y="3719.69px ">c</tspan>onsectetuer</text>
        </g>
    </g>
    <g transform="matrix(1,0,0,1,0,-58)">
        <g transform="matrix(0.71,0,0,1,425.429,0)">
            <text x="1467px" y="3248.08px" style="font-family:'ArialMT', 'Arial', sans-serif;font-size:57.083px;fill:rgb(35,31,32);">adipiscing <tspan x="1759.65px " y="3248.08px ">e</tspan>lit. <tspan x="1887.27px " y="3248.08px ">Q</tspan>uisque <tspan x="2138.68px " y="3248.08px ">i</tspan>n <tspan x="2221.9px " y="3248.08px ">a</tspan>ugue. <tspan x="2435.28px " y="3248.08px ">D</tspan>onec</text>
        </g>
        <g transform="matrix(0.71,0,0,1,425.429,0)">
            <text x="1467px" y="3307.03px" style="font-family:'ArialMT', 'Arial', sans-serif;font-size:57.083px;fill:rgb(35,31,32);">aliquam <tspan x="1680.33px " y="3307.03px ">m</tspan>agna <tspan x="1868.3px " y="3307.03px ">n</tspan>onummy <tspan x="2132.37px " y="3307.03px ">e</tspan>nim. <tspan x="2285.39px " y="3307.03px ">P</tspan>roin <tspan x="2432.08px " y="3307.03px ">b</tspan>landit</text>
        </g>
        <g transform="matrix(0.71,0,0,1,425.429,0)">
            <text x="1467px" y="3365.99px" style="font-family:'ArialMT', 'Arial', sans-serif;font-size:57.083px;fill:rgb(35,31,32);">imperdiet <tspan x="1730.44px " y="3365.99px ">s</tspan>em. <tspan x="1882.81px " y="3365.99px ">D</tspan>onec <tspan x="2076.49px " y="3365.99px ">m</tspan>alesuada, <tspan x="2400.28px " y="3365.99px ">u</tspan>rna <tspan x="2543.21px " y="3365.99px ">s</tspan>it</text>
        </g>
        <g transform="matrix(0.71,0,0,1,425.429,0)">
            <text x="1467px" y="3424.93px" style="font-family:'ArialMT', 'Arial', sans-serif;font-size:57.083px;fill:rgb(35,31,32);">amet <tspan x="1638.43px " y="3424.93px ">v</tspan>arius <tspan x="1835.23px " y="3424.93px ">a</tspan>liquam, <tspan x="2095.53px " y="3424.93px ">n</tspan>ibh <tspan x="2247.99px " y="3424.93px ">t</tspan>ortor <tspan x="2425.75px " y="3424.93px ">l</tspan>aoreet</text>
        </g>
        <g transform="matrix(0.71,0,0,1,425.429,0)">
            <text x="1467px" y="3483.89px" style="font-family:'ArialMT', 'Arial', sans-serif;font-size:57.083px;fill:rgb(35,31,32);">turpis, <tspan x="1653.33px " y="3483.89px ">e</tspan>get <tspan x="1795.31px " y="3483.89px ">s</tspan>odales <tspan x="2022.95px " y="3483.89px ">f</tspan>elis <tspan x="2155.35px 2186.24px " y="3483.89px 3483.89px "> n</tspan>ibh <tspan x="2325.04px " y="3483.89px ">a</tspan>c <tspan x="2416.22px " y="3483.89px ">s</tspan>apien.</text>
        </g>
        <g transform="matrix(0.71,0,0,1,425.429,0)">
            <text x="1467px" y="3542.84px" style="font-family:'ArialMT', 'Arial', sans-serif;font-size:57.083px;fill:rgb(35,31,32);">Fusce <tspan x="1638.05px " y="3542.84px ">e</tspan>get <tspan x="1764.76px " y="3542.84px ">a</tspan>ugue. <tspan x="1954.96px " y="3542.84px ">I</tspan>nteger <tspan x="2148.28px " y="3542.84px ">s</tspan>ed <tspan x="2255.93px " y="3542.84px ">r</tspan>isus. <tspan x="2403.48px 2441.55px " y="3542.84px 3542.84px ">Ae</tspan>nean</text>
        </g>
        <g transform="matrix(0.71,0,0,1,425.429,0)">
            <text x="1467px" y="3601.79px" style="font-family:'ArialMT', 'Arial', sans-serif;font-size:57.083px;fill:rgb(35,31,32);">mollis. <tspan x="1658.7px " y="3601.79px ">D</tspan>onec <tspan x="1853.67px " y="3601.79px ">f</tspan>acilisis <tspan x="2067.59px " y="3601.79px ">e</tspan>gestas <tspan x="2297.48px " y="3601.79px ">q</tspan>uam. <tspan x="2486.1px " y="3601.79px ">D</tspan>uis</text>
        </g>
        <g transform="matrix(0.71,0,0,1,425.429,0)">
            <text x="1467px" y="3660.74px" style="font-family:'ArialMT', 'Arial', sans-serif;font-size:57.083px;fill:rgb(35,31,32);">bibendum <tspan x="1751.1px " y="3660.74px ">a</tspan>ugue <tspan x="1943.22px 1976.6px " y="3660.74px 3660.74px "> i</tspan>d <tspan x="2054.41px " y="3660.74px ">m</tspan>auris. <tspan x="2274.94px " y="3660.74px ">S</tspan>ed <tspan x="2409.89px " y="3660.74px ">l</tspan>aoreet,</text>
        </g>
        <g transform="matrix(0.71,0,0,1,425.429,0)">
            <g transform="matrix(57.0833,0,0,57.0833,2627.09,3719.69)">
            </g>
            <text x="1467px" y="3719.69px" style="font-family:'ArialMT', 'Arial', sans-serif;font-size:57.083px;fill:rgb(35,31,32);">tortor <tspan x="1613.04px " y="3719.69px ">v</tspan>el <tspan x="1698.82px " y="3719.69px ">c</tspan>ursus <tspan x="1879.76px " y="3719.69px ">f</tspan>ringilla, <tspan x="2089.26px " y="3719.69px ">t</tspan>urpis <tspan x="2241.66px " y="3719.69px ">e</tspan>lit <tspan x="2327.44px " y="3719.69px ">v</tspan>estibulum</text>
        </g>
    </g>
    <g transform="matrix(1,0,0,1,8.42045,-3135.13)">
        <g transform="matrix(0.71,0,0,1,451.98,0)">
            <g transform="matrix(83.3333,0,0,83.3333,2256.44,3900.78)">
            </g>
            <text x="1558.55px" y="3900.78px" style="font-family:'Arial-ItalicMT', 'Arial', sans-serif;font-style:italic;font-size:83.333px;fill:rgb(35,31,32);">T<tspan x="1598.68px 1645.03px " y="3900.78px 3900.78px ">ab</tspan>le des Matières</text>
        </g>
    </g>
    <g transform="matrix(1,0,0,1,8.42045,-2349.17)">
        <g transform="matrix(0.71,0,0,1,494.261,0)">
            <g transform="matrix(83.3333,0,0,83.3333,1991.54,3900.78)">
            </g>
            <text x="1704.35px" y="3900.78px" style="font-family:'Arial-ItalicMT', 'Arial', sans-serif;font-style:italic;font-size:83.333px;fill:rgb(35,31,32);">Préface</text>
        </g>
    </g>
    <g transform="matrix(1,0,0,1,8.42045,-847.487)">
        <g transform="matrix(0.71,0,0,1,464.844,0)">
            <g transform="matrix(83.3333,0,0,83.3333,2175.84,3900.78)">
            </g>
            <text x="1602.91px" y="3900.78px" style="font-family:'Arial-ItalicMT', 'Arial', sans-serif;font-style:italic;font-size:83.333px;fill:rgb(35,31,32);">Pages de T<tspan x="2018.33px 2064.67px " y="3900.78px 3900.78px ">ex</tspan>te</text>
        </g>
    </g>
    <g transform="matrix(1,0,0,1,-1154.9,-2349.17)">
        <g transform="matrix(0.71,0,0,1,425.121,0)">
            <g transform="matrix(83.3333,0,0,83.3333,2424.71,3900.78)">
            </g>
            <text x="1465.93px" y="3900.78px" style="font-family:'Arial-ItalicMT', 'Arial', sans-serif;font-style:italic;font-size:83.333px;fill:rgb(35,31,32);">Page des Remerciements</text>
        </g>
    </g>
</svg>
