<?xml version="1.0" encoding="UTF-8" standalone="no"?>
<!DOCTYPE svg PUBLIC "-//W3C//DTD SVG 1.1//EN" "http://www.w3.org/Graphics/SVG/1.1/DTD/svg11.dtd">
<svg width="100%" height="100%" viewBox="0 0 2446 3077" version="1.1" xmlns="http://www.w3.org/2000/svg" xmlns:xlink="http://www.w3.org/1999/xlink" xml:space="preserve" xmlns:serif="http://www.serif.com/" style="fill-rule:evenodd;clip-rule:evenodd;stroke-linecap:round;stroke-linejoin:round;stroke-miterlimit:1.5;">
    <g transform="matrix(1,0,0,1,-10.4485,-40.8542)">
        <g transform="matrix(2.74384,0,0,1.14795,-277.053,1490.38)">
            <g>
                <g transform="matrix(0.461424,0,0,0.481925,-73.5674,-193.813)">
                    <rect x="446.681" y="624.705" width="894.329" height="1170.12" style="fill:rgb(231,232,233);stroke:rgb(35,31,32);stroke-width:2.35px;"/>
                </g>
                <g transform="matrix(0.430696,0,0,0.489017,-65.0769,-204.804)">
                    <rect x="549.633" y="732.568" width="680.883" height="969.6" style="fill:white;"/>
                </g>
            </g>
            <g transform="matrix(1,0,0,1,-69.6469,0)">
                <g transform="matrix(0.461424,0,0,0.481925,420.055,-193.813)">
                    <rect x="446.681" y="624.705" width="894.329" height="1170.12" style="fill:rgb(231,232,233);stroke:rgb(35,31,32);stroke-width:2.35px;"/>
                </g>
                <g transform="matrix(0.430696,0,0,0.489017,468.546,-204.804)">
                    <rect x="549.633" y="732.568" width="680.883" height="969.6" style="fill:white;"/>
                </g>
            </g>
        </g>
        <g transform="matrix(2.74384,0,0,1.14795,-277.053,2269.37)">
            <g>
                <g transform="matrix(0.461424,0,0,0.481925,-73.5674,-193.813)">
                    <rect x="446.681" y="624.705" width="894.329" height="1170.12" style="fill:rgb(231,232,233);stroke:rgb(35,31,32);stroke-width:2.35px;"/>
                </g>
                <g transform="matrix(0.430696,0,0,0.489017,-65.0769,-204.804)">
                    <rect x="549.633" y="732.568" width="680.883" height="969.6" style="fill:white;"/>
                </g>
            </g>
            <g transform="matrix(1,0,0,1,-69.6469,0)">
                <g transform="matrix(0.461424,0,0,0.481925,420.055,-193.813)">
                    <rect x="446.681" y="624.705" width="894.329" height="1170.12" style="fill:rgb(231,232,233);stroke:rgb(35,31,32);stroke-width:2.35px;"/>
                </g>
                <g transform="matrix(0.430696,0,0,0.489017,468.546,-204.804)">
                    <rect x="549.633" y="732.568" width="680.883" height="969.6" style="fill:white;"/>
                </g>
            </g>
        </g>
        <g transform="matrix(2.74384,0,0,1.14795,-278.416,704.845)">
            <g>
                <g transform="matrix(0.461424,0,0,0.481925,-73.5674,-193.813)">
                    <rect x="446.681" y="624.705" width="894.329" height="1170.12" style="fill:rgb(231,232,233);stroke:rgb(35,31,32);stroke-width:2.35px;"/>
                </g>
                <g transform="matrix(0.430696,0,0,0.489017,-65.0769,-204.804)">
                    <rect x="549.633" y="732.568" width="680.883" height="969.6" style="fill:white;"/>
                </g>
            </g>
            <g transform="matrix(1,0,0,1,-69.6469,0)">
                <g transform="matrix(0.461424,0,0,0.481925,420.055,-193.813)">
                    <rect x="446.681" y="624.705" width="894.329" height="1170.12" style="fill:rgb(231,232,233);stroke:rgb(35,31,32);stroke-width:2.35px;"/>
                </g>
                <g transform="matrix(0.430696,0,0,0.489017,468.546,-204.804)">
                    <rect x="549.633" y="732.568" width="680.883" height="969.6" style="fill:white;"/>
                </g>
            </g>
        </g>
        <g transform="matrix(2.74384,0,0,1.14795,-278.416,-81.1155)">
            <g>
                <g transform="matrix(0.461424,0,0,0.481925,-73.5674,-193.813)">
                    <rect x="446.681" y="624.705" width="894.329" height="1170.12" style="fill:rgb(231,232,233);stroke:rgb(35,31,32);stroke-width:2.35px;"/>
                </g>
                <g transform="matrix(0.430696,0,0,0.489017,-65.0769,-204.804)">
                    <rect x="549.633" y="732.568" width="680.883" height="969.6" style="fill:white;"/>
                </g>
            </g>
            <g transform="matrix(1,0,0,1,-69.6469,0)">
                <g transform="matrix(0.461424,0,0,0.481925,420.055,-193.813)">
                    <rect x="446.681" y="624.705" width="894.329" height="1170.12" style="fill:rgb(231,232,233);stroke:rgb(35,31,32);stroke-width:2.35px;"/>
                </g>
                <g transform="matrix(0.430696,0,0,0.489017,468.546,-204.804)">
                    <rect x="549.633" y="732.568" width="680.883" height="969.6" style="fill:white;"/>
                </g>
            </g>
        </g>
        <g transform="matrix(0.732496,0,0,0.732496,1031.32,-772.612)">
            <g transform="matrix(0.71,0,0,1,225.693,0)">
                <g transform="matrix(72.98,0,0,72.98,1844.87,1358.34)">
                </g>
                <text x="778.253px" y="1358.34px" style="font-family:'Arial-BoldMT', 'Arial', sans-serif;font-weight:700;font-size:72.98px;fill:rgb(35,31,32);">Chapitre 1...............................12</text>
            </g>
        </g>
        <g transform="matrix(1.28391,0,0,1.28391,865.56,883.573)">
            <g transform="matrix(0.71,0,0,1,225.693,0)">
                <g transform="matrix(72.98,0,0,72.98,798.529,1358.34)">
                </g>
                <text x="778.253px" y="1358.34px" style="font-family:'Arial-BoldMT', 'Arial', sans-serif;font-weight:700;font-size:72.98px;fill:rgb(35,31,32);">I</text>
            </g>
        </g>
        <g transform="matrix(0.732496,0,0,0.732496,1028.74,-540.848)">
            <g transform="matrix(0.71,0,0,1,225.693,0)">
                <g transform="matrix(72.98,0,0,72.98,1865.15,1358.34)">
                </g>
                <text x="778.253px" y="1358.34px" style="font-family:'Arial-BoldMT', 'Arial', sans-serif;font-weight:700;font-size:72.98px;fill:rgb(35,31,32);">Chapitre 2................................31</text>
            </g>
        </g>
        <g transform="matrix(0.645518,0,0,0.645518,1188.84,-596.292)">
            <g transform="matrix(0.71,0,0,1,225.693,0)">
                <g transform="matrix(72.98,0,0,72.98,1792.2,1358.34)">
                </g>
                <text x="778.253px" y="1358.34px" style="font-family:'Arial-BoldMT', 'Arial', sans-serif;font-weight:700;font-size:72.98px;fill:rgb(35,31,32);">Section 1.1...........................12</text>
            </g>
        </g>
        <g transform="matrix(0.645518,0,0,0.645518,-117.468,65.9219)">
            <g transform="matrix(0.71,0,0,1,225.693,0)">
                <g transform="matrix(72.98,0,0,72.98,1739.54,1358.34)">
                </g>
                <text x="778.253px" y="1358.34px" style="font-family:'Arial-BoldMT', 'Arial', sans-serif;font-weight:700;font-size:72.98px;fill:rgb(35,31,32);">Image 1.1...........................12</text>
            </g>
        </g>
        <g transform="matrix(0.645518,0,0,0.645518,1021.7,125.922)">
            <g transform="matrix(0.71,0,0,1,225.693,0)">
                <g transform="matrix(72.98,0,0,72.98,1110.83,1358.34)">
                </g>
                <text x="778.253px" y="1358.34px" style="font-family:'Arial-BoldMT', 'Arial', sans-serif;font-weight:700;font-size:72.98px;fill:rgb(35,31,32);">a.    avion</text>
            </g>
        </g>
        <g transform="matrix(0.645518,0,0,0.645518,-240.164,878.497)">
            <g transform="matrix(0.71,0,0,1,225.693,0)">
                <text x="778.253px" y="1358.34px" style="font-family:'Arial-BoldMT', 'Arial', sans-serif;font-weight:700;font-size:72.98px;fill:rgb(35,31,32);">avion</text>
            </g>
            <g transform="matrix(0.71,0,0,1,225.693,0)">
                <g transform="matrix(72.98,0,0,72.98,2071.85,1433.71)">
                </g>
                <g transform="matrix(72.98,0,0,72.98,2096.15,1433.71)">
                </g>
                <text x="1086.62px" y="1433.71px" style="font-family:'Arial-BoldMT', 'Arial', sans-serif;font-weight:700;font-size:72.98px;fill:rgb(35,31,32);"><tspan x="1086.62px " y="1433.71px ">O</tspan>bjet volant tout à fait identiﬁé</text>
            </g>
            <g transform="matrix(0.71,0,0,1,225.693,0)">
                <text x="778.253px" y="1509.08px" style="font-family:'Arial-BoldMT', 'Arial', sans-serif;font-weight:700;font-size:72.98px;fill:rgb(35,31,32);">bible</text>
            </g>
            <g transform="matrix(0.71,0,0,1,225.693,0)">
                <text x="1086.62px" y="1584.44px" style="font-family:'Arial-BoldMT', 'Arial', sans-serif;font-weight:700;font-size:72.98px;fill:rgb(35,31,32);"><tspan x="1086.62px " y="1584.44px ">M</tspan>anuel d’utilisation de la religion</text>
            </g>
            <g transform="matrix(0.71,0,0,1,225.693,0)">
                <text x="778.253px" y="1659.81px" style="font-family:'Arial-BoldMT', 'Arial', sans-serif;font-weight:700;font-size:72.98px;fill:rgb(35,31,32);">…</text>
            </g>
            <g transform="matrix(0.71,0,0,1,225.693,0)">
                <text x="778.253px" y="1810.55px" style="font-family:'Arial-BoldMT', 'Arial', sans-serif;font-weight:700;font-size:72.98px;fill:rgb(35,31,32);">…</text>
            </g>
            <g transform="matrix(0.71,0,0,1,225.693,0)">
                <g transform="matrix(72.98,0,0,72.98,851.233,1961.28)">
                </g>
                <text x="778.253px" y="1961.28px" style="font-family:'Arial-BoldMT', 'Arial', sans-serif;font-weight:700;font-size:72.98px;fill:rgb(35,31,32);">…</text>
            </g>
        </g>
        <g transform="matrix(0.645518,0,0,0.645518,1041.22,927.148)">
            <g transform="matrix(0.71,0,0,1,225.693,0)">
                <text x="778.253px" y="1358.34px" style="font-family:'Arial-BoldMT', 'Arial', sans-serif;font-weight:700;font-size:72.98px;fill:rgb(35,31,32);">…</text>
            </g>
            <g transform="matrix(0.71,0,0,1,225.693,0)">
                <text x="778.253px" y="1509.08px" style="font-family:'Arial-BoldMT', 'Arial', sans-serif;font-weight:700;font-size:72.98px;fill:rgb(35,31,32);">…</text>
            </g>
            <g transform="matrix(0.71,0,0,1,225.693,0)">
                <text x="778.253px" y="1659.81px" style="font-family:'Arial-BoldMT', 'Arial', sans-serif;font-weight:700;font-size:72.98px;fill:rgb(35,31,32);">whodunit</text>
            </g>
            <g transform="matrix(0.71,0,0,1,225.693,0)">
                <text x="1086.62px" y="1735.18px" style="font-family:'Arial-BoldMT', 'Arial', sans-serif;font-weight:700;font-size:72.98px;fill:rgb(35,31,32);"><tspan x="1086.62px " y="1735.18px ">L</tspan>ittéralement : qui l’a fait ?</text>
            </g>
            <g transform="matrix(0.71,0,0,1,225.693,0)">
                <text x="778.253px" y="1810.55px" style="font-family:'Arial-BoldMT', 'Arial', sans-serif;font-weight:700;font-size:72.98px;fill:rgb(35,31,32);">zazie</text>
            </g>
            <g transform="matrix(0.71,0,0,1,225.693,0)">
                <g transform="matrix(72.98,0,0,72.98,1317.82,1885.91)">
                </g>
                <g transform="matrix(72.98,0,0,72.98,1342.12,1885.91)">
                </g>
                <g transform="matrix(72.98,0,0,72.98,2201.92,1885.91)">
                </g>
                <text x="1086.62px" y="1885.91px" style="font-family:'Arial-BoldMT', 'Arial', sans-serif;font-weight:700;font-size:72.98px;fill:rgb(35,31,32);"><tspan x="1086.62px " y="1885.91px ">J</tspan>eune ﬁlle perdue dans le métro</text>
            </g>
        </g>
        <g transform="matrix(0.645518,0,0,0.645518,1188.84,-369.403)">
            <g transform="matrix(0.71,0,0,1,225.693,0)">
                <g transform="matrix(72.98,0,0,72.98,1792.2,1358.34)">
                </g>
                <text x="778.253px" y="1358.34px" style="font-family:'Arial-BoldMT', 'Arial', sans-serif;font-weight:700;font-size:72.98px;fill:rgb(35,31,32);">Section 2.1...........................31</text>
            </g>
        </g>
        <g transform="matrix(0.645518,0,0,0.645518,-117.468,214.062)">
            <g transform="matrix(0.71,0,0,1,225.693,0)">
                <g transform="matrix(72.98,0,0,72.98,1739.54,1358.34)">
                </g>
                <text x="778.253px" y="1358.34px" style="font-family:'Arial-BoldMT', 'Arial', sans-serif;font-weight:700;font-size:72.98px;fill:rgb(35,31,32);">Image 2.1...........................31</text>
            </g>
        </g>
        <g transform="matrix(0.645518,0,0,0.645518,1021.7,274.062)">
            <g transform="matrix(0.71,0,0,1,225.693,0)">
                <g transform="matrix(72.98,0,0,72.98,1500.11,1358.34)">
                </g>
                <text x="778.253px" y="1358.34px" style="font-family:'Arial-BoldMT', 'Arial', sans-serif;font-weight:700;font-size:72.98px;fill:rgb(35,31,32);">do   dos de chameau</text>
            </g>
        </g>
        <g transform="matrix(0.645518,0,0,0.645518,-117.468,309.394)">
            <g transform="matrix(0.71,0,0,1,225.693,0)">
                <g transform="matrix(72.98,0,0,72.98,1739.54,1358.34)">
                </g>
                <text x="778.253px" y="1358.34px" style="font-family:'Arial-BoldMT', 'Arial', sans-serif;font-weight:700;font-size:72.98px;fill:rgb(35,31,32);">Image 2.3...........................56</text>
            </g>
        </g>
        <g transform="matrix(0.645518,0,0,0.645518,1188.84,-317.846)">
            <g transform="matrix(0.71,0,0,1,225.693,0)">
                <g transform="matrix(72.98,0,0,72.98,1792.2,1358.34)">
                </g>
                <text x="778.253px" y="1358.34px" style="font-family:'Arial-BoldMT', 'Arial', sans-serif;font-weight:700;font-size:72.98px;fill:rgb(35,31,32);">Section 2.2...........................43</text>
            </g>
        </g>
        <g transform="matrix(0.645518,0,0,0.645518,-117.468,265.619)">
            <g transform="matrix(0.71,0,0,1,225.693,0)">
                <g transform="matrix(72.98,0,0,72.98,1739.54,1358.34)">
                </g>
                <text x="778.253px" y="1358.34px" style="font-family:'Arial-BoldMT', 'Arial', sans-serif;font-weight:700;font-size:72.98px;fill:rgb(35,31,32);">Image 2.2...........................43</text>
            </g>
        </g>
        <g transform="matrix(0.645518,0,0,0.645518,-117.468,360.951)">
            <g transform="matrix(0.71,0,0,1,225.693,0)">
                <g transform="matrix(72.98,0,0,72.98,1739.54,1358.34)">
                </g>
                <text x="778.253px" y="1358.34px" style="font-family:'Arial-BoldMT', 'Arial', sans-serif;font-weight:700;font-size:72.98px;fill:rgb(35,31,32);">Image 2.4...........................68</text>
            </g>
        </g>
        <g transform="matrix(0.645518,0,0,0.645518,1188.84,-542.713)">
            <g transform="matrix(0.71,0,0,1,225.693,0)">
                <g transform="matrix(72.98,0,0,72.98,1792.2,1358.34)">
                </g>
                <text x="778.253px" y="1358.34px" style="font-family:'Arial-BoldMT', 'Arial', sans-serif;font-weight:700;font-size:72.98px;fill:rgb(35,31,32);">Section 1.2...........................16</text>
            </g>
        </g>
        <g transform="matrix(0.645518,0,0,0.645518,-117.468,119.501)">
            <g transform="matrix(0.71,0,0,1,225.693,0)">
                <g transform="matrix(72.98,0,0,72.98,1739.54,1358.34)">
                </g>
                <text x="778.253px" y="1358.34px" style="font-family:'Arial-BoldMT', 'Arial', sans-serif;font-weight:700;font-size:72.98px;fill:rgb(35,31,32);">Image 1.2...........................16</text>
            </g>
        </g>
        <g transform="matrix(0.645518,0,0,0.645518,1021.7,179.501)">
            <g transform="matrix(0.71,0,0,1,225.693,0)">
                <g transform="matrix(72.98,0,0,72.98,1094.51,1358.34)">
                </g>
                <text x="778.253px" y="1358.34px" style="font-family:'Arial-BoldMT', 'Arial', sans-serif;font-weight:700;font-size:72.98px;fill:rgb(35,31,32);">b.    bible</text>
            </g>
        </g>
        <g transform="matrix(0.645518,0,0,0.645518,1188.84,-491.926)">
            <g transform="matrix(0.71,0,0,1,225.693,0)">
                <g transform="matrix(72.98,0,0,72.98,1792.2,1358.34)">
                </g>
                <text x="778.253px" y="1358.34px" style="font-family:'Arial-BoldMT', 'Arial', sans-serif;font-weight:700;font-size:72.98px;fill:rgb(35,31,32);">Section 1.3...........................23</text>
            </g>
        </g>
        <g transform="matrix(0.645518,0,0,0.645518,-117.468,170.288)">
            <g transform="matrix(0.71,0,0,1,225.693,0)">
                <g transform="matrix(72.98,0,0,72.98,1739.54,1358.34)">
                </g>
                <text x="778.253px" y="1358.34px" style="font-family:'Arial-BoldMT', 'Arial', sans-serif;font-weight:700;font-size:72.98px;fill:rgb(35,31,32);">Image 1.3...........................23</text>
            </g>
        </g>
        <g transform="matrix(0.645518,0,0,0.645518,1021.7,230.288)">
            <g transform="matrix(0.71,0,0,1,225.693,0)">
                <g transform="matrix(72.98,0,0,72.98,1350.01,1358.34)">
                </g>
                <text x="778.253px" y="1358.34px" style="font-family:'Arial-BoldMT', 'Arial', sans-serif;font-weight:700;font-size:72.98px;fill:rgb(35,31,32);">cro. cromagnon</text>
            </g>
        </g>
        <g transform="matrix(1.3668,0,0,1.3668,1334.78,403.037)">
            <g transform="matrix(0.71,0,0,1,225.693,0)">
                <g transform="matrix(54.8728,0,0,54.8728,839.288,1358.34)">
                </g>
                <text x="778.253px" y="1358.34px" style="font-family:'Arial-BoldMT', 'Arial', sans-serif;font-weight:700;font-size:54.873px;fill:rgb(35,31,32);">15</text>
            </g>
        </g>
        <g transform="matrix(1.3668,0,0,1.3668,1334.78,1182.03)">
            <g transform="matrix(0.71,0,0,1,225.693,0)">
                <g transform="matrix(54.8728,0,0,54.8728,839.288,1358.34)">
                </g>
                <text x="778.253px" y="1358.34px" style="font-family:'Arial-BoldMT', 'Arial', sans-serif;font-weight:700;font-size:54.873px;fill:rgb(35,31,32);">17</text>
            </g>
        </g>
        <g transform="matrix(1.3668,0,0,1.3668,1333.42,-382.496)">
            <g transform="matrix(0.71,0,0,1,225.693,0)">
                <g transform="matrix(54.8728,0,0,54.8728,839.288,1358.34)">
                </g>
                <text x="778.253px" y="1358.34px" style="font-family:'Arial-BoldMT', 'Arial', sans-serif;font-weight:700;font-size:54.873px;fill:rgb(35,31,32);">13</text>
            </g>
        </g>
        <g transform="matrix(1.3668,0,0,1.3668,1333.42,-1168.46)">
            <g transform="matrix(0.71,0,0,1,225.693,0)">
                <g transform="matrix(54.8728,0,0,54.8728,835.024,1358.34)">
                </g>
                <text x="778.253px" y="1358.34px" style="font-family:'Arial-BoldMT', 'Arial', sans-serif;font-weight:700;font-size:54.873px;fill:rgb(35,31,32);">1<tspan x="804.506px " y="1358.34px ">1</tspan></text>
            </g>
        </g>
        <g transform="matrix(1.3668,0,0,1.3668,-1056.11,403.037)">
            <g transform="matrix(0.71,0,0,1,225.693,0)">
                <g transform="matrix(54.8728,0,0,54.8728,839.288,1358.34)">
                </g>
                <text x="778.253px" y="1358.34px" style="font-family:'Arial-BoldMT', 'Arial', sans-serif;font-weight:700;font-size:54.873px;fill:rgb(35,31,32);">14</text>
            </g>
        </g>
        <g transform="matrix(1.3668,0,0,1.3668,-1056.11,1182.03)">
            <g transform="matrix(0.71,0,0,1,225.693,0)">
                <g transform="matrix(54.8728,0,0,54.8728,839.288,1358.34)">
                </g>
                <text x="778.253px" y="1358.34px" style="font-family:'Arial-BoldMT', 'Arial', sans-serif;font-weight:700;font-size:54.873px;fill:rgb(35,31,32);">16</text>
            </g>
        </g>
        <g transform="matrix(1.3668,0,0,1.3668,-1057.48,-382.496)">
            <g transform="matrix(0.71,0,0,1,225.693,0)">
                <g transform="matrix(54.8728,0,0,54.8728,839.288,1358.34)">
                </g>
                <text x="778.253px" y="1358.34px" style="font-family:'Arial-BoldMT', 'Arial', sans-serif;font-weight:700;font-size:54.873px;fill:rgb(35,31,32);">12</text>
            </g>
        </g>
        <g transform="matrix(1.3668,0,0,1.3668,-1057.48,-1168.46)">
            <g transform="matrix(0.71,0,0,1,225.693,0)">
                <g transform="matrix(54.8728,0,0,54.8728,839.288,1358.34)">
                </g>
                <text x="778.253px" y="1358.34px" style="font-family:'Arial-BoldMT', 'Arial', sans-serif;font-weight:700;font-size:54.873px;fill:rgb(35,31,32);">10</text>
            </g>
        </g>
        <g transform="matrix(1,0,0,1,1273.07,-579.631)">
            <g transform="matrix(0.71,0,0,1,56.2369,0)">
                <g transform="matrix(57.0833,0,0,57.0833,468.705,3307.03)">
                </g>
                <text x="468.705px" y="3307.03px" style="font-family:'ArialMT', 'Arial', sans-serif;font-size:57.083px;fill:rgb(35,31,32);"><tspan x="468.705px " y="3307.03px ">C</tspan>um <tspan x="612.661px " y="3307.03px ">s</tspan>ociis <tspan x="778.832px " y="3307.03px ">n</tspan>atoque <tspan x="1008.61px " y="3307.03px ">p</tspan>enatibus <tspan x="1279.61px " y="3307.03px ">e</tspan>t</text>
            </g>
            <g transform="matrix(0.71,0,0,1,56.2369,0)">
                <text x="193.92px" y="3365.99px" style="font-family:'ArialMT', 'Arial', sans-serif;font-size:57.083px;fill:rgb(35,31,32);">magnis <tspan x="431.226px " y="3365.99px ">d</tspan>is <tspan x="557.487px " y="3365.99px ">p</tspan>arturient <tspan x="851.932px " y="3365.99px ">m</tspan>ontes, <tspan x="1108.28px " y="3365.99px ">n</tspan>ascetur</text>
            </g>
            <g transform="matrix(0.71,0,0,1,56.2369,0)">
                <text x="193.92px" y="3424.93px" style="font-family:'ArialMT', 'Arial', sans-serif;font-size:57.083px;fill:rgb(35,31,32);">ridiculus <tspan x="437.801px " y="3424.93px ">m</tspan>us. <tspan x="586.351px 624.425px " y="3424.93px 3424.93px ">Al</tspan>iquam <tspan x="827.083px " y="3424.93px ">v</tspan>el <tspan x="934.555px " y="3424.93px ">q</tspan>uam <tspan x="1111.85px " y="3424.93px ">u</tspan>t <tspan x="1193.95px " y="3424.93px ">t</tspan>ellus</text>
            </g>
            <g transform="matrix(0.71,0,0,1,56.2369,0)">
                <text x="193.92px" y="3483.89px" style="font-family:'ArialMT', 'Arial', sans-serif;font-size:57.083px;fill:rgb(35,31,32);">gravida <tspan x="453.037px " y="3483.89px ">f</tspan>aucibus. <tspan x="753.406px 790.027px 802.71px " y="3483.89px 3483.89px 3483.89px ">Viv</tspan>amus <tspan x="1042.73px " y="3483.89px ">j</tspan>usto <tspan x="1235.21px " y="3483.89px ">e</tspan>st,</text>
            </g>
            <g transform="matrix(0.71,0,0,1,56.2369,0)">
                <g transform="matrix(57.0833,0,0,57.0833,1323.46,3542.84)">
                </g>
                <text x="193.92px" y="3542.84px" style="font-family:'ArialMT', 'Arial', sans-serif;font-size:57.083px;fill:rgb(35,31,32);">elementum vitae, malesuada eu, fermentum</text>
            </g>
        </g>
        <g transform="matrix(1,0,0,1,8.42045,-3135.13)">
            <g transform="matrix(0.71,0,0,1,451.98,0)">
                <g transform="matrix(83.3333,0,0,83.3333,2256.44,3900.78)">
                </g>
                <text x="1558.55px" y="3900.78px" style="font-family:'Arial-ItalicMT', 'Arial', sans-serif;font-style:italic;font-size:83.333px;fill:rgb(35,31,32);">T<tspan x="1598.68px 1645.03px " y="3900.78px 3900.78px ">ab</tspan>le des Matières</text>
            </g>
        </g>
        <g transform="matrix(1,0,0,1,8.42045,-2349.17)">
            <g transform="matrix(0.71,0,0,1,440.846,0)">
                <g transform="matrix(83.3333,0,0,83.3333,2326.19,3900.78)">
                </g>
                <text x="1520.16px" y="3900.78px" style="font-family:'Arial-ItalicMT', 'Arial', sans-serif;font-style:italic;font-size:83.333px;fill:rgb(35,31,32);">Liste des abréviations</text>
            </g>
        </g>
        <g transform="matrix(1,0,0,1,8.42045,-1563.63)">
            <g transform="matrix(0.71,0,0,1,499.991,0)">
                <g transform="matrix(83.3333,0,0,83.3333,1955.63,3900.78)">
                </g>
                <text x="1724.11px" y="3900.78px" style="font-family:'Arial-ItalicMT', 'Arial', sans-serif;font-style:italic;font-size:83.333px;fill:rgb(35,31,32);">(suite)</text>
            </g>
        </g>
        <g transform="matrix(1,0,0,1,8.42045,-784.637)">
            <g transform="matrix(0.71,0,0,1,503.48,0)">
                <g transform="matrix(83.3333,0,0,83.3333,1933.78,3900.78)">
                </g>
                <text x="1736.14px" y="3900.78px" style="font-family:'Arial-ItalicMT', 'Arial', sans-serif;font-style:italic;font-size:83.333px;fill:rgb(35,31,32);">T<tspan x="1776.27px 1822.61px " y="3900.78px 3900.78px ">ex</tspan>te</text>
            </g>
        </g>
        <g transform="matrix(1,0,0,1,-1154.9,-2349.17)">
            <g transform="matrix(0.71,0,0,1,441.964,0)">
                <g transform="matrix(83.3333,0,0,83.3333,2319.19,3900.78)">
                </g>
                <text x="1524.01px" y="3900.78px" style="font-family:'Arial-ItalicMT', 'Arial', sans-serif;font-style:italic;font-size:83.333px;fill:rgb(35,31,32);">T<tspan x="1564.14px 1610.49px " y="3900.78px 3900.78px ">ab</tspan>le des illustrations</text>
            </g>
        </g>
        <g transform="matrix(1,0,0,1,-1154.9,-1563.63)">
            <g transform="matrix(0.71,0,0,1,487.592,0)">
                <g transform="matrix(83.3333,0,0,83.3333,2033.32,3900.78)">
                </g>
                <text x="1681.35px" y="3900.78px" style="font-family:'Arial-ItalicMT', 'Arial', sans-serif;font-style:italic;font-size:83.333px;fill:rgb(35,31,32);">Glossaire</text>
            </g>
        </g>
    </g>
</svg>
