<?xml version="1.0" encoding="UTF-8" standalone="no"?>
<svg
   width="2298.5825"
   height="4691.0718"
   viewBox="0 0 2298.5825 4691.0718"
   version="1.1"
   xml:space="preserve"
   style="clip-rule:evenodd;fill-rule:evenodd;stroke-linecap:round;stroke-linejoin:round;stroke-miterlimit:1.5"
   id="svg330"
   xmlns="http://www.w3.org/2000/svg"
   xmlns:svg="http://www.w3.org/2000/svg"><defs
   id="defs334" />
    <g
   transform="translate(-83.770223,-19.349435)"
   id="g328">
        <g
   transform="matrix(2.74384,0,0,1.14784,-278.416,615.17)"
   id="g22">
            <g
   id="g10">
                <g
   transform="matrix(0.461424,0,0,0.481925,-73.5674,-193.813)"
   id="g4">
                    <rect
   x="446.681"
   y="624.70502"
   width="894.32898"
   height="1170.12"
   style="fill:#e7e8e9;stroke:#231f20;stroke-width:2.35px"
   id="rect2" />
                </g>
                <g
   transform="matrix(0.430696,0,0,0.489017,-65.0769,-204.804)"
   id="g8">
                    <rect
   x="549.633"
   y="732.56799"
   width="680.883"
   height="969.59998"
   style="fill:#ffffff"
   id="rect6" />
                </g>
            </g>
            <g
   transform="translate(-69.6469)"
   id="g20">
                <g
   transform="matrix(0.461424,0,0,0.481925,420.055,-193.813)"
   id="g14">
                    <rect
   x="446.681"
   y="624.70502"
   width="894.32898"
   height="1170.12"
   style="fill:#e7e8e9;stroke:#231f20;stroke-width:2.35px"
   id="rect12" />
                </g>
                <g
   transform="matrix(0.430696,0,0,0.489017,468.546,-204.804)"
   id="g18">
                    <rect
   x="549.633"
   y="732.56799"
   width="680.883"
   height="969.59998"
   style="fill:#ffffff"
   id="rect16" />
                </g>
            </g>
        </g>
        <g
   transform="matrix(2.74384,0,0,1.14795,-278.416,1440.76)"
   id="g44">
            <g
   id="g32">
                <g
   transform="matrix(0.461424,0,0,0.481925,-73.5674,-193.813)"
   id="g26">
                    <rect
   x="446.681"
   y="624.70502"
   width="894.32898"
   height="1170.12"
   style="fill:#e7e8e9;stroke:#231f20;stroke-width:2.35px"
   id="rect24" />
                </g>
                <g
   transform="matrix(0.430696,0,0,0.489017,-65.0769,-204.804)"
   id="g30">
                    <rect
   x="549.633"
   y="732.56799"
   width="680.883"
   height="969.59998"
   style="fill:#ffffff"
   id="rect28" />
                </g>
            </g>
            <g
   transform="translate(-69.6469)"
   id="g42">
                <g
   transform="matrix(0.461424,0,0,0.481925,420.055,-193.813)"
   id="g36">
                    <rect
   x="446.681"
   y="624.70502"
   width="894.32898"
   height="1170.12"
   style="fill:#e7e8e9;stroke:#231f20;stroke-width:2.35px"
   id="rect34" />
                </g>
                <g
   transform="matrix(0.430696,0,0,0.489017,468.546,-204.804)"
   id="g40">
                    <rect
   x="549.633"
   y="732.56799"
   width="680.883"
   height="969.59998"
   style="fill:#ffffff"
   id="rect38" />
                </g>
            </g>
        </g>
        <g
   transform="matrix(2.74384,0,0,1.1522,-278.416,2235.37)"
   id="g66">
            <g
   id="g54">
                <g
   transform="matrix(0.461424,0,0,0.481925,-73.5674,-193.813)"
   id="g48">
                    <rect
   x="446.681"
   y="624.70502"
   width="894.32898"
   height="1170.12"
   style="fill:#e7e8e9;stroke:#231f20;stroke-width:2.34px"
   id="rect46" />
                </g>
                <g
   transform="matrix(0.430696,0,0,0.489017,-65.0769,-204.804)"
   id="g52">
                    <rect
   x="549.633"
   y="732.56799"
   width="680.883"
   height="969.59998"
   style="fill:#ffffff"
   id="rect50" />
                </g>
            </g>
            <g
   transform="translate(-69.6469)"
   id="g64">
                <g
   transform="matrix(0.461424,0,0,0.481925,420.055,-193.813)"
   id="g58">
                    <rect
   x="446.681"
   y="624.70502"
   width="894.32898"
   height="1170.12"
   style="fill:#e7e8e9;stroke:#231f20;stroke-width:2.34px"
   id="rect56" />
                </g>
                <g
   transform="matrix(0.430696,0,0,0.489017,468.546,-204.804)"
   id="g62">
                    <rect
   x="549.633"
   y="732.56799"
   width="680.883"
   height="969.59998"
   style="fill:#ffffff"
   id="rect60" />
                </g>
            </g>
        </g>
        <g
   transform="matrix(2.74384,0,0,1.1522,-278.416,-103.572)"
   id="g88">
            <g
   id="g76">
                <g
   transform="matrix(0.461424,0,0,0.481925,-73.5674,-193.813)"
   id="g70">
                    <rect
   x="446.681"
   y="624.70502"
   width="894.32898"
   height="1170.12"
   style="fill:#e7e8e9;stroke:#231f20;stroke-width:2.34px"
   id="rect68" />
                </g>
                <g
   transform="matrix(0.430696,0,0,0.489017,-65.0769,-204.804)"
   id="g74">
                    <rect
   x="549.633"
   y="732.56799"
   width="680.883"
   height="969.59998"
   style="fill:#ffffff"
   id="rect72" />
                </g>
            </g>
            <g
   transform="translate(-69.6469)"
   id="g86">
                <g
   transform="matrix(0.461424,0,0,0.481925,420.055,-193.813)"
   id="g80">
                    <rect
   x="446.681"
   y="624.70502"
   width="894.32898"
   height="1170.12"
   style="fill:#e7e8e9;stroke:#231f20;stroke-width:2.34px"
   id="rect78" />
                </g>
                <g
   transform="matrix(0.430696,0,0,0.489017,468.546,-204.804)"
   id="g84">
                    <rect
   x="549.633"
   y="732.56799"
   width="680.883"
   height="969.59998"
   style="fill:#ffffff"
   id="rect82" />
                </g>
            </g>
        </g>
        <g
   transform="matrix(2.74384,0,0,1.14795,-278.416,3847.23)"
   id="g98">
            <g
   transform="matrix(0.461424,0,0,0.481925,-73.5674,-193.813)"
   id="g92">
                <rect
   x="446.681"
   y="624.70502"
   width="894.32898"
   height="1170.12"
   style="fill:#e7e8e9;stroke:#231f20;stroke-width:2.35px"
   id="rect90" />
            </g>
            <g
   transform="matrix(0.430696,0,0,0.489017,-65.0769,-204.804)"
   id="g96">
                <rect
   x="549.633"
   y="732.56799"
   width="680.883"
   height="969.59998"
   style="fill:#ffffff"
   id="rect94" />
            </g>
        </g>
        <g
   transform="matrix(2.74384,0,0,1.14795,-278.416,3049.22)"
   id="g120">
            <g
   id="g108">
                <g
   transform="matrix(0.461424,0,0,0.481925,-73.5674,-193.813)"
   id="g102">
                    <rect
   x="446.681"
   y="624.70502"
   width="894.32898"
   height="1170.12"
   style="fill:#e7e8e9;stroke:#231f20;stroke-width:2.35px"
   id="rect100" />
                </g>
                <g
   transform="matrix(0.430696,0,0,0.489017,-65.0769,-204.804)"
   id="g106">
                    <rect
   x="549.633"
   y="732.56799"
   width="680.883"
   height="969.59998"
   style="fill:#ffffff"
   id="rect104" />
                </g>
            </g>
            <g
   transform="translate(-69.6469)"
   id="g118">
                <g
   transform="matrix(0.461424,0,0,0.481925,420.055,-193.813)"
   id="g112">
                    <rect
   x="446.681"
   y="624.70502"
   width="894.32898"
   height="1170.12"
   style="fill:#e7e8e9;stroke:#231f20;stroke-width:2.35px"
   id="rect110" />
                </g>
                <g
   transform="matrix(0.430696,0,0,0.489017,468.546,-204.804)"
   id="g116">
                    <rect
   x="549.633"
   y="732.56799"
   width="680.883"
   height="969.59998"
   style="fill:#ffffff"
   id="rect114" />
                </g>
            </g>
        </g>
        <g
   transform="translate(0,18.496)"
   id="g192">
            <g
   transform="matrix(0.71,0,0,1,425.033,0)"
   id="g138">
                <g
   transform="matrix(57.0833,0,0,57.0833,1465.63,95.6081)"
   id="g122">
                </g>
                <text
   x="1465.63"
   y="95.608002"
   style="font-size:57.083px;font-family:ArialMT, Arial, sans-serif;fill:#231f20"
   id="text136">Donec <tspan
   x="1645"
   y="95.608002"
   id="tspan124">n</tspan>ulla <tspan
   x="1779.96"
   y="95.608002"
   id="tspan126">j</tspan>usto, <tspan
   x="1930.75"
   y="95.608002"
   id="tspan128">a</tspan>dipiscing <tspan
   x="2198.97"
   y="95.608002"
   id="tspan130">s</tspan>it <tspan
   x="2270.4199"
   y="95.608002"
   id="tspan132">a</tspan>met, <tspan
   x="2427.54"
   y="95.608002"
   id="tspan134">f</tspan>eugiat</text>
            </g>
            <g
   transform="matrix(0.71,0,0,1,425.033,0)"
   id="g142">
                <text
   x="1465.63"
   y="154.55901"
   style="font-size:57.083px;font-family:ArialMT, Arial, sans-serif;fill:#231f20"
   id="text140">ac, facilisis euismod, risus.</text>
            </g>
            <g
   transform="matrix(0.71,0,0,1,425.033,0)"
   id="g154">
                <text
   x="1465.63"
   y="213.50999"
   style="font-size:57.083px;font-family:ArialMT, Arial, sans-serif;fill:#231f20"
   id="text152">Pellentesque <tspan
   x="1832.3"
   y="213.50999"
   id="tspan144">t</tspan>incidunt, <tspan
   x="2097.3799"
   y="213.50999"
   id="tspan146">d</tspan>olor <tspan
   x="2260.9099"
   y="213.50999"
   id="tspan148">e</tspan>u <tspan
   x="2361.01"
   y="213.50999"
   id="tspan150">d</tspan>ignissim</text>
            </g>
            <g
   transform="matrix(0.71,0,0,1,425.033,0)"
   id="g164">
                <text
   x="1465.63"
   y="272.45999"
   style="font-size:57.083px;font-family:ArialMT, Arial, sans-serif;fill:#231f20"
   id="text162">mollis, justo <tspan
   x="1779.86"
   y="272.45999"
   id="tspan156">s</tspan>apien iaculis <tspan
   x="2138.5901"
   y="272.45999"
   id="tspan158">p</tspan>ede, vel <tspan
   x="2386.3101"
   y="272.45999"
   id="tspan160">t</tspan>incidunt</text>
            </g>
            <g
   transform="matrix(0.71,0,0,1,425.033,0)"
   id="g184">
                <text
   x="1465.63"
   y="331.41101"
   style="font-size:57.083px;font-family:ArialMT, Arial, sans-serif;fill:#231f20"
   id="text182">lacus <tspan
   x="1617.22"
   y="331.41101"
   id="tspan166">n</tspan>isl <tspan
   x="1721.2"
   y="331.41101"
   id="tspan168">s</tspan>it <tspan
   x="1796.61"
   y="331.41101"
   id="tspan170">a</tspan>met <tspan
   x="1941.85"
   y="331.41101"
   id="tspan172">m</tspan>etus. <tspan
   x="2131.48"
   y="331.41101"
   id="tspan174">F</tspan>usce <tspan
   x="2305.26"
   y="331.41101"
   id="tspan176">a</tspan>c <tspan
   x="2383.8701"
   y="331.41101"
   id="tspan178">e</tspan>st <tspan
   x="2478.3501"
   y="331.41101"
   id="tspan180">v</tspan>itae</text>
            </g>
            <g
   transform="matrix(0.71,0,0,1,425.033,0)"
   id="g190">
                <g
   transform="matrix(57.0833,0,0,57.0833,2455.48,390.362)"
   id="g186">
                </g>
                <text
   x="1465.63"
   y="390.362"
   style="font-size:57.083px;font-family:ArialMT, Arial, sans-serif;fill:#231f20"
   id="text188">purus varius tristique. Phasellus mattis</text>
            </g>
        </g>
        <g
   transform="matrix(1.13207,0,0,1.13207,810.372,350.34)"
   id="g200">
            <g
   transform="matrix(0.71,0,0,1,225.693,0)"
   id="g198">
                <g
   transform="matrix(72.98,0,0,72.98,1143.26,1358.34)"
   id="g194">
                </g>
                <text
   x="778.25299"
   y="1358.34"
   style="font-weight:700;font-size:72.98px;font-family:Arial-BoldMT, Arial, sans-serif;fill:#231f20"
   id="text196">Bla bla bla</text>
            </g>
        </g>
        <g
   transform="matrix(1.3668,0,0,1.3668,409.826,-376.724)"
   id="g208">
            <g
   transform="matrix(0.71,0,0,1,225.693,0)"
   id="g206">
                <g
   transform="matrix(72.98,0,0,72.98,1589.34,1358.34)"
   id="g202">
                </g>
                <text
   x="778.25299"
   y="1358.34"
   style="font-weight:700;font-size:72.98px;font-family:Arial-BoldMT, Arial, sans-serif;fill:#231f20"
   id="text204">Pages de bibliogaphies</text>
            </g>
        </g>
        <g
   transform="matrix(1.3668,0,0,1.3668,358.264,442.081)"
   id="g216">
            <g
   transform="matrix(0.71,0,0,1,225.693,0)"
   id="g214">
                <g
   transform="matrix(72.98,0,0,72.98,1548.71,1358.34)"
   id="g210">
                </g>
                <text
   x="778.25299"
   y="1358.34"
   style="font-weight:700;font-size:72.98px;font-family:Arial-BoldMT, Arial, sans-serif;fill:#231f20"
   id="text212">Biographie de l’auteur</text>
            </g>
        </g>
        <g
   transform="matrix(1.3668,0,0,1.3668,501.928,1236.92)"
   id="g224">
            <g
   transform="matrix(0.71,0,0,1,225.693,0)"
   id="g222">
                <g
   transform="matrix(72.98,0,0,72.98,1350.19,1358.34)"
   id="g218">
                </g>
                <text
   x="778.25299"
   y="1358.34"
   style="font-weight:700;font-size:72.98px;font-family:Arial-BoldMT, Arial, sans-serif;fill:#231f20"
   id="text220">Pages des index</text>
            </g>
        </g>
        <g
   transform="matrix(1.3668,0,0,1.3668,306.753,2052.7)"
   id="g232">
            <g
   transform="matrix(0.71,0,0,1,225.693,0)"
   id="g230">
                <g
   transform="matrix(72.98,0,0,72.98,1755.54,1358.34)"
   id="g226">
                </g>
                <text
   x="778.25299"
   y="1358.34"
   style="font-weight:700;font-size:72.98px;font-family:Arial-BoldMT, Arial, sans-serif;fill:#231f20"
   id="text228">Page des crédits (colophon)</text>
            </g>
        </g>
        <g
   transform="matrix(1.3668,0,0,1.3668,-895.185,2832.85)"
   id="g240">
            <g
   transform="matrix(0.71,0,0,1,225.693,0)"
   id="g238">
                <g
   transform="matrix(72.98,0,0,72.98,1784.04,1358.34)"
   id="g234">
                </g>
                <text
   x="778.25299"
   y="1358.34"
   style="font-weight:700;font-size:72.98px;font-family:Arial-BoldMT, Arial, sans-serif;fill:#231f20"
   id="text236">Page de marque d’imprimeur</text>
            </g>
        </g>
        <g
   transform="translate(-121.959,-827.012)"
   id="g258">
            <g
   transform="matrix(0.815105,0,0,0.815105,987.067,1449.9)"
   id="g248">
                <g
   transform="matrix(0.71,0,0,1,225.693,0)"
   id="g246">
                    <g
   transform="matrix(72.98,0,0,72.98,1049.97,1358.34)"
   id="g242">
                    </g>
                    <text
   x="778.25299"
   y="1358.34"
   style="font-weight:700;font-size:72.98px;font-family:Arial-BoldMT, Arial, sans-serif;fill:#231f20"
   id="text244">Prénom</text>
                </g>
            </g>
            <g
   transform="matrix(1.3668,0,0,1.3668,729.057,699.995)"
   id="g256">
                <g
   transform="matrix(0.71,0,0,1,225.693,0)"
   id="g254">
                    <g
   transform="matrix(72.98,0,0,72.98,948.516,1358.34)"
   id="g250">
                    </g>
                    <text
   x="778.25299"
   y="1358.34"
   style="font-weight:700;font-size:72.98px;font-family:Arial-BoldMT, Arial, sans-serif;fill:#231f20"
   id="text252">NOM</text>
                </g>
            </g>
        </g>
        <g
   transform="matrix(0.529645,0,0,0.529645,1304.69,2634.1)"
   id="g290">
            <g
   transform="matrix(0.71,0,0,1,282.487,0)"
   id="g262">
                <text
   x="974.09302"
   y="1433.71"
   style="font-weight:700;font-size:72.98px;font-family:Arial-BoldMT, Arial, sans-serif;fill:#231f20"
   id="text260">Éditeur</text>
            </g>
            <g
   transform="matrix(0.71,0,0,1,278.716,0)"
   id="g266">
                <text
   x="961.08801"
   y="1509.08"
   style="font-weight:700;font-size:72.98px;font-family:Arial-BoldMT, Arial, sans-serif;fill:#231f20"
   id="text264">Adresse</text>
            </g>
            <g
   transform="matrix(0.71,0,0,1,225.693,0)"
   id="g270">
                <text
   x="778.25299"
   y="1584.4399"
   style="font-weight:700;font-size:72.98px;font-family:Arial-BoldMT, Arial, sans-serif;fill:#231f20"
   id="text268">Directrice de collection</text>
            </g>
            <g
   transform="matrix(0.71,0,0,1,245.324,0)"
   id="g274">
                <text
   x="845.94501"
   y="1659.8101"
   style="font-weight:700;font-size:72.98px;font-family:Arial-BoldMT, Arial, sans-serif;fill:#231f20"
   id="text272">Metteuse en page</text>
            </g>
            <g
   transform="matrix(0.71,0,0,1,268.278,0)"
   id="g278">
                <text
   x="925.09802"
   y="1735.1801"
   style="font-weight:700;font-size:72.98px;font-family:Arial-BoldMT, Arial, sans-serif;fill:#231f20"
   id="text276">Correctrice</text>
            </g>
            <g
   transform="matrix(0.71,0,0,1,267.875,0)"
   id="g282">
                <text
   x="923.70599"
   y="1810.55"
   style="font-weight:700;font-size:72.98px;font-family:Arial-BoldMT, Arial, sans-serif;fill:#231f20"
   id="text280">Dépôt légal</text>
            </g>
            <g
   transform="matrix(0.71,0,0,1,290.418,0)"
   id="g288">
                <g
   transform="matrix(72.98,0,0,72.98,1175.8,1885.91)"
   id="g284">
                </g>
                <text
   x="1001.44"
   y="1885.91"
   style="font-weight:700;font-size:72.98px;font-family:Arial-BoldMT, Arial, sans-serif;fill:#231f20"
   id="text286">ISBN</text>
            </g>
        </g>
        <g
   transform="matrix(0.529645,0,0,0.529645,-143.213,3723.19)"
   id="g302">
            <g
   transform="matrix(0.71,0,0,1,231.559,0)"
   id="g294">
                <text
   x="798.48102"
   y="1358.34"
   style="font-weight:700;font-size:72.98px;font-family:Arial-BoldMT, Arial, sans-serif;fill:#231f20"
   id="text292">Imprimé chez Zouzou</text>
            </g>
            <g
   transform="matrix(0.71,0,0,1,235.272,0)"
   id="g300">
                <g
   transform="matrix(72.98,0,0,72.98,1521.31,1433.71)"
   id="g296">
                </g>
                <text
   x="811.28302"
   y="1433.71"
   style="font-weight:700;font-size:72.98px;font-family:Arial-BoldMT, Arial, sans-serif;fill:#231f20"
   id="text298">le 25 décembre 2023</text>
            </g>
        </g>
        <g
   transform="matrix(0.957949,0,0,0.957949,744.83,-433.683)"
   id="g310">
            <g
   transform="matrix(0.71,0,0,1,225.693,0)"
   id="g308">
                <g
   transform="matrix(72.98,0,0,72.98,1285.12,1358.34)"
   id="g304">
                </g>
                <text
   x="778.25299"
   y="1358.34"
   style="font-weight:700;font-size:72.98px;font-family:Arial-BoldMT, Arial, sans-serif;fill:#231f20"
   id="text306">Bibliographies</text>
            </g>
        </g>
        <g
   transform="matrix(0.880125,0,0,0.880125,816.737,1323.63)"
   id="g318">
            <g
   transform="matrix(0.71,0,0,1,225.693,0)"
   id="g316">
                <g
   transform="matrix(72.98,0,0,72.98,968.863,1358.34)"
   id="g312">
                </g>
                <text
   x="778.25299"
   y="1358.34"
   style="font-weight:700;font-size:72.98px;font-family:Arial-BoldMT, Arial, sans-serif;fill:#231f20"
   id="text314">Index</text>
            </g>
        </g>
        <g
   transform="matrix(0.880125,0,0,0.880125,1083.56,-660.8)"
   id="g326">
            <g
   transform="matrix(0.71,0,0,1,225.693,0)"
   id="g324">
                <g
   transform="matrix(72.98,0,0,72.98,1098.57,1358.34)"
   id="g320">
                </g>
                <text
   x="778.25299"
   y="1358.34"
   style="font-weight:700;font-size:72.98px;font-family:Arial-BoldMT, Arial, sans-serif;fill:#231f20"
   id="text322">THE END</text>
            </g>
        </g>
    </g>
</svg>
