<?xml version="1.0" encoding="UTF-8" standalone="no"?>
<!DOCTYPE svg PUBLIC "-//W3C//DTD SVG 1.1//EN" "http://www.w3.org/Graphics/SVG/1.1/DTD/svg11.dtd">
<svg width="100%" height="100%" viewBox="0 0 2452 4593" version="1.1" xmlns="http://www.w3.org/2000/svg" xmlns:xlink="http://www.w3.org/1999/xlink" xml:space="preserve" xmlns:serif="http://www.serif.com/" style="fill-rule:evenodd;clip-rule:evenodd;stroke-linecap:round;stroke-linejoin:round;stroke-miterlimit:1.5;">
    <g transform="matrix(1,0,0,1,-3.83848,-22.8542)">
        <g transform="matrix(2.74384,0,0,1.14784,-278.416,595.17)">
            <g>
                <g transform="matrix(0.461424,0,0,0.481925,-73.5674,-193.813)">
                    <rect x="446.681" y="624.705" width="894.329" height="1170.12" style="fill:rgb(231,232,233);stroke:rgb(35,31,32);stroke-width:2.35px;"/>
                </g>
                <g transform="matrix(0.430696,0,0,0.489017,-65.0769,-204.804)">
                    <rect x="549.633" y="732.568" width="680.883" height="969.6" style="fill:white;"/>
                </g>
            </g>
            <g transform="matrix(1,0,0,1,-69.6469,0)">
                <g transform="matrix(0.461424,0,0,0.481925,420.055,-193.813)">
                    <rect x="446.681" y="624.705" width="894.329" height="1170.12" style="fill:rgb(231,232,233);stroke:rgb(35,31,32);stroke-width:2.35px;"/>
                </g>
                <g transform="matrix(0.430696,0,0,0.489017,468.546,-204.804)">
                    <rect x="549.633" y="732.568" width="680.883" height="969.6" style="fill:white;"/>
                </g>
            </g>
        </g>
        <g transform="matrix(2.74384,0,0,1.14795,-278.416,2158.93)">
            <g>
                <g transform="matrix(0.461424,0,0,0.481925,-73.5674,-193.813)">
                    <rect x="446.681" y="624.705" width="894.329" height="1170.12" style="fill:rgb(231,232,233);stroke:rgb(35,31,32);stroke-width:2.35px;"/>
                </g>
                <g transform="matrix(0.430696,0,0,0.489017,-65.0769,-204.804)">
                    <rect x="549.633" y="732.568" width="680.883" height="969.6" style="fill:white;"/>
                </g>
            </g>
            <g transform="matrix(1,0,0,1,-69.6469,0)">
                <g transform="matrix(0.461424,0,0,0.481925,420.055,-193.813)">
                    <rect x="446.681" y="624.705" width="894.329" height="1170.12" style="fill:rgb(231,232,233);stroke:rgb(35,31,32);stroke-width:2.35px;"/>
                </g>
                <g transform="matrix(0.430696,0,0,0.489017,468.546,-204.804)">
                    <rect x="549.633" y="732.568" width="680.883" height="969.6" style="fill:white;"/>
                </g>
            </g>
        </g>
        <g transform="matrix(2.74384,0,0,1.1522,-278.416,2953.54)">
            <g>
                <g transform="matrix(0.461424,0,0,0.481925,-73.5674,-193.813)">
                    <rect x="446.681" y="624.705" width="894.329" height="1170.12" style="fill:rgb(231,232,233);stroke:rgb(35,31,32);stroke-width:2.34px;"/>
                </g>
                <g transform="matrix(0.430696,0,0,0.489017,-65.0769,-204.804)">
                    <rect x="549.633" y="732.568" width="680.883" height="969.6" style="fill:white;"/>
                </g>
            </g>
            <g transform="matrix(1,0,0,1,-69.6469,0)">
                <g transform="matrix(0.461424,0,0,0.481925,420.055,-193.813)">
                    <rect x="446.681" y="624.705" width="894.329" height="1170.12" style="fill:rgb(231,232,233);stroke:rgb(35,31,32);stroke-width:2.34px;"/>
                </g>
                <g transform="matrix(0.430696,0,0,0.489017,468.546,-204.804)">
                    <rect x="549.633" y="732.568" width="680.883" height="969.6" style="fill:white;"/>
                </g>
            </g>
        </g>
        <g transform="matrix(2.74384,0,0,1.14795,-278.416,1379.85)">
            <g>
                <g transform="matrix(0.461424,0,0,0.481925,-73.5674,-193.813)">
                    <rect x="446.681" y="624.705" width="894.329" height="1170.12" style="fill:rgb(231,232,233);stroke:rgb(35,31,32);stroke-width:2.35px;"/>
                </g>
                <g transform="matrix(0.430696,0,0,0.489017,-65.0769,-204.804)">
                    <rect x="549.633" y="732.568" width="680.883" height="969.6" style="fill:white;"/>
                </g>
            </g>
            <g transform="matrix(1,0,0,1,-69.6469,0)">
                <g transform="matrix(0.461424,0,0,0.481925,420.055,-193.813)">
                    <rect x="446.681" y="624.705" width="894.329" height="1170.12" style="fill:rgb(231,232,233);stroke:rgb(35,31,32);stroke-width:2.35px;"/>
                </g>
                <g transform="matrix(0.430696,0,0,0.489017,468.546,-204.804)">
                    <rect x="549.633" y="732.568" width="680.883" height="969.6" style="fill:white;"/>
                </g>
            </g>
        </g>
        <g transform="matrix(2.74384,0,0,1.14795,-278.416,3767.38)">
            <g>
                <g transform="matrix(0.461424,0,0,0.481925,-73.5674,-193.813)">
                    <rect x="446.681" y="624.705" width="894.329" height="1170.12" style="fill:rgb(231,232,233);stroke:rgb(35,31,32);stroke-width:2.35px;"/>
                </g>
                <g transform="matrix(0.430696,0,0,0.489017,-65.0769,-204.804)">
                    <rect x="549.633" y="732.568" width="680.883" height="969.6" style="fill:white;"/>
                </g>
            </g>
            <g transform="matrix(1,0,0,1,-69.6469,0)">
                <g transform="matrix(0.461424,0,0,0.481925,420.055,-193.813)">
                    <rect x="446.681" y="624.705" width="894.329" height="1170.12" style="fill:rgb(231,232,233);stroke:rgb(35,31,32);stroke-width:2.35px;"/>
                </g>
                <g transform="matrix(0.430696,0,0,0.489017,468.546,-204.804)">
                    <rect x="549.633" y="732.568" width="680.883" height="969.6" style="fill:white;"/>
                </g>
            </g>
        </g>
        <g transform="matrix(2.74384,0,0,1.15051,-469.516,-99.3901)">
            <g transform="matrix(0.461424,0,0,0.481925,420.055,-193.813)">
                <rect x="446.681" y="624.705" width="894.329" height="1170.12" style="fill:rgb(231,232,233);stroke:rgb(35,31,32);stroke-width:2.34px;"/>
            </g>
            <g transform="matrix(0.430696,0,0,0.489017,468.546,-204.804)">
                <rect x="549.633" y="732.568" width="680.883" height="969.6" style="fill:white;"/>
            </g>
        </g>
        <g transform="matrix(2.74384,0,0,2.74384,-1942.29,-1659.64)">
            <g transform="matrix(0.498134,0,0,0.498134,959.231,365.887)">
                <g transform="matrix(0.71,0,0,1,225.693,0)">
                    <g transform="matrix(72.98,0,0,72.98,1013.41,1358.34)">
                    </g>
                    <text x="778.253px" y="1358.34px" style="font-family:'Arial-BoldMT', 'Arial', sans-serif;font-weight:700;font-size:72.98px;fill:rgb(35,31,32);">Auteur</text>
                </g>
            </g>
            <g transform="matrix(0.498134,0,0,0.498134,942.392,319.57)">
                <g transform="matrix(0.71,0,0,1,225.693,0)">
                    <g transform="matrix(72.98,0,0,72.98,1110.76,1358.34)">
                    </g>
                    <text x="778.253px" y="1358.34px" style="font-family:'Arial-BoldMT', 'Arial', sans-serif;font-weight:700;font-size:72.98px;fill:rgb(35,31,32);">sous-titre</text>
                </g>
            </g>
            <g transform="matrix(0.498134,0,0,0.498134,973.579,275.618)">
                <g transform="matrix(0.71,0,0,1,225.693,0)">
                    <g transform="matrix(72.98,0,0,72.98,934.543,1358.34)">
                    </g>
                    <text x="778.253px" y="1358.34px" style="font-family:'Arial-BoldMT', 'Arial', sans-serif;font-weight:700;font-size:72.98px;fill:rgb(35,31,32);">T<tspan x="820.975px 841.251px " y="1358.34px 1358.34px ">it</tspan>re</text>
                </g>
            </g>
        </g>
        <g transform="matrix(1.13207,0,0,1.13207,892.036,1187.55)">
            <g transform="matrix(0.71,0,0,1,225.693,0)">
                <g transform="matrix(72.98,0,0,72.98,1013.41,1358.34)">
                </g>
                <text x="778.253px" y="1358.34px" style="font-family:'Arial-BoldMT', 'Arial', sans-serif;font-weight:700;font-size:72.98px;fill:rgb(35,31,32);">Auteur</text>
            </g>
        </g>
        <g transform="matrix(0.732496,0,0,0.732496,1031.32,3075.89)">
            <g transform="matrix(0.71,0,0,1,225.693,0)">
                <g transform="matrix(72.98,0,0,72.98,1844.87,1358.34)">
                </g>
                <text x="778.253px" y="1358.34px" style="font-family:'Arial-BoldMT', 'Arial', sans-serif;font-weight:700;font-size:72.98px;fill:rgb(35,31,32);">Chapitre 1...............................12</text>
            </g>
        </g>
        <g transform="matrix(0.732496,0,0,0.732496,1028.74,3307.65)">
            <g transform="matrix(0.71,0,0,1,225.693,0)">
                <g transform="matrix(72.98,0,0,72.98,1865.15,1358.34)">
                </g>
                <text x="778.253px" y="1358.34px" style="font-family:'Arial-BoldMT', 'Arial', sans-serif;font-weight:700;font-size:72.98px;fill:rgb(35,31,32);">Chapitre 2................................31</text>
            </g>
        </g>
        <g transform="matrix(1,0,0,1,8.42045,-97.6194)">
            <g transform="matrix(0.71,0,0,1,453.715,0)">
                <g transform="matrix(83.3333,0,0,83.3333,2245.56,3900.78)">
                </g>
                <text x="1564.53px" y="3900.78px" style="font-family:'Arial-ItalicMT', 'Arial', sans-serif;font-style:italic;font-size:83.333px;fill:rgb(35,31,32);">Page de Dédicace</text>
            </g>
        </g>
        <g transform="matrix(1,0,0,1,-1154.9,-97.6194)">
            <g transform="matrix(0.71,0,0,1,433.679,0)">
                <g transform="matrix(83.3333,0,0,83.3333,2371.1,3900.78)">
                </g>
                <text x="1495.44px" y="3900.78px" style="font-family:'Arial-ItalicMT', 'Arial', sans-serif;font-style:italic;font-size:83.333px;fill:rgb(35,31,32);">Page de Mention légale</text>
            </g>
        </g>
        <g transform="matrix(1,0,0,1,8.42045,713.374)">
            <g transform="matrix(0.71,0,0,1,451.98,0)">
                <g transform="matrix(83.3333,0,0,83.3333,2256.44,3900.78)">
                </g>
                <text x="1558.55px" y="3900.78px" style="font-family:'Arial-ItalicMT', 'Arial', sans-serif;font-style:italic;font-size:83.333px;fill:rgb(35,31,32);">T<tspan x="1598.68px 1645.03px " y="3900.78px 3900.78px ">ab</tspan>le des matières</text>
            </g>
        </g>
        <g transform="matrix(1,0,0,1,8.42045,-895.077)">
            <g transform="matrix(0.71,0,0,1,472.429,0)">
                <g transform="matrix(83.3333,0,0,83.3333,2128.32,3900.78)">
                </g>
                <text x="1629.07px" y="3900.78px" style="font-family:'Arial-ItalicMT', 'Arial', sans-serif;font-style:italic;font-size:83.333px;fill:rgb(35,31,32);">Page de T<tspan x="2012.56px 2031.07px " y="3900.78px 3900.78px ">it</tspan>re</text>
            </g>
        </g>
        <g transform="matrix(1,0,0,1,8.42045,-1674.16)">
            <g transform="matrix(0.71,0,0,1,465.637,0)">
                <g transform="matrix(83.3333,0,0,83.3333,2170.87,3900.78)">
                </g>
                <text x="1605.64px" y="3900.78px" style="font-family:'Arial-ItalicMT', 'Arial', sans-serif;font-style:italic;font-size:83.333px;fill:rgb(35,31,32);">Page de Garde</text>
            </g>
        </g>
        <g transform="matrix(1,0,0,1,8.42045,-2458.91)">
            <g transform="matrix(0.71,0,0,1,453.25,0)">
                <g transform="matrix(83.3333,0,0,83.3333,2248.48,3900.78)">
                </g>
                <text x="1562.93px" y="3900.78px" style="font-family:'Arial-ItalicMT', 'Arial', sans-serif;font-style:italic;font-size:83.333px;fill:rgb(35,31,32);">Page de Faux-titre</text>
            </g>
        </g>
        <g transform="matrix(0.815105,0,0,0.815105,1132.96,1522.51)">
            <g transform="matrix(0.71,0,0,1,225.693,0)">
                <g transform="matrix(72.98,0,0,72.98,1110.76,1358.34)">
                </g>
                <text x="778.253px" y="1358.34px" style="font-family:'Arial-BoldMT', 'Arial', sans-serif;font-weight:700;font-size:72.98px;fill:rgb(35,31,32);">sous-titre</text>
            </g>
        </g>
        <g transform="matrix(0.645518,0,0,0.645518,1188.84,3252.21)">
            <g transform="matrix(0.71,0,0,1,225.693,0)">
                <g transform="matrix(72.98,0,0,72.98,1792.2,1358.34)">
                </g>
                <text x="778.253px" y="1358.34px" style="font-family:'Arial-BoldMT', 'Arial', sans-serif;font-weight:700;font-size:72.98px;fill:rgb(35,31,32);">Section 1.1...........................12</text>
            </g>
        </g>
        <g transform="matrix(0.645518,0,0,0.645518,1188.84,3479.1)">
            <g transform="matrix(0.71,0,0,1,225.693,0)">
                <g transform="matrix(72.98,0,0,72.98,1792.2,1358.34)">
                </g>
                <text x="778.253px" y="1358.34px" style="font-family:'Arial-BoldMT', 'Arial', sans-serif;font-weight:700;font-size:72.98px;fill:rgb(35,31,32);">Section 2.1...........................31</text>
            </g>
        </g>
        <g transform="matrix(0.645518,0,0,0.645518,1188.84,3530.65)">
            <g transform="matrix(0.71,0,0,1,225.693,0)">
                <g transform="matrix(72.98,0,0,72.98,1792.2,1358.34)">
                </g>
                <text x="778.253px" y="1358.34px" style="font-family:'Arial-BoldMT', 'Arial', sans-serif;font-weight:700;font-size:72.98px;fill:rgb(35,31,32);">Section 2.2...........................43</text>
            </g>
        </g>
        <g transform="matrix(0.645518,0,0,0.645518,1188.84,3305.79)">
            <g transform="matrix(0.71,0,0,1,225.693,0)">
                <g transform="matrix(72.98,0,0,72.98,1792.2,1358.34)">
                </g>
                <text x="778.253px" y="1358.34px" style="font-family:'Arial-BoldMT', 'Arial', sans-serif;font-weight:700;font-size:72.98px;fill:rgb(35,31,32);">Section 1.2...........................16</text>
            </g>
        </g>
        <g transform="matrix(0.645518,0,0,0.645518,1188.84,3356.57)">
            <g transform="matrix(0.71,0,0,1,225.693,0)">
                <g transform="matrix(72.98,0,0,72.98,1792.2,1358.34)">
                </g>
                <text x="778.253px" y="1358.34px" style="font-family:'Arial-BoldMT', 'Arial', sans-serif;font-weight:700;font-size:72.98px;fill:rgb(35,31,32);">Section 1.3...........................23</text>
            </g>
        </g>
        <g transform="matrix(1.22709,0,0,1.03526,-706.523,2142.3)">
            <g transform="matrix(0.71,0,0,1,225.693,0)">
                <g transform="matrix(72.98,0,0,72.98,1347.3,1358.34)">
                </g>
                <text x="778.253px" y="1358.34px" style="font-family:'ArialMT', 'Arial', sans-serif;font-size:72.98px;fill:rgb(35,31,32);">@ mention légale</text>
            </g>
        </g>
        <g transform="matrix(0.815105,0,0,0.815105,1131.95,1271.18)">
            <g transform="matrix(0.71,0,0,1,225.693,0)">
                <g transform="matrix(72.98,0,0,72.98,1131,1358.34)">
                </g>
                <text x="778.253px" y="1358.34px" style="font-family:'Arial-BoldMT', 'Arial', sans-serif;font-weight:700;font-size:72.98px;fill:rgb(35,31,32);">Collection</text>
            </g>
        </g>
        <g transform="matrix(0.815105,0,0,0.815105,1075.58,2295.59)">
            <g transform="matrix(0.71,0,0,1,225.693,0)">
                <g transform="matrix(72.98,0,0,72.98,1419.14,1358.34)">
                </g>
                <text x="778.253px" y="1358.34px" style="font-family:'Arial-ItalicMT', 'Arial', sans-serif;font-style:italic;font-size:72.98px;fill:rgb(35,31,32);">À mon cher chien…</text>
            </g>
        </g>
        <g transform="matrix(0.815105,0,0,0.815105,1159.04,1771.48)">
            <g transform="matrix(0.71,0,0,1,225.693,0)">
                <g transform="matrix(72.98,0,0,72.98,1029.66,1358.34)">
                </g>
                <text x="778.253px" y="1358.34px" style="font-family:'Arial-BoldMT', 'Arial', sans-serif;font-weight:700;font-size:72.98px;fill:rgb(35,31,32);">Éditeur</text>
            </g>
        </g>
        <g transform="matrix(1.3668,0,0,1.3668,729.057,699.995)">
            <g transform="matrix(0.71,0,0,1,225.693,0)">
                <g transform="matrix(72.98,0,0,72.98,934.543,1358.34)">
                </g>
                <text x="778.253px" y="1358.34px" style="font-family:'Arial-BoldMT', 'Arial', sans-serif;font-weight:700;font-size:72.98px;fill:rgb(35,31,32);">T<tspan x="820.975px 841.251px " y="1358.34px 1358.34px ">it</tspan>re</text>
            </g>
        </g>
        <g transform="matrix(1.3668,0,0,1.3668,1355.89,-1186.51)">
            <g transform="matrix(0.71,0,0,1,225.693,0)">
                <g transform="matrix(54.8728,0,0,54.8728,808.77,1358.34)">
                </g>
                <text x="778.253px" y="1358.34px" style="font-family:'Arial-BoldMT', 'Arial', sans-serif;font-weight:700;font-size:54.873px;fill:rgb(35,31,32);">1</text>
            </g>
        </g>
        <g transform="matrix(1.3668,0,0,1.3668,1364.26,-495.241)">
            <g transform="matrix(0.71,0,0,1,225.693,0)">
                <g transform="matrix(54.8728,0,0,54.8728,808.77,1358.34)">
                </g>
                <text x="778.253px" y="1358.34px" style="font-family:'Arial-BoldMT', 'Arial', sans-serif;font-weight:700;font-size:54.873px;fill:rgb(35,31,32);">3</text>
            </g>
        </g>
        <g transform="matrix(1.3668,0,0,1.3668,1348.21,1069.81)">
            <g transform="matrix(0.71,0,0,1,225.693,0)">
                <g transform="matrix(54.8728,0,0,54.8728,808.77,1358.34)">
                </g>
                <text x="778.253px" y="1358.34px" style="font-family:'Arial-BoldMT', 'Arial', sans-serif;font-weight:700;font-size:54.873px;fill:rgb(35,31,32);">7</text>
            </g>
        </g>
        <g transform="matrix(1.3668,0,0,1.3668,1348.21,1867.27)">
            <g transform="matrix(0.71,0,0,1,225.693,0)">
                <g transform="matrix(54.8728,0,0,54.8728,808.77,1358.34)">
                </g>
                <text x="778.253px" y="1358.34px" style="font-family:'Arial-BoldMT', 'Arial', sans-serif;font-weight:700;font-size:54.873px;fill:rgb(35,31,32);">9</text>
            </g>
        </g>
        <g transform="matrix(1.3668,0,0,1.3668,1347.42,289.51)">
            <g transform="matrix(0.71,0,0,1,225.693,0)">
                <g transform="matrix(54.8728,0,0,54.8728,808.77,1358.34)">
                </g>
                <text x="778.253px" y="1358.34px" style="font-family:'Arial-BoldMT', 'Arial', sans-serif;font-weight:700;font-size:54.873px;fill:rgb(35,31,32);">5</text>
            </g>
        </g>
        <g transform="matrix(1.3668,0,0,1.3668,1325.42,2677.04)">
            <g transform="matrix(0.71,0,0,1,225.693,0)">
                <g transform="matrix(54.8728,0,0,54.8728,835.024,1358.34)">
                </g>
                <text x="778.253px" y="1358.34px" style="font-family:'Arial-BoldMT', 'Arial', sans-serif;font-weight:700;font-size:54.873px;fill:rgb(35,31,32);">1<tspan x="804.506px " y="1358.34px ">1</tspan></text>
            </g>
        </g>
        <g transform="matrix(1.3668,0,0,1.3668,-1032.64,-495.241)">
            <g transform="matrix(0.71,0,0,1,225.693,0)">
                <g transform="matrix(72.98,0,0,72.98,818.841,1358.34)">
                </g>
                <text x="778.253px" y="1358.34px" style="font-family:'Arial-BoldMT', 'Arial', sans-serif;font-weight:700;font-size:72.98px;fill:rgb(35,31,32);">2</text>
            </g>
        </g>
        <g transform="matrix(1.3668,0,0,1.3668,-1048.68,1069.81)">
            <g transform="matrix(0.71,0,0,1,225.693,0)">
                <g transform="matrix(72.98,0,0,72.98,818.841,1358.34)">
                </g>
                <text x="778.253px" y="1358.34px" style="font-family:'Arial-BoldMT', 'Arial', sans-serif;font-weight:700;font-size:72.98px;fill:rgb(35,31,32);">6</text>
            </g>
        </g>
        <g transform="matrix(1.3668,0,0,1.3668,-1048.68,1867.27)">
            <g transform="matrix(0.71,0,0,1,225.693,0)">
                <g transform="matrix(72.98,0,0,72.98,818.841,1358.34)">
                </g>
                <text x="778.253px" y="1358.34px" style="font-family:'Arial-BoldMT', 'Arial', sans-serif;font-weight:700;font-size:72.98px;fill:rgb(35,31,32);">8</text>
            </g>
        </g>
        <g transform="matrix(1.3668,0,0,1.3668,-1049.48,289.51)">
            <g transform="matrix(0.71,0,0,1,225.693,0)">
                <g transform="matrix(72.98,0,0,72.98,818.841,1358.34)">
                </g>
                <text x="778.253px" y="1358.34px" style="font-family:'Arial-BoldMT', 'Arial', sans-serif;font-weight:700;font-size:72.98px;fill:rgb(35,31,32);">4</text>
            </g>
        </g>
        <g transform="matrix(1.3668,0,0,1.3668,-1065.48,2680.04)">
            <g transform="matrix(0.71,0,0,1,225.693,0)">
                <g transform="matrix(72.98,0,0,72.98,859.429,1358.34)">
                </g>
                <text x="778.253px" y="1358.34px" style="font-family:'Arial-BoldMT', 'Arial', sans-serif;font-weight:700;font-size:72.98px;fill:rgb(35,31,32);">10</text>
            </g>
        </g>
    </g>
</svg>
