<?xml version="1.0" encoding="UTF-8" standalone="no"?>
<svg
   version="1.2"
   width="71.787949mm"
   height="13.257064mm"
   viewBox="0 0 40.851297 7.5440008"
   id="svg86"
   xmlns:xlink="http://www.w3.org/1999/xlink"
   xmlns="http://www.w3.org/2000/svg"
   xmlns:svg="http://www.w3.org/2000/svg">
  <defs
     id="defs90" />
  <style
     text="style/css"
     id="style2"><![CDATA[
tspan { white-space: pre; }
]]></style>
  <!-- Page: 1/1 -->
  <line
     stroke-linejoin="round"
     stroke-linecap="round"
     stroke-width="0.1"
     stroke="currentColor"
     x1="0.050000001"
     y1="6"
     x2="40.8013"
     y2="6"
     id="line4" />
  <line
     stroke-linejoin="round"
     stroke-linecap="round"
     stroke-width="0.1"
     stroke="currentColor"
     x1="0.050000001"
     y1="5"
     x2="40.8013"
     y2="5"
     id="line6" />
  <line
     stroke-linejoin="round"
     stroke-linecap="round"
     stroke-width="0.1"
     stroke="currentColor"
     x1="0.050000001"
     y1="4"
     x2="40.8013"
     y2="4"
     id="line8" />
  <line
     stroke-linejoin="round"
     stroke-linecap="round"
     stroke-width="0.1"
     stroke="currentColor"
     x1="0.050000001"
     y1="3"
     x2="40.8013"
     y2="3"
     id="line10" />
  <line
     stroke-linejoin="round"
     stroke-linecap="round"
     stroke-width="0.1"
     stroke="currentColor"
     x1="0.050000001"
     y1="2"
     x2="40.8013"
     y2="2"
     id="line12" />
  <rect
     x="37.522999"
     y="6.9000001"
     width="1.9563"
     height="0.2"
     ry="0.1"
     fill="currentColor"
     id="rect14" />
  <rect
     x="23.445801"
     y="2"
     width="0.19"
     height="4"
     ry="0.0000"
     fill="currentColor"
     id="rect16" />
  <rect
     x="36.759102"
     y="2"
     width="0.19"
     height="4"
     ry="0.0000"
     fill="currentColor"
     id="rect18" />
  <rect
     x="34.716702"
     y="3"
     width="0.13"
     height="3.3139"
     ry="0.039999999"
     fill="currentColor"
     id="rect20" />
  <a
     style="color:inherit"
     xlink:href="textedit:///Users/philippeperret/Library/Mobile%20Documents/com%7eapple%7eCloudDocs/ICARE_EDITIONS/_LIVRES_/Musique/_Analyses_/Beethoven_Clair_de_Lune/Images/motifs/motif_M1-untrimed.ly:28:28:29"
     id="a24"
     transform="translate(-22.7622,-12.3811)">
    <path
       transform="matrix(0.004,0,0,-0.004,56.3047,18.8811)"
       d="m 218,136 c 55,0 108,-28 108,-89 0,-71 -55,-121 -102,-149 -35,-21 -75,-34 -116,-34 -55,0 -108,28 -108,89 0,71 55,121 102,149 35,21 75,34 116,34 z"
       fill="currentColor"
       id="path22" />
  </a>
  <rect
     x="31.7145"
     y="3"
     width="0.13"
     height="3.3139"
     ry="0.039999999"
     fill="currentColor"
     id="rect26" />
  <a
     style="color:inherit"
     xlink:href="textedit:///Users/philippeperret/Library/Mobile%20Documents/com%7eapple%7eCloudDocs/ICARE_EDITIONS/_LIVRES_/Musique/_Analyses_/Beethoven_Clair_de_Lune/Images/motifs/motif_M1-untrimed.ly:28:24:25"
     id="a30"
     transform="translate(-22.7622,-12.3811)">
    <path
       transform="matrix(0.004,0,0,-0.004,53.3025,18.8811)"
       d="m 218,136 c 55,0 108,-28 108,-89 0,-71 -55,-121 -102,-149 -35,-21 -75,-34 -116,-34 -55,0 -108,28 -108,89 0,71 55,121 102,149 35,21 75,34 116,34 z"
       fill="currentColor"
       id="path28" />
  </a>
  <rect
     x="28.7122"
     y="2.5"
     width="0.13"
     height="3.3139"
     ry="0.039999999"
     fill="currentColor"
     id="rect32" />
  <a
     style="color:inherit"
     xlink:href="textedit:///Users/philippeperret/Library/Mobile%20Documents/com%7eapple%7eCloudDocs/ICARE_EDITIONS/_LIVRES_/Musique/_Analyses_/Beethoven_Clair_de_Lune/Images/motifs/motif_M1-untrimed.ly:28:22:23"
     id="a36"
     transform="translate(-22.7622,-12.3811)">
    <path
       transform="matrix(0.004,0,0,-0.004,50.3002,18.3811)"
       d="m 218,136 c 55,0 108,-28 108,-89 0,-71 -55,-121 -102,-149 -35,-21 -75,-34 -116,-34 -55,0 -108,28 -108,89 0,71 55,121 102,149 35,21 75,34 116,34 z"
       fill="currentColor"
       id="path34" />
  </a>
  <rect
     x="15.3765"
     y="2.5"
     width="0.13"
     height="3.3139"
     ry="0.039999999"
     fill="currentColor"
     id="rect38" />
  <a
     style="color:inherit"
     xlink:href="textedit:///Users/philippeperret/Library/Mobile%20Documents/com%7eapple%7eCloudDocs/ICARE_EDITIONS/_LIVRES_/Musique/_Analyses_/Beethoven_Clair_de_Lune/Images/motifs/motif_M1-untrimed.ly:28:6:7"
     id="a42"
     transform="translate(-22.7622,-12.3811)">
    <path
       transform="matrix(0.004,0,0,-0.004,36.9645,18.3811)"
       d="m 218,136 c 55,0 108,-28 108,-89 0,-71 -55,-121 -102,-149 -35,-21 -75,-34 -116,-34 -55,0 -108,28 -108,89 0,71 55,121 102,149 35,21 75,34 116,34 z"
       fill="currentColor"
       id="path40" />
  </a>
  <rect
     x="39.0233"
     y="3.5"
     width="0.13"
     height="3.3139"
     ry="0.039999999"
     fill="currentColor"
     id="rect44" />
  <a
     style="color:inherit"
     xlink:href="textedit:///Users/philippeperret/Library/Mobile%20Documents/com%7eapple%7eCloudDocs/ICARE_EDITIONS/_LIVRES_/Musique/_Analyses_/Beethoven_Clair_de_Lune/Images/motifs/motif_M1-untrimed.ly:28:34:35"
     id="a48"
     transform="translate(-22.7622,-12.3811)">
    <path
       transform="matrix(0.004,0,0,-0.004,60.6113,19.3811)"
       d="m 218,136 c 55,0 108,-28 108,-89 0,-71 -55,-121 -102,-149 -35,-21 -75,-34 -116,-34 -55,0 -108,28 -108,89 0,71 55,121 102,149 35,21 75,34 116,34 z"
       fill="currentColor"
       id="path46" />
  </a>
  <a
     style="color:inherit"
     xlink:href="textedit:///Users/philippeperret/Library/Mobile%20Documents/com%7eapple%7eCloudDocs/ICARE_EDITIONS/_LIVRES_/Musique/_Analyses_/Beethoven_Clair_de_Lune/Images/motifs/motif_M1-untrimed.ly:28:8:9"
     id="a52"
     transform="translate(-22.7622,-12.3811)">
    <path
       transform="matrix(0.004,0,0,-0.004,39.9667,17.8811)"
       d="m 218,136 c 55,0 108,-28 108,-89 0,-71 -55,-121 -102,-149 -35,-21 -75,-34 -116,-34 -55,0 -108,28 -108,89 0,71 55,121 102,149 35,21 75,34 116,34 z"
       fill="currentColor"
       id="path50" />
  </a>
  <rect
     x="12.3742"
     y="2.5"
     width="0.13"
     height="3.3139"
     ry="0.039999999"
     fill="currentColor"
     id="rect54" />
  <a
     style="color:inherit"
     xlink:href="textedit:///Users/philippeperret/Library/Mobile%20Documents/com%7eapple%7eCloudDocs/ICARE_EDITIONS/_LIVRES_/Musique/_Analyses_/Beethoven_Clair_de_Lune/Images/motifs/motif_M1-untrimed.ly:26:2:3"
     id="a64"
     transform="translate(-22.7622,-12.3811)">
    <path
       transform="matrix(0.004,0,0,-0.004,27.0622,14.3811)"
       d="m 216,-312 c 0,-10 -8,-19 -18,-19 -10,0 -19,9 -19,19 v 145 l -83,-31 v -158 c 0,-10 -9,-19 -19,-19 -10,0 -18,9 -18,19 v 145 l -32,-12 c -2,-1 -5,-1 -7,-1 -11,0 -20,9 -20,20 v 60 c 0,8 5,16 13,19 l 46,16 V 51 L 27,40 C 25,39 22,39 20,39 9,39 0,48 0,59 v 60 c 0,8 5,15 13,18 l 46,17 v 158 c 0,10 8,19 18,19 10,0 19,-9 19,-19 V 167 l 83,31 v 158 c 0,10 9,19 19,19 10,0 18,-9 18,-19 V 211 l 32,12 c 2,1 5,1 7,1 11,0 20,-9 20,-20 v -60 c 0,-8 -5,-16 -13,-19 L 216,109 V -51 l 32,11 c 2,1 5,1 7,1 11,0 20,-9 20,-20 v -60 c 0,-8 -5,-15 -13,-18 l -46,-17 z M 96,65 V -95 l 83,30 V 95 Z"
       fill="currentColor"
       id="path56" />
    <path
       transform="matrix(0.004,0,0,-0.004,28.1622,15.8811)"
       d="m 216,-312 c 0,-10 -8,-19 -18,-19 -10,0 -19,9 -19,19 v 145 l -83,-31 v -158 c 0,-10 -9,-19 -19,-19 -10,0 -18,9 -18,19 v 145 l -32,-12 c -2,-1 -5,-1 -7,-1 -11,0 -20,9 -20,20 v 60 c 0,8 5,16 13,19 l 46,16 V 51 L 27,40 C 25,39 22,39 20,39 9,39 0,48 0,59 v 60 c 0,8 5,15 13,18 l 46,17 v 158 c 0,10 8,19 18,19 10,0 19,-9 19,-19 V 167 l 83,31 v 158 c 0,10 9,19 19,19 10,0 18,-9 18,-19 V 211 l 32,12 c 2,1 5,1 7,1 11,0 20,-9 20,-20 v -60 c 0,-8 -5,-16 -13,-19 L 216,109 V -51 l 32,11 c 2,1 5,1 7,1 11,0 20,-9 20,-20 v -60 c 0,-8 -5,-15 -13,-18 l -46,-17 z M 96,65 V -95 l 83,30 V 95 Z"
       fill="currentColor"
       id="path58" />
    <path
       transform="matrix(0.004,0,0,-0.004,29.2622,13.8811)"
       d="m 216,-312 c 0,-10 -8,-19 -18,-19 -10,0 -19,9 -19,19 v 145 l -83,-31 v -158 c 0,-10 -9,-19 -19,-19 -10,0 -18,9 -18,19 v 145 l -32,-12 c -2,-1 -5,-1 -7,-1 -11,0 -20,9 -20,20 v 60 c 0,8 5,16 13,19 l 46,16 V 51 L 27,40 C 25,39 22,39 20,39 9,39 0,48 0,59 v 60 c 0,8 5,15 13,18 l 46,17 v 158 c 0,10 8,19 18,19 10,0 19,-9 19,-19 V 167 l 83,31 v 158 c 0,10 9,19 19,19 10,0 18,-9 18,-19 V 211 l 32,12 c 2,1 5,1 7,1 11,0 20,-9 20,-20 v -60 c 0,-8 -5,-16 -13,-19 L 216,109 V -51 l 32,11 c 2,1 5,1 7,1 11,0 20,-9 20,-20 v -60 c 0,-8 -5,-15 -13,-18 l -46,-17 z M 96,65 V -95 l 83,30 V 95 Z"
       fill="currentColor"
       id="path60" />
    <path
       transform="matrix(0.004,0,0,-0.004,30.3622,15.3811)"
       d="m 216,-312 c 0,-10 -8,-19 -18,-19 -10,0 -19,9 -19,19 v 145 l -83,-31 v -158 c 0,-10 -9,-19 -19,-19 -10,0 -18,9 -18,19 v 145 l -32,-12 c -2,-1 -5,-1 -7,-1 -11,0 -20,9 -20,20 v 60 c 0,8 5,16 13,19 l 46,16 V 51 L 27,40 C 25,39 22,39 20,39 9,39 0,48 0,59 v 60 c 0,8 5,15 13,18 l 46,17 v 158 c 0,10 8,19 18,19 10,0 19,-9 19,-19 V 167 l 83,31 v 158 c 0,10 9,19 19,19 10,0 18,-9 18,-19 V 211 l 32,12 c 2,1 5,1 7,1 11,0 20,-9 20,-20 v -60 c 0,-8 -5,-16 -13,-19 L 216,109 V -51 l 32,11 c 2,1 5,1 7,1 11,0 20,-9 20,-20 v -60 c 0,-8 -5,-15 -13,-18 l -46,-17 z M 96,65 V -95 l 83,30 V 95 Z"
       fill="currentColor"
       id="path62" />
  </a>
  <path
     d="M 1.864,7.54 H 1.84 C 1.408,7.54 1.06,7.188 1.06,6.752 1.06,6.52 1.272,6.34 1.508,6.34 c 0.216,0 0.38,0.188 0.38,0.412 0,0.208 -0.172,0.38 -0.38,0.38 -0.044,0 -0.084,-0.008 -0.124,-0.024 0.104,0.156 0.272,0.26 0.468,0.26 H 1.868 Z M 2.644,5.812 C 2.916,5.716 3.096,5.432 3.096,5.156 3.096,4.796 2.832,4.44 2.404,4.396 2.5,4.86 2.588,5.32 2.644,5.812 Z M 1.096,4.888 c 0,0.54 0.516,0.988 1.056,0.988 0.112,0 0.22,-0.008 0.328,-0.024 C 2.424,5.344 2.332,4.872 2.228,4.396 1.912,4.428 1.732,4.64 1.732,4.872 c 0,0.176 0.1,0.364 0.324,0.492 0.02,0.02 0.028,0.04 0.028,0.06 0,0.044 -0.04,0.088 -0.088,0.088 C 1.984,5.512 1.972,5.508 1.96,5.504 1.64,5.332 1.492,5.044 1.492,4.764 1.492,4.412 1.724,4.068 2.132,3.976 2.076,3.744 2.016,3.508 1.948,3.276 1.52,3.76 1.096,4.248 1.096,4.888 Z M 2.14,6.048 C 1.388,6.048 0.808,5.36 0.808,4.552 0.808,3.844 1.332,3.328 1.8,2.788 1.724,2.54 1.652,2.288 1.62,2.028 1.596,1.82 1.592,1.612 1.592,1.404 c 0,-0.46 0.22,-0.896 0.596,-1.168 0.024,-0.02 0.056,-0.02 0.08,0 0.284,0.336 0.532,0.98 0.532,1.432 0,0.572 -0.344,1.02 -0.72,1.456 0.084,0.272 0.156,0.552 0.224,0.828 0.016,0 0.036,-0.004 0.052,-0.004 0.62,0 1.024,0.512 1.024,1.044 0,0.304 -0.132,0.616 -0.428,0.84 C 2.864,5.9 2.764,5.944 2.66,5.976 2.672,6.116 2.68,6.256 2.68,6.396 2.68,6.472 2.676,6.552 2.672,6.628 2.644,7.104 2.32,7.528 1.864,7.54 L 1.868,7.368 C 2.24,7.36 2.48,7 2.504,6.604 2.508,6.532 2.512,6.456 2.512,6.384 2.512,6.26 2.508,6.14 2.496,6.016 2.38,6.036 2.264,6.048 2.14,6.048 Z M 2.512,1.336 C 2.512,1.116 2.496,1.02 2.432,0.82 2.036,1.012 1.784,1.416 1.784,1.856 1.784,2.152 1.856,2.388 1.928,2.632 2.248,2.244 2.512,1.84 2.512,1.336 Z"
     fill="currentColor"
     id="path66"
     style="stroke-width:0.004" />
  <a
     style="color:inherit"
     xlink:href="textedit:///Users/philippeperret/Library/Mobile%20Documents/com%7eapple%7eCloudDocs/ICARE_EDITIONS/_LIVRES_/Musique/_Analyses_/Beethoven_Clair_de_Lune/Images/motifs/motif_M1-untrimed.ly:28:3:4"
     id="a70"
     transform="translate(-22.7622,-12.3811)">
    <path
       transform="matrix(0.004,0,0,-0.004,33.9622,18.3811)"
       d="m 218,136 c 55,0 108,-28 108,-89 0,-71 -55,-121 -102,-149 -35,-21 -75,-34 -116,-34 -55,0 -108,28 -108,89 0,71 55,121 102,149 35,21 75,34 116,34 z"
       fill="currentColor"
       id="path68" />
  </a>
  <rect
     x="25.709999"
     y="2"
     width="0.13"
     height="3.3139"
     ry="0.039999999"
     fill="currentColor"
     id="rect72" />
  <a
     style="color:inherit"
     xlink:href="textedit:///Users/philippeperret/Library/Mobile%20Documents/com%7eapple%7eCloudDocs/ICARE_EDITIONS/_LIVRES_/Musique/_Analyses_/Beethoven_Clair_de_Lune/Images/motifs/motif_M1-untrimed.ly:28:18:19"
     id="a76"
     transform="translate(-22.7622,-12.3811)">
    <path
       transform="matrix(0.004,0,0,-0.004,47.298,17.8811)"
       d="m 218,136 c 55,0 108,-28 108,-89 0,-71 -55,-121 -102,-149 -35,-21 -75,-34 -116,-34 -55,0 -108,28 -108,89 0,71 55,121 102,149 35,21 75,34 116,34 z"
       fill="currentColor"
       id="path74" />
  </a>
  <rect
     x="18.378799"
     y="2"
     width="0.13"
     height="3.3139"
     ry="0.039999999"
     fill="currentColor"
     id="rect78" />
  <rect
     x="21.381001"
     y="2"
     width="0.13"
     height="3.3139"
     ry="0.039999999"
     fill="currentColor"
     id="rect80" />
  <a
     style="color:inherit"
     xlink:href="textedit:///Users/philippeperret/Library/Mobile%20Documents/com%7eapple%7eCloudDocs/ICARE_EDITIONS/_LIVRES_/Musique/_Analyses_/Beethoven_Clair_de_Lune/Images/motifs/motif_M1-untrimed.ly:28:12:13"
     id="a84"
     transform="translate(-22.7622,-12.3811)">
    <path
       transform="matrix(0.004,0,0,-0.004,42.969,17.8811)"
       d="m 218,136 c 55,0 108,-28 108,-89 0,-71 -55,-121 -102,-149 -35,-21 -75,-34 -116,-34 -55,0 -108,28 -108,89 0,71 55,121 102,149 35,21 75,34 116,34 z"
       fill="currentColor"
       id="path82" />
  </a>
</svg>
