<?xml version="1.0" encoding="UTF-8" standalone="no"?>
<!DOCTYPE svg PUBLIC "-//W3C//DTD SVG 1.1//EN" "http://www.w3.org/Graphics/SVG/1.1/DTD/svg11.dtd">
<svg width="100%" height="100%" viewBox="0 0 1582 1207" version="1.1" xmlns="http://www.w3.org/2000/svg" xmlns:xlink="http://www.w3.org/1999/xlink" xml:space="preserve" xmlns:serif="http://www.serif.com/" style="fill-rule:evenodd;clip-rule:evenodd;stroke-linecap:round;stroke-linejoin:round;stroke-miterlimit:1.5;">
    <g transform="matrix(1,0,0,1,-5.34022,-634.662)">
        <g transform="matrix(0.856912,0,0,0.893665,-356.656,169.157)">
            <rect x="446.681" y="624.705" width="894.329" height="1170.12" style="fill:rgb(231,232,233);stroke:rgb(35,31,32);stroke-width:2.62px;"/>
        </g>
        <g transform="matrix(0.856912,0,0,0.893665,424.584,169.157)">
            <rect x="446.681" y="624.705" width="894.329" height="1170.12" style="fill:rgb(231,232,233);stroke:rgb(35,31,32);stroke-width:2.62px;"/>
        </g>
        <g transform="matrix(0.85878,0,0,0.722886,-396.682,374.983)">
            <rect x="549.633" y="732.568" width="680.883" height="969.6" style="fill:white;stroke:rgb(35,31,32);stroke-width:1.26px;"/>
        </g>
        <g transform="matrix(1.08867,0,0,1.05284,-561.531,-31.1562)">
            <rect x="549.633" y="732.568" width="680.883" height="969.6" style="fill:none;stroke:rgb(237,28,36);stroke-width:0.93px;"/>
        </g>
        <g transform="matrix(1.08867,0,0,1.05284,221.53,-31.1562)">
            <rect x="549.633" y="732.568" width="680.883" height="969.6" style="fill:none;stroke:rgb(237,28,36);stroke-width:0.93px;"/>
        </g>
        <g transform="matrix(0.85878,0,0,0.0722845,-396.682,1562.79)">
            <rect x="549.633" y="732.568" width="680.883" height="969.6" style="fill:white;stroke:rgb(35,31,32);stroke-width:1.64px;"/>
        </g>
        <g transform="matrix(0.85878,0,0,0.0722845,-396.682,768.49)">
            <rect x="549.633" y="732.568" width="680.883" height="969.6" style="fill:white;stroke:rgb(35,31,32);stroke-width:1.64px;"/>
        </g>
        <g transform="matrix(0.838137,0,0,0.0722845,481.249,768.49)">
            <rect x="549.633" y="732.568" width="680.883" height="969.6" style="fill:white;stroke:rgb(35,31,32);stroke-width:1.68px;"/>
        </g>
        <g transform="matrix(0.838137,0,0,0.0722845,481.27,1562.79)">
            <rect x="549.633" y="732.568" width="680.883" height="969.6" style="fill:white;stroke:rgb(35,31,32);stroke-width:1.68px;"/>
        </g>
        <g transform="matrix(0.838137,0,0,0.722886,481.27,374.983)">
            <rect x="549.633" y="732.568" width="680.883" height="969.6" style="fill:white;stroke:rgb(35,31,32);stroke-width:1.28px;"/>
        </g>
        <g transform="matrix(1,0,0,1,-588.759,63.9985)">
            <g transform="matrix(20.8333,0,0,20.8333,664.092,861.002)">
            </g>
            <text x="664.092px" y="861.002px" style="font-family:'ArialMT', 'Arial', sans-serif;font-size:20.833px;fill:rgb(35,31,32);">liquam <tspan x="731.479px " y="861.002px ">d</tspan>apibus <tspan x="810.473px " y="861.002px ">i</tspan>psum <tspan x="872.061px " y="861.002px ">v</tspan>itae <tspan x="922.084px " y="861.002px ">s</tspan>em. <tspan x="973.246px " y="861.002px ">U</tspan>t <tspan x="1000.1px " y="861.002px ">e</tspan>get <tspan x="1046.66px " y="861.002px ">m</tspan>auris <tspan x="1115.19px " y="861.002px ">a</tspan>c <tspan x="1143.2px " y="861.002px ">n</tspan>unc <tspan x="1194.4px " y="861.002px ">l</tspan>uctus</text>
            <text x="664.092px" y="886.002px" style="font-family:'ArialMT', 'Arial', sans-serif;font-size:20.833px;fill:rgb(35,31,32);">ornare. <tspan x="744.647px " y="886.002px ">P</tspan>hasellus <tspan x="849.524px " y="886.002px ">e</tspan>nim <tspan x="909.226px " y="886.002px ">a</tspan>ugue, <tspan x="987.492px " y="886.002px ">r</tspan>utrum <tspan x="1062.23px " y="886.002px ">t</tspan>empus, <tspan x="1150.88px " y="886.002px ">b</tspan>landit <tspan x="1226.82px " y="886.002px ">i</tspan>n,</text>
            <text x="664.092px" y="911.002px" style="font-family:'ArialMT', 'Arial', sans-serif;font-size:20.833px;fill:rgb(35,31,32);">vehicula <tspan x="747.332px " y="911.002px ">e</tspan>u, <tspan x="783.096px " y="911.002px ">n</tspan>eque. <tspan x="853.62px " y="911.002px ">S</tspan>ed <tspan x="897.492px " y="911.002px ">c</tspan>onsequat <tspan x="1000.44px " y="911.002px ">n</tspan>unc. <tspan x="1058.2px " y="911.002px ">P</tspan>roin <tspan x="1113.64px " y="911.002px ">m</tspan>etus. <tspan x="1182.97px " y="911.002px ">D</tspan>uis <tspan x="1231.45px " y="911.002px ">a</tspan>t</text>
            <text x="664.092px" y="936.002px" style="font-family:'ArialMT', 'Arial', sans-serif;font-size:20.833px;fill:rgb(35,31,32);">mi <tspan x="693.653px " y="936.002px ">n</tspan>on <tspan x="735.992px " y="936.002px ">t</tspan>ellus <tspan x="792.205px " y="936.002px ">m</tspan>alesuada <tspan x="901.702px " y="936.002px ">t</tspan>incidunt. <tspan x="992.665px " y="936.002px ">C</tspan>ras <tspan x="1044.23px " y="936.002px ">i</tspan>n <tspan x="1068.02px " y="936.002px ">n</tspan>eque. <tspan x="1139.32px " y="936.002px ">S</tspan>ed <tspan x="1183.97px " y="936.002px ">l</tspan>acinia,</text>
            <text x="664.092px" y="961.002px" style="font-family:'ArialMT', 'Arial', sans-serif;font-size:20.833px;fill:rgb(35,31,32);">felis <tspan x="708.337px " y="961.002px ">u</tspan>t <tspan x="732.908px " y="961.002px ">s</tspan>odales <tspan x="811.913px " y="961.002px ">p</tspan>retium, <tspan x="894.366px " y="961.002px ">j</tspan>usto <tspan x="945.569px " y="961.002px ">s</tspan>apien <tspan x="1014.16px " y="961.002px ">h</tspan>endrerit <tspan x="1103.58px " y="961.002px ">e</tspan>st, <tspan x="1144.35px " y="961.002px ">e</tspan>t <tspan x="1168.93px " y="961.002px ">c</tspan>onvallis</text>
            <text x="664.092px" y="986.002px" style="font-family:'ArialMT', 'Arial', sans-serif;font-size:20.833px;fill:rgb(35,31,32);">nisi <tspan x="701.776px " y="986.002px ">q</tspan>uam <tspan x="760.313px " y="986.002px ">s</tspan>it <tspan x="787.57px " y="986.002px ">a</tspan>met <tspan x="840.309px " y="986.002px ">e</tspan>rat. <tspan x="888.42px " y="986.002px ">S</tspan>uspendisse <tspan x="1014.14px " y="986.002px ">c</tspan>onsequat <tspan x="1116.7px " y="986.002px ">n</tspan>ibh <tspan x="1162.51px 1174.1px 1180.52px " y="986.002px 986.002px 986.002px ">a m</tspan>auris.</text>
            <text x="664.092px" y="1011px" style="font-family:'ArialMT', 'Arial', sans-serif;font-size:20.833px;fill:rgb(35,31,32);">Curabitur <tspan x="761.64px " y="1011px ">l</tspan>ibero <tspan x="824.46px " y="1011px ">l</tspan>igula, <tspan x="890.758px " y="1011px ">f</tspan>aucibus <tspan x="980.219px " y="1011px ">a</tspan>t, <tspan x="1015.25px " y="1011px ">m</tspan>ollis <tspan x="1080.36px " y="1011px ">o</tspan>rnare, <tspan x="1158.23px " y="1011px ">m</tspan>attis <tspan x="1225.66px " y="1011px ">e</tspan>t,</text>
            <text x="664.092px" y="1036px" style="font-family:'ArialMT', 'Arial', sans-serif;font-size:20.833px;fill:rgb(35,31,32);">libero.</text>
            <text x="664.092px" y="1061px" style="font-family:'ArialMT', 'Arial', sans-serif;font-size:20.833px;fill:rgb(35,31,32);">Aliquam <tspan x="747.452px " y="1061px ">p</tspan>ulvinar <tspan x="828.502px " y="1061px ">c</tspan>ongue <tspan x="904.945px " y="1061px ">p</tspan>ede. <tspan x="965.172px " y="1061px ">F</tspan>usce <tspan x="1030px " y="1061px ">c</tspan>ondimentum <tspan x="1163.15px " y="1061px ">t</tspan>urpis <tspan x="1222.19px " y="1061px ">v</tspan>el</text>
            <text x="664.092px" y="1086px" style="font-family:'ArialMT', 'Arial', sans-serif;font-size:20.833px;fill:rgb(35,31,32);">dolor<tspan x="709.268px 715.056px 720.626px " y="1086px 1086px 1086px ">. U</tspan>t <tspan x="747.03px " y="1086px ">b</tspan>landit. <tspan x="819.779px " y="1086px ">S</tspan>ed <tspan x="862.418px " y="1086px ">e</tspan>lementum <tspan x="971.046px " y="1086px ">j</tspan>usto <tspan x="1020.62px " y="1086px ">q</tspan>uis <tspan x="1064.41px " y="1086px ">s</tspan>em. <tspan x="1115.13px " y="1086px ">S</tspan>ed <tspan x="1157.77px " y="1086px ">e</tspan>u <tspan x="1186.51px " y="1086px ">o</tspan>rci <tspan x="1225.65px " y="1086px ">e</tspan>u</text>
            <text x="664.092px" y="1111px" style="font-family:'ArialMT', 'Arial', sans-serif;font-size:20.833px;fill:rgb(35,31,32);">ante <tspan x="714.766px " y="1111px ">i</tspan>aculis <tspan x="782.785px " y="1111px ">a</tspan>ccumsan. <tspan x="893.651px " y="1111px ">S</tspan>ed <tspan x="940.846px " y="1111px ">s</tspan>uscipit <tspan x="1020.44px " y="1111px ">d</tspan>olor <tspan x="1076.89px " y="1111px ">q</tspan>uis <tspan x="1125.24px " y="1111px ">m</tspan>i. <tspan x="1163.14px " y="1111px ">C</tspan>urabitur</text>
            <text x="664.092px" y="1136px" style="font-family:'ArialMT', 'Arial', sans-serif;font-size:20.833px;fill:rgb(35,31,32);">ultrices <tspan x="739.343px " y="1136px ">n</tspan>onummy <tspan x="840.076px " y="1136px ">l</tspan>acus. <tspan x="903.76px " y="1136px ">M</tspan>orbi <tspan x="965.115px " y="1136px ">i</tspan>psum <tspan x="1029.95px " y="1136px ">i</tspan>psum, <tspan x="1100.57px " y="1136px ">a</tspan>dipiscing <tspan x="1202.49px " y="1136px ">e</tspan>get,</text>
            <text x="664.092px" y="1161px" style="font-family:'ArialMT', 'Arial', sans-serif;font-size:20.833px;fill:rgb(35,31,32);">tincidunt <tspan x="754.124px " y="1161px ">v</tspan>itae, <tspan x="816.355px " y="1161px ">p</tspan>haretra <tspan x="906.387px " y="1161px ">a</tspan>t, <tspan x="941.986px " y="1161px ">t</tspan>ellus. <tspan x="1008.85px " y="1161px ">N</tspan>ulla <tspan x="1068.76px " y="1161px ">g</tspan>ravida, <tspan x="1155.31px " y="1161px ">a</tspan>rcu <tspan x="1208.27px " y="1161px ">e</tspan>get</text>
            <text x="664.092px" y="1186px" style="font-family:'ArialMT', 'Arial', sans-serif;font-size:20.833px;fill:rgb(35,31,32);">dictum <tspan x="738.844px " y="1186px ">e</tspan>leifend, <tspan x="831.002px " y="1186px ">v</tspan>elit <tspan x="881.442px " y="1186px ">l</tspan>igula <tspan x="943.478px " y="1186px ">s</tspan>uscipit <tspan x="1026.34px " y="1186px ">n</tspan>ibh, <tspan x="1084.91px " y="1186px ">s</tspan>agittis <tspan x="1163.14px " y="1186px ">i</tspan>mperdiet</text>
            <text x="664.092px" y="1211px" style="font-family:'ArialMT', 'Arial', sans-serif;font-size:20.833px;fill:rgb(35,31,32);">metus <tspan x="730.934px " y="1211px ">n</tspan>unc <tspan x="786.22px " y="1211px ">n</tspan>on <tspan x="831.089px " y="1211px ">p</tspan>ede. <tspan x="891.326px 905.221px " y="1211px 1211px ">Ae</tspan>nean <tspan x="973.264px " y="1211px ">c</tspan>ongue <tspan x="1051.72px " y="1211px ">p</tspan>ede <tspan x="1108.18px " y="1211px ">i</tspan>n <tspan x="1134.5px " y="1211px ">n</tspan>isi <tspan x="1175.87px " y="1211px ">t</tspan>ristique</text>
            <text x="664.092px" y="1236px" style="font-family:'ArialMT', 'Arial', sans-serif;font-size:20.833px;fill:rgb(35,31,32);">interdum. <tspan x="757.547px " y="1236px ">S</tspan>ed <tspan x="801.228px " y="1236px ">c</tspan>ommodo, <tspan x="905.1px " y="1236px ">i</tspan>psum <tspan x="967.285px " y="1236px ">a</tspan>c <tspan x="995.901px " y="1236px ">d</tspan>ignissim <tspan x="1089.35px " y="1236px ">u</tspan>llamcorper<tspan x="1197.03px 1202.82px 1209.43px " y="1236px 1236px 1236px ">, o</tspan>dio</text>
            <text x="664.092px" y="1261px" style="font-family:'ArialMT', 'Arial', sans-serif;font-size:20.833px;fill:rgb(35,31,32);">nulla <tspan x="720.973px " y="1261px ">v</tspan>enenatis <tspan x="823.02px " y="1261px ">n</tspan>isi, <tspan x="872.933px " y="1261px ">i</tspan>n <tspan x="902.013px " y="1261px ">p</tspan>orta <tspan x="962.363px " y="1261px ">d</tspan>olor <tspan x="1021.55px " y="1261px ">n</tspan>eque <tspan x="1092.35px " y="1261px ">v</tspan>enenatis <tspan x="1194.4px " y="1261px ">l</tspan>acus.</text>
            <text x="664.092px" y="1286px" style="font-family:'ArialMT', 'Arial', sans-serif;font-size:20.833px;fill:rgb(35,31,32);">Pellentesque fermentum. Mauris sit amet ligula ut tellus gravida</text>
            <text x="664.092px" y="1311px" style="font-family:'ArialMT', 'Arial', sans-serif;font-size:20.833px;fill:rgb(35,31,32);">mattis. <tspan x="733.289px 746.035px 757.622px " y="1311px 1311px 1311px ">Ves</tspan>tibulum <tspan x="843.044px " y="1311px ">a</tspan>nte <tspan x="891.438px " y="1311px ">i</tspan>psum <tspan x="954.857px " y="1311px ">p</tspan>rimis <tspan x="1018.26px " y="1311px ">i</tspan>n <tspan x="1042.32px " y="1311px ">f</tspan>aucibus <tspan x="1127.76px " y="1311px ">o</tspan>rci <tspan x="1169.18px " y="1311px ">l</tspan>uctus <tspan x="1231.45px " y="1311px ">e</tspan>t</text>
            <text x="664.092px" y="1336px" style="font-family:'ArialMT', 'Arial', sans-serif;font-size:20.833px;fill:rgb(35,31,32);">ultrices posuere cubilia Curae;</text>
            <text x="664.092px" y="1361px" style="font-family:'ArialMT', 'Arial', sans-serif;font-size:20.833px;fill:rgb(35,31,32);">V<tspan x="676.838px 688.424px " y="1361px 1361px ">es</tspan>tibulum <tspan x="771.524px " y="1361px ">s</tspan>emper <tspan x="846.516px " y="1361px ">e</tspan>nim <tspan x="897.196px " y="1361px ">n</tspan>on <tspan x="937.479px " y="1361px ">e</tspan>ros. <tspan x="989.319px " y="1361px ">S</tspan>ed <tspan x="1031.91px " y="1361px ">v</tspan>itae <tspan x="1081.44px " y="1361px ">a</tspan>rcu. <tspan x="1132.13px 1146.03px " y="1361px 1361px ">Al</tspan>iquam <tspan x="1212.92px " y="1361px ">e</tspan>rat</text>
            <text x="664.092px" y="1386px" style="font-family:'ArialMT', 'Arial', sans-serif;font-size:20.833px;fill:rgb(35,31,32);">volutpat. <tspan x="756.156px " y="1386px ">P</tspan>raesent <tspan x="852.849px " y="1386px ">o</tspan>dio <tspan x="905.545px " y="1386px ">n</tspan>isl, <tspan x="955.902px " y="1386px ">s</tspan>uscipit <tspan x="1038.68px " y="1386px ">a</tspan>t, <tspan x="1075.15px " y="1386px ">r</tspan>honcus <tspan x="1162.58px " y="1386px ">s</tspan>it <tspan x="1196.72px " y="1386px ">a</tspan>met,</text>
            <text x="664.092px" y="1411px" style="font-family:'ArialMT', 'Arial', sans-serif;font-size:20.833px;fill:rgb(35,31,32);">porttitor <tspan x="743.919px " y="1411px ">s</tspan>it <tspan x="773.951px " y="1411px ">a</tspan>met, <tspan x="835.254px " y="1411px ">l</tspan>eo. <tspan x="876.216px 890.111px " y="1411px 1411px ">Ae</tspan>nean <tspan x="957.243px " y="1411px ">h</tspan>endrerit <tspan x="1048.67px " y="1411px ">e</tspan>st. <tspan x="1091.44px " y="1411px ">E</tspan>tiam <tspan x="1153.9px " y="1411px ">a</tspan>c <tspan x="1185.1px " y="1411px ">a</tspan>ugue.</text>
            <text x="664.092px" y="1436px" style="font-family:'ArialMT', 'Arial', sans-serif;font-size:20.833px;fill:rgb(35,31,32);">Morbi <tspan x="728.48px " y="1436px ">t</tspan>incidunt <tspan x="818.371px " y="1436px ">n</tspan>eque <tspan x="888.599px " y="1436px ">u</tspan>t <tspan x="918.269px " y="1436px ">l</tspan>acus. <tspan x="984.987px " y="1436px ">D</tspan>uis <tspan x="1038.96px " y="1436px ">v</tspan>ulputate <tspan x="1135.81px " y="1436px ">c</tspan>ursus <tspan x="1209.46px " y="1436px ">o</tspan>rci.</text>
            <text x="664.092px" y="1461px" style="font-family:'ArialMT', 'Arial', sans-serif;font-size:20.833px;fill:rgb(35,31,32);">Mauris <tspan x="744.962px " y="1461px ">j</tspan>usto <tspan x="807.329px " y="1461px ">l</tspan>orem, <tspan x="883.571px " y="1461px ">s</tspan>celerisque <tspan x="1007.31px " y="1461px ">s</tspan>it <tspan x="1046.5px " y="1461px ">a</tspan>met, <tspan x="1116.96px " y="1461px ">p</tspan>lacerat <tspan x="1209.44px " y="1461px ">s</tspan>ed,</text>
            <text x="664.092px" y="1486px" style="font-family:'ArialMT', 'Arial', sans-serif;font-size:20.833px;fill:rgb(35,31,32);">condimentum <tspan x="794.804px " y="1486px ">i</tspan>n, <tspan x="822.459px " y="1486px ">l</tspan>eo. <tspan x="861.7px " y="1486px ">D</tspan>onec <tspan x="927.573px " y="1486px ">u</tspan>rna <tspan x="974.922px " y="1486px ">e</tspan>st, <tspan x="1014.15px " y="1486px ">s</tspan>emper <tspan x="1089.27px " y="1486px ">q</tspan>uis, <tspan x="1138.93px " y="1486px ">a</tspan>uctor <tspan x="1202.49px " y="1486px ">e</tspan>get,</text>
            <text x="664.092px" y="1511px" style="font-family:'ArialMT', 'Arial', sans-serif;font-size:20.833px;fill:rgb(35,31,32);">ultrices <tspan x="739.945px " y="1511px ">i</tspan>n, <tspan x="771.811px " y="1511px ">p</tspan>urus. <tspan x="839.577px " y="1511px ">E</tspan>tiam <tspan x="902.694px " y="1511px ">r</tspan>utrum. <tspan x="976.578px 990.473px " y="1511px 1511px ">Al</tspan>iquam <tspan x="1061.71px " y="1511px ">b</tspan>landit <tspan x="1132.96px " y="1511px ">d</tspan>ui <tspan x="1170.63px 1182.21px 1192.08px " y="1511px 1511px 1511px ">a l</tspan>ibero.</text>
            <text x="664.092px" y="1536px" style="font-family:'ArialMT', 'Arial', sans-serif;font-size:20.833px;fill:rgb(35,31,32);">Praesent <tspan x="762.71px " y="1536px ">t</tspan>ortor <tspan x="826.568px " y="1536px ">t</tspan>ortor<tspan x="874.043px 879.831px 895.065px " y="1536px 1536px 1536px ">, b</tspan>ibendum <tspan x="1001.8px " y="1536px ">v</tspan>ehicula, <tspan x="1099.26px " y="1536px ">a</tspan>ccumsan <tspan x="1209.44px " y="1536px ">s</tspan>ed,</text>
        </g>
        <g transform="matrix(1,0,0,1,277.846,63.9985)">
            <text x="664.092px" y="861.002px" style="font-family:'ArialMT', 'Arial', sans-serif;font-size:20.833px;fill:rgb(35,31,32);">adipiscing <tspan x="764.382px " y="861.002px ">a</tspan>, <tspan x="789.396px " y="861.002px ">p</tspan>ede. <tspan x="849.169px " y="861.002px ">N</tspan>ullam <tspan x="921.637px " y="861.002px ">e</tspan>t <tspan x="946.651px " y="861.002px ">t</tspan>ortor<tspan x="994.126px 999.914px 1007.55px " y="861.002px 861.002px 861.002px ">. S</tspan>uspendisse <tspan x="1134.49px " y="861.002px ">t</tspan>empor <tspan x="1206.96px " y="861.002px ">l</tspan>eo</text>
            <text x="664.092px" y="886.002px" style="font-family:'ArialMT', 'Arial', sans-serif;font-size:20.833px;fill:rgb(35,31,32);">quis <tspan x="710.223px " y="886.002px ">n</tspan>unc <tspan x="763.313px " y="886.002px ">f</tspan>ringilla <tspan x="837.226px " y="886.002px ">v</tspan>olutpat. <tspan x="923.895px " y="886.002px ">D</tspan>onec <tspan x="992.03px " y="886.002px ">r</tspan>utrum <tspan x="1060.13px " y="886.002px ">u</tspan>llamcorper <tspan x="1176.88px " y="886.002px ">l</tspan>orem.</text>
            <text x="664.092px" y="911.002px" style="font-family:'ArialMT', 'Arial', sans-serif;font-size:20.833px;fill:rgb(35,31,32);">Nunc <tspan x="726.577px " y="911.002px ">t</tspan>incidunt <tspan x="818.024px " y="911.002px ">s</tspan>agittis <tspan x="896.714px " y="911.002px ">a</tspan>ugue. <tspan x="974.286px " y="911.002px ">Q</tspan>uisque <tspan x="1065.73px " y="911.002px ">l</tspan>acinia. <tspan x="1144.43px " y="911.002px ">P</tspan>hasellus</text>
            <text x="664.092px" y="936.002px" style="font-family:'ArialMT', 'Arial', sans-serif;font-size:20.833px;fill:rgb(35,31,32);">sollicitudin.</text>
            <text x="664.092px" y="961.002px" style="font-family:'ArialMT', 'Arial', sans-serif;font-size:20.833px;fill:rgb(35,31,32);">Mauris <tspan x="740.174px " y="961.002px ">p</tspan>urus. <tspan x="811.648px " y="961.002px ">D</tspan>onec <tspan x="885.441px " y="961.002px ">e</tspan>st <tspan x="926.805px " y="961.002px ">n</tspan>unc, <tspan x="991.341px " y="961.002px ">o</tspan>rnare <tspan x="1065.13px " y="961.002px ">n</tspan>on, <tspan x="1119.25px " y="961.002px ">a</tspan>liquet <tspan x="1194.22px " y="961.002px ">n</tspan>on,</text>
            <text x="664.092px" y="986.002px" style="font-family:'ArialMT', 'Arial', sans-serif;font-size:20.833px;fill:rgb(35,31,32);">tempus <tspan x="740.101px " y="986.002px ">v</tspan>el, <tspan x="780.212px " y="986.002px ">d</tspan>olor<tspan x="825.388px 831.177px 838.867px " y="986.002px 986.002px 986.002px ">. I</tspan>nteger <tspan x="911.418px " y="986.002px ">s</tspan>apien <tspan x="980.501px " y="986.002px ">n</tspan>ibh, <tspan x="1033.37px " y="986.002px ">e</tspan>gestas <tspan x="1114.03px " y="986.002px ">u</tspan>t, <tspan x="1144.88px " y="986.002px ">c</tspan>ursus <tspan x="1213.93px " y="986.002px ">s</tspan>it</text>
            <text x="664.092px" y="1011px" style="font-family:'ArialMT', 'Arial', sans-serif;font-size:20.833px;fill:rgb(35,31,32);">amet, <tspan x="722.115px " y="1011px ">f</tspan>aucibus <tspan x="805.631px " y="1011px ">a</tspan>, <tspan x="828.925px " y="1011px ">s</tspan>apien. <tspan x="902.024px 914.77px 926.357px " y="1011px 1011px 1011px ">Ves</tspan>tibulum <tspan x="1009.85px " y="1011px ">p</tspan>urus <tspan x="1067.88px " y="1011px ">p</tspan>urus, <tspan x="1131.71px " y="1011px ">e</tspan>lementum</text>
            <text x="664.092px" y="1036px" style="font-family:'ArialMT', 'Arial', sans-serif;font-size:20.833px;fill:rgb(35,31,32);">ac, <tspan x="700.126px " y="1036px ">l</tspan>uctus <tspan x="762.793px " y="1036px ">u</tspan>llamcorper<tspan x="870.479px 876.267px 884.511px " y="1036px 1036px 1036px ">, o</tspan>rnare <tspan x="952.975px " y="1036px ">v</tspan>itae, <tspan x="1011.01px " y="1036px ">m</tspan>assa. <tspan x="1086.4px " y="1036px ">N</tspan>ullam <tspan x="1159.48px " y="1036px ">p</tspan>osuere</text>
            <text x="664.092px" y="1061px" style="font-family:'ArialMT', 'Arial', sans-serif;font-size:20.833px;fill:rgb(35,31,32);">sem <tspan x="710.086px " y="1061px ">u</tspan>t <tspan x="734.098px " y="1061px ">m</tspan>auris. <tspan x="809.033px " y="1061px ">N</tspan>ullam <tspan x="880.499px " y="1061px ">v</tspan>elit. <tspan x="929.973px " y="1061px ">Q</tspan>uisque <tspan x="1014.21px " y="1061px ">s</tspan>odales. <tspan x="1098.44px " y="1061px ">D</tspan>onec <tspan x="1165.3px " y="1061px ">s</tspan>uscipit</text>
            <text x="664.092px" y="1086px" style="font-family:'ArialMT', 'Arial', sans-serif;font-size:20.833px;fill:rgb(35,31,32);">suscipit <tspan x="740.91px " y="1086px ">e</tspan>rat. <tspan x="789.947px " y="1086px ">N</tspan>am <tspan x="841.284px " y="1086px ">b</tspan>landit. <tspan x="915.813px " y="1086px ">P</tspan>raesent <tspan x="1006.55px " y="1086px ">c</tspan>ongue <tspan x="1082.25px " y="1086px ">l</tspan>orem <tspan x="1141.69px " y="1086px ">n</tspan>on <tspan x="1183.8px " y="1086px ">d</tspan>olor<tspan x="1228.98px " y="1086px ">.</tspan></text>
            <text x="664.092px" y="1111px" style="font-family:'ArialMT', 'Arial', sans-serif;font-size:20.833px;fill:rgb(35,31,32);">Maecenas vitae erat. Ut ac purus vel purus dapibus gravida.</text>
            <text x="664.092px" y="1136px" style="font-family:'ArialMT', 'Arial', sans-serif;font-size:20.833px;fill:rgb(35,31,32);">Nullam <tspan x="736.279px " y="1136px ">l</tspan>orem <tspan x="795.731px " y="1136px ">s</tspan>apien, <tspan x="870.268px " y="1136px ">t</tspan>empus <tspan x="945.944px " y="1136px ">a</tspan>c, <tspan x="981.093px " y="1136px ">f</tspan>ringilla <tspan x="1054.45px " y="1136px ">a</tspan>t, <tspan x="1084.97px " y="1136px ">e</tspan>lementum <tspan x="1195.39px " y="1136px ">s</tspan>ed,</text>
            <text x="664.092px" y="1161px" style="font-family:'ArialMT', 'Arial', sans-serif;font-size:20.833px;fill:rgb(35,31,32);">purus. <tspan x="729.346px " y="1161px ">D</tspan>uis <tspan x="778.374px " y="1161px ">m</tspan>olestie <tspan x="863.302px " y="1161px ">p</tspan>ede. <tspan x="922.788px 936.307px 940.936px " y="1161px 1161px 1161px ">Viv</tspan>amus <tspan x="1009.65px " y="1161px ">q</tspan>uis <tspan x="1055.22px " y="1161px ">o</tspan>dio <tspan x="1101.96px " y="1161px ">s</tspan>it <tspan x="1130.14px " y="1161px ">a</tspan>met <tspan x="1183.81px " y="1161px ">l</tspan>ibero</text>
            <text x="664.092px" y="1186px" style="font-family:'ArialMT', 'Arial', sans-serif;font-size:20.833px;fill:rgb(35,31,32);">sodales <tspan x="740.943px " y="1186px ">t</tspan>incidunt. <tspan x="829.371px " y="1186px ">N</tspan>am <tspan x="878.401px " y="1186px ">s</tspan>it <tspan x="904.278px " y="1186px ">a</tspan>met <tspan x="955.637px " y="1186px ">m</tspan>etus <tspan x="1017.41px " y="1186px ">v</tspan>itae <tspan x="1066.46px " y="1186px ">l</tspan>ectus <tspan x="1125.93px " y="1186px ">u</tspan>llamcorper</text>
            <text x="664.092px" y="1211px" style="font-family:'ArialMT', 'Arial', sans-serif;font-size:20.833px;fill:rgb(35,31,32);">dignissim. <tspan x="764.122px " y="1211px ">S</tspan>uspendisse <tspan x="890.824px " y="1211px ">l</tspan>eo. <tspan x="931.823px " y="1211px ">P</tspan>raesent <tspan x="1022.62px " y="1211px ">t</tspan>urpis <tspan x="1080.97px " y="1211px ">j</tspan>usto, <tspan x="1138.17px " y="1211px ">a</tspan>liquet <tspan x="1206.97px " y="1211px ">a</tspan>c,</text>
            <text x="664.092px" y="1236px" style="font-family:'ArialMT', 'Arial', sans-serif;font-size:20.833px;fill:rgb(35,31,32);">accumsan <tspan x="765.53px " y="1236px ">v</tspan>el, <tspan x="804.438px " y="1236px ">p</tspan>osuere <tspan x="886.213px " y="1236px ">q</tspan>uis, <tspan x="936.708px " y="1236px ">p</tspan>ede. <tspan x="995.33px " y="1236px ">M</tspan>orbi <tspan x="1053.91px " y="1236px ">p</tspan>retium <tspan x="1129.87px " y="1236px ">l</tspan>acus. <tspan x="1190.78px " y="1236px ">C</tspan>ras</text>
            <text x="664.092px" y="1261px" style="font-family:'ArialMT', 'Arial', sans-serif;font-size:20.833px;fill:rgb(35,31,32);">non <tspan x="708.733px " y="1261px ">m</tspan>etus. <tspan x="781.135px " y="1261px ">D</tspan>onec <tspan x="851.237px " y="1261px ">l</tspan>aoreet <tspan x="924.819px " y="1261px ">s</tspan>em <tspan x="974.058px " y="1261px ">a</tspan>t <tspan x="1001.31px " y="1261px ">e</tspan>lit. <tspan x="1043.62px " y="1261px ">C</tspan>um <tspan x="1097.48px " y="1261px ">s</tspan>ociis <tspan x="1159.46px " y="1261px ">n</tspan>atoque</text>
            <text x="664.092px" y="1286px" style="font-family:'ArialMT', 'Arial', sans-serif;font-size:20.833px;fill:rgb(35,31,32);">penatibus <tspan x="761.689px " y="1286px ">e</tspan>t <tspan x="786.309px " y="1286px ">m</tspan>agnis <tspan x="860.713px " y="1286px ">d</tspan>is <tspan x="894.589px " y="1286px ">p</tspan>arturient <tspan x="989.847px " y="1286px ">m</tspan>ontes, <tspan x="1071.2px " y="1286px ">n</tspan>ascetur <tspan x="1158.35px " y="1286px ">r</tspan>idiculus</text>
            <text x="664.092px" y="1311px" style="font-family:'ArialMT', 'Arial', sans-serif;font-size:20.833px;fill:rgb(35,31,32);">mus. V<tspan x="728.566px 733.194px " y="1311px 1311px ">iv</tspan>amus iaculis dolor id felis. <tspan x="986.869px " y="1311px ">P</tspan>hasellus cursus nulla non</text>
            <text x="664.092px" y="1336px" style="font-family:'ArialMT', 'Arial', sans-serif;font-size:20.833px;fill:rgb(35,31,32);">odio. <tspan x="713.994px " y="1336px ">N</tspan>ulla <tspan x="766.194px 777.781px 782.506px " y="1336px 1336px 1336px ">a l</tspan>ectus <tspan x="841.655px " y="1336px ">s</tspan>ed <tspan x="879.97px " y="1336px ">n</tspan>isi <tspan x="915.956px " y="1336px ">l</tspan>uctus <tspan x="975.105px " y="1336px ">p</tspan>retium. <tspan x="1055.09px " y="1336px ">S</tspan>ed <tspan x="1096.88px " y="1336px ">e</tspan>gestas <tspan x="1174.57px " y="1336px ">r</tspan>utrum</text>
            <text x="664.092px" y="1361px" style="font-family:'ArialMT', 'Arial', sans-serif;font-size:20.833px;fill:rgb(35,31,32);">odio. <tspan x="725.733px " y="1361px ">N</tspan>unc <tspan x="790.832px " y="1361px ">o</tspan>rnare <tspan x="867.519px " y="1361px ">a</tspan>rcu. <tspan x="930.299px " y="1361px ">Q</tspan>uisque <tspan x="1024.36px " y="1361px ">a</tspan>t <tspan x="1058.2px " y="1361px ">a</tspan>ugue <tspan x="1132.6px " y="1361px ">a</tspan>c <tspan x="1171.07px " y="1361px ">m</tspan>agna</text>
            <text x="664.092px" y="1386px" style="font-family:'ArialMT', 'Arial', sans-serif;font-size:20.833px;fill:rgb(35,31,32);">sollicitudin <tspan x="771.251px " y="1386px ">s</tspan>odales. <tspan x="859.897px " y="1386px ">D</tspan>onec <tspan x="931.168px " y="1386px ">n</tspan>ulla <tspan x="986.234px " y="1386px ">j</tspan>usto, <tspan x="1047.08px " y="1386px ">a</tspan>dipiscing <tspan x="1150.78px " y="1386px ">s</tspan>it <tspan x="1182.66px " y="1386px ">a</tspan>met,</text>
            <text x="664.092px" y="1411px" style="font-family:'ArialMT', 'Arial', sans-serif;font-size:20.833px;fill:rgb(35,31,32);">feugiat ac, facilisis euismod, risus.</text>
            <text x="664.092px" y="1436px" style="font-family:'ArialMT', 'Arial', sans-serif;font-size:20.833px;fill:rgb(35,31,32);">Pellentesque <tspan x="791.136px " y="1436px ">t</tspan>incidunt, <tspan x="881.101px " y="1436px ">d</tspan>olor <tspan x="934.007px " y="1436px ">e</tspan>u <tspan x="963.761px " y="1436px ">d</tspan>ignissim <tspan x="1057.17px " y="1436px ">m</tspan>ollis, <tspan x="1122.79px " y="1436px ">j</tspan>usto <tspan x="1173.37px " y="1436px ">s</tspan>apien</text>
            <text x="664.092px" y="1461px" style="font-family:'ArialMT', 'Arial', sans-serif;font-size:20.833px;fill:rgb(35,31,32);">iaculis <tspan x="728.796px " y="1461px ">p</tspan>ede, <tspan x="787.742px " y="1461px ">v</tspan>el <tspan x="821.185px " y="1461px ">t</tspan>incidunt <tspan x="905.593px " y="1461px ">l</tspan>acus <tspan x="961.04px " y="1461px ">n</tspan>isl <tspan x="999.112px " y="1461px ">s</tspan>it <tspan x="1026.76px " y="1461px ">a</tspan>met <tspan x="1079.88px " y="1461px ">m</tspan>etus. <tspan x="1149.22px " y="1461px ">F</tspan>usce <tspan x="1212.76px " y="1461px ">a</tspan>c</text>
            <text x="664.092px" y="1486px" style="font-family:'ArialMT', 'Arial', sans-serif;font-size:20.833px;fill:rgb(35,31,32);">est <tspan x="698.371px " y="1486px ">v</tspan>itae <tspan x="748.866px " y="1486px ">p</tspan>urus <tspan x="807.468px " y="1486px ">v</tspan>arius <tspan x="869.528px " y="1486px ">t</tspan>ristique. <tspan x="954.752px " y="1486px ">P</tspan>hasellus <tspan x="1051.57px " y="1486px ">m</tspan>attis <tspan x="1113.62px " y="1486px ">o</tspan>rnare <tspan x="1180.33px " y="1486px ">l</tspan>igula.</text>
            <text x="664.092px" y="1511px" style="font-family:'ArialMT', 'Arial', sans-serif;font-size:20.833px;fill:rgb(35,31,32);">Donec <tspan x="734.274px " y="1511px ">i</tspan>d <tspan x="760.45px " y="1511px ">n</tspan>ibh. <tspan x="815.587px 828.333px 839.919px " y="1511px 1511px 1511px ">Ves</tspan>tibulum <tspan x="927.456px " y="1511px ">m</tspan>etus <tspan x="994.149px " y="1511px ">q</tspan>uam, <tspan x="1062.01px " y="1511px ">u</tspan>ltrices <tspan x="1137.96px " y="1511px ">i</tspan>n, <tspan x="1169.92px " y="1511px ">s</tspan>agittis</text>
            <g transform="matrix(20.8333,0,0,20.8333,1185.24,1536)">
            </g>
            <text x="664.092px" y="1536px" style="font-family:'ArialMT', 'Arial', sans-serif;font-size:20.833px;fill:rgb(35,31,32);">tincidunt, gravida et, sapien. Sed bibendum, lectus vitae</text>
        </g>
        <g transform="matrix(0.498134,0,0,0.498134,296.832,549.725)">
            <rect x="754.542" y="1280.74" width="522.725" height="105.407" style="fill:rgb(7,159,219);"/>
            <g transform="matrix(0.71,0,0,1,225.693,0)">
                <g transform="matrix(75.281,0,0,75.281,1447.7,1358.34)">
                </g>
                <text x="778.253px" y="1358.34px" style="font-family:'Arial-BoldMT', 'Arial', sans-serif;font-weight:700;font-size:75.281px;fill:white;stroke:rgb(7,159,219);stroke-width:2.31px;stroke-linecap:butt;stroke-miterlimit:2;">Marges intérieures</text>
            </g>
        </g>
        <g transform="matrix(0.498134,0,0,0.498134,-176.709,983.561)">
            <rect x="754.542" y="1280.74" width="691.973" height="105.407" style="fill:rgb(7,159,219);"/>
            <g transform="matrix(0.71,0,0,1,225.693,0)">
                <g transform="matrix(75.281,0,0,75.281,1686.07,1358.34)">
                </g>
                <text x="778.253px" y="1358.34px" style="font-family:'Arial-BoldMT', 'Arial', sans-serif;font-weight:700;font-size:75.281px;fill:white;stroke:rgb(7,159,219);stroke-width:2.31px;stroke-linecap:butt;stroke-miterlimit:2;">Pied de page gauche/pair</text>
            </g>
        </g>
        <g transform="matrix(0.498134,0,0,0.498134,-136.543,189.26)">
            <rect x="754.542" y="1280.74" width="525.622" height="105.407" style="fill:rgb(7,159,219);"/>
            <g transform="matrix(0.71,0,0,1,225.693,0)">
                <g transform="matrix(75.281,0,0,75.281,1451.78,1358.34)">
                </g>
                <text x="778.253px" y="1358.34px" style="font-family:'Arial-BoldMT', 'Arial', sans-serif;font-weight:700;font-size:75.281px;fill:white;stroke:rgb(7,159,219);stroke-width:2.31px;stroke-linecap:butt;stroke-miterlimit:2;">Entête gauche/pair</text>
            </g>
        </g>
        <g transform="matrix(0.498134,0,0,0.498134,684.318,983.561)">
            <rect x="754.542" y="1280.74" width="685.971" height="105.407" style="fill:rgb(7,159,219);"/>
            <g transform="matrix(0.71,0,0,1,225.693,0)">
                <g transform="matrix(75.281,0,0,75.281,1677.62,1358.34)">
                </g>
                <text x="778.253px" y="1358.34px" style="font-family:'Arial-BoldMT', 'Arial', sans-serif;font-weight:700;font-size:75.281px;fill:white;stroke:rgb(7,159,219);stroke-width:2.31px;stroke-linecap:butt;stroke-miterlimit:2;">Pied de page droit/impair</text>
            </g>
        </g>
        <g transform="matrix(0.498134,0,0,0.498134,724.484,189.5)">
            <rect x="754.542" y="1280.74" width="519.619" height="105.407" style="fill:rgb(7,159,219);"/>
            <g transform="matrix(0.71,0,0,1,225.693,0)">
                <g transform="matrix(75.281,0,0,75.281,1443.32,1358.34)">
                </g>
                <text x="778.253px" y="1358.34px" style="font-family:'Arial-BoldMT', 'Arial', sans-serif;font-weight:700;font-size:75.281px;fill:white;stroke:rgb(7,159,219);stroke-width:2.31px;stroke-linecap:butt;stroke-miterlimit:2;">Entête droit/impair</text>
            </g>
        </g>
        <g transform="matrix(0.498134,0,0,0.498134,300.955,-3.31897)">
            <rect x="754.542" y="1280.74" width="492.999" height="105.407" style="fill:rgb(7,159,219);"/>
            <g transform="matrix(0.71,0,0,1,225.693,0)">
                <g transform="matrix(75.281,0,0,75.281,1405.83,1358.34)">
                </g>
                <text x="778.253px" y="1358.34px" style="font-family:'Arial-BoldMT', 'Arial', sans-serif;font-weight:700;font-size:75.281px;fill:white;stroke:rgb(7,159,219);stroke-width:2.31px;stroke-linecap:butt;stroke-miterlimit:2;">Reliure/Charnière</text>
            </g>
        </g>
        <g transform="matrix(0.498134,0,0,0.498134,-147.525,12.8502)">
            <rect x="754.542" y="1280.74" width="341.341" height="105.407" style="fill:rgb(7,159,219);"/>
            <g transform="matrix(0.71,0,0,1,225.693,0)">
                <g transform="matrix(75.281,0,0,75.281,1192.22,1358.34)">
                </g>
                <text x="778.253px" y="1358.34px" style="font-family:'Arial-BoldMT', 'Arial', sans-serif;font-weight:700;font-size:75.281px;fill:white;stroke:rgb(7,159,219);stroke-width:2.31px;stroke-linecap:butt;stroke-miterlimit:2;">Fond perdu</text>
            </g>
        </g>
        <g transform="matrix(0.498134,0,0,0.498134,316.69,161.078)">
            <rect x="754.542" y="1280.74" width="421.698" height="105.407" style="fill:rgb(7,159,219);"/>
            <g transform="matrix(0.71,0,0,1,225.693,0)">
                <g transform="matrix(75.281,0,0,75.281,1305.4,1358.34)">
                </g>
                <text x="778.253px" y="1358.34px" style="font-family:'Arial-BoldMT', 'Arial', sans-serif;font-weight:700;font-size:75.281px;fill:white;stroke:rgb(7,159,219);stroke-width:2.31px;stroke-linecap:butt;stroke-miterlimit:2;">Marges hautes</text>
            </g>
        </g>
        <g transform="matrix(0.498134,0,0,0.498134,326.21,1015.95)">
            <rect x="754.542" y="1280.74" width="430.702" height="105.407" style="fill:rgb(7,159,219);"/>
            <g transform="matrix(0.71,0,0,1,225.693,0)">
                <g transform="matrix(75.281,0,0,75.281,1318.09,1358.34)">
                </g>
                <text x="778.253px" y="1358.34px" style="font-family:'Arial-BoldMT', 'Arial', sans-serif;font-weight:700;font-size:75.281px;fill:white;stroke:rgb(7,159,219);stroke-width:2.31px;stroke-linecap:butt;stroke-miterlimit:2;">Marges basses</text>
            </g>
        </g>
        <g transform="matrix(0.498134,0,0,0.498134,-211.623,1143.37)">
            <rect x="754.542" y="1280.74" width="475.226" height="105.407" style="fill:rgb(7,159,219);"/>
            <g transform="matrix(0.71,0,0,1,225.693,0)">
                <g transform="matrix(75.281,0,0,75.281,1380.79,1358.34)">
                </g>
                <text x="778.253px" y="1358.34px" style="font-family:'Arial-BoldMT', 'Arial', sans-serif;font-weight:700;font-size:75.281px;fill:white;stroke:rgb(7,159,219);stroke-width:2.31px;stroke-linecap:butt;stroke-miterlimit:2;">Marge extérieure</text>
            </g>
        </g>
        <g transform="matrix(0.498134,0,0,0.498134,852.225,1141.37)">
            <rect x="754.542" y="1280.74" width="475.226" height="105.407" style="fill:rgb(7,159,219);"/>
            <g transform="matrix(0.71,0,0,1,225.693,0)">
                <g transform="matrix(75.281,0,0,75.281,1380.79,1358.34)">
                </g>
                <text x="778.253px" y="1358.34px" style="font-family:'Arial-BoldMT', 'Arial', sans-serif;font-weight:700;font-size:75.281px;fill:white;stroke:rgb(7,159,219);stroke-width:2.31px;stroke-linecap:butt;stroke-miterlimit:2;">Marge extérieure</text>
            </g>
        </g>
        <g transform="matrix(0.174245,0,0,2.38043,1346.58,-1414.67)">
            <g transform="matrix(5.73905,-0,-0,0.420092,-7697.43,860.908)">
                <path d="M1514.96,1057.66L1529.03,1038.91L1543.09,1057.66L1514.96,1057.66Z" style="fill:rgb(35,31,32);"/>
                <path d="M1459.29,1172.57L1529.03,1172.57L1529.03,1053.91" style="fill:none;stroke:rgb(35,31,32);stroke-width:6.25px;"/>
            </g>
        </g>
        <g transform="matrix(-0.267592,0,0,2.7862,344.819,-1963.88)">
            <g transform="matrix(-3.73703,0,0,0.358912,1268.64,932.646)">
                <path d="M37.027,1034.88L51.09,1016.13L65.152,1034.88L37.027,1034.88Z" style="fill:rgb(35,31,32);"/>
                <path d="M158.192,1172.57L51.09,1172.57L51.09,1031.13" style="fill:none;stroke:rgb(35,31,32);stroke-width:6.25px;"/>
            </g>
        </g>
        <g transform="matrix(-9.04395e-18,0.193561,-1,1.00304e-16,2151.89,552.995)">
            <g transform="matrix(5.18203e-16,-1,5.16634,-4.67241e-17,421.917,2146.55)">
                <path d="M807.117,122.565L793.055,141.315L778.992,122.565L807.117,122.565Z" style="fill:rgb(35,31,32);"/>
                <path d="M793.055,49.466L793.055,126.315" style="fill:none;stroke:rgb(35,31,32);stroke-width:6.25px;"/>
            </g>
        </g>
        <g transform="matrix(9.11751e-17,0.858301,-1,3.5296e-17,1983.21,-84.6705)">
            <g transform="matrix(4.11231e-17,-1,1.16509,1.06227e-16,838.089,1977.87)">
                <path d="M912.954,126.081L897.486,105.456L882.017,126.081L912.954,126.081Z" style="fill:rgb(35,31,32);"/>
                <path d="M912.954,249.259L897.486,269.884L882.017,249.259L912.954,249.259Z" style="fill:rgb(35,31,32);"/>
                <path d="M897.486,121.956L897.486,253.384" style="fill:none;stroke:rgb(35,31,32);stroke-width:2.29px;stroke-linecap:butt;"/>
            </g>
        </g>
        <g transform="matrix(9.11751e-17,0.858301,-1,3.5296e-17,1772.87,-84.6705)">
            <g transform="matrix(4.11231e-17,-1,1.16509,1.06227e-16,838.089,1767.53)">
                <path d="M702.617,126.081L687.148,105.456L671.679,126.081L702.617,126.081Z" style="fill:rgb(35,31,32);"/>
                <path d="M702.617,249.259L687.148,269.884L671.679,249.259L702.617,249.259Z" style="fill:rgb(35,31,32);"/>
                <path d="M687.148,121.956L687.148,253.384" style="fill:none;stroke:rgb(35,31,32);stroke-width:2.29px;"/>
            </g>
        </g>
        <g transform="matrix(0.619079,-3.83909e-17,-1.85164e-17,1,228.431,71.6613)">
            <g transform="matrix(1.6153,6.20129e-17,2.99096e-17,1,-360.359,563.001)">
                <path d="M838.623,501.914L817.998,517.383L838.623,532.852L838.623,501.914Z" style="fill:rgb(35,31,32);"/>
                <path d="M915.973,501.914L936.598,517.383L915.973,532.852L915.973,501.914Z" style="fill:rgb(35,31,32);"/>
                <path d="M834.498,517.383L920.098,517.383" style="fill:none;stroke:rgb(35,31,32);stroke-width:2.29px;"/>
            </g>
        </g>
        <g transform="matrix(0.619079,-3.83909e-17,-1.85164e-17,1,64.5928,71.6613)">
            <g transform="matrix(1.6153,6.20129e-17,2.99096e-17,1,-95.7109,563.001)">
                <path d="M674.785,501.914L654.16,517.383L674.785,532.852L674.785,501.914Z" style="fill:rgb(35,31,32);"/>
                <path d="M752.134,501.914L772.759,517.383L752.134,532.852L752.134,501.914Z" style="fill:rgb(35,31,32);"/>
                <path d="M670.66,517.383L756.259,517.383" style="fill:none;stroke:rgb(35,31,32);stroke-width:2.29px;"/>
            </g>
        </g>
        <g transform="matrix(9.11751e-17,0.809605,-1,3.32934e-17,1996.15,827.855)">
            <g transform="matrix(4.11231e-17,-1,1.23517,1.12617e-16,-238.626,1990.81)">
                <path d="M925.897,991.812L910.428,971.187L894.96,991.812L925.897,991.812Z" style="fill:rgb(35,31,32);"/>
                <path d="M925.897,1105.66L910.428,1126.29L894.96,1105.66L925.897,1105.66Z" style="fill:rgb(35,31,32);"/>
                <path d="M910.428,987.687L910.428,1109.79" style="fill:none;stroke:rgb(35,31,32);stroke-width:2.29px;"/>
            </g>
        </g>
        <g transform="matrix(9.11751e-17,0.809605,-1,3.32934e-17,1782.31,827.855)">
            <g transform="matrix(4.11231e-17,-1,1.23517,1.12617e-16,-238.626,1776.97)">
                <path d="M712.06,991.812L696.591,971.187L681.122,991.812L712.06,991.812Z" style="fill:rgb(35,31,32);"/>
                <path d="M712.06,1105.66L696.591,1126.29L681.122,1105.66L712.06,1105.66Z" style="fill:rgb(35,31,32);"/>
                <path d="M696.591,987.687L696.591,1109.79" style="fill:none;stroke:rgb(35,31,32);stroke-width:2.29px;"/>
            </g>
        </g>
        <g transform="matrix(8.20555,0,0,5.46962,-7871.68,-5004.02)">
            <path d="M960.955,1080.38L1152.53,1080.38" style="fill:none;stroke:rgb(0,166,80);stroke-width:0.33px;"/>
        </g>
        <g transform="matrix(5.02445e-16,5.16824,-5.46962,2.10947e-16,6569.3,-4166.11)">
            <path d="M960.955,1080.38L1152.53,1080.38" style="fill:none;stroke:rgb(0,166,80);stroke-width:0.43px;"/>
        </g>
        <g transform="matrix(5.02445e-16,5.16824,-5.46962,2.10947e-16,6851.22,-4166.11)">
            <path d="M960.955,1080.38L1152.53,1080.38" style="fill:none;stroke:rgb(0,166,80);stroke-width:0.43px;"/>
        </g>
        <g transform="matrix(8.20555,0,0,5.46962,-7878.67,-4303.43)">
            <path d="M960.955,1080.38L1152.53,1080.38" style="fill:none;stroke:rgb(0,166,80);stroke-width:0.33px;"/>
        </g>
        <g transform="matrix(1.01539,0.281051,-0.266761,0.963763,-304.964,-631.224)">
            <g transform="matrix(0.914763,-0.266761,0.253199,0.963763,604.375,1137.24)">
                <path d="M559.194,82.99L571.755,99.266L552.612,106.768L559.194,82.99Z" style="fill:rgb(35,31,32);"/>
                <path d="M377.233,45.424C377.233,45.424 515.89,83.804 559.073,95.756" style="fill:none;stroke:rgb(35,31,32);stroke-width:2.29px;"/>
            </g>
        </g>
    </g>
</svg>
