<?xml version="1.0" encoding="UTF-8" standalone="no"?>
<svg
   width="896.61896"
   height="1172.41"
   viewBox="0 0 896.61896 1172.41"
   version="1.1"
   xml:space="preserve"
   style="clip-rule:evenodd;fill-rule:evenodd;stroke-linecap:round;stroke-linejoin:round;stroke-miterlimit:1.5"
   id="svg140"
   xmlns="http://www.w3.org/2000/svg"
   xmlns:svg="http://www.w3.org/2000/svg"><defs
   id="defs144" />
    <g
   transform="translate(-445.536,-623.56002)"
   id="g4">
        <rect
   x="446.681"
   y="624.70502"
   width="894.32898"
   height="1170.12"
   style="fill:#e7e8e9;stroke:#231f20;stroke-width:2.29px"
   id="rect2" />
    </g>
    <g
   transform="matrix(0.980957,0,0,0.933702,-434.2353,-532.79722)"
   id="g8">
        <rect
   x="549.633"
   y="732.56799"
   width="680.883"
   height="969.59998"
   style="fill:#ffffff"
   id="rect6" />
    </g>
    <g
   transform="translate(-533.3088,-637.78052)"
   id="g62">
        <g
   transform="matrix(25,0,0,25,664.092,858.456)"
   id="g10">
        </g>
        <text
   x="664.09198"
   y="858.45599"
   style="font-size:25px;font-family:ArialMT, Arial, sans-serif;fill:#231f20"
   id="text22">liquam <tspan
   x="750.883"
   y="858.45599"
   id="tspan12">d</tspan>apibus <tspan
   x="851.60303"
   y="858.45599"
   id="tspan14">i</tspan>psum <tspan
   x="931.43701"
   y="858.45599"
   id="tspan16">v</tspan>itae <tspan
   x="997.39099"
   y="858.45599"
   id="tspan18">s</tspan>em. <tspan
   x="1064.71"
   y="858.45599"
   id="tspan20">U</tspan>t</text>
        <text
   x="664.09198"
   y="896.77301"
   style="font-size:25px;font-family:ArialMT, Arial, sans-serif;fill:#231f20"
   id="text34">eget <tspan
   x="728.112"
   y="896.77301"
   id="tspan24">m</tspan>auris <tspan
   x="818.48798"
   y="896.77301"
   id="tspan26">a</tspan>c <tspan
   x="860.255"
   y="896.77301"
   id="tspan28">n</tspan>unc <tspan
   x="929.83002"
   y="896.77301"
   id="tspan30">l</tspan>uctus <tspan
   x="1010.5"
   y="896.77301"
   id="tspan32">o</tspan>rnare.</text>
        <text
   x="664.09198"
   y="935.091"
   style="font-size:25px;font-family:ArialMT, Arial, sans-serif;fill:#231f20"
   id="text44">Phasellus <tspan
   x="778.84399"
   y="935.091"
   id="tspan36">e</tspan>nim <tspan
   x="839.38397"
   y="935.091"
   id="tspan38">a</tspan>ugue, <tspan
   x="922.20203"
   y="935.091"
   id="tspan40">r</tspan>utrum <tspan
   x="1000.78"
   y="935.091"
   id="tspan42">t</tspan>empus,</text>
        <text
   x="664.09198"
   y="973.409"
   style="font-size:25px;font-family:ArialMT, Arial, sans-serif;fill:#231f20"
   id="text56">blandit <tspan
   x="753.38599"
   y="973.409"
   id="tspan46">i</tspan>n, <tspan
   x="795.414"
   y="973.409"
   id="tspan48">v</tspan>ehicula <tspan
   x="902.763"
   y="973.409"
   id="tspan50">e</tspan>u, <tspan
   x="953.14099"
   y="973.409"
   id="tspan52">n</tspan>eque. <tspan
   x="1045.23"
   y="973.409"
   id="tspan54">S</tspan>ed</text>
        <g
   transform="matrix(25,0,0,25,1086.54,1011.73)"
   id="g58">
        </g>
        <text
   x="664.09198"
   y="1011.73"
   style="font-size:25px;font-family:ArialMT, Arial, sans-serif;fill:#231f20"
   id="text60">consequat nunc. Proin metus. Duis at</text>
    </g>
    <g
   transform="matrix(0.498134,0,0,0.498134,-33.4264,-95.655117)"
   id="g72">
        <g
   transform="matrix(0.71,0,0,1,225.693,0)"
   id="g70">
            <g
   transform="matrix(72.98,0,0,72.98,1257.18,1358.34)"
   id="g64">
            </g>
            <text
   x="778.25299"
   y="1358.34"
   style="font-weight:700;font-size:72.98px;font-family:Arial-BoldMT, Arial, sans-serif;fill:#231f20"
   id="text68">P<tspan
   x="819.30103 872.005"
   y="1358.34 1358.34"
   id="tspan66">AG</tspan>E_WIDTH</text>
        </g>
    </g>
    <g
   transform="matrix(0.498134,0,0,0.498134,-279.1704,180.35688)"
   id="g82">
        <g
   transform="matrix(0.71,0,0,1,225.693,0)"
   id="g80">
            <g
   transform="matrix(72.98,0,0,72.98,1293.74,1358.34)"
   id="g74">
            </g>
            <text
   x="778.25299"
   y="1358.34"
   style="font-weight:700;font-size:72.98px;font-family:Arial-BoldMT, Arial, sans-serif;fill:#231f20"
   id="text78">P<tspan
   x="819.30103 872.005"
   y="1358.34 1358.34"
   id="tspan76">AG</tspan>E_HEIGHT</text>
        </g>
    </g>
    <g
   transform="matrix(0.498134,0,0,0.498134,276.2296,-423.43812)"
   id="g90">
        <g
   transform="matrix(0.71,0,0,1,225.693,0)"
   id="g88">
            <g
   transform="matrix(72.98,0,0,72.98,1260.78,1358.34)"
   id="g84">
            </g>
            <text
   x="778.25299"
   y="1358.34"
   style="font-weight:700;font-size:72.98px;font-family:Arial-BoldMT, Arial, sans-serif;fill:#231f20"
   id="text86">LINE_HEIGHT</text>
        </g>
    </g>
    <g
   transform="matrix(1.40754,0,0,1,-848.6424,-749.63512)"
   id="g100">
        <g
   transform="matrix(0.710458,0,0,1,273.445,144.688)"
   id="g98">
            <path
   d="m 587.438,1194.75 -18.75,14.06 18.75,14.06 z"
   style="fill:#231f20"
   id="path92" />
            <path
   d="m 1217.85,1194.75 18.75,14.06 -18.75,14.06 z"
   style="fill:#231f20"
   id="path94" />
            <path
   d="M 583.688,1208.81 H 1221.6"
   style="fill:none;stroke:#231f20;stroke-width:6.25px"
   id="path96" />
        </g>
    </g>
    <g
   transform="matrix(0,0.070105,-1,0,1988.2136,212.89188)"
   id="g108">
        <g
   transform="matrix(0,-1,14.2643,0,-11665.9,2451.97)"
   id="g106">
            <path
   d="m 1112.54,884.083 -14.07,-18.75 -14.06,18.75 z"
   style="fill:#231f20"
   id="path102" />
            <path
   d="M 1098.47,880.333 V 898.6"
   style="fill:none;stroke:#231f20;stroke-width:6.25px"
   id="path104" />
        </g>
    </g>
    <g
   transform="matrix(0,0.0670398,-1,0,1988.2136,144.51088)"
   id="g116">
        <g
   transform="matrix(0,-1,14.9165,0,-11179.3,2451.97)"
   id="g114">
            <path
   d="m 1112.54,807.938 -14.07,18.75 -14.06,-18.75 z"
   style="fill:#231f20"
   id="path110" />
            <path
   d="m 1098.47,794.876 v 16.812"
   style="fill:none;stroke:#231f20;stroke-width:6.25px"
   id="path112" />
        </g>
    </g>
    <g
   transform="matrix(0,0.14583,-1,0,1988.2136,107.03888)"
   id="g120">
        <path
   d="M 677.474,1353.5 H 1152"
   style="fill:none;stroke:#231f20;stroke-width:8.75px"
   id="path118" />
    </g>
    <g
   transform="matrix(0,1.90783,-6.9132,0,9432.2936,-1141.3031)"
   id="g130">
        <g
   transform="matrix(0,-0.144651,0.524155,0,281.134,1431.47)"
   id="g128">
            <path
   d="M 553.119,774.9 539.057,756.15 524.994,774.9 Z"
   style="fill:#231f20"
   id="path122" />
            <path
   d="m 553.119,1642.72 -14.062,18.75 -14.063,-18.75 z"
   style="fill:#231f20"
   id="path124" />
            <path
   d="m 539.057,771.15 v 875.32"
   style="fill:none;stroke:#231f20;stroke-width:6.25px"
   id="path126" />
        </g>
    </g>
    <g
   transform="matrix(1.489,0,0,1,-1063.9264,-858.64212)"
   id="g134">
        <path
   d="M 960.955,1080.38 H 1152.53"
   style="fill:none;stroke:#231f20;stroke-width:1.81px"
   id="path132" />
    </g>
    <g
   transform="matrix(1.489,0,0,1,-1063.9264,-819.99712)"
   id="g138">
        <path
   d="M 960.955,1080.38 H 1152.53"
   style="fill:none;stroke:#231f20;stroke-width:1.81px"
   id="path136" />
    </g>
</svg>
